<?xml version="1.0" encoding="UTF-8" standalone="no"?>
<!DOCTYPE svg PUBLIC "-//W3C//DTD SVG 1.1//EN"
 "http://www.w3.org/Graphics/SVG/1.1/DTD/svg11.dtd">
<!-- Generated by graphviz version 2.49.0 (20210828.1703)
 -->
<!-- Title: dependency&#45;cruiser output Pages: 1 -->
<svg width="781pt" height="487pt"
 viewBox="0.00 0.00 781.00 487.00" xmlns="http://www.w3.org/2000/svg" xmlns:xlink="http://www.w3.org/1999/xlink">
<g id="graph0" class="graph" transform="scale(1 1) rotate(0) translate(4 483)">
<title>dependency&#45;cruiser output</title>
<polygon fill="white" stroke="transparent" points="-4,4 -4,-483 777,-483 777,4 -4,4"/>
<g id="clust1" class="cluster">
<title>cluster_lib</title>
<path fill="#ffffff" stroke="black" stroke-width="2" d="M233,-197C233,-197 664,-197 664,-197 670,-197 676,-203 676,-209 676,-209 676,-385 676,-385 676,-391 670,-397 664,-397 664,-397 233,-397 233,-397 227,-397 221,-391 221,-385 221,-385 221,-209 221,-209 221,-203 227,-197 233,-197"/>
<text text-anchor="middle" x="448.5" y="-385.8" font-family="Helvetica,sans-Serif" font-weight="bold" font-size="9.00">lib</text>
</g>
<g id="clust2" class="cluster">
<title>cluster_lib/rules</title>
<path fill="#ffffff" stroke="black" stroke-width="2" d="M303,-205C303,-205 656,-205 656,-205 662,-205 668,-211 668,-217 668,-217 668,-359 668,-359 668,-365 662,-371 656,-371 656,-371 303,-371 303,-371 297,-371 291,-365 291,-359 291,-359 291,-217 291,-217 291,-211 297,-205 303,-205"/>
<text text-anchor="middle" x="479.5" y="-359.8" font-family="Helvetica,sans-Serif" font-weight="bold" font-size="9.00">rules</text>
</g>
<g id="clust3" class="cluster">
<title>cluster_node_modules</title>
<path fill="#ffffff" stroke="black" stroke-width="2" d="M696,-149C696,-149 752,-149 752,-149 758,-149 764,-155 764,-161 764,-161 764,-309 764,-309 764,-315 758,-321 752,-321 752,-321 696,-321 696,-321 690,-321 684,-315 684,-309 684,-309 684,-161 684,-161 684,-155 690,-149 696,-149"/>
<text text-anchor="middle" x="724" y="-309.8" font-family="Helvetica,sans-Serif" font-weight="bold" font-size="9.00">node_modules</text>
</g>
<g id="clust4" class="cluster">
<title>cluster_test</title>
<path fill="#ffffff" stroke="black" stroke-width="2" d="M20,-8C20,-8 201,-8 201,-8 207,-8 213,-14 213,-20 213,-20 213,-232 213,-232 213,-238 207,-244 201,-244 201,-244 20,-244 20,-244 14,-244 8,-238 8,-232 8,-232 8,-20 8,-20 8,-14 14,-8 20,-8"/>
<text text-anchor="middle" x="110.5" y="-232.8" font-family="Helvetica,sans-Serif" font-weight="bold" font-size="9.00">test</text>
</g>
<g id="clust5" class="cluster">
<title>cluster_test/lib</title>
<path fill="#ffffff" stroke="black" stroke-width="2" d="M28,-16C28,-16 193,-16 193,-16 199,-16 205,-22 205,-28 205,-28 205,-206 205,-206 205,-212 199,-218 193,-218 193,-218 28,-218 28,-218 22,-218 16,-212 16,-206 16,-206 16,-28 16,-28 16,-22 22,-16 28,-16"/>
<text text-anchor="middle" x="110.5" y="-206.8" font-family="Helvetica,sans-Serif" font-weight="bold" font-size="9.00">lib</text>
</g>
<g id="clust6" class="cluster">
<title>cluster_test/lib/rules</title>
<path fill="#ffffff" stroke="black" stroke-width="2" d="M36,-24C36,-24 185,-24 185,-24 191,-24 197,-30 197,-36 197,-36 197,-154 197,-154 197,-160 191,-166 185,-166 185,-166 36,-166 36,-166 30,-166 24,-160 24,-154 24,-154 24,-36 24,-36 24,-30 30,-24 36,-24"/>
<text text-anchor="middle" x="110.5" y="-154.8" font-family="Helvetica,sans-Serif" font-weight="bold" font-size="9.00">rules</text>
</g>
<!-- fs -->
<g id="node1" class="node">
<title>fs</title>
<path fill="#ffffcc" stroke="grey" d="M277,-479C277,-479 235,-479 235,-479 232,-479 229,-476 229,-473 229,-473 229,-467 229,-467 229,-464 232,-461 235,-461 235,-461 277,-461 277,-461 280,-461 283,-464 283,-467 283,-467 283,-473 283,-473 283,-476 280,-479 277,-479"/>
<text text-anchor="middle" x="256" y="-467.8" font-family="Helvetica,sans-Serif" font-size="9.00" fill="grey">fs</text>
</g>
<!-- lib/index.js -->
<g id="node2" class="node">
<title>lib/index.js</title>
<g id="a_node2"><a xlink:href="https://github.com/sverweij/eslint-plugin-budapestian/blob/master/lib/index.js" xlink:title="index.js">
<path fill="#ffffcc" stroke="black" d="M277,-289C277,-289 235,-289 235,-289 232,-289 229,-286 229,-283 229,-283 229,-277 229,-277 229,-274 232,-271 235,-271 235,-271 277,-271 277,-271 280,-271 283,-274 283,-277 283,-277 283,-283 283,-283 283,-286 280,-289 277,-289"/>
<text text-anchor="middle" x="256" y="-277.8" font-family="Helvetica,sans-Serif" font-size="9.00">index.js</text>
</a>
</g>
</g>
<!-- lib/rules/global&#45;constant&#45;pattern&#45;rule.js -->
<g id="node3" class="node">
<title>lib/rules/global&#45;constant&#45;pattern&#45;rule.js</title>
<g id="a_node3"><a xlink:href="https://github.com/sverweij/eslint-plugin-budapestian/blob/master/lib/rules/global-constant-pattern-rule.js" xlink:title="global&#45;constant&#45;pattern&#45;rule.js">
<path fill="#ffffcc" stroke="black" d="M575,-231C575,-231 451,-231 451,-231 448,-231 445,-228 445,-225 445,-225 445,-219 445,-219 445,-216 448,-213 451,-213 451,-213 575,-213 575,-213 578,-213 581,-216 581,-219 581,-219 581,-225 581,-225 581,-228 578,-231 575,-231"/>
<text text-anchor="middle" x="513" y="-219.8" font-family="Helvetica,sans-Serif" font-size="9.00">global&#45;constant&#45;pattern&#45;rule.js</text>
</a>
</g>
</g>
<!-- lib/index.js&#45;&gt;lib/rules/global&#45;constant&#45;pattern&#45;rule.js -->
<g id="edge1" class="edge">
<title>lib/index.js&#45;&gt;lib/rules/global&#45;constant&#45;pattern&#45;rule.js</title>
<path fill="none" stroke="#000000" stroke-width="2" stroke-opacity="0.200000" d="M247,-270.94C247,-254.62 247,-222 247,-222 247,-222 438.84,-222 438.84,-222"/>
<polygon fill="#000000" fill-opacity="0.200000" stroke="#000000" stroke-width="2" stroke-opacity="0.200000" points="438.84,-224.1 444.84,-222 438.84,-219.9 438.84,-224.1"/>
</g>
<!-- lib/rules/global&#45;variable&#45;pattern&#45;rule.js -->
<g id="node4" class="node">
<title>lib/rules/global&#45;variable&#45;pattern&#45;rule.js</title>
<g id="a_node4"><a xlink:href="https://github.com/sverweij/eslint-plugin-budapestian/blob/master/lib/rules/global-variable-pattern-rule.js" xlink:title="global&#45;variable&#45;pattern&#45;rule.js">
<path fill="#ffffcc" stroke="black" d="M426,-289C426,-289 305,-289 305,-289 302,-289 299,-286 299,-283 299,-283 299,-277 299,-277 299,-274 302,-271 305,-271 305,-271 426,-271 426,-271 429,-271 432,-274 432,-277 432,-277 432,-283 432,-283 432,-286 429,-289 426,-289"/>
<text text-anchor="middle" x="365.5" y="-277.8" font-family="Helvetica,sans-Serif" font-size="9.00">global&#45;variable&#45;pattern&#45;rule.js</text>
</a>
</g>
</g>
<!-- lib/index.js&#45;&gt;lib/rules/global&#45;variable&#45;pattern&#45;rule.js -->
<g id="edge2" class="edge">
<title>lib/index.js&#45;&gt;lib/rules/global&#45;variable&#45;pattern&#45;rule.js</title>
<path fill="none" stroke="#000000" stroke-width="2" stroke-opacity="0.200000" d="M283.07,-283C283.07,-283 292.87,-283 292.87,-283"/>
<polygon fill="#000000" fill-opacity="0.200000" stroke="#000000" stroke-width="2" stroke-opacity="0.200000" points="292.87,-285.1 298.87,-283 292.87,-280.9 292.87,-285.1"/>
</g>
<!-- lib/rules/local&#45;variable&#45;pattern&#45;rule.js -->
<g id="node5" class="node">
<title>lib/rules/local&#45;variable&#45;pattern&#45;rule.js</title>
<g id="a_node5"><a xlink:href="https://github.com/sverweij/eslint-plugin-budapestian/blob/master/lib/rules/local-variable-pattern-rule.js" xlink:title="local&#45;variable&#45;pattern&#45;rule.js">
<path fill="#ffffcc" stroke="black" d="M423.5,-259C423.5,-259 307.5,-259 307.5,-259 304.5,-259 301.5,-256 301.5,-253 301.5,-253 301.5,-247 301.5,-247 301.5,-244 304.5,-241 307.5,-241 307.5,-241 423.5,-241 423.5,-241 426.5,-241 429.5,-244 429.5,-247 429.5,-247 429.5,-253 429.5,-253 429.5,-256 426.5,-259 423.5,-259"/>
<text text-anchor="middle" x="365.5" y="-247.8" font-family="Helvetica,sans-Serif" font-size="9.00">local&#45;variable&#45;pattern&#45;rule.js</text>
</a>
</g>
</g>
<!-- lib/index.js&#45;&gt;lib/rules/local&#45;variable&#45;pattern&#45;rule.js -->
<g id="edge3" class="edge">
<title>lib/index.js&#45;&gt;lib/rules/local&#45;variable&#45;pattern&#45;rule.js</title>
<path fill="none" stroke="#000000" stroke-width="2" stroke-opacity="0.200000" d="M265,-270.84C265,-262.01 265,-250 265,-250 265,-250 295.28,-250 295.28,-250"/>
<polygon fill="#000000" fill-opacity="0.200000" stroke="#000000" stroke-width="2" stroke-opacity="0.200000" points="295.28,-252.1 301.28,-250 295.28,-247.9 295.28,-252.1"/>
</g>
<!-- lib/rules/parameter&#45;pattern&#45;rule.js -->
<g id="node6" class="node">
<title>lib/rules/parameter&#45;pattern&#45;rule.js</title>
<g id="a_node6"><a xlink:href="https://github.com/sverweij/eslint-plugin-budapestian/blob/master/lib/rules/parameter-pattern-rule.js" xlink:title="parameter&#45;pattern&#45;rule.js">
<path fill="#ffffcc" stroke="black" d="M417.5,-319C417.5,-319 313.5,-319 313.5,-319 310.5,-319 307.5,-316 307.5,-313 307.5,-313 307.5,-307 307.5,-307 307.5,-304 310.5,-301 313.5,-301 313.5,-301 417.5,-301 417.5,-301 420.5,-301 423.5,-304 423.5,-307 423.5,-307 423.5,-313 423.5,-313 423.5,-316 420.5,-319 417.5,-319"/>
<text text-anchor="middle" x="365.5" y="-307.8" font-family="Helvetica,sans-Serif" font-size="9.00">parameter&#45;pattern&#45;rule.js</text>
</a>
</g>
</g>
<!-- lib/index.js&#45;&gt;lib/rules/parameter&#45;pattern&#45;rule.js -->
<g id="edge4" class="edge">
<title>lib/index.js&#45;&gt;lib/rules/parameter&#45;pattern&#45;rule.js</title>
<path fill="none" stroke="#000000" stroke-width="2" stroke-opacity="0.200000" d="M256,-289.14C256,-296.97 256,-307 256,-307 256,-307 301.22,-307 301.22,-307"/>
<polygon fill="#000000" fill-opacity="0.200000" stroke="#000000" stroke-width="2" stroke-opacity="0.200000" points="301.22,-309.1 307.22,-307 301.22,-304.9 301.22,-309.1"/>
</g>
<!-- lib/rules/ast&#45;utl.js -->
<g id="node7" class="node">
<title>lib/rules/ast&#45;utl.js</title>
<g id="a_node7"><a xlink:href="https://github.com/sverweij/eslint-plugin-budapestian/blob/master/lib/rules/ast-utl.js" xlink:title="ast&#45;utl.js">
<path fill="#ffffcc" stroke="black" d="M648,-315C648,-315 606,-315 606,-315 603,-315 600,-312 600,-309 600,-309 600,-303 600,-303 600,-300 603,-297 606,-297 606,-297 648,-297 648,-297 651,-297 654,-300 654,-303 654,-303 654,-309 654,-309 654,-312 651,-315 648,-315"/>
<text text-anchor="middle" x="627" y="-303.8" font-family="Helvetica,sans-Serif" font-size="9.00">ast&#45;utl.js</text>
</a>
</g>
</g>
<!-- lib/rules/global&#45;constant&#45;pattern&#45;rule.js&#45;&gt;lib/rules/ast&#45;utl.js -->
<g id="edge6" class="edge">
<title>lib/rules/global&#45;constant&#45;pattern&#45;rule.js&#45;&gt;lib/rules/ast&#45;utl.js</title>
<path fill="none" stroke="#000000" stroke-width="2" stroke-opacity="0.200000" d="M576,-231.12C576,-253.11 576,-307.22 576,-307.22 576,-307.22 593.71,-307.22 593.71,-307.22"/>
<polygon fill="#000000" fill-opacity="0.200000" stroke="#000000" stroke-width="2" stroke-opacity="0.200000" points="593.71,-309.32 599.71,-307.22 593.71,-305.12 593.71,-309.32"/>
</g>
<!-- node_modules/lodash.get -->
<g id="node8" class="node">
<title>node_modules/lodash.get</title>
<g id="a_node8"><a xlink:href="https://github.com/sverweij/eslint-plugin-budapestian/blob/master/node_modules/lodash.get" xlink:title="lodash.get">
<polygon fill="#c40b0a" fill-opacity="0.101961" stroke="black" points="753,-265 697,-265 695,-263 695,-247 751,-247 753,-249 753,-265"/>
<polyline fill="none" stroke="black" points="751,-263 695,-263 "/>
<polyline fill="none" stroke="black" points="751,-263 751,-247 "/>
<polyline fill="none" stroke="black" points="751,-263 753,-265 "/>
<text text-anchor="middle" x="724" y="-253.8" font-family="Helvetica,sans-Serif" font-size="9.00" fill="#c40b0a">lodash.get</text>
</a>
</g>
</g>
<!-- lib/rules/global&#45;constant&#45;pattern&#45;rule.js&#45;&gt;node_modules/lodash.get -->
<g id="edge9" class="edge">
<title>lib/rules/global&#45;constant&#45;pattern&#45;rule.js&#45;&gt;node_modules/lodash.get</title>
<path fill="none" stroke="#000000" stroke-opacity="0.200000" d="M580,-231.21C580,-238.8 580,-248.33 580,-248.33 580,-248.33 688.86,-248.33 688.86,-248.33"/>
<polygon fill="#000000" fill-opacity="0.200000" stroke="#000000" stroke-opacity="0.200000" points="688.86,-250.43 694.86,-248.33 688.86,-246.23 688.86,-250.43"/>
</g>
<!-- lib/rules/pattern&#45;utl.js -->
<g id="node9" class="node">
<title>lib/rules/pattern&#45;utl.js</title>
<g id="a_node9"><a xlink:href="https://github.com/sverweij/eslint-plugin-budapestian/blob/master/lib/rules/pattern-utl.js" xlink:title="pattern&#45;utl.js">
<path fill="#ffffcc" stroke="black" d="M654,-285C654,-285 600,-285 600,-285 597,-285 594,-282 594,-279 594,-279 594,-273 594,-273 594,-270 597,-267 600,-267 600,-267 654,-267 654,-267 657,-267 660,-270 660,-273 660,-273 660,-279 660,-279 660,-282 657,-285 654,-285"/>
<text text-anchor="middle" x="627" y="-273.8" font-family="Helvetica,sans-Serif" font-size="9.00">pattern&#45;utl.js</text>
</a>
</g>
</g>
<!-- lib/rules/global&#45;constant&#45;pattern&#45;rule.js&#45;&gt;lib/rules/pattern&#45;utl.js -->
<g id="edge7" class="edge">
<title>lib/rules/global&#45;constant&#45;pattern&#45;rule.js&#45;&gt;lib/rules/pattern&#45;utl.js</title>
<path fill="none" stroke="#000000" stroke-width="2" stroke-opacity="0.200000" d="M578,-231.02C578,-245.86 578,-273.8 578,-273.8 578,-273.8 587.77,-273.8 587.77,-273.8"/>
<polygon fill="#000000" fill-opacity="0.200000" stroke="#000000" stroke-width="2" stroke-opacity="0.200000" points="587.77,-275.9 593.77,-273.8 587.77,-271.7 587.77,-275.9"/>
</g>
<!-- node_modules/decamelize -->
<g id="node10" class="node">
<title>node_modules/decamelize</title>
<g id="a_node10"><a xlink:href="https://github.com/sverweij/eslint-plugin-budapestian/blob/master/node_modules/decamelize" xlink:title="decamelize">
<polygon fill="#c40b0a" fill-opacity="0.101961" stroke="black" points="755,-205 695,-205 693,-203 693,-187 753,-187 755,-189 755,-205"/>
<polyline fill="none" stroke="black" points="753,-203 693,-203 "/>
<polyline fill="none" stroke="black" points="753,-203 753,-187 "/>
<polyline fill="none" stroke="black" points="753,-203 755,-205 "/>
<text text-anchor="middle" x="724" y="-193.8" font-family="Helvetica,sans-Serif" font-size="9.00" fill="#c40b0a">decamelize</text>
</a>
</g>
</g>
<!-- lib/rules/global&#45;constant&#45;pattern&#45;rule.js&#45;&gt;node_modules/decamelize -->
<g id="edge8" class="edge">
<title>lib/rules/global&#45;constant&#45;pattern&#45;rule.js&#45;&gt;node_modules/decamelize</title>
<path fill="none" stroke="#000000" stroke-opacity="0.200000" d="M536,-212.98C536,-206.35 536,-198.5 536,-198.5 536,-198.5 686.96,-198.5 686.96,-198.5"/>
<polygon fill="#000000" fill-opacity="0.200000" stroke="#000000" stroke-opacity="0.200000" points="686.96,-200.6 692.96,-198.5 686.96,-196.4 686.96,-200.6"/>
</g>
<!-- lib/rules/global&#45;variable&#45;pattern&#45;rule.js&#45;&gt;lib/rules/ast&#45;utl.js -->
<g id="edge10" class="edge">
<title>lib/rules/global&#45;variable&#45;pattern&#45;rule.js&#45;&gt;lib/rules/ast&#45;utl.js</title>
<path fill="none" stroke="#000000" stroke-width="2" stroke-opacity="0.200000" d="M432.22,-280C436.42,-280 439,-280 439,-280 439,-280 439,-311.89 439,-311.89 439,-311.89 593.66,-311.89 593.66,-311.89"/>
<polygon fill="#000000" fill-opacity="0.200000" stroke="#000000" stroke-width="2" stroke-opacity="0.200000" points="593.66,-313.99 599.66,-311.89 593.66,-309.79 593.66,-313.99"/>
</g>
<!-- lib/rules/global&#45;variable&#45;pattern&#45;rule.js&#45;&gt;node_modules/lodash.get -->
<g id="edge13" class="edge">
<title>lib/rules/global&#45;variable&#45;pattern&#45;rule.js&#45;&gt;node_modules/lodash.get</title>
<path fill="none" stroke="#000000" stroke-opacity="0.200000" d="M432.21,-275.5C434.61,-275.5 436,-275.5 436,-275.5 436,-275.5 436,-251 436,-251 436,-251 688.8,-251 688.8,-251"/>
<polygon fill="#000000" fill-opacity="0.200000" stroke="#000000" stroke-opacity="0.200000" points="688.8,-253.1 694.8,-251 688.8,-248.9 688.8,-253.1"/>
</g>
<!-- lib/rules/global&#45;variable&#45;pattern&#45;rule.js&#45;&gt;lib/rules/pattern&#45;utl.js -->
<g id="edge11" class="edge">
<title>lib/rules/global&#45;variable&#45;pattern&#45;rule.js&#45;&gt;lib/rules/pattern&#45;utl.js</title>
<path fill="none" stroke="#000000" stroke-width="2" stroke-opacity="0.200000" d="M428,-289.17C428,-295.42 428,-302.56 428,-302.56 428,-302.56 574,-302.56 574,-302.56 574,-302.56 574,-279.4 574,-279.4 574,-279.4 587.74,-279.4 587.74,-279.4"/>
<polygon fill="#000000" fill-opacity="0.200000" stroke="#000000" stroke-width="2" stroke-opacity="0.200000" points="587.74,-281.5 593.74,-279.4 587.74,-277.3 587.74,-281.5"/>
</g>
<!-- lib/rules/prefixed&#45;pascalcase&#45;utl.js -->
<g id="node11" class="node">
<title>lib/rules/prefixed&#45;pascalcase&#45;utl.js</title>
<g id="a_node11"><a xlink:href="https://github.com/sverweij/eslint-plugin-budapestian/blob/master/lib/rules/prefixed-pascalcase-utl.js" xlink:title="prefixed&#45;pascalcase&#45;utl.js">
<path fill="#ffffcc" stroke="black" d="M566,-289C566,-289 460,-289 460,-289 457,-289 454,-286 454,-283 454,-283 454,-277 454,-277 454,-274 457,-271 460,-271 460,-271 566,-271 566,-271 569,-271 572,-274 572,-277 572,-277 572,-283 572,-283 572,-286 569,-289 566,-289"/>
<text text-anchor="middle" x="513" y="-277.8" font-family="Helvetica,sans-Serif" font-size="9.00">prefixed&#45;pascalcase&#45;utl.js</text>
</a>
</g>
</g>
<!-- lib/rules/global&#45;variable&#45;pattern&#45;rule.js&#45;&gt;lib/rules/prefixed&#45;pascalcase&#45;utl.js -->
<g id="edge12" class="edge">
<title>lib/rules/global&#45;variable&#45;pattern&#45;rule.js&#45;&gt;lib/rules/prefixed&#45;pascalcase&#45;utl.js</title>
<path fill="none" stroke="#000000" stroke-width="2" stroke-opacity="0.200000" d="M432.34,-284.5C432.34,-284.5 447.83,-284.5 447.83,-284.5"/>
<polygon fill="#000000" fill-opacity="0.200000" stroke="#000000" stroke-width="2" stroke-opacity="0.200000" points="447.83,-286.6 453.83,-284.5 447.83,-282.4 447.83,-286.6"/>
</g>
<!-- lib/rules/local&#45;variable&#45;pattern&#45;rule.js&#45;&gt;lib/rules/ast&#45;utl.js -->
<g id="edge14" class="edge">
<title>lib/rules/local&#45;variable&#45;pattern&#45;rule.js&#45;&gt;lib/rules/ast&#45;utl.js</title>
<path fill="none" stroke="#000000" stroke-width="2" stroke-opacity="0.200000" d="M429.71,-256.33C437.07,-256.33 442,-256.33 442,-256.33 442,-256.33 442,-310.33 442,-310.33 442,-310.33 593.7,-310.33 593.7,-310.33"/>
<polygon fill="#000000" fill-opacity="0.200000" stroke="#000000" stroke-width="2" stroke-opacity="0.200000" points="593.7,-312.43 599.7,-310.33 593.7,-308.23 593.7,-312.43"/>
</g>
<!-- lib/rules/local&#45;variable&#45;pattern&#45;rule.js&#45;&gt;node_modules/lodash.get -->
<g id="edge17" class="edge">
<title>lib/rules/local&#45;variable&#45;pattern&#45;rule.js&#45;&gt;node_modules/lodash.get</title>
<path fill="none" stroke="#000000" stroke-opacity="0.200000" d="M429.59,-249.67C429.59,-249.67 688.76,-249.67 688.76,-249.67"/>
<polygon fill="#000000" fill-opacity="0.200000" stroke="#000000" stroke-opacity="0.200000" points="688.76,-251.77 694.76,-249.67 688.76,-247.57 688.76,-251.77"/>
</g>
<!-- lib/rules/local&#45;variable&#45;pattern&#45;rule.js&#45;&gt;lib/rules/pattern&#45;utl.js -->
<g id="edge15" class="edge">
<title>lib/rules/local&#45;variable&#45;pattern&#45;rule.js&#45;&gt;lib/rules/pattern&#45;utl.js</title>
<path fill="none" stroke="#000000" stroke-width="2" stroke-opacity="0.200000" d="M429.68,-252.33C503.9,-252.33 616,-252.33 616,-252.33 616,-252.33 616,-260.92 616,-260.92"/>
<polygon fill="#000000" fill-opacity="0.200000" stroke="#000000" stroke-width="2" stroke-opacity="0.200000" points="613.9,-260.92 616,-266.92 618.1,-260.92 613.9,-260.92"/>
</g>
<!-- lib/rules/local&#45;variable&#45;pattern&#45;rule.js&#45;&gt;lib/rules/prefixed&#45;pascalcase&#45;utl.js -->
<g id="edge16" class="edge">
<title>lib/rules/local&#45;variable&#45;pattern&#45;rule.js&#45;&gt;lib/rules/prefixed&#45;pascalcase&#45;utl.js</title>
<path fill="none" stroke="#000000" stroke-width="2" stroke-opacity="0.200000" d="M429.75,-255C461.88,-255 494,-255 494,-255 494,-255 494,-264.97 494,-264.97"/>
<polygon fill="#000000" fill-opacity="0.200000" stroke="#000000" stroke-width="2" stroke-opacity="0.200000" points="491.9,-264.97 494,-270.97 496.1,-264.97 491.9,-264.97"/>
</g>
<!-- lib/rules/parameter&#45;pattern&#45;rule.js&#45;&gt;lib/rules/ast&#45;utl.js -->
<g id="edge18" class="edge">
<title>lib/rules/parameter&#45;pattern&#45;rule.js&#45;&gt;lib/rules/ast&#45;utl.js</title>
<path fill="none" stroke="#000000" stroke-width="2" stroke-opacity="0.200000" d="M423.54,-313.44C423.54,-313.44 593.9,-313.44 593.9,-313.44"/>
<polygon fill="#000000" fill-opacity="0.200000" stroke="#000000" stroke-width="2" stroke-opacity="0.200000" points="593.9,-315.54 599.9,-313.44 593.9,-311.34 593.9,-315.54"/>
</g>
<!-- lib/rules/parameter&#45;pattern&#45;rule.js&#45;&gt;node_modules/lodash.get -->
<g id="edge21" class="edge">
<title>lib/rules/parameter&#45;pattern&#45;rule.js&#45;&gt;node_modules/lodash.get</title>
<path fill="none" stroke="#000000" stroke-opacity="0.200000" d="M366,-319.2C366,-344.57 366,-413.67 366,-413.67 366,-413.67 773,-413.67 773,-413.67 773,-413.67 773,-256 773,-256 773,-256 759.07,-256 759.07,-256"/>
<polygon fill="#000000" fill-opacity="0.200000" stroke="#000000" stroke-opacity="0.200000" points="759.07,-253.9 753.07,-256 759.07,-258.1 759.07,-253.9"/>
</g>
<!-- lib/rules/parameter&#45;pattern&#45;rule.js&#45;&gt;lib/rules/pattern&#45;utl.js -->
<g id="edge19" class="edge">
<title>lib/rules/parameter&#45;pattern&#45;rule.js&#45;&gt;lib/rules/pattern&#45;utl.js</title>
<path fill="none" stroke="#000000" stroke-width="2" stroke-opacity="0.200000" d="M423.67,-305.67C489.59,-305.67 588,-305.67 588,-305.67 588,-305.67 588,-282.2 588,-282.2 588,-282.2 588.58,-282.2 588.58,-282.2"/>
<polygon fill="#000000" fill-opacity="0.200000" stroke="#000000" stroke-width="2" stroke-opacity="0.200000" points="587.75,-284.3 593.75,-282.2 587.75,-280.1 587.75,-284.3"/>
</g>
<!-- lib/rules/parameter&#45;pattern&#45;rule.js&#45;&gt;lib/rules/prefixed&#45;pascalcase&#45;utl.js -->
<g id="edge20" class="edge">
<title>lib/rules/parameter&#45;pattern&#45;rule.js&#45;&gt;lib/rules/prefixed&#45;pascalcase&#45;utl.js</title>
<path fill="none" stroke="#000000" stroke-width="2" stroke-opacity="0.200000" d="M423.73,-304.11C457.73,-304.11 494,-304.11 494,-304.11 494,-304.11 494,-295.25 494,-295.25"/>
<polygon fill="#000000" fill-opacity="0.200000" stroke="#000000" stroke-width="2" stroke-opacity="0.200000" points="496.1,-295.25 494,-289.25 491.9,-295.25 496.1,-295.25"/>
</g>
<!-- lib/rules/ast&#45;utl.js&#45;&gt;node_modules/lodash.get -->
<g id="edge5" class="edge">
<title>lib/rules/ast&#45;utl.js&#45;&gt;node_modules/lodash.get</title>
<path fill="none" stroke="#000000" stroke-opacity="0.200000" d="M654.05,-306C665.83,-306 677,-306 677,-306 677,-306 677,-257.67 677,-257.67 677,-257.67 688.77,-257.67 688.77,-257.67"/>
<polygon fill="#000000" fill-opacity="0.200000" stroke="#000000" stroke-opacity="0.200000" points="688.77,-259.77 694.77,-257.67 688.77,-255.57 688.77,-259.77"/>
</g>
<!-- node_modules/camelcase -->
<g id="node12" class="node">
<title>node_modules/camelcase</title>
<g id="a_node12"><a xlink:href="https://github.com/sverweij/eslint-plugin-budapestian/blob/master/node_modules/camelcase" xlink:title="camelcase">
<polygon fill="#c40b0a" fill-opacity="0.101961" stroke="black" points="754,-235 696,-235 694,-233 694,-217 752,-217 754,-219 754,-235"/>
<polyline fill="none" stroke="black" points="752,-233 694,-233 "/>
<polyline fill="none" stroke="black" points="752,-233 752,-217 "/>
<polyline fill="none" stroke="black" points="752,-233 754,-235 "/>
<text text-anchor="middle" x="724" y="-223.8" font-family="Helvetica,sans-Serif" font-size="9.00" fill="#c40b0a">camelcase</text>
</a>
</g>
</g>
<!-- lib/rules/pattern&#45;utl.js&#45;&gt;node_modules/camelcase -->
<g id="edge22" class="edge">
<title>lib/rules/pattern&#45;utl.js&#45;&gt;node_modules/camelcase</title>
<path fill="none" stroke="#000000" stroke-opacity="0.200000" d="M638,-266.94C638,-252.04 638,-224 638,-224 638,-224 687.92,-224 687.92,-224"/>
<polygon fill="#000000" fill-opacity="0.200000" stroke="#000000" stroke-opacity="0.200000" points="687.92,-226.1 693.92,-224 687.92,-221.9 687.92,-226.1"/>
</g>
<!-- lib/rules/prefixed&#45;pascalcase&#45;utl.js&#45;&gt;lib/rules/ast&#45;utl.js -->
<g id="edge23" class="edge">
<title>lib/rules/prefixed&#45;pascalcase&#45;utl.js&#45;&gt;lib/rules/ast&#45;utl.js</title>
<path fill="none" stroke="#000000" stroke-width="2" stroke-opacity="0.200000" d="M533,-289.11C533,-297.54 533,-308.78 533,-308.78 533,-308.78 593.81,-308.78 593.81,-308.78"/>
<polygon fill="#000000" fill-opacity="0.200000" stroke="#000000" stroke-width="2" stroke-opacity="0.200000" points="593.81,-310.88 599.81,-308.78 593.81,-306.68 593.81,-310.88"/>
</g>
<!-- lib/rules/prefixed&#45;pascalcase&#45;utl.js&#45;&gt;node_modules/lodash.get -->
<g id="edge25" class="edge">
<title>lib/rules/prefixed&#45;pascalcase&#45;utl.js&#45;&gt;node_modules/lodash.get</title>
<path fill="none" stroke="#000000" stroke-opacity="0.200000" d="M533,-270.79C533,-263.2 533,-253.67 533,-253.67 533,-253.67 688.99,-253.67 688.99,-253.67"/>
<polygon fill="#000000" fill-opacity="0.200000" stroke="#000000" stroke-opacity="0.200000" points="688.99,-255.77 694.99,-253.67 688.99,-251.57 688.99,-255.77"/>
</g>
<!-- lib/rules/prefixed&#45;pascalcase&#45;utl.js&#45;&gt;lib/rules/pattern&#45;utl.js -->
<g id="edge24" class="edge">
<title>lib/rules/prefixed&#45;pascalcase&#45;utl.js&#45;&gt;lib/rules/pattern&#45;utl.js</title>
<path fill="none" stroke="#000000" stroke-width="2" stroke-opacity="0.200000" d="M572,-276.6C572,-276.6 587.84,-276.6 587.84,-276.6"/>
<polygon fill="#000000" fill-opacity="0.200000" stroke="#000000" stroke-width="2" stroke-opacity="0.200000" points="587.84,-278.7 593.84,-276.6 587.84,-274.5 587.84,-278.7"/>
</g>
<!-- node_modules/chai -->
<g id="node13" class="node">
<title>node_modules/chai</title>
<g id="a_node13"><a xlink:href="https://github.com/sverweij/eslint-plugin-budapestian/blob/master/node_modules/chai" xlink:title="chai">
<polygon fill="#c40b0a" fill-opacity="0.101961" stroke="black" points="751,-295 699,-295 697,-293 697,-277 749,-277 751,-279 751,-295"/>
<polyline fill="none" stroke="black" points="749,-293 697,-293 "/>
<polyline fill="none" stroke="black" points="749,-293 749,-277 "/>
<polyline fill="none" stroke="black" points="749,-293 751,-295 "/>
<text text-anchor="middle" x="724" y="-283.8" font-family="Helvetica,sans-Serif" font-size="9.00" fill="#c40b0a">chai</text>
</a>
</g>
</g>
<!-- node_modules/eslint -->
<g id="node14" class="node">
<title>node_modules/eslint</title>
<g id="a_node14"><a xlink:href="https://github.com/sverweij/eslint-plugin-budapestian/blob/master/node_modules/eslint" xlink:title="eslint">
<polygon fill="#c40b0a" fill-opacity="0.101961" stroke="black" points="751,-175 699,-175 697,-173 697,-157 749,-157 751,-159 751,-175"/>
<polyline fill="none" stroke="black" points="749,-173 697,-173 "/>
<polyline fill="none" stroke="black" points="749,-173 749,-157 "/>
<polyline fill="none" stroke="black" points="749,-173 751,-175 "/>
<text text-anchor="middle" x="724" y="-163.8" font-family="Helvetica,sans-Serif" font-size="9.00" fill="#c40b0a">eslint</text>
</a>
</g>
</g>
<!-- path -->
<g id="node15" class="node">
<title>path</title>
<path fill="#ffffcc" stroke="grey" d="M277,-189C277,-189 235,-189 235,-189 232,-189 229,-186 229,-183 229,-183 229,-177 229,-177 229,-174 232,-171 235,-171 235,-171 277,-171 277,-171 280,-171 283,-174 283,-177 283,-177 283,-183 283,-183 283,-186 280,-189 277,-189"/>
<text text-anchor="middle" x="256" y="-177.8" font-family="Helvetica,sans-Serif" font-size="9.00" fill="grey">path</text>
</g>
<!-- test/lib/index.spec.js -->
<g id="node16" class="node">
<title>test/lib/index.spec.js</title>
<g id="a_node16"><a xlink:href="https://github.com/sverweij/eslint-plugin-budapestian/blob/master/test/lib/index.spec.js" xlink:title="index.spec.js">
<path fill="#ffffcc" stroke="black" d="M139,-192C139,-192 82,-192 82,-192 79,-192 76,-189 76,-186 76,-186 76,-180 76,-180 76,-177 79,-174 82,-174 82,-174 139,-174 139,-174 142,-174 145,-177 145,-180 145,-180 145,-186 145,-186 145,-189 142,-192 139,-192"/>
<text text-anchor="middle" x="110.5" y="-180.8" font-family="Helvetica,sans-Serif" font-size="9.00">index.spec.js</text>
</a>
</g>
</g>
<!-- test/lib/index.spec.js&#45;&gt;fs -->
<g id="edge28" class="edge">
<title>test/lib/index.spec.js&#45;&gt;fs</title>
<path fill="none" stroke="#000000" stroke-dasharray="5,2" stroke-opacity="0.200000" d="M94,-192.22C94,-241.35 94,-470 94,-470 94,-470 222.88,-470 222.88,-470"/>
<polygon fill="#000000" fill-opacity="0.200000" stroke="#000000" stroke-opacity="0.200000" points="222.88,-472.1 228.88,-470 222.88,-467.9 222.88,-472.1"/>
</g>
<!-- test/lib/index.spec.js&#45;&gt;lib/index.js -->
<g id="edge26" class="edge">
<title>test/lib/index.spec.js&#45;&gt;lib/index.js</title>
<path fill="none" stroke="#000000" stroke-width="2" stroke-opacity="0.200000" d="M128,-192.3C128,-216.58 128,-280 128,-280 128,-280 222.85,-280 222.85,-280"/>
<polygon fill="#000000" fill-opacity="0.200000" stroke="#000000" stroke-width="2" stroke-opacity="0.200000" points="222.85,-282.1 228.85,-280 222.85,-277.9 222.85,-282.1"/>
</g>
<!-- test/lib/index.spec.js&#45;&gt;node_modules/chai -->
<g id="edge27" class="edge">
<title>test/lib/index.spec.js&#45;&gt;node_modules/chai</title>
<path fill="none" stroke="#000000" stroke-opacity="0.200000" d="M111,-192.09C111,-229.08 111,-366.33 111,-366.33 111,-366.33 724,-366.33 724,-366.33 724,-366.33 724,-301.22 724,-301.22"/>
<polygon fill="#000000" fill-opacity="0.200000" stroke="#000000" stroke-opacity="0.200000" points="726.1,-301.22 724,-295.22 721.9,-301.22 726.1,-301.22"/>
</g>
<!-- test/lib/index.spec.js&#45;&gt;path -->
<g id="edge29" class="edge">
<title>test/lib/index.spec.js&#45;&gt;path</title>
<path fill="none" stroke="#000000" stroke-dasharray="5,2" stroke-opacity="0.200000" d="M145.35,-181.5C145.35,-181.5 222.71,-181.5 222.71,-181.5"/>
<polygon fill="#000000" fill-opacity="0.200000" stroke="#000000" stroke-opacity="0.200000" points="222.71,-183.6 228.71,-181.5 222.71,-179.4 222.71,-183.6"/>
</g>
<!-- test/lib/rules/global&#45;constant&#45;pattern&#45;rule.spec.js -->
<g id="node17" class="node">
<title>test/lib/rules/global&#45;constant&#45;pattern&#45;rule.spec.js</title>
<g id="a_node17"><a xlink:href="https://github.com/sverweij/eslint-plugin-budapestian/blob/master/test/lib/rules/global-constant-pattern-rule.spec.js" xlink:title="global&#45;constant&#45;pattern&#45;rule.spec.js">
<path fill="#ffffcc" stroke="black" d="M183,-50C183,-50 38,-50 38,-50 35,-50 32,-47 32,-44 32,-44 32,-38 32,-38 32,-35 35,-32 38,-32 38,-32 183,-32 183,-32 186,-32 189,-35 189,-38 189,-38 189,-44 189,-44 189,-47 186,-50 183,-50"/>
<text text-anchor="middle" x="110.5" y="-38.8" font-family="Helvetica,sans-Serif" font-size="9.00">global&#45;constant&#45;pattern&#45;rule.spec.js</text>
</a>
</g>
</g>
<!-- test/lib/rules/global&#45;constant&#45;pattern&#45;rule.spec.js&#45;&gt;lib/rules/global&#45;constant&#45;pattern&#45;rule.js -->
<g id="edge30" class="edge">
<title>test/lib/rules/global&#45;constant&#45;pattern&#45;rule.spec.js&#45;&gt;lib/rules/global&#45;constant&#45;pattern&#45;rule.js</title>
<path fill="none" stroke="#000000" stroke-width="2" stroke-opacity="0.200000" d="M189.34,-44C300.79,-44 491,-44 491,-44 491,-44 491,-206.93 491,-206.93"/>
<polygon fill="#000000" fill-opacity="0.200000" stroke="#000000" stroke-width="2" stroke-opacity="0.200000" points="488.9,-206.93 491,-212.93 493.1,-206.93 488.9,-206.93"/>
</g>
<!-- test/lib/rules/global&#45;constant&#45;pattern&#45;rule.spec.js&#45;&gt;node_modules/eslint -->
<g id="edge31" class="edge">
<title>test/lib/rules/global&#45;constant&#45;pattern&#45;rule.spec.js&#45;&gt;node_modules/eslint</title>
<path fill="none" stroke="#000000" stroke-opacity="0.200000" d="M189.02,-38C356.37,-38 733,-38 733,-38 733,-38 733,-150.79 733,-150.79"/>
<polygon fill="#000000" fill-opacity="0.200000" stroke="#000000" stroke-opacity="0.200000" points="730.9,-150.79 733,-156.79 735.1,-150.79 730.9,-150.79"/>
</g>
<!-- test/lib/rules/global&#45;variable&#45;pattern&#45;rule.spec.js -->
<g id="node18" class="node">
<title>test/lib/rules/global&#45;variable&#45;pattern&#45;rule.spec.js</title>
<g id="a_node18"><a xlink:href="https://github.com/sverweij/eslint-plugin-budapestian/blob/master/test/lib/rules/global-variable-pattern-rule.spec.js" xlink:title="global&#45;variable&#45;pattern&#45;rule.spec.js">
<path fill="#ffffcc" stroke="black" d="M182,-110C182,-110 39,-110 39,-110 36,-110 33,-107 33,-104 33,-104 33,-98 33,-98 33,-95 36,-92 39,-92 39,-92 182,-92 182,-92 185,-92 188,-95 188,-98 188,-98 188,-104 188,-104 188,-107 185,-110 182,-110"/>
<text text-anchor="middle" x="110.5" y="-98.8" font-family="Helvetica,sans-Serif" font-size="9.00">global&#45;variable&#45;pattern&#45;rule.spec.js</text>
</a>
</g>
</g>
<!-- test/lib/rules/global&#45;variable&#45;pattern&#45;rule.spec.js&#45;&gt;lib/rules/global&#45;variable&#45;pattern&#45;rule.js -->
<g id="edge32" class="edge">
<title>test/lib/rules/global&#45;variable&#45;pattern&#45;rule.spec.js&#45;&gt;lib/rules/global&#45;variable&#45;pattern&#45;rule.js</title>
<path fill="none" stroke="#000000" stroke-width="2" stroke-opacity="0.200000" d="M188.1,-101C237.02,-101 291,-101 291,-101 291,-101 291,-277 291,-277 291,-277 292.97,-277 292.97,-277"/>
<polygon fill="#000000" fill-opacity="0.200000" stroke="#000000" stroke-width="2" stroke-opacity="0.200000" points="292.97,-279.1 298.97,-277 292.97,-274.9 292.97,-279.1"/>
</g>
<!-- test/lib/rules/global&#45;variable&#45;pattern&#45;rule.spec.js&#45;&gt;node_modules/eslint -->
<g id="edge33" class="edge">
<title>test/lib/rules/global&#45;variable&#45;pattern&#45;rule.spec.js&#45;&gt;node_modules/eslint</title>
<path fill="none" stroke="#000000" stroke-opacity="0.200000" d="M184,-110.21C184,-127.19 184,-161.67 184,-161.67 184,-161.67 690.85,-161.67 690.85,-161.67"/>
<polygon fill="#000000" fill-opacity="0.200000" stroke="#000000" stroke-opacity="0.200000" points="690.85,-163.77 696.85,-161.67 690.85,-159.57 690.85,-163.77"/>
</g>
<!-- test/lib/rules/local&#45;variable&#45;pattern&#45;rule.spec.js -->
<g id="node19" class="node">
<title>test/lib/rules/local&#45;variable&#45;pattern&#45;rule.spec.js</title>
<g id="a_node19"><a xlink:href="https://github.com/sverweij/eslint-plugin-budapestian/blob/master/test/lib/rules/local-variable-pattern-rule.spec.js" xlink:title="local&#45;variable&#45;pattern&#45;rule.spec.js">
<path fill="#ffffcc" stroke="black" d="M179,-80C179,-80 42,-80 42,-80 39,-80 36,-77 36,-74 36,-74 36,-68 36,-68 36,-65 39,-62 42,-62 42,-62 179,-62 179,-62 182,-62 185,-65 185,-68 185,-68 185,-74 185,-74 185,-77 182,-80 179,-80"/>
<text text-anchor="middle" x="110.5" y="-68.8" font-family="Helvetica,sans-Serif" font-size="9.00">local&#45;variable&#45;pattern&#45;rule.spec.js</text>
</a>
</g>
</g>
<!-- test/lib/rules/local&#45;variable&#45;pattern&#45;rule.spec.js&#45;&gt;lib/rules/local&#45;variable&#45;pattern&#45;rule.js -->
<g id="edge34" class="edge">
<title>test/lib/rules/local&#45;variable&#45;pattern&#45;rule.spec.js&#45;&gt;lib/rules/local&#45;variable&#45;pattern&#45;rule.js</title>
<path fill="none" stroke="#000000" stroke-width="2" stroke-opacity="0.200000" d="M185.09,-74C260.5,-74 366,-74 366,-74 366,-74 366,-234.54 366,-234.54"/>
<polygon fill="#000000" fill-opacity="0.200000" stroke="#000000" stroke-width="2" stroke-opacity="0.200000" points="363.9,-234.54 366,-240.54 368.1,-234.54 363.9,-234.54"/>
</g>
<!-- test/lib/rules/local&#45;variable&#45;pattern&#45;rule.spec.js&#45;&gt;node_modules/eslint -->
<g id="edge35" class="edge">
<title>test/lib/rules/local&#45;variable&#45;pattern&#45;rule.spec.js&#45;&gt;node_modules/eslint</title>
<path fill="none" stroke="#000000" stroke-opacity="0.200000" d="M185.23,-68C346.96,-68 715,-68 715,-68 715,-68 715,-150.96 715,-150.96"/>
<polygon fill="#000000" fill-opacity="0.200000" stroke="#000000" stroke-opacity="0.200000" points="712.9,-150.96 715,-156.96 717.1,-150.96 712.9,-150.96"/>
</g>
<!-- test/lib/rules/parameter&#45;pattern&#45;rule.spec.js -->
<g id="node20" class="node">
<title>test/lib/rules/parameter&#45;pattern&#45;rule.spec.js</title>
<g id="a_node20"><a xlink:href="https://github.com/sverweij/eslint-plugin-budapestian/blob/master/test/lib/rules/parameter-pattern-rule.spec.js" xlink:title="parameter&#45;pattern&#45;rule.spec.js">
<path fill="#ffffcc" stroke="black" d="M173,-140C173,-140 48,-140 48,-140 45,-140 42,-137 42,-134 42,-134 42,-128 42,-128 42,-125 45,-122 48,-122 48,-122 173,-122 173,-122 176,-122 179,-125 179,-128 179,-128 179,-134 179,-134 179,-137 176,-140 173,-140"/>
<text text-anchor="middle" x="110.5" y="-128.8" font-family="Helvetica,sans-Serif" font-size="9.00">parameter&#45;pattern&#45;rule.spec.js</text>
</a>
</g>
</g>
<!-- test/lib/rules/parameter&#45;pattern&#45;rule.spec.js&#45;&gt;lib/rules/parameter&#45;pattern&#45;rule.js -->
<g id="edge36" class="edge">
<title>test/lib/rules/parameter&#45;pattern&#45;rule.spec.js&#45;&gt;lib/rules/parameter&#45;pattern&#45;rule.js</title>
<path fill="none" stroke="#000000" stroke-width="2" stroke-opacity="0.200000" d="M157,-140.28C157,-177.36 157,-313 157,-313 157,-313 301.42,-313 301.42,-313"/>
<polygon fill="#000000" fill-opacity="0.200000" stroke="#000000" stroke-width="2" stroke-opacity="0.200000" points="301.42,-315.1 307.42,-313 301.42,-310.9 301.42,-315.1"/>
</g>
<!-- test/lib/rules/parameter&#45;pattern&#45;rule.spec.js&#45;&gt;node_modules/eslint -->
<g id="edge37" class="edge">
<title>test/lib/rules/parameter&#45;pattern&#45;rule.spec.js&#45;&gt;node_modules/eslint</title>
<path fill="none" stroke="#000000" stroke-opacity="0.200000" d="M168,-140.28C168,-150.75 168,-166.33 168,-166.33 168,-166.33 690.81,-166.33 690.81,-166.33"/>
<polygon fill="#000000" fill-opacity="0.200000" stroke="#000000" stroke-opacity="0.200000" points="690.81,-168.43 696.81,-166.33 690.81,-164.23 690.81,-168.43"/>
</g>
</g>
</svg>
