<?xml version="1.0" encoding="UTF-8" standalone="no"?>
<!DOCTYPE svg PUBLIC "-//W3C//DTD SVG 1.1//EN"
 "http://www.w3.org/Graphics/SVG/1.1/DTD/svg11.dtd">
<!-- Generated by graphviz version 2.44.1 (20200629.0846)
 -->
<!-- Title: dependency&#45;cruiser output Pages: 1 -->
<svg width="775pt" height="487pt"
 viewBox="0.00 0.00 775.00 487.00" xmlns="http://www.w3.org/2000/svg" xmlns:xlink="http://www.w3.org/1999/xlink">
<g id="graph0" class="graph" transform="scale(1 1) rotate(0) translate(4 483)">
<title>dependency&#45;cruiser output</title>
<polygon fill="white" stroke="transparent" points="-4,4 -4,-483 771,-483 771,4 -4,4"/>
<g id="clust1" class="cluster">
<title>cluster_lib</title>
<path fill="#ffffff" stroke="black" stroke-width="2" d="M218,-197C218,-197 657,-197 657,-197 663,-197 669,-203 669,-209 669,-209 669,-385 669,-385 669,-391 663,-397 657,-397 657,-397 218,-397 218,-397 212,-397 206,-391 206,-385 206,-385 206,-209 206,-209 206,-203 212,-197 218,-197"/>
<text text-anchor="middle" x="437.5" y="-385.8" font-family="Helvetica,sans-Serif" font-weight="bold" font-size="9.00">lib</text>
</g>
<g id="clust2" class="cluster">
<title>cluster_lib/rules</title>
<path fill="#ffffff" stroke="black" stroke-width="2" d="M288,-205C288,-205 649,-205 649,-205 655,-205 661,-211 661,-217 661,-217 661,-359 661,-359 661,-365 655,-371 649,-371 649,-371 288,-371 288,-371 282,-371 276,-365 276,-359 276,-359 276,-217 276,-217 276,-211 282,-205 288,-205"/>
<text text-anchor="middle" x="468.5" y="-359.8" font-family="Helvetica,sans-Serif" font-weight="bold" font-size="9.00">rules</text>
</g>
<g id="clust3" class="cluster">
<title>cluster_node_modules</title>
<path fill="#ffffff" stroke="black" stroke-width="2" d="M689,-149C689,-149 745,-149 745,-149 751,-149 757,-155 757,-161 757,-161 757,-309 757,-309 757,-315 751,-321 745,-321 745,-321 689,-321 689,-321 683,-321 677,-315 677,-309 677,-309 677,-161 677,-161 677,-155 683,-149 689,-149"/>
<text text-anchor="middle" x="717" y="-309.8" font-family="Helvetica,sans-Serif" font-weight="bold" font-size="9.00">node_modules</text>
</g>
<g id="clust4" class="cluster">
<title>cluster_test</title>
<path fill="#ffffff" stroke="black" stroke-width="2" d="M20,-8C20,-8 186,-8 186,-8 192,-8 198,-14 198,-20 198,-20 198,-232 198,-232 198,-238 192,-244 186,-244 186,-244 20,-244 20,-244 14,-244 8,-238 8,-232 8,-232 8,-20 8,-20 8,-14 14,-8 20,-8"/>
<text text-anchor="middle" x="103" y="-232.8" font-family="Helvetica,sans-Serif" font-weight="bold" font-size="9.00">test</text>
</g>
<g id="clust5" class="cluster">
<title>cluster_test/lib</title>
<path fill="#ffffff" stroke="black" stroke-width="2" d="M28,-16C28,-16 178,-16 178,-16 184,-16 190,-22 190,-28 190,-28 190,-206 190,-206 190,-212 184,-218 178,-218 178,-218 28,-218 28,-218 22,-218 16,-212 16,-206 16,-206 16,-28 16,-28 16,-22 22,-16 28,-16"/>
<text text-anchor="middle" x="103" y="-206.8" font-family="Helvetica,sans-Serif" font-weight="bold" font-size="9.00">lib</text>
</g>
<g id="clust6" class="cluster">
<title>cluster_test/lib/rules</title>
<path fill="#ffffff" stroke="black" stroke-width="2" d="M36,-24C36,-24 170,-24 170,-24 176,-24 182,-30 182,-36 182,-36 182,-154 182,-154 182,-160 176,-166 170,-166 170,-166 36,-166 36,-166 30,-166 24,-160 24,-154 24,-154 24,-36 24,-36 24,-30 30,-24 36,-24"/>
<text text-anchor="middle" x="103" y="-154.8" font-family="Helvetica,sans-Serif" font-weight="bold" font-size="9.00">rules</text>
</g>
<!-- fs -->
<g id="node1" class="node">
<title>fs</title>
<path fill="#ffffcc" stroke="grey" d="M262,-479C262,-479 220,-479 220,-479 217,-479 214,-476 214,-473 214,-473 214,-467 214,-467 214,-464 217,-461 220,-461 220,-461 262,-461 262,-461 265,-461 268,-464 268,-467 268,-467 268,-473 268,-473 268,-476 265,-479 262,-479"/>
<text text-anchor="middle" x="241" y="-467.8" font-family="Helvetica,sans-Serif" font-size="9.00" fill="grey">fs</text>
</g>
<!-- lib/index.js -->
<g id="node2" class="node">
<title>lib/index.js</title>
<g id="a_node2"><a xlink:href="https://github.com/sverweij/eslint-plugin-budapestian/blob/master/lib/index.js" xlink:title="index.js">
<path fill="#ffffcc" stroke="black" d="M262,-289C262,-289 220,-289 220,-289 217,-289 214,-286 214,-283 214,-283 214,-277 214,-277 214,-274 217,-271 220,-271 220,-271 262,-271 262,-271 265,-271 268,-274 268,-277 268,-277 268,-283 268,-283 268,-286 265,-289 262,-289"/>
<text text-anchor="middle" x="241" y="-277.8" font-family="Helvetica,sans-Serif" font-size="9.00">index.js</text>
</a>
</g>
</g>
<!-- lib/rules/global&#45;constant&#45;pattern&#45;rule.js -->
<g id="node3" class="node">
<title>lib/rules/global&#45;constant&#45;pattern&#45;rule.js</title>
<g id="a_node3"><a xlink:href="https://github.com/sverweij/eslint-plugin-budapestian/blob/master/lib/rules/global-constant-pattern-rule.js" xlink:title="global&#45;constant&#45;pattern&#45;rule.js">
<path fill="#ffffcc" stroke="black" d="M567,-231C567,-231 440,-231 440,-231 437,-231 434,-228 434,-225 434,-225 434,-219 434,-219 434,-216 437,-213 440,-213 440,-213 567,-213 567,-213 570,-213 573,-216 573,-219 573,-219 573,-225 573,-225 573,-228 570,-231 567,-231"/>
<text text-anchor="middle" x="503.5" y="-219.8" font-family="Helvetica,sans-Serif" font-size="9.00">global&#45;constant&#45;pattern&#45;rule.js</text>
</a>
</g>
</g>
<!-- lib/index.js&#45;&gt;lib/rules/global&#45;constant&#45;pattern&#45;rule.js -->
<g id="edge1" class="edge">
<title>lib/index.js&#45;&gt;lib/rules/global&#45;constant&#45;pattern&#45;rule.js</title>
<path fill="none" stroke="#000000" stroke-width="2" stroke-opacity="0.200000" d="M232,-270.94C232,-254.62 232,-222 232,-222 232,-222 427.93,-222 427.93,-222"/>
<polygon fill="#000000" fill-opacity="0.200000" stroke="#000000" stroke-width="2" stroke-opacity="0.200000" points="427.93,-224.1 433.93,-222 427.93,-219.9 427.93,-224.1"/>
</g>
<!-- lib/rules/global&#45;variable&#45;pattern&#45;rule.js -->
<g id="node4" class="node">
<title>lib/rules/global&#45;variable&#45;pattern&#45;rule.js</title>
<g id="a_node4"><a xlink:href="https://github.com/sverweij/eslint-plugin-budapestian/blob/master/lib/rules/global-variable-pattern-rule.js" xlink:title="global&#45;variable&#45;pattern&#45;rule.js">
<path fill="#ffffcc" stroke="black" d="M415,-289C415,-289 290,-289 290,-289 287,-289 284,-286 284,-283 284,-283 284,-277 284,-277 284,-274 287,-271 290,-271 290,-271 415,-271 415,-271 418,-271 421,-274 421,-277 421,-277 421,-283 421,-283 421,-286 418,-289 415,-289"/>
<text text-anchor="middle" x="352.5" y="-277.8" font-family="Helvetica,sans-Serif" font-size="9.00">global&#45;variable&#45;pattern&#45;rule.js</text>
</a>
</g>
</g>
<!-- lib/index.js&#45;&gt;lib/rules/global&#45;variable&#45;pattern&#45;rule.js -->
<g id="edge2" class="edge">
<title>lib/index.js&#45;&gt;lib/rules/global&#45;variable&#45;pattern&#45;rule.js</title>
<path fill="none" stroke="#000000" stroke-width="2" stroke-opacity="0.200000" d="M268.28,-283C268.28,-283 277.95,-283 277.95,-283"/>
<polygon fill="#000000" fill-opacity="0.200000" stroke="#000000" stroke-width="2" stroke-opacity="0.200000" points="277.95,-285.1 283.95,-283 277.95,-280.9 277.95,-285.1"/>
</g>
<!-- lib/rules/local&#45;variable&#45;pattern&#45;rule.js -->
<g id="node5" class="node">
<title>lib/rules/local&#45;variable&#45;pattern&#45;rule.js</title>
<g id="a_node5"><a xlink:href="https://github.com/sverweij/eslint-plugin-budapestian/blob/master/lib/rules/local-variable-pattern-rule.js" xlink:title="local&#45;variable&#45;pattern&#45;rule.js">
<path fill="#ffffcc" stroke="black" d="M412,-259C412,-259 293,-259 293,-259 290,-259 287,-256 287,-253 287,-253 287,-247 287,-247 287,-244 290,-241 293,-241 293,-241 412,-241 412,-241 415,-241 418,-244 418,-247 418,-247 418,-253 418,-253 418,-256 415,-259 412,-259"/>
<text text-anchor="middle" x="352.5" y="-247.8" font-family="Helvetica,sans-Serif" font-size="9.00">local&#45;variable&#45;pattern&#45;rule.js</text>
</a>
</g>
</g>
<!-- lib/index.js&#45;&gt;lib/rules/local&#45;variable&#45;pattern&#45;rule.js -->
<g id="edge3" class="edge">
<title>lib/index.js&#45;&gt;lib/rules/local&#45;variable&#45;pattern&#45;rule.js</title>
<path fill="none" stroke="#000000" stroke-width="2" stroke-opacity="0.200000" d="M250,-270.84C250,-262.01 250,-250 250,-250 250,-250 280.72,-250 280.72,-250"/>
<polygon fill="#000000" fill-opacity="0.200000" stroke="#000000" stroke-width="2" stroke-opacity="0.200000" points="280.72,-252.1 286.72,-250 280.72,-247.9 280.72,-252.1"/>
</g>
<!-- lib/rules/parameter&#45;pattern&#45;rule.js -->
<g id="node6" class="node">
<title>lib/rules/parameter&#45;pattern&#45;rule.js</title>
<g id="a_node6"><a xlink:href="https://github.com/sverweij/eslint-plugin-budapestian/blob/master/lib/rules/parameter-pattern-rule.js" xlink:title="parameter&#45;pattern&#45;rule.js">
<path fill="#ffffcc" stroke="black" d="M405.5,-319C405.5,-319 299.5,-319 299.5,-319 296.5,-319 293.5,-316 293.5,-313 293.5,-313 293.5,-307 293.5,-307 293.5,-304 296.5,-301 299.5,-301 299.5,-301 405.5,-301 405.5,-301 408.5,-301 411.5,-304 411.5,-307 411.5,-307 411.5,-313 411.5,-313 411.5,-316 408.5,-319 405.5,-319"/>
<text text-anchor="middle" x="352.5" y="-307.8" font-family="Helvetica,sans-Serif" font-size="9.00">parameter&#45;pattern&#45;rule.js</text>
</a>
</g>
</g>
<!-- lib/index.js&#45;&gt;lib/rules/parameter&#45;pattern&#45;rule.js -->
<g id="edge4" class="edge">
<title>lib/index.js&#45;&gt;lib/rules/parameter&#45;pattern&#45;rule.js</title>
<path fill="none" stroke="#000000" stroke-width="2" stroke-opacity="0.200000" d="M241,-289.14C241,-296.97 241,-307 241,-307 241,-307 287.49,-307 287.49,-307"/>
<polygon fill="#000000" fill-opacity="0.200000" stroke="#000000" stroke-width="2" stroke-opacity="0.200000" points="287.49,-309.1 293.49,-307 287.49,-304.9 287.49,-309.1"/>
</g>
<!-- lib/rules/ast&#45;utl.js -->
<g id="node7" class="node">
<title>lib/rules/ast&#45;utl.js</title>
<g id="a_node7"><a xlink:href="https://github.com/sverweij/eslint-plugin-budapestian/blob/master/lib/rules/ast-utl.js" xlink:title="ast&#45;utl.js">
<path fill="#ffffcc" stroke="black" d="M640.5,-315C640.5,-315 598.5,-315 598.5,-315 595.5,-315 592.5,-312 592.5,-309 592.5,-309 592.5,-303 592.5,-303 592.5,-300 595.5,-297 598.5,-297 598.5,-297 640.5,-297 640.5,-297 643.5,-297 646.5,-300 646.5,-303 646.5,-303 646.5,-309 646.5,-309 646.5,-312 643.5,-315 640.5,-315"/>
<text text-anchor="middle" x="619.5" y="-303.8" font-family="Helvetica,sans-Serif" font-size="9.00">ast&#45;utl.js</text>
</a>
</g>
</g>
<!-- lib/rules/global&#45;constant&#45;pattern&#45;rule.js&#45;&gt;lib/rules/ast&#45;utl.js -->
<g id="edge6" class="edge">
<title>lib/rules/global&#45;constant&#45;pattern&#45;rule.js&#45;&gt;lib/rules/ast&#45;utl.js</title>
<path fill="none" stroke="#000000" stroke-width="2" stroke-opacity="0.200000" d="M573.05,-220.5C575.55,-220.5 577,-220.5 577,-220.5 577,-220.5 577,-307.22 577,-307.22 577,-307.22 586.34,-307.22 586.34,-307.22"/>
<polygon fill="#000000" fill-opacity="0.200000" stroke="#000000" stroke-width="2" stroke-opacity="0.200000" points="586.34,-309.32 592.34,-307.22 586.34,-305.12 586.34,-309.32"/>
</g>
<!-- node_modules/lodash.get -->
<g id="node8" class="node">
<title>node_modules/lodash.get</title>
<g id="a_node8"><a xlink:href="https://github.com/sverweij/eslint-plugin-budapestian/blob/master/node_modules/lodash.get" xlink:title="lodash.get">
<polygon fill="#c40b0a" fill-opacity="0.101961" stroke="black" points="746.5,-265 689.5,-265 687.5,-263 687.5,-247 744.5,-247 746.5,-249 746.5,-265"/>
<polyline fill="none" stroke="black" points="744.5,-263 687.5,-263 "/>
<polyline fill="none" stroke="black" points="744.5,-263 744.5,-247 "/>
<polyline fill="none" stroke="black" points="744.5,-263 746.5,-265 "/>
<text text-anchor="middle" x="717" y="-253.8" font-family="Helvetica,sans-Serif" font-size="9.00" fill="#c40b0a">lodash.get</text>
</a>
</g>
</g>
<!-- lib/rules/global&#45;constant&#45;pattern&#45;rule.js&#45;&gt;node_modules/lodash.get -->
<g id="edge9" class="edge">
<title>lib/rules/global&#45;constant&#45;pattern&#45;rule.js&#45;&gt;node_modules/lodash.get</title>
<path fill="none" stroke="#000000" stroke-opacity="0.200000" d="M504,-231.21C504,-238.8 504,-248.33 504,-248.33 504,-248.33 681.38,-248.33 681.38,-248.33"/>
<polygon fill="#000000" fill-opacity="0.200000" stroke="#000000" stroke-opacity="0.200000" points="681.38,-250.43 687.38,-248.33 681.38,-246.23 681.38,-250.43"/>
</g>
<!-- lib/rules/pattern&#45;utl.js -->
<g id="node9" class="node">
<title>lib/rules/pattern&#45;utl.js</title>
<g id="a_node9"><a xlink:href="https://github.com/sverweij/eslint-plugin-budapestian/blob/master/lib/rules/pattern-utl.js" xlink:title="pattern&#45;utl.js">
<path fill="#ffffcc" stroke="black" d="M647,-285C647,-285 592,-285 592,-285 589,-285 586,-282 586,-279 586,-279 586,-273 586,-273 586,-270 589,-267 592,-267 592,-267 647,-267 647,-267 650,-267 653,-270 653,-273 653,-273 653,-279 653,-279 653,-282 650,-285 647,-285"/>
<text text-anchor="middle" x="619.5" y="-273.8" font-family="Helvetica,sans-Serif" font-size="9.00">pattern&#45;utl.js</text>
</a>
</g>
</g>
<!-- lib/rules/global&#45;constant&#45;pattern&#45;rule.js&#45;&gt;lib/rules/pattern&#45;utl.js -->
<g id="edge7" class="edge">
<title>lib/rules/global&#45;constant&#45;pattern&#45;rule.js&#45;&gt;lib/rules/pattern&#45;utl.js</title>
<path fill="none" stroke="#000000" stroke-width="2" stroke-opacity="0.200000" d="M573.29,-224C598.1,-224 620,-224 620,-224 620,-224 620,-260.94 620,-260.94"/>
<polygon fill="#000000" fill-opacity="0.200000" stroke="#000000" stroke-width="2" stroke-opacity="0.200000" points="617.9,-260.94 620,-266.94 622.1,-260.94 617.9,-260.94"/>
</g>
<!-- node_modules/decamelize -->
<g id="node10" class="node">
<title>node_modules/decamelize</title>
<g id="a_node10"><a xlink:href="https://github.com/sverweij/eslint-plugin-budapestian/blob/master/node_modules/decamelize" xlink:title="decamelize">
<polygon fill="#c40b0a" fill-opacity="0.101961" stroke="black" points="749,-205 687,-205 685,-203 685,-187 747,-187 749,-189 749,-205"/>
<polyline fill="none" stroke="black" points="747,-203 685,-203 "/>
<polyline fill="none" stroke="black" points="747,-203 747,-187 "/>
<polyline fill="none" stroke="black" points="747,-203 749,-205 "/>
<text text-anchor="middle" x="717" y="-193.8" font-family="Helvetica,sans-Serif" font-size="9.00" fill="#c40b0a">decamelize</text>
</a>
</g>
</g>
<!-- lib/rules/global&#45;constant&#45;pattern&#45;rule.js&#45;&gt;node_modules/decamelize -->
<g id="edge8" class="edge">
<title>lib/rules/global&#45;constant&#45;pattern&#45;rule.js&#45;&gt;node_modules/decamelize</title>
<path fill="none" stroke="#000000" stroke-opacity="0.200000" d="M527,-212.98C527,-206.35 527,-198.5 527,-198.5 527,-198.5 678.77,-198.5 678.77,-198.5"/>
<polygon fill="#000000" fill-opacity="0.200000" stroke="#000000" stroke-opacity="0.200000" points="678.77,-200.6 684.77,-198.5 678.77,-196.4 678.77,-200.6"/>
</g>
<!-- lib/rules/global&#45;variable&#45;pattern&#45;rule.js&#45;&gt;lib/rules/ast&#45;utl.js -->
<g id="edge10" class="edge">
<title>lib/rules/global&#45;variable&#45;pattern&#45;rule.js&#45;&gt;lib/rules/ast&#45;utl.js</title>
<path fill="none" stroke="#000000" stroke-width="2" stroke-opacity="0.200000" d="M415,-289.05C415,-298.48 415,-311.89 415,-311.89 415,-311.89 586.34,-311.89 586.34,-311.89"/>
<polygon fill="#000000" fill-opacity="0.200000" stroke="#000000" stroke-width="2" stroke-opacity="0.200000" points="586.34,-313.99 592.34,-311.89 586.34,-309.79 586.34,-313.99"/>
</g>
<!-- lib/rules/global&#45;variable&#45;pattern&#45;rule.js&#45;&gt;node_modules/lodash.get -->
<g id="edge13" class="edge">
<title>lib/rules/global&#45;variable&#45;pattern&#45;rule.js&#45;&gt;node_modules/lodash.get</title>
<path fill="none" stroke="#000000" stroke-opacity="0.200000" d="M421.18,-277C424.21,-277 426,-277 426,-277 426,-277 426,-251 426,-251 426,-251 681.5,-251 681.5,-251"/>
<polygon fill="#000000" fill-opacity="0.200000" stroke="#000000" stroke-opacity="0.200000" points="681.5,-253.1 687.5,-251 681.5,-248.9 681.5,-253.1"/>
</g>
<!-- lib/rules/global&#45;variable&#45;pattern&#45;rule.js&#45;&gt;lib/rules/pattern&#45;utl.js -->
<g id="edge11" class="edge">
<title>lib/rules/global&#45;variable&#45;pattern&#45;rule.js&#45;&gt;lib/rules/pattern&#45;utl.js</title>
<path fill="none" stroke="#000000" stroke-width="2" stroke-opacity="0.200000" d="M418,-289.25C418,-296.05 418,-304.11 418,-304.11 418,-304.11 580,-304.11 580,-304.11 580,-304.11 580,-278 580,-278 580,-278 580.58,-278 580.58,-278"/>
<polygon fill="#000000" fill-opacity="0.200000" stroke="#000000" stroke-width="2" stroke-opacity="0.200000" points="579.83,-280.1 585.83,-278 579.83,-275.9 579.83,-280.1"/>
</g>
<!-- lib/rules/prefixed&#45;pascalcase&#45;things.js -->
<g id="node11" class="node">
<title>lib/rules/prefixed&#45;pascalcase&#45;things.js</title>
<g id="a_node11"><a xlink:href="https://github.com/sverweij/eslint-plugin-budapestian/blob/master/lib/rules/prefixed-pascalcase-things.js" xlink:title="prefixed&#45;pascalcase&#45;things.js">
<path fill="#ffffcc" stroke="black" d="M565.5,-289C565.5,-289 441.5,-289 441.5,-289 438.5,-289 435.5,-286 435.5,-283 435.5,-283 435.5,-277 435.5,-277 435.5,-274 438.5,-271 441.5,-271 441.5,-271 565.5,-271 565.5,-271 568.5,-271 571.5,-274 571.5,-277 571.5,-277 571.5,-283 571.5,-283 571.5,-286 568.5,-289 565.5,-289"/>
<text text-anchor="middle" x="503.5" y="-277.8" font-family="Helvetica,sans-Serif" font-size="9.00">prefixed&#45;pascalcase&#45;things.js</text>
</a>
</g>
</g>
<!-- lib/rules/global&#45;variable&#45;pattern&#45;rule.js&#45;&gt;lib/rules/prefixed&#45;pascalcase&#45;things.js -->
<g id="edge12" class="edge">
<title>lib/rules/global&#45;variable&#45;pattern&#45;rule.js&#45;&gt;lib/rules/prefixed&#45;pascalcase&#45;things.js</title>
<path fill="none" stroke="#000000" stroke-width="2" stroke-opacity="0.200000" d="M421.37,-283C421.37,-283 429.4,-283 429.4,-283"/>
<polygon fill="#000000" fill-opacity="0.200000" stroke="#000000" stroke-width="2" stroke-opacity="0.200000" points="429.4,-285.1 435.4,-283 429.4,-280.9 429.4,-285.1"/>
</g>
<!-- lib/rules/local&#45;variable&#45;pattern&#45;rule.js&#45;&gt;lib/rules/ast&#45;utl.js -->
<g id="edge14" class="edge">
<title>lib/rules/local&#45;variable&#45;pattern&#45;rule.js&#45;&gt;lib/rules/ast&#45;utl.js</title>
<path fill="none" stroke="#000000" stroke-width="2" stroke-opacity="0.200000" d="M418.23,-256.33C425.31,-256.33 430,-256.33 430,-256.33 430,-256.33 430,-310.33 430,-310.33 430,-310.33 586.35,-310.33 586.35,-310.33"/>
<polygon fill="#000000" fill-opacity="0.200000" stroke="#000000" stroke-width="2" stroke-opacity="0.200000" points="586.35,-312.43 592.35,-310.33 586.35,-308.23 586.35,-312.43"/>
</g>
<!-- lib/rules/local&#45;variable&#45;pattern&#45;rule.js&#45;&gt;node_modules/lodash.get -->
<g id="edge17" class="edge">
<title>lib/rules/local&#45;variable&#45;pattern&#45;rule.js&#45;&gt;node_modules/lodash.get</title>
<path fill="none" stroke="#000000" stroke-opacity="0.200000" d="M418.09,-249.67C418.09,-249.67 681.34,-249.67 681.34,-249.67"/>
<polygon fill="#000000" fill-opacity="0.200000" stroke="#000000" stroke-opacity="0.200000" points="681.34,-251.77 687.34,-249.67 681.34,-247.57 681.34,-251.77"/>
</g>
<!-- lib/rules/local&#45;variable&#45;pattern&#45;rule.js&#45;&gt;lib/rules/pattern&#45;utl.js -->
<g id="edge15" class="edge">
<title>lib/rules/local&#45;variable&#45;pattern&#45;rule.js&#45;&gt;lib/rules/pattern&#45;utl.js</title>
<path fill="none" stroke="#000000" stroke-width="2" stroke-opacity="0.200000" d="M418.32,-252.33C492.53,-252.33 603,-252.33 603,-252.33 603,-252.33 603,-260.92 603,-260.92"/>
<polygon fill="#000000" fill-opacity="0.200000" stroke="#000000" stroke-width="2" stroke-opacity="0.200000" points="600.9,-260.92 603,-266.92 605.1,-260.92 600.9,-260.92"/>
</g>
<!-- lib/rules/local&#45;variable&#45;pattern&#45;rule.js&#45;&gt;lib/rules/prefixed&#45;pascalcase&#45;things.js -->
<g id="edge16" class="edge">
<title>lib/rules/local&#45;variable&#45;pattern&#45;rule.js&#45;&gt;lib/rules/prefixed&#45;pascalcase&#45;things.js</title>
<path fill="none" stroke="#000000" stroke-width="2" stroke-opacity="0.200000" d="M418.12,-255C445.04,-255 470,-255 470,-255 470,-255 470,-264.97 470,-264.97"/>
<polygon fill="#000000" fill-opacity="0.200000" stroke="#000000" stroke-width="2" stroke-opacity="0.200000" points="467.9,-264.97 470,-270.97 472.1,-264.97 467.9,-264.97"/>
</g>
<!-- lib/rules/parameter&#45;pattern&#45;rule.js&#45;&gt;lib/rules/ast&#45;utl.js -->
<g id="edge18" class="edge">
<title>lib/rules/parameter&#45;pattern&#45;rule.js&#45;&gt;lib/rules/ast&#45;utl.js</title>
<path fill="none" stroke="#000000" stroke-width="2" stroke-opacity="0.200000" d="M411.76,-313.44C411.76,-313.44 586.17,-313.44 586.17,-313.44"/>
<polygon fill="#000000" fill-opacity="0.200000" stroke="#000000" stroke-width="2" stroke-opacity="0.200000" points="586.17,-315.54 592.17,-313.44 586.17,-311.34 586.17,-315.54"/>
</g>
<!-- lib/rules/parameter&#45;pattern&#45;rule.js&#45;&gt;node_modules/lodash.get -->
<g id="edge21" class="edge">
<title>lib/rules/parameter&#45;pattern&#45;rule.js&#45;&gt;node_modules/lodash.get</title>
<path fill="none" stroke="#000000" stroke-opacity="0.200000" d="M353,-319.2C353,-344.57 353,-413.67 353,-413.67 353,-413.67 767,-413.67 767,-413.67 767,-413.67 767,-256 767,-256 767,-256 752.66,-256 752.66,-256"/>
<polygon fill="#000000" fill-opacity="0.200000" stroke="#000000" stroke-opacity="0.200000" points="752.66,-253.9 746.66,-256 752.66,-258.1 752.66,-253.9"/>
</g>
<!-- lib/rules/parameter&#45;pattern&#45;rule.js&#45;&gt;lib/rules/pattern&#45;utl.js -->
<g id="edge19" class="edge">
<title>lib/rules/parameter&#45;pattern&#45;rule.js&#45;&gt;lib/rules/pattern&#45;utl.js</title>
<path fill="none" stroke="#000000" stroke-width="2" stroke-opacity="0.200000" d="M411.56,-305.67C479.85,-305.67 583,-305.67 583,-305.67 583,-305.67 583,-281.5 583,-281.5 583,-281.5 583.29,-281.5 583.29,-281.5"/>
<polygon fill="#000000" fill-opacity="0.200000" stroke="#000000" stroke-width="2" stroke-opacity="0.200000" points="579.86,-283.6 585.86,-281.5 579.86,-279.4 579.86,-283.6"/>
</g>
<!-- lib/rules/parameter&#45;pattern&#45;rule.js&#45;&gt;lib/rules/prefixed&#45;pascalcase&#45;things.js -->
<g id="edge20" class="edge">
<title>lib/rules/parameter&#45;pattern&#45;rule.js&#45;&gt;lib/rules/prefixed&#45;pascalcase&#45;things.js</title>
<path fill="none" stroke="#000000" stroke-width="2" stroke-opacity="0.200000" d="M411.86,-302.56C445.53,-302.56 481,-302.56 481,-302.56 481,-302.56 481,-295.17 481,-295.17"/>
<polygon fill="#000000" fill-opacity="0.200000" stroke="#000000" stroke-width="2" stroke-opacity="0.200000" points="483.1,-295.17 481,-289.17 478.9,-295.17 483.1,-295.17"/>
</g>
<!-- lib/rules/ast&#45;utl.js&#45;&gt;node_modules/lodash.get -->
<g id="edge5" class="edge">
<title>lib/rules/ast&#45;utl.js&#45;&gt;node_modules/lodash.get</title>
<path fill="none" stroke="#000000" stroke-opacity="0.200000" d="M646.57,-306C658.12,-306 669,-306 669,-306 669,-306 669,-257.67 669,-257.67 669,-257.67 681.42,-257.67 681.42,-257.67"/>
<polygon fill="#000000" fill-opacity="0.200000" stroke="#000000" stroke-opacity="0.200000" points="681.42,-259.77 687.42,-257.67 681.42,-255.57 681.42,-259.77"/>
</g>
<!-- node_modules/camelcase -->
<g id="node12" class="node">
<title>node_modules/camelcase</title>
<g id="a_node12"><a xlink:href="https://github.com/sverweij/eslint-plugin-budapestian/blob/master/node_modules/camelcase" xlink:title="camelcase">
<polygon fill="#c40b0a" fill-opacity="0.101961" stroke="black" points="747.5,-235 688.5,-235 686.5,-233 686.5,-217 745.5,-217 747.5,-219 747.5,-235"/>
<polyline fill="none" stroke="black" points="745.5,-233 686.5,-233 "/>
<polyline fill="none" stroke="black" points="745.5,-233 745.5,-217 "/>
<polyline fill="none" stroke="black" points="745.5,-233 747.5,-235 "/>
<text text-anchor="middle" x="717" y="-223.8" font-family="Helvetica,sans-Serif" font-size="9.00" fill="#c40b0a">camelcase</text>
</a>
</g>
</g>
<!-- lib/rules/pattern&#45;utl.js&#45;&gt;node_modules/camelcase -->
<g id="edge22" class="edge">
<title>lib/rules/pattern&#45;utl.js&#45;&gt;node_modules/camelcase</title>
<path fill="none" stroke="#000000" stroke-opacity="0.200000" d="M637,-266.65C637,-252.56 637,-227.5 637,-227.5 637,-227.5 680.3,-227.5 680.3,-227.5"/>
<polygon fill="#000000" fill-opacity="0.200000" stroke="#000000" stroke-opacity="0.200000" points="680.3,-229.6 686.3,-227.5 680.3,-225.4 680.3,-229.6"/>
</g>
<!-- lib/rules/prefixed&#45;pascalcase&#45;things.js&#45;&gt;lib/rules/ast&#45;utl.js -->
<g id="edge23" class="edge">
<title>lib/rules/prefixed&#45;pascalcase&#45;things.js&#45;&gt;lib/rules/ast&#45;utl.js</title>
<path fill="none" stroke="#000000" stroke-width="2" stroke-opacity="0.200000" d="M527,-289.11C527,-297.54 527,-308.78 527,-308.78 527,-308.78 586.25,-308.78 586.25,-308.78"/>
<polygon fill="#000000" fill-opacity="0.200000" stroke="#000000" stroke-width="2" stroke-opacity="0.200000" points="586.25,-310.88 592.25,-308.78 586.25,-306.68 586.25,-310.88"/>
</g>
<!-- lib/rules/prefixed&#45;pascalcase&#45;things.js&#45;&gt;node_modules/lodash.get -->
<g id="edge25" class="edge">
<title>lib/rules/prefixed&#45;pascalcase&#45;things.js&#45;&gt;node_modules/lodash.get</title>
<path fill="none" stroke="#000000" stroke-opacity="0.200000" d="M538,-270.79C538,-263.2 538,-253.67 538,-253.67 538,-253.67 681.44,-253.67 681.44,-253.67"/>
<polygon fill="#000000" fill-opacity="0.200000" stroke="#000000" stroke-opacity="0.200000" points="681.44,-255.77 687.44,-253.67 681.44,-251.57 681.44,-255.77"/>
</g>
<!-- lib/rules/prefixed&#45;pascalcase&#45;things.js&#45;&gt;lib/rules/pattern&#45;utl.js -->
<g id="edge24" class="edge">
<title>lib/rules/prefixed&#45;pascalcase&#45;things.js&#45;&gt;lib/rules/pattern&#45;utl.js</title>
<path fill="none" stroke="#000000" stroke-width="2" stroke-opacity="0.200000" d="M571.65,-274.5C571.65,-274.5 579.99,-274.5 579.99,-274.5"/>
<polygon fill="#000000" fill-opacity="0.200000" stroke="#000000" stroke-width="2" stroke-opacity="0.200000" points="579.99,-276.6 585.99,-274.5 579.99,-272.4 579.99,-276.6"/>
</g>
<!-- node_modules/chai -->
<g id="node13" class="node">
<title>node_modules/chai</title>
<g id="a_node13"><a xlink:href="https://github.com/sverweij/eslint-plugin-budapestian/blob/master/node_modules/chai" xlink:title="chai">
<polygon fill="#c40b0a" fill-opacity="0.101961" stroke="black" points="744,-295 692,-295 690,-293 690,-277 742,-277 744,-279 744,-295"/>
<polyline fill="none" stroke="black" points="742,-293 690,-293 "/>
<polyline fill="none" stroke="black" points="742,-293 742,-277 "/>
<polyline fill="none" stroke="black" points="742,-293 744,-295 "/>
<text text-anchor="middle" x="717" y="-283.8" font-family="Helvetica,sans-Serif" font-size="9.00" fill="#c40b0a">chai</text>
</a>
</g>
</g>
<!-- node_modules/eslint -->
<g id="node14" class="node">
<title>node_modules/eslint</title>
<g id="a_node14"><a xlink:href="https://github.com/sverweij/eslint-plugin-budapestian/blob/master/node_modules/eslint" xlink:title="eslint">
<polygon fill="#c40b0a" fill-opacity="0.101961" stroke="black" points="744,-175 692,-175 690,-173 690,-157 742,-157 744,-159 744,-175"/>
<polyline fill="none" stroke="black" points="742,-173 690,-173 "/>
<polyline fill="none" stroke="black" points="742,-173 742,-157 "/>
<polyline fill="none" stroke="black" points="742,-173 744,-175 "/>
<text text-anchor="middle" x="717" y="-163.8" font-family="Helvetica,sans-Serif" font-size="9.00" fill="#c40b0a">eslint</text>
</a>
</g>
</g>
<!-- path -->
<g id="node15" class="node">
<title>path</title>
<path fill="#ffffcc" stroke="grey" d="M262,-189C262,-189 220,-189 220,-189 217,-189 214,-186 214,-183 214,-183 214,-177 214,-177 214,-174 217,-171 220,-171 220,-171 262,-171 262,-171 265,-171 268,-174 268,-177 268,-177 268,-183 268,-183 268,-186 265,-189 262,-189"/>
<text text-anchor="middle" x="241" y="-177.8" font-family="Helvetica,sans-Serif" font-size="9.00" fill="grey">path</text>
</g>
<!-- test/lib/index.spec.js -->
<g id="node16" class="node">
<title>test/lib/index.spec.js</title>
<g id="a_node16"><a xlink:href="https://github.com/sverweij/eslint-plugin-budapestian/blob/master/test/lib/index.spec.js" xlink:title="index.spec.js">
<path fill="#ffffcc" stroke="black" d="M132,-192C132,-192 74,-192 74,-192 71,-192 68,-189 68,-186 68,-186 68,-180 68,-180 68,-177 71,-174 74,-174 74,-174 132,-174 132,-174 135,-174 138,-177 138,-180 138,-180 138,-186 138,-186 138,-189 135,-192 132,-192"/>
<text text-anchor="middle" x="103" y="-180.8" font-family="Helvetica,sans-Serif" font-size="9.00">index.spec.js</text>
</a>
</g>
</g>
<!-- test/lib/index.spec.js&#45;&gt;fs -->
<g id="edge28" class="edge">
<title>test/lib/index.spec.js&#45;&gt;fs</title>
<path fill="none" stroke="#000000" stroke-dasharray="5,2" stroke-opacity="0.200000" d="M86,-192.22C86,-241.35 86,-470 86,-470 86,-470 207.65,-470 207.65,-470"/>
<polygon fill="#000000" fill-opacity="0.200000" stroke="#000000" stroke-opacity="0.200000" points="207.65,-472.1 213.65,-470 207.65,-467.9 207.65,-472.1"/>
</g>
<!-- test/lib/index.spec.js&#45;&gt;lib/index.js -->
<g id="edge26" class="edge">
<title>test/lib/index.spec.js&#45;&gt;lib/index.js</title>
<path fill="none" stroke="#000000" stroke-width="2" stroke-opacity="0.200000" d="M121,-192.3C121,-216.58 121,-280 121,-280 121,-280 207.77,-280 207.77,-280"/>
<polygon fill="#000000" fill-opacity="0.200000" stroke="#000000" stroke-width="2" stroke-opacity="0.200000" points="207.77,-282.1 213.77,-280 207.77,-277.9 207.77,-282.1"/>
</g>
<!-- test/lib/index.spec.js&#45;&gt;node_modules/chai -->
<g id="edge27" class="edge">
<title>test/lib/index.spec.js&#45;&gt;node_modules/chai</title>
<path fill="none" stroke="#000000" stroke-opacity="0.200000" d="M103,-192.09C103,-229.08 103,-366.33 103,-366.33 103,-366.33 717,-366.33 717,-366.33 717,-366.33 717,-301.22 717,-301.22"/>
<polygon fill="#000000" fill-opacity="0.200000" stroke="#000000" stroke-opacity="0.200000" points="719.1,-301.22 717,-295.22 714.9,-301.22 719.1,-301.22"/>
</g>
<!-- test/lib/index.spec.js&#45;&gt;path -->
<g id="edge29" class="edge">
<title>test/lib/index.spec.js&#45;&gt;path</title>
<path fill="none" stroke="#000000" stroke-dasharray="5,2" stroke-opacity="0.200000" d="M138.18,-181.5C138.18,-181.5 207.72,-181.5 207.72,-181.5"/>
<polygon fill="#000000" fill-opacity="0.200000" stroke="#000000" stroke-opacity="0.200000" points="207.72,-183.6 213.72,-181.5 207.72,-179.4 207.72,-183.6"/>
</g>
<!-- test/lib/rules/global&#45;constant&#45;pattern.spec.js -->
<g id="node17" class="node">
<title>test/lib/rules/global&#45;constant&#45;pattern.spec.js</title>
<g id="a_node17"><a xlink:href="https://github.com/sverweij/eslint-plugin-budapestian/blob/master/test/lib/rules/global-constant-pattern.spec.js" xlink:title="global&#45;constant&#45;pattern.spec.js">
<path fill="#ffffcc" stroke="black" d="M168,-50C168,-50 38,-50 38,-50 35,-50 32,-47 32,-44 32,-44 32,-38 32,-38 32,-35 35,-32 38,-32 38,-32 168,-32 168,-32 171,-32 174,-35 174,-38 174,-38 174,-44 174,-44 174,-47 171,-50 168,-50"/>
<text text-anchor="middle" x="103" y="-38.8" font-family="Helvetica,sans-Serif" font-size="9.00">global&#45;constant&#45;pattern.spec.js</text>
</a>
</g>
</g>
<!-- test/lib/rules/global&#45;constant&#45;pattern.spec.js&#45;&gt;lib/rules/global&#45;constant&#45;pattern&#45;rule.js -->
<g id="edge30" class="edge">
<title>test/lib/rules/global&#45;constant&#45;pattern.spec.js&#45;&gt;lib/rules/global&#45;constant&#45;pattern&#45;rule.js</title>
<path fill="none" stroke="#000000" stroke-width="2" stroke-opacity="0.200000" d="M174.1,-44C283.6,-44 481,-44 481,-44 481,-44 481,-206.93 481,-206.93"/>
<polygon fill="#000000" fill-opacity="0.200000" stroke="#000000" stroke-width="2" stroke-opacity="0.200000" points="478.9,-206.93 481,-212.93 483.1,-206.93 478.9,-206.93"/>
</g>
<!-- test/lib/rules/global&#45;constant&#45;pattern.spec.js&#45;&gt;node_modules/eslint -->
<g id="edge31" class="edge">
<title>test/lib/rules/global&#45;constant&#45;pattern.spec.js&#45;&gt;node_modules/eslint</title>
<path fill="none" stroke="#000000" stroke-opacity="0.200000" d="M174.16,-38C337.63,-38 726,-38 726,-38 726,-38 726,-150.79 726,-150.79"/>
<polygon fill="#000000" fill-opacity="0.200000" stroke="#000000" stroke-opacity="0.200000" points="723.9,-150.79 726,-156.79 728.1,-150.79 723.9,-150.79"/>
</g>
<!-- test/lib/rules/global&#45;variable&#45;pattern.spec.js -->
<g id="node18" class="node">
<title>test/lib/rules/global&#45;variable&#45;pattern.spec.js</title>
<g id="a_node18"><a xlink:href="https://github.com/sverweij/eslint-plugin-budapestian/blob/master/test/lib/rules/global-variable-pattern.spec.js" xlink:title="global&#45;variable&#45;pattern.spec.js">
<path fill="#ffffcc" stroke="black" d="M167,-110C167,-110 39,-110 39,-110 36,-110 33,-107 33,-104 33,-104 33,-98 33,-98 33,-95 36,-92 39,-92 39,-92 167,-92 167,-92 170,-92 173,-95 173,-98 173,-98 173,-104 173,-104 173,-107 170,-110 167,-110"/>
<text text-anchor="middle" x="103" y="-98.8" font-family="Helvetica,sans-Serif" font-size="9.00">global&#45;variable&#45;pattern.spec.js</text>
</a>
</g>
</g>
<!-- test/lib/rules/global&#45;variable&#45;pattern.spec.js&#45;&gt;lib/rules/global&#45;variable&#45;pattern&#45;rule.js -->
<g id="edge32" class="edge">
<title>test/lib/rules/global&#45;variable&#45;pattern.spec.js&#45;&gt;lib/rules/global&#45;variable&#45;pattern&#45;rule.js</title>
<path fill="none" stroke="#000000" stroke-width="2" stroke-opacity="0.200000" d="M173.37,-101C221.26,-101 276,-101 276,-101 276,-101 276,-277 276,-277 276,-277 277.9,-277 277.9,-277"/>
<polygon fill="#000000" fill-opacity="0.200000" stroke="#000000" stroke-width="2" stroke-opacity="0.200000" points="277.9,-279.1 283.9,-277 277.9,-274.9 277.9,-279.1"/>
</g>
<!-- test/lib/rules/global&#45;variable&#45;pattern.spec.js&#45;&gt;node_modules/eslint -->
<g id="edge33" class="edge">
<title>test/lib/rules/global&#45;variable&#45;pattern.spec.js&#45;&gt;node_modules/eslint</title>
<path fill="none" stroke="#000000" stroke-opacity="0.200000" d="M169,-110.21C169,-127.19 169,-161.67 169,-161.67 169,-161.67 683.82,-161.67 683.82,-161.67"/>
<polygon fill="#000000" fill-opacity="0.200000" stroke="#000000" stroke-opacity="0.200000" points="683.82,-163.77 689.82,-161.67 683.82,-159.57 683.82,-163.77"/>
</g>
<!-- test/lib/rules/local&#45;variable&#45;pattern.spec.js -->
<g id="node19" class="node">
<title>test/lib/rules/local&#45;variable&#45;pattern.spec.js</title>
<g id="a_node19"><a xlink:href="https://github.com/sverweij/eslint-plugin-budapestian/blob/master/test/lib/rules/local-variable-pattern.spec.js" xlink:title="local&#45;variable&#45;pattern.spec.js">
<path fill="#ffffcc" stroke="black" d="M164,-80C164,-80 42,-80 42,-80 39,-80 36,-77 36,-74 36,-74 36,-68 36,-68 36,-65 39,-62 42,-62 42,-62 164,-62 164,-62 167,-62 170,-65 170,-68 170,-68 170,-74 170,-74 170,-77 167,-80 164,-80"/>
<text text-anchor="middle" x="103" y="-68.8" font-family="Helvetica,sans-Serif" font-size="9.00">local&#45;variable&#45;pattern.spec.js</text>
</a>
</g>
</g>
<!-- test/lib/rules/local&#45;variable&#45;pattern.spec.js&#45;&gt;lib/rules/local&#45;variable&#45;pattern&#45;rule.js -->
<g id="edge34" class="edge">
<title>test/lib/rules/local&#45;variable&#45;pattern.spec.js&#45;&gt;lib/rules/local&#45;variable&#45;pattern&#45;rule.js</title>
<path fill="none" stroke="#000000" stroke-width="2" stroke-opacity="0.200000" d="M170.32,-74C244.37,-74 353,-74 353,-74 353,-74 353,-234.54 353,-234.54"/>
<polygon fill="#000000" fill-opacity="0.200000" stroke="#000000" stroke-width="2" stroke-opacity="0.200000" points="350.9,-234.54 353,-240.54 355.1,-234.54 350.9,-234.54"/>
</g>
<!-- test/lib/rules/local&#45;variable&#45;pattern.spec.js&#45;&gt;node_modules/eslint -->
<g id="edge35" class="edge">
<title>test/lib/rules/local&#45;variable&#45;pattern.spec.js&#45;&gt;node_modules/eslint</title>
<path fill="none" stroke="#000000" stroke-opacity="0.200000" d="M170.06,-68C327.58,-68 708,-68 708,-68 708,-68 708,-150.96 708,-150.96"/>
<polygon fill="#000000" fill-opacity="0.200000" stroke="#000000" stroke-opacity="0.200000" points="705.9,-150.96 708,-156.96 710.1,-150.96 705.9,-150.96"/>
</g>
<!-- test/lib/rules/parameter&#45;pattern.spec.js -->
<g id="node20" class="node">
<title>test/lib/rules/parameter&#45;pattern.spec.js</title>
<g id="a_node20"><a xlink:href="https://github.com/sverweij/eslint-plugin-budapestian/blob/master/test/lib/rules/parameter-pattern.spec.js" xlink:title="parameter&#45;pattern.spec.js">
<path fill="#ffffcc" stroke="black" d="M157.5,-140C157.5,-140 48.5,-140 48.5,-140 45.5,-140 42.5,-137 42.5,-134 42.5,-134 42.5,-128 42.5,-128 42.5,-125 45.5,-122 48.5,-122 48.5,-122 157.5,-122 157.5,-122 160.5,-122 163.5,-125 163.5,-128 163.5,-128 163.5,-134 163.5,-134 163.5,-137 160.5,-140 157.5,-140"/>
<text text-anchor="middle" x="103" y="-128.8" font-family="Helvetica,sans-Serif" font-size="9.00">parameter&#45;pattern.spec.js</text>
</a>
</g>
</g>
<!-- test/lib/rules/parameter&#45;pattern.spec.js&#45;&gt;lib/rules/parameter&#45;pattern&#45;rule.js -->
<g id="edge36" class="edge">
<title>test/lib/rules/parameter&#45;pattern.spec.js&#45;&gt;lib/rules/parameter&#45;pattern&#45;rule.js</title>
<path fill="none" stroke="#000000" stroke-width="2" stroke-opacity="0.200000" d="M147,-140.28C147,-177.36 147,-313 147,-313 147,-313 287.34,-313 287.34,-313"/>
<polygon fill="#000000" fill-opacity="0.200000" stroke="#000000" stroke-width="2" stroke-opacity="0.200000" points="287.34,-315.1 293.34,-313 287.34,-310.9 287.34,-315.1"/>
</g>
<!-- test/lib/rules/parameter&#45;pattern.spec.js&#45;&gt;node_modules/eslint -->
<g id="edge37" class="edge">
<title>test/lib/rules/parameter&#45;pattern.spec.js&#45;&gt;node_modules/eslint</title>
<path fill="none" stroke="#000000" stroke-opacity="0.200000" d="M155,-140.28C155,-150.75 155,-166.33 155,-166.33 155,-166.33 683.89,-166.33 683.89,-166.33"/>
<polygon fill="#000000" fill-opacity="0.200000" stroke="#000000" stroke-opacity="0.200000" points="683.89,-168.43 689.89,-166.33 683.89,-164.23 683.89,-168.43"/>
</g>
</g>
</svg>
