<?xml version="1.0" encoding="UTF-8" standalone="no"?>
<!DOCTYPE svg PUBLIC "-//W3C//DTD SVG 1.1//EN"
 "http://www.w3.org/Graphics/SVG/1.1/DTD/svg11.dtd">
<!-- Generated by graphviz version 12.2.1 (20241206.2353)
 -->
<!-- Title: dependency&#45;cruiser output Pages: 1 -->
<svg width="804pt" height="501pt"
 viewBox="0.00 0.00 804.00 501.00" xmlns="http://www.w3.org/2000/svg" xmlns:xlink="http://www.w3.org/1999/xlink">
<g id="graph0" class="graph" transform="scale(1 1) rotate(0) translate(4 497)">
<title>dependency&#45;cruiser output</title>
<polygon fill="white" stroke="none" points="-4,4 -4,-497 800,-497 800,4 -4,4"/>
<g id="clust1" class="cluster">
<title>cluster_assert</title>
<path fill="#ffffff" stroke="black" stroke-width="2" d="M243.5,-433C243.5,-433 289.5,-433 289.5,-433 295.5,-433 301.5,-439 301.5,-445 301.5,-445 301.5,-473 301.5,-473 301.5,-479 295.5,-485 289.5,-485 289.5,-485 243.5,-485 243.5,-485 237.5,-485 231.5,-479 231.5,-473 231.5,-473 231.5,-445 231.5,-445 231.5,-439 237.5,-433 243.5,-433"/>
<text text-anchor="middle" x="266.5" y="-472.45" font-family="Helvetica,sans-Serif" font-weight="bold" font-size="9.00">assert</text>
</g>
<g id="clust2" class="cluster">
<title>cluster_lib</title>
<path fill="#ffffff" stroke="black" stroke-width="2" d="M243.5,-139C243.5,-139 688.75,-139 688.75,-139 694.75,-139 700.75,-145 700.75,-151 700.75,-151 700.75,-327 700.75,-327 700.75,-333 694.75,-339 688.75,-339 688.75,-339 243.5,-339 243.5,-339 237.5,-339 231.5,-333 231.5,-327 231.5,-327 231.5,-151 231.5,-151 231.5,-145 237.5,-139 243.5,-139"/>
<text text-anchor="middle" x="466.12" y="-326.45" font-family="Helvetica,sans-Serif" font-weight="bold" font-size="9.00">lib</text>
</g>
<g id="clust3" class="cluster">
<title>cluster_lib/rules</title>
<path fill="#ffffff" stroke="black" stroke-width="2" d="M321.5,-147C321.5,-147 680.75,-147 680.75,-147 686.75,-147 692.75,-153 692.75,-159 692.75,-159 692.75,-301 692.75,-301 692.75,-307 686.75,-313 680.75,-313 680.75,-313 321.5,-313 321.5,-313 315.5,-313 309.5,-307 309.5,-301 309.5,-301 309.5,-159 309.5,-159 309.5,-153 315.5,-147 321.5,-147"/>
<text text-anchor="middle" x="501.12" y="-300.45" font-family="Helvetica,sans-Serif" font-weight="bold" font-size="9.00">rules</text>
</g>
<g id="clust4" class="cluster">
<title>cluster_node_modules</title>
<path fill="#ffffff" stroke="black" stroke-width="2" d="M720.75,-79C720.75,-79 776,-79 776,-79 782,-79 788,-85 788,-91 788,-91 788,-179 788,-179 788,-185 782,-191 776,-191 776,-191 720.75,-191 720.75,-191 714.75,-191 708.75,-185 708.75,-179 708.75,-179 708.75,-91 708.75,-91 708.75,-85 714.75,-79 720.75,-79"/>
<text text-anchor="middle" x="748.38" y="-178.45" font-family="Helvetica,sans-Serif" font-weight="bold" font-size="9.00">node_modules</text>
</g>
<g id="clust5" class="cluster">
<title>cluster_test</title>
<path fill="#ffffff" stroke="black" stroke-width="2" d="M20,-8C20,-8 211.5,-8 211.5,-8 217.5,-8 223.5,-14 223.5,-20 223.5,-20 223.5,-262 223.5,-262 223.5,-268 217.5,-274 211.5,-274 211.5,-274 20,-274 20,-274 14,-274 8,-268 8,-262 8,-262 8,-20 8,-20 8,-14 14,-8 20,-8"/>
<text text-anchor="middle" x="115.75" y="-261.45" font-family="Helvetica,sans-Serif" font-weight="bold" font-size="9.00">test</text>
</g>
<g id="clust6" class="cluster">
<title>cluster_test/lib</title>
<path fill="#ffffff" stroke="black" stroke-width="2" d="M28,-16C28,-16 203.5,-16 203.5,-16 209.5,-16 215.5,-22 215.5,-28 215.5,-28 215.5,-236 215.5,-236 215.5,-242 209.5,-248 203.5,-248 203.5,-248 28,-248 28,-248 22,-248 16,-242 16,-236 16,-236 16,-28 16,-28 16,-22 22,-16 28,-16"/>
<text text-anchor="middle" x="115.75" y="-235.45" font-family="Helvetica,sans-Serif" font-weight="bold" font-size="9.00">lib</text>
</g>
<g id="clust7" class="cluster">
<title>cluster_test/lib/rules</title>
<path fill="#ffffff" stroke="black" stroke-width="2" d="M36,-24C36,-24 195.5,-24 195.5,-24 201.5,-24 207.5,-30 207.5,-36 207.5,-36 207.5,-184 207.5,-184 207.5,-190 201.5,-196 195.5,-196 195.5,-196 36,-196 36,-196 30,-196 24,-190 24,-184 24,-184 24,-36 24,-36 24,-30 30,-24 36,-24"/>
<text text-anchor="middle" x="115.75" y="-183.45" font-family="Helvetica,sans-Serif" font-weight="bold" font-size="9.00">rules</text>
</g>
<!-- assert/strict -->
<g id="node1" class="node">
<title>assert/strict</title>
<g id="a_node1"><a xlink:href="https://nodejs.org/api/assert.html" xlink:title="strict">
<path fill="#ffffcc" stroke="grey" d="M287.58,-458.88C287.58,-458.88 245.42,-458.88 245.42,-458.88 242.46,-458.88 239.5,-455.92 239.5,-452.96 239.5,-452.96 239.5,-447.04 239.5,-447.04 239.5,-444.08 242.46,-441.12 245.42,-441.12 245.42,-441.12 287.58,-441.12 287.58,-441.12 290.54,-441.12 293.5,-444.08 293.5,-447.04 293.5,-447.04 293.5,-452.96 293.5,-452.96 293.5,-455.92 290.54,-458.88 287.58,-458.88"/>
<text text-anchor="start" x="257.12" y="-446.32" font-family="Helvetica,sans-Serif" font-size="9.00" fill="grey">strict</text>
</a>
</g>
</g>
<!-- fs -->
<g id="node2" class="node">
<title>fs</title>
<g id="a_node2"><a xlink:href="https://nodejs.org/api/fs.html" xlink:title="fs">
<path fill="#ffffcc" stroke="grey" d="M287.58,-424.88C287.58,-424.88 245.42,-424.88 245.42,-424.88 242.46,-424.88 239.5,-421.92 239.5,-418.96 239.5,-418.96 239.5,-413.04 239.5,-413.04 239.5,-410.08 242.46,-407.12 245.42,-407.12 245.42,-407.12 287.58,-407.12 287.58,-407.12 290.54,-407.12 293.5,-410.08 293.5,-413.04 293.5,-413.04 293.5,-418.96 293.5,-418.96 293.5,-421.92 290.54,-424.88 287.58,-424.88"/>
<text text-anchor="middle" x="266.5" y="-412.32" font-family="Helvetica,sans-Serif" font-size="9.00" fill="grey">fs</text>
</a>
</g>
</g>
<!-- lib/index.js -->
<g id="node3" class="node">
<title>lib/index.js</title>
<g id="a_node3"><a xlink:href="https://github.com/sverweij/eslint-plugin-budapestian/blob/main/lib/index.js" xlink:title="index.js">
<path fill="#ffffcc" stroke="black" d="M287.58,-235.88C287.58,-235.88 245.42,-235.88 245.42,-235.88 242.46,-235.88 239.5,-232.92 239.5,-229.96 239.5,-229.96 239.5,-224.04 239.5,-224.04 239.5,-221.08 242.46,-218.12 245.42,-218.12 245.42,-218.12 287.58,-218.12 287.58,-218.12 290.54,-218.12 293.5,-221.08 293.5,-224.04 293.5,-224.04 293.5,-229.96 293.5,-229.96 293.5,-232.92 290.54,-235.88 287.58,-235.88"/>
<text text-anchor="start" x="250.75" y="-223.32" font-family="Helvetica,sans-Serif" font-size="9.00">index.js</text>
</a>
</g>
</g>
<!-- package.json -->
<g id="node4" class="node">
<title>package.json</title>
<g id="a_node4"><a xlink:href="https://github.com/sverweij/eslint-plugin-budapestian/blob/main/package.json" xlink:title="package.json">
<path fill="#ffee44" stroke="black" d="M415.33,-364.88C415.33,-364.88 356.42,-364.88 356.42,-364.88 353.46,-364.88 350.5,-361.92 350.5,-358.96 350.5,-358.96 350.5,-353.04 350.5,-353.04 350.5,-350.08 353.46,-347.12 356.42,-347.12 356.42,-347.12 415.33,-347.12 415.33,-347.12 418.29,-347.12 421.25,-350.08 421.25,-353.04 421.25,-353.04 421.25,-358.96 421.25,-358.96 421.25,-361.92 418.29,-364.88 415.33,-364.88"/>
<text text-anchor="middle" x="385.88" y="-352.32" font-family="Helvetica,sans-Serif" font-size="9.00">package.json</text>
</a>
</g>
</g>
<!-- lib/index.js&#45;&gt;package.json -->
<g id="edge1" class="edge">
<title>lib/index.js&#45;&gt;package.json</title>
<path fill="none" stroke="#000000" stroke-width="2" stroke-opacity="0.200000" d="M293.66,-230.32C300.03,-230.32 305,-230.32 305,-230.32 305,-230.32 305,-356 305,-356 305,-356 341.14,-356 341.14,-356"/>
<polygon fill="#000000" fill-opacity="0.200000" stroke="#000000" stroke-width="2" stroke-opacity="0.200000" points="341.14,-358.1 347.14,-356 341.14,-353.9 341.14,-358.1"/>
</g>
<!-- lib/rules/global&#45;constant&#45;pattern&#45;rule.js -->
<g id="node5" class="node">
<title>lib/rules/global&#45;constant&#45;pattern&#45;rule.js</title>
<g id="a_node5"><a xlink:href="https://github.com/sverweij/eslint-plugin-budapestian/blob/main/lib/rules/global-constant-pattern-rule.js" xlink:title="global&#45;constant&#45;pattern&#45;rule.js">
<path fill="#ffffcc" stroke="black" d="M599.58,-186.88C599.58,-186.88 473.17,-186.88 473.17,-186.88 470.21,-186.88 467.25,-183.92 467.25,-180.96 467.25,-180.96 467.25,-175.04 467.25,-175.04 467.25,-172.08 470.21,-169.12 473.17,-169.12 473.17,-169.12 599.58,-169.12 599.58,-169.12 602.54,-169.12 605.5,-172.08 605.5,-175.04 605.5,-175.04 605.5,-180.96 605.5,-180.96 605.5,-183.92 602.54,-186.88 599.58,-186.88"/>
<text text-anchor="start" x="475.25" y="-174.32" font-family="Helvetica,sans-Serif" font-size="9.00">global&#45;constant&#45;pattern&#45;rule.js</text>
</a>
</g>
</g>
<!-- lib/index.js&#45;&gt;lib/rules/global&#45;constant&#45;pattern&#45;rule.js -->
<g id="edge2" class="edge">
<title>lib/index.js&#45;&gt;lib/rules/global&#45;constant&#45;pattern&#45;rule.js</title>
<path fill="none" stroke="#000000" stroke-width="2" stroke-opacity="0.200000" d="M293.79,-228.73C349.69,-228.73 472,-228.73 472,-228.73 472,-228.73 472,-196.33 472,-196.33"/>
<polygon fill="#000000" fill-opacity="0.200000" stroke="#000000" stroke-width="2" stroke-opacity="0.200000" points="474.1,-196.33 472,-190.33 469.9,-196.33 474.1,-196.33"/>
</g>
<!-- lib/rules/global&#45;variable&#45;pattern&#45;rule.js -->
<g id="node6" class="node">
<title>lib/rules/global&#45;variable&#45;pattern&#45;rule.js</title>
<g id="a_node6"><a xlink:href="https://github.com/sverweij/eslint-plugin-budapestian/blob/main/lib/rules/global-variable-pattern-rule.js" xlink:title="global&#45;variable&#45;pattern&#45;rule.js">
<path fill="#ffffcc" stroke="black" d="M448.33,-252.88C448.33,-252.88 323.42,-252.88 323.42,-252.88 320.46,-252.88 317.5,-249.92 317.5,-246.96 317.5,-246.96 317.5,-241.04 317.5,-241.04 317.5,-238.08 320.46,-235.12 323.42,-235.12 323.42,-235.12 448.33,-235.12 448.33,-235.12 451.29,-235.12 454.25,-238.08 454.25,-241.04 454.25,-241.04 454.25,-246.96 454.25,-246.96 454.25,-249.92 451.29,-252.88 448.33,-252.88"/>
<text text-anchor="start" x="325.5" y="-240.32" font-family="Helvetica,sans-Serif" font-size="9.00">global&#45;variable&#45;pattern&#45;rule.js</text>
</a>
</g>
</g>
<!-- lib/index.js&#45;&gt;lib/rules/global&#45;variable&#45;pattern&#45;rule.js -->
<g id="edge3" class="edge">
<title>lib/index.js&#45;&gt;lib/rules/global&#45;variable&#45;pattern&#45;rule.js</title>
<path fill="none" stroke="#000000" stroke-width="2" stroke-opacity="0.200000" d="M266,-236.29C266,-239.14 266,-241.54 266,-241.54 266,-241.54 308.16,-241.54 308.16,-241.54"/>
<polygon fill="#000000" fill-opacity="0.200000" stroke="#000000" stroke-width="2" stroke-opacity="0.200000" points="308.16,-243.64 314.16,-241.54 308.16,-239.44 308.16,-243.64"/>
</g>
<!-- lib/rules/local&#45;variable&#45;pattern&#45;rule.js -->
<g id="node7" class="node">
<title>lib/rules/local&#45;variable&#45;pattern&#45;rule.js</title>
<g id="a_node7"><a xlink:href="https://github.com/sverweij/eslint-plugin-budapestian/blob/main/lib/rules/local-variable-pattern-rule.js" xlink:title="local&#45;variable&#45;pattern&#45;rule.js">
<path fill="#ffffcc" stroke="black" d="M445.33,-222.88C445.33,-222.88 326.42,-222.88 326.42,-222.88 323.46,-222.88 320.5,-219.92 320.5,-216.96 320.5,-216.96 320.5,-211.04 320.5,-211.04 320.5,-208.08 323.46,-205.12 326.42,-205.12 326.42,-205.12 445.33,-205.12 445.33,-205.12 448.29,-205.12 451.25,-208.08 451.25,-211.04 451.25,-211.04 451.25,-216.96 451.25,-216.96 451.25,-219.92 448.29,-222.88 445.33,-222.88"/>
<text text-anchor="start" x="328.5" y="-210.32" font-family="Helvetica,sans-Serif" font-size="9.00">local&#45;variable&#45;pattern&#45;rule.js</text>
</a>
</g>
</g>
<!-- lib/index.js&#45;&gt;lib/rules/local&#45;variable&#45;pattern&#45;rule.js -->
<g id="edge4" class="edge">
<title>lib/index.js&#45;&gt;lib/rules/local&#45;variable&#45;pattern&#45;rule.js</title>
<path fill="none" stroke="#000000" stroke-width="2" stroke-opacity="0.200000" d="M286,-217.69C286,-216.06 286,-214.88 286,-214.88 286,-214.88 311.06,-214.88 311.06,-214.88"/>
<polygon fill="#000000" fill-opacity="0.200000" stroke="#000000" stroke-width="2" stroke-opacity="0.200000" points="311.06,-216.98 317.06,-214.88 311.06,-212.78 311.06,-216.98"/>
</g>
<!-- lib/rules/parameter&#45;pattern&#45;rule.js -->
<g id="node8" class="node">
<title>lib/rules/parameter&#45;pattern&#45;rule.js</title>
<g id="a_node8"><a xlink:href="https://github.com/sverweij/eslint-plugin-budapestian/blob/main/lib/rules/parameter-pattern-rule.js" xlink:title="parameter&#45;pattern&#45;rule.js">
<path fill="#ffffcc" stroke="black" d="M438.58,-192.88C438.58,-192.88 333.17,-192.88 333.17,-192.88 330.21,-192.88 327.25,-189.92 327.25,-186.96 327.25,-186.96 327.25,-181.04 327.25,-181.04 327.25,-178.08 330.21,-175.12 333.17,-175.12 333.17,-175.12 438.58,-175.12 438.58,-175.12 441.54,-175.12 444.5,-178.08 444.5,-181.04 444.5,-181.04 444.5,-186.96 444.5,-186.96 444.5,-189.92 441.54,-192.88 438.58,-192.88"/>
<text text-anchor="start" x="335.25" y="-180.32" font-family="Helvetica,sans-Serif" font-size="9.00">parameter&#45;pattern&#45;rule.js</text>
</a>
</g>
</g>
<!-- lib/index.js&#45;&gt;lib/rules/parameter&#45;pattern&#45;rule.js -->
<g id="edge5" class="edge">
<title>lib/index.js&#45;&gt;lib/rules/parameter&#45;pattern&#45;rule.js</title>
<path fill="none" stroke="#000000" stroke-width="2" stroke-opacity="0.200000" d="M278,-217.88C278,-205.26 278,-184 278,-184 278,-184 317.86,-184 317.86,-184"/>
<polygon fill="#000000" fill-opacity="0.200000" stroke="#000000" stroke-width="2" stroke-opacity="0.200000" points="317.86,-186.1 323.86,-184 317.86,-181.9 317.86,-186.1"/>
</g>
<!-- lib/rules/ast&#45;utl.js -->
<g id="node9" class="node">
<title>lib/rules/ast&#45;utl.js</title>
<g id="a_node9"><a xlink:href="https://github.com/sverweij/eslint-plugin-budapestian/blob/main/lib/rules/ast-utl.js" xlink:title="ast&#45;utl.js">
<path fill="#ffffcc" stroke="black" d="M672.71,-255.88C672.71,-255.88 630.54,-255.88 630.54,-255.88 627.58,-255.88 624.62,-252.92 624.62,-249.96 624.62,-249.96 624.62,-244.04 624.62,-244.04 624.62,-241.08 627.58,-238.12 630.54,-238.12 630.54,-238.12 672.71,-238.12 672.71,-238.12 675.67,-238.12 678.62,-241.08 678.62,-244.04 678.62,-244.04 678.62,-249.96 678.62,-249.96 678.62,-252.92 675.67,-255.88 672.71,-255.88"/>
<text text-anchor="start" x="634.75" y="-243.32" font-family="Helvetica,sans-Serif" font-size="9.00">ast&#45;utl.js</text>
</a>
</g>
</g>
<!-- lib/rules/global&#45;constant&#45;pattern&#45;rule.js&#45;&gt;lib/rules/ast&#45;utl.js -->
<g id="edge6" class="edge">
<title>lib/rules/global&#45;constant&#45;pattern&#45;rule.js&#45;&gt;lib/rules/ast&#45;utl.js</title>
<path fill="none" stroke="#000000" stroke-width="2" stroke-opacity="0.200000" d="M599,-187.23C599,-205.93 599,-246.48 599,-246.48 599,-246.48 615.36,-246.48 615.36,-246.48"/>
<polygon fill="#000000" fill-opacity="0.200000" stroke="#000000" stroke-width="2" stroke-opacity="0.200000" points="615.36,-248.58 621.36,-246.48 615.36,-244.38 615.36,-248.58"/>
</g>
<!-- lib/rules/pattern&#45;utl.js -->
<g id="node10" class="node">
<title>lib/rules/pattern&#45;utl.js</title>
<g id="a_node10"><a xlink:href="https://github.com/sverweij/eslint-plugin-budapestian/blob/main/lib/rules/pattern-utl.js" xlink:title="pattern&#45;utl.js">
<path fill="#ffffcc" stroke="black" d="M678.83,-204.88C678.83,-204.88 624.42,-204.88 624.42,-204.88 621.46,-204.88 618.5,-201.92 618.5,-198.96 618.5,-198.96 618.5,-193.04 618.5,-193.04 618.5,-190.08 621.46,-187.12 624.42,-187.12 624.42,-187.12 678.83,-187.12 678.83,-187.12 681.79,-187.12 684.75,-190.08 684.75,-193.04 684.75,-193.04 684.75,-198.96 684.75,-198.96 684.75,-201.92 681.79,-204.88 678.83,-204.88"/>
<text text-anchor="start" x="626.5" y="-192.32" font-family="Helvetica,sans-Serif" font-size="9.00">pattern&#45;utl.js</text>
</a>
</g>
</g>
<!-- lib/rules/global&#45;constant&#45;pattern&#45;rule.js&#45;&gt;lib/rules/pattern&#45;utl.js -->
<g id="edge7" class="edge">
<title>lib/rules/global&#45;constant&#45;pattern&#45;rule.js&#45;&gt;lib/rules/pattern&#45;utl.js</title>
<path fill="none" stroke="#000000" stroke-width="2" stroke-opacity="0.200000" d="M602,-187.26C602,-191.54 602,-195.69 602,-195.69 602,-195.69 609.22,-195.69 609.22,-195.69"/>
<polygon fill="#000000" fill-opacity="0.200000" stroke="#000000" stroke-width="2" stroke-opacity="0.200000" points="609.22,-197.79 615.22,-195.69 609.22,-193.59 609.22,-197.79"/>
</g>
<!-- node_modules/decamelize -->
<g id="node11" class="node">
<title>node_modules/decamelize</title>
<g id="a_node11"><a xlink:href="https://www.npmjs.com/package/decamelize" xlink:title="decamelize">
<polygon fill="#c40b0a" fill-opacity="0.101961" stroke="black" points="780,-134.88 718.72,-134.88 716.75,-132.9 716.75,-117.12 778.03,-117.12 780,-119.1 780,-134.88"/>
<polyline fill="none" stroke="black" points="778.03,-132.9 716.75,-132.9"/>
<polyline fill="none" stroke="black" points="778.03,-132.9 778.03,-117.12"/>
<polyline fill="none" stroke="black" points="778.03,-132.9 780,-134.88"/>
<text text-anchor="start" x="724.75" y="-122.33" font-family="Helvetica,sans-Serif" font-size="9.00" fill="#c40b0a">decamelize</text>
</a>
</g>
</g>
<!-- lib/rules/global&#45;constant&#45;pattern&#45;rule.js&#45;&gt;node_modules/decamelize -->
<g id="edge8" class="edge">
<title>lib/rules/global&#45;constant&#45;pattern&#45;rule.js&#45;&gt;node_modules/decamelize</title>
<path fill="none" stroke="#000000" stroke-opacity="0.200000" d="M559,-168.82C559,-153.73 559,-125.31 559,-125.31 559,-125.31 708.74,-125.31 708.74,-125.31"/>
<polygon fill="#000000" fill-opacity="0.200000" stroke="#000000" stroke-opacity="0.200000" points="708.74,-127.41 714.74,-125.31 708.74,-123.21 708.74,-127.41"/>
</g>
<!-- lib/rules/global&#45;variable&#45;pattern&#45;rule.js&#45;&gt;lib/rules/ast&#45;utl.js -->
<g id="edge9" class="edge">
<title>lib/rules/global&#45;variable&#45;pattern&#45;rule.js&#45;&gt;lib/rules/ast&#45;utl.js</title>
<path fill="none" stroke="#000000" stroke-width="2" stroke-opacity="0.200000" d="M454.66,-251.27C454.66,-251.27 615.13,-251.27 615.13,-251.27"/>
<polygon fill="#000000" fill-opacity="0.200000" stroke="#000000" stroke-width="2" stroke-opacity="0.200000" points="615.13,-253.38 621.13,-251.28 615.13,-249.18 615.13,-253.38"/>
</g>
<!-- lib/rules/global&#45;variable&#45;pattern&#45;rule.js&#45;&gt;lib/rules/pattern&#45;utl.js -->
<g id="edge10" class="edge">
<title>lib/rules/global&#45;variable&#45;pattern&#45;rule.js&#45;&gt;lib/rules/pattern&#45;utl.js</title>
<path fill="none" stroke="#000000" stroke-width="2" stroke-opacity="0.200000" d="M454.75,-238.38C459.82,-238.38 463,-238.38 463,-238.38 463,-238.38 463,-201.31 463,-201.31 463,-201.31 609.31,-201.31 609.31,-201.31"/>
<polygon fill="#000000" fill-opacity="0.200000" stroke="#000000" stroke-width="2" stroke-opacity="0.200000" points="609.31,-203.41 615.31,-201.31 609.31,-199.21 609.31,-203.41"/>
</g>
<!-- lib/rules/prefixed&#45;pascalcase&#45;utl.js -->
<g id="node12" class="node">
<title>lib/rules/prefixed&#45;pascalcase&#45;utl.js</title>
<g id="a_node12"><a xlink:href="https://github.com/sverweij/eslint-plugin-budapestian/blob/main/lib/rules/prefixed-pascalcase-utl.js" xlink:title="prefixed&#45;pascalcase&#45;utl.js">
<path fill="#ffffcc" stroke="black" d="M590.58,-244.88C590.58,-244.88 482.17,-244.88 482.17,-244.88 479.21,-244.88 476.25,-241.92 476.25,-238.96 476.25,-238.96 476.25,-233.04 476.25,-233.04 476.25,-230.08 479.21,-227.12 482.17,-227.12 482.17,-227.12 590.58,-227.12 590.58,-227.12 593.54,-227.12 596.5,-230.08 596.5,-233.04 596.5,-233.04 596.5,-238.96 596.5,-238.96 596.5,-241.92 593.54,-244.88 590.58,-244.88"/>
<text text-anchor="start" x="484.25" y="-232.32" font-family="Helvetica,sans-Serif" font-size="9.00">prefixed&#45;pascalcase&#45;utl.js</text>
</a>
</g>
</g>
<!-- lib/rules/global&#45;variable&#45;pattern&#45;rule.js&#45;&gt;lib/rules/prefixed&#45;pascalcase&#45;utl.js -->
<g id="edge11" class="edge">
<title>lib/rules/global&#45;variable&#45;pattern&#45;rule.js&#45;&gt;lib/rules/prefixed&#45;pascalcase&#45;utl.js</title>
<path fill="none" stroke="#000000" stroke-width="2" stroke-opacity="0.200000" d="M454.52,-241.62C454.52,-241.62 466.87,-241.62 466.87,-241.62"/>
<polygon fill="#000000" fill-opacity="0.200000" stroke="#000000" stroke-width="2" stroke-opacity="0.200000" points="466.87,-243.73 472.87,-241.63 466.87,-239.53 466.87,-243.73"/>
</g>
<!-- lib/rules/local&#45;variable&#45;pattern&#45;rule.js&#45;&gt;lib/rules/ast&#45;utl.js -->
<g id="edge12" class="edge">
<title>lib/rules/local&#45;variable&#45;pattern&#45;rule.js&#45;&gt;lib/rules/ast&#45;utl.js</title>
<path fill="none" stroke="#000000" stroke-width="2" stroke-opacity="0.200000" d="M451.66,-216.96C525.46,-216.96 635,-216.96 635,-216.96 635,-216.96 635,-228.8 635,-228.8"/>
<polygon fill="#000000" fill-opacity="0.200000" stroke="#000000" stroke-width="2" stroke-opacity="0.200000" points="632.9,-228.8 635,-234.8 637.1,-228.8 632.9,-228.8"/>
</g>
<!-- lib/rules/local&#45;variable&#45;pattern&#45;rule.js&#45;&gt;lib/rules/pattern&#45;utl.js -->
<g id="edge13" class="edge">
<title>lib/rules/local&#45;variable&#45;pattern&#45;rule.js&#45;&gt;lib/rules/pattern&#45;utl.js</title>
<path fill="none" stroke="#000000" stroke-width="2" stroke-opacity="0.200000" d="M451.52,-211.04C528.58,-211.04 646,-211.04 646,-211.04 646,-211.04 646,-210.46 646,-210.46"/>
<polygon fill="#000000" fill-opacity="0.200000" stroke="#000000" stroke-width="2" stroke-opacity="0.200000" points="648.1,-214.3 646,-208.3 643.9,-214.3 648.1,-214.3"/>
</g>
<!-- lib/rules/local&#45;variable&#45;pattern&#45;rule.js&#45;&gt;lib/rules/prefixed&#45;pascalcase&#45;utl.js -->
<g id="edge14" class="edge">
<title>lib/rules/local&#45;variable&#45;pattern&#45;rule.js&#45;&gt;lib/rules/prefixed&#45;pascalcase&#45;utl.js</title>
<path fill="none" stroke="#000000" stroke-width="2" stroke-opacity="0.200000" d="M386,-223.31C386,-228.33 386,-233.52 386,-233.52 386,-233.52 467.05,-233.52 467.05,-233.52"/>
<polygon fill="#000000" fill-opacity="0.200000" stroke="#000000" stroke-width="2" stroke-opacity="0.200000" points="467.05,-235.63 473.05,-233.53 467.05,-231.43 467.05,-235.63"/>
</g>
<!-- lib/rules/parameter&#45;pattern&#45;rule.js&#45;&gt;lib/rules/ast&#45;utl.js -->
<g id="edge15" class="edge">
<title>lib/rules/parameter&#45;pattern&#45;rule.js&#45;&gt;lib/rules/ast&#45;utl.js</title>
<path fill="none" stroke="#000000" stroke-width="2" stroke-opacity="0.200000" d="M444.9,-182.96C453.22,-182.96 459,-182.96 459,-182.96 459,-182.96 459,-249.68 459,-249.68 459,-249.68 615.41,-249.68 615.41,-249.68"/>
<polygon fill="#000000" fill-opacity="0.200000" stroke="#000000" stroke-width="2" stroke-opacity="0.200000" points="615.41,-251.78 621.41,-249.68 615.41,-247.58 615.41,-251.78"/>
</g>
<!-- lib/rules/parameter&#45;pattern&#45;rule.js&#45;&gt;lib/rules/pattern&#45;utl.js -->
<g id="edge16" class="edge">
<title>lib/rules/parameter&#45;pattern&#45;rule.js&#45;&gt;lib/rules/pattern&#45;utl.js</title>
<path fill="none" stroke="#000000" stroke-width="2" stroke-opacity="0.200000" d="M386,-193.27C386,-196.11 386,-198.5 386,-198.5 386,-198.5 609.23,-198.5 609.23,-198.5"/>
<polygon fill="#000000" fill-opacity="0.200000" stroke="#000000" stroke-width="2" stroke-opacity="0.200000" points="609.23,-200.6 615.23,-198.5 609.23,-196.4 609.23,-200.6"/>
</g>
<!-- lib/rules/parameter&#45;pattern&#45;rule.js&#45;&gt;lib/rules/prefixed&#45;pascalcase&#45;utl.js -->
<g id="edge17" class="edge">
<title>lib/rules/parameter&#45;pattern&#45;rule.js&#45;&gt;lib/rules/prefixed&#45;pascalcase&#45;utl.js</title>
<path fill="none" stroke="#000000" stroke-width="2" stroke-opacity="0.200000" d="M444.62,-179.04C456.28,-179.04 465,-179.04 465,-179.04 465,-179.04 465,-231.93 465,-231.93 465,-231.93 466.81,-231.93 466.81,-231.93"/>
<polygon fill="#000000" fill-opacity="0.200000" stroke="#000000" stroke-width="2" stroke-opacity="0.200000" points="466.81,-234.03 472.81,-231.93 466.81,-229.83 466.81,-234.03"/>
</g>
<!-- node_modules/camelcase -->
<g id="node13" class="node">
<title>node_modules/camelcase</title>
<g id="a_node13"><a xlink:href="https://www.npmjs.com/package/camelcase" xlink:title="camelcase">
<polygon fill="#c40b0a" fill-opacity="0.101961" stroke="black" points="778.5,-164.88 720.22,-164.88 718.25,-162.9 718.25,-147.12 776.53,-147.12 778.5,-149.1 778.5,-164.88"/>
<polyline fill="none" stroke="black" points="776.53,-162.9 718.25,-162.9"/>
<polyline fill="none" stroke="black" points="776.53,-162.9 776.53,-147.12"/>
<polyline fill="none" stroke="black" points="776.53,-162.9 778.5,-164.88"/>
<text text-anchor="start" x="726.25" y="-152.32" font-family="Helvetica,sans-Serif" font-size="9.00" fill="#c40b0a">camelcase</text>
</a>
</g>
</g>
<!-- lib/rules/pattern&#45;utl.js&#45;&gt;node_modules/camelcase -->
<g id="edge18" class="edge">
<title>lib/rules/pattern&#45;utl.js&#45;&gt;node_modules/camelcase</title>
<path fill="none" stroke="#000000" stroke-opacity="0.200000" d="M685.06,-196C712.9,-196 748,-196 748,-196 748,-196 748,-172.79 748,-172.79"/>
<polygon fill="#000000" fill-opacity="0.200000" stroke="#000000" stroke-opacity="0.200000" points="750.1,-172.79 748,-166.79 745.9,-172.79 750.1,-172.79"/>
</g>
<!-- lib/rules/prefixed&#45;pascalcase&#45;utl.js&#45;&gt;lib/rules/ast&#45;utl.js -->
<g id="edge19" class="edge">
<title>lib/rules/prefixed&#45;pascalcase&#45;utl.js&#45;&gt;lib/rules/ast&#45;utl.js</title>
<path fill="none" stroke="#000000" stroke-width="2" stroke-opacity="0.200000" d="M596.79,-234.46C631.4,-234.46 668,-234.46 668,-234.46 668,-234.46 668,-234.8 668,-234.8"/>
<polygon fill="#000000" fill-opacity="0.200000" stroke="#000000" stroke-width="2" stroke-opacity="0.200000" points="665.9,-228.86 668,-234.86 670.1,-228.86 665.9,-228.86"/>
</g>
<!-- lib/rules/prefixed&#45;pascalcase&#45;utl.js&#45;&gt;lib/rules/pattern&#45;utl.js -->
<g id="edge20" class="edge">
<title>lib/rules/prefixed&#45;pascalcase&#45;utl.js&#45;&gt;lib/rules/pattern&#45;utl.js</title>
<path fill="none" stroke="#000000" stroke-width="2" stroke-opacity="0.200000" d="M596.69,-230.79C626.84,-230.79 657,-230.79 657,-230.79 657,-230.79 657,-214.17 657,-214.17"/>
<polygon fill="#000000" fill-opacity="0.200000" stroke="#000000" stroke-width="2" stroke-opacity="0.200000" points="659.1,-214.17 657,-208.17 654.9,-214.17 659.1,-214.17"/>
</g>
<!-- module -->
<g id="node14" class="node">
<title>module</title>
<g id="a_node14"><a xlink:href="https://nodejs.org/api/module.html" xlink:title="module">
<path fill="#ffffcc" stroke="grey" d="M287.58,-52.88C287.58,-52.88 245.42,-52.88 245.42,-52.88 242.46,-52.88 239.5,-49.92 239.5,-46.96 239.5,-46.96 239.5,-41.04 239.5,-41.04 239.5,-38.08 242.46,-35.12 245.42,-35.12 245.42,-35.12 287.58,-35.12 287.58,-35.12 290.54,-35.12 293.5,-38.08 293.5,-41.04 293.5,-41.04 293.5,-46.96 293.5,-46.96 293.5,-49.92 290.54,-52.88 287.58,-52.88"/>
<text text-anchor="middle" x="266.5" y="-40.33" font-family="Helvetica,sans-Serif" font-size="9.00" fill="grey">module</text>
</a>
</g>
</g>
<!-- node:test -->
<g id="node15" class="node">
<title>node:test</title>
<g id="a_node15"><a xlink:href="https://nodejs.org/api/node:test.html" xlink:title="node:test">
<path fill="#ffffcc" stroke="grey" d="M287.58,-364.88C287.58,-364.88 245.42,-364.88 245.42,-364.88 242.46,-364.88 239.5,-361.92 239.5,-358.96 239.5,-358.96 239.5,-353.04 239.5,-353.04 239.5,-350.08 242.46,-347.12 245.42,-347.12 245.42,-347.12 287.58,-347.12 287.58,-347.12 290.54,-347.12 293.5,-350.08 293.5,-353.04 293.5,-353.04 293.5,-358.96 293.5,-358.96 293.5,-361.92 290.54,-364.88 287.58,-364.88"/>
<text text-anchor="middle" x="266.5" y="-352.32" font-family="Helvetica,sans-Serif" font-size="9.00" fill="grey">node:test</text>
</a>
</g>
</g>
<!-- node_modules/eslint -->
<g id="node16" class="node">
<title>node_modules/eslint</title>
<g id="a_node16"><a xlink:href="https://www.npmjs.com/package/eslint" xlink:title="eslint">
<polygon fill="#c40b0a" fill-opacity="0.101961" stroke="black" points="775.38,-104.88 723.35,-104.88 721.38,-102.9 721.38,-87.12 773.4,-87.12 775.38,-89.1 775.38,-104.88"/>
<polyline fill="none" stroke="black" points="773.4,-102.9 721.38,-102.9"/>
<polyline fill="none" stroke="black" points="773.4,-102.9 773.4,-87.12"/>
<polyline fill="none" stroke="black" points="773.4,-102.9 775.38,-104.88"/>
<text text-anchor="start" x="737.5" y="-92.33" font-family="Helvetica,sans-Serif" font-size="9.00" fill="#c40b0a">eslint</text>
</a>
</g>
</g>
<!-- path -->
<g id="node17" class="node">
<title>path</title>
<g id="a_node17"><a xlink:href="https://nodejs.org/api/path.html" xlink:title="path">
<path fill="#ffffcc" stroke="grey" d="M287.58,-394.88C287.58,-394.88 245.42,-394.88 245.42,-394.88 242.46,-394.88 239.5,-391.92 239.5,-388.96 239.5,-388.96 239.5,-383.04 239.5,-383.04 239.5,-380.08 242.46,-377.12 245.42,-377.12 245.42,-377.12 287.58,-377.12 287.58,-377.12 290.54,-377.12 293.5,-380.08 293.5,-383.04 293.5,-383.04 293.5,-388.96 293.5,-388.96 293.5,-391.92 290.54,-394.88 287.58,-394.88"/>
<text text-anchor="middle" x="266.5" y="-382.32" font-family="Helvetica,sans-Serif" font-size="9.00" fill="grey">path</text>
</a>
</g>
</g>
<!-- test/lib/index.spec.mjs -->
<g id="node18" class="node">
<title>test/lib/index.spec.mjs</title>
<g id="a_node18"><a xlink:href="https://github.com/sverweij/eslint-plugin-budapestian/blob/main/test/lib/index.spec.mjs" xlink:title="index.spec.mjs">
<path fill="#ffffcc" stroke="black" d="M148.21,-221.88C148.21,-221.88 83.29,-221.88 83.29,-221.88 80.33,-221.88 77.38,-218.92 77.38,-215.96 77.38,-215.96 77.38,-210.04 77.38,-210.04 77.38,-207.08 80.33,-204.12 83.29,-204.12 83.29,-204.12 148.21,-204.12 148.21,-204.12 151.17,-204.12 154.12,-207.08 154.12,-210.04 154.12,-210.04 154.12,-215.96 154.12,-215.96 154.12,-218.92 151.17,-221.88 148.21,-221.88"/>
<text text-anchor="start" x="85.38" y="-209.32" font-family="Helvetica,sans-Serif" font-size="9.00">index.spec.mjs</text>
</a>
</g>
</g>
<!-- test/lib/index.spec.mjs&#45;&gt;assert/strict -->
<g id="edge22" class="edge">
<title>test/lib/index.spec.mjs&#45;&gt;assert/strict</title>
<path fill="none" stroke="#000000" stroke-dasharray="5,2" stroke-opacity="0.200000" d="M93,-222.11C93,-265.94 93,-452.96 93,-452.96 93,-452.96 231.49,-452.96 231.49,-452.96"/>
<polygon fill="#000000" fill-opacity="0.200000" stroke="#000000" stroke-opacity="0.200000" points="231.49,-455.06 237.49,-452.96 231.49,-450.86 231.49,-455.06"/>
</g>
<!-- test/lib/index.spec.mjs&#45;&gt;fs -->
<g id="edge23" class="edge">
<title>test/lib/index.spec.mjs&#45;&gt;fs</title>
<path fill="none" stroke="#000000" stroke-dasharray="5,2" stroke-opacity="0.200000" d="M108,-222.25C108,-261.96 108,-416 108,-416 108,-416 231.74,-416 231.74,-416"/>
<polygon fill="#000000" fill-opacity="0.200000" stroke="#000000" stroke-opacity="0.200000" points="231.74,-418.1 237.74,-416 231.74,-413.9 231.74,-418.1"/>
</g>
<!-- test/lib/index.spec.mjs&#45;&gt;lib/index.js -->
<g id="edge21" class="edge">
<title>test/lib/index.spec.mjs&#45;&gt;lib/index.js</title>
<path fill="none" stroke="#000000" stroke-width="2" stroke-opacity="0.200000" d="M154.28,-211.62C199.96,-211.62 270,-211.62 270,-211.62 270,-211.62 270,-212.25 270,-212.25"/>
<polygon fill="#000000" fill-opacity="0.200000" stroke="#000000" stroke-width="2" stroke-opacity="0.200000" points="267.9,-208.85 270,-214.85 272.1,-208.85 267.9,-208.85"/>
</g>
<!-- test/lib/index.spec.mjs&#45;&gt;node:test -->
<g id="edge24" class="edge">
<title>test/lib/index.spec.mjs&#45;&gt;node:test</title>
<path fill="none" stroke="#000000" stroke-dasharray="5,2" stroke-opacity="0.200000" d="M139,-222.13C139,-254.08 139,-358.96 139,-358.96 139,-358.96 231.63,-358.96 231.63,-358.96"/>
<polygon fill="#000000" fill-opacity="0.200000" stroke="#000000" stroke-opacity="0.200000" points="231.63,-361.06 237.63,-358.96 231.63,-356.86 231.63,-361.06"/>
</g>
<!-- test/lib/index.spec.mjs&#45;&gt;path -->
<g id="edge25" class="edge">
<title>test/lib/index.spec.mjs&#45;&gt;path</title>
<path fill="none" stroke="#000000" stroke-dasharray="5,2" stroke-opacity="0.200000" d="M123,-222.3C123,-258.24 123,-386 123,-386 123,-386 231.66,-386 231.66,-386"/>
<polygon fill="#000000" fill-opacity="0.200000" stroke="#000000" stroke-opacity="0.200000" points="231.66,-388.1 237.66,-386 231.66,-383.9 231.66,-388.1"/>
</g>
<!-- test/lib/rules/ast&#45;utl.spec.mjs -->
<g id="node19" class="node">
<title>test/lib/rules/ast&#45;utl.spec.mjs</title>
<g id="a_node19"><a xlink:href="https://github.com/sverweij/eslint-plugin-budapestian/blob/main/test/lib/rules/ast-utl.spec.mjs" xlink:title="ast&#45;utl.spec.mjs">
<path fill="#ffffcc" stroke="black" d="M149.33,-169.88C149.33,-169.88 82.17,-169.88 82.17,-169.88 79.21,-169.88 76.25,-166.92 76.25,-163.96 76.25,-163.96 76.25,-158.04 76.25,-158.04 76.25,-155.08 79.21,-152.12 82.17,-152.12 82.17,-152.12 149.33,-152.12 149.33,-152.12 152.29,-152.12 155.25,-155.08 155.25,-158.04 155.25,-158.04 155.25,-163.96 155.25,-163.96 155.25,-166.92 152.29,-169.88 149.33,-169.88"/>
<text text-anchor="start" x="84.25" y="-157.32" font-family="Helvetica,sans-Serif" font-size="9.00">ast&#45;utl.spec.mjs</text>
</a>
</g>
</g>
<!-- test/lib/rules/ast&#45;utl.spec.mjs&#45;&gt;assert/strict -->
<g id="edge27" class="edge">
<title>test/lib/rules/ast&#45;utl.spec.mjs&#45;&gt;assert/strict</title>
<path fill="none" stroke="#000000" stroke-dasharray="5,2" stroke-opacity="0.200000" d="M155.51,-161.69C180.1,-161.69 207,-161.69 207,-161.69 207,-161.69 207,-447.04 207,-447.04 207,-447.04 231.67,-447.04 231.67,-447.04"/>
<polygon fill="#000000" fill-opacity="0.200000" stroke="#000000" stroke-opacity="0.200000" points="231.67,-449.14 237.67,-447.04 231.67,-444.94 231.67,-449.14"/>
</g>
<!-- test/lib/rules/ast&#45;utl.spec.mjs&#45;&gt;lib/rules/ast&#45;utl.js -->
<g id="edge26" class="edge">
<title>test/lib/rules/ast&#45;utl.spec.mjs&#45;&gt;lib/rules/ast&#45;utl.js</title>
<path fill="none" stroke="#000000" stroke-width="2" stroke-opacity="0.200000" d="M155.69,-155.31C246.57,-155.31 461,-155.31 461,-155.31 461,-155.31 461,-248.07 461,-248.07 461,-248.07 615.29,-248.07 615.29,-248.07"/>
<polygon fill="#000000" fill-opacity="0.200000" stroke="#000000" stroke-width="2" stroke-opacity="0.200000" points="615.29,-250.18 621.29,-248.08 615.29,-245.98 615.29,-250.18"/>
</g>
<!-- test/lib/rules/ast&#45;utl.spec.mjs&#45;&gt;node:test -->
<g id="edge28" class="edge">
<title>test/lib/rules/ast&#45;utl.spec.mjs&#45;&gt;node:test</title>
<path fill="none" stroke="#000000" stroke-dasharray="5,2" stroke-opacity="0.200000" d="M155.55,-158.5C183.16,-158.5 215,-158.5 215,-158.5 215,-158.5 215,-353.04 215,-353.04 215,-353.04 231.73,-353.04 231.73,-353.04"/>
<polygon fill="#000000" fill-opacity="0.200000" stroke="#000000" stroke-opacity="0.200000" points="231.73,-355.14 237.73,-353.04 231.73,-350.94 231.73,-355.14"/>
</g>
<!-- test/lib/rules/global&#45;constant&#45;pattern&#45;rule.spec.mjs -->
<g id="node20" class="node">
<title>test/lib/rules/global&#45;constant&#45;pattern&#45;rule.spec.mjs</title>
<g id="a_node20"><a xlink:href="https://github.com/sverweij/eslint-plugin-budapestian/blob/main/test/lib/rules/global-constant-pattern-rule.spec.mjs" xlink:title="global&#45;constant&#45;pattern&#45;rule.spec.mjs">
<path fill="#ffffcc" stroke="black" d="M193.58,-49.88C193.58,-49.88 37.92,-49.88 37.92,-49.88 34.96,-49.88 32,-46.92 32,-43.96 32,-43.96 32,-38.04 32,-38.04 32,-35.08 34.96,-32.12 37.92,-32.12 37.92,-32.12 193.58,-32.12 193.58,-32.12 196.54,-32.12 199.5,-35.08 199.5,-38.04 199.5,-38.04 199.5,-43.96 199.5,-43.96 199.5,-46.92 196.54,-49.88 193.58,-49.88"/>
<text text-anchor="start" x="40" y="-37.33" font-family="Helvetica,sans-Serif" font-size="9.00">global&#45;constant&#45;pattern&#45;rule.spec.mjs</text>
</a>
</g>
</g>
<!-- test/lib/rules/global&#45;constant&#45;pattern&#45;rule.spec.mjs&#45;&gt;lib/rules/global&#45;constant&#45;pattern&#45;rule.js -->
<g id="edge29" class="edge">
<title>test/lib/rules/global&#45;constant&#45;pattern&#45;rule.spec.mjs&#45;&gt;lib/rules/global&#45;constant&#45;pattern&#45;rule.js</title>
<path fill="none" stroke="#000000" stroke-width="2" stroke-opacity="0.200000" d="M116,-50.02C116,-53.87 116,-57.5 116,-57.5 116,-57.5 513,-57.5 513,-57.5 513,-57.5 513,-159.92 513,-159.92"/>
<polygon fill="#000000" fill-opacity="0.200000" stroke="#000000" stroke-width="2" stroke-opacity="0.200000" points="510.9,-159.92 513,-165.92 515.1,-159.92 510.9,-159.92"/>
</g>
<!-- test/lib/rules/global&#45;constant&#45;pattern&#45;rule.spec.mjs&#45;&gt;module -->
<g id="edge31" class="edge">
<title>test/lib/rules/global&#45;constant&#45;pattern&#45;rule.spec.mjs&#45;&gt;module</title>
<path fill="none" stroke="#000000" stroke-dasharray="5,2" stroke-opacity="0.200000" d="M199.94,-40.04C199.94,-40.04 231.62,-40.04 231.62,-40.04"/>
<polygon fill="#000000" fill-opacity="0.200000" stroke="#000000" stroke-opacity="0.200000" points="231.62,-42.14 237.62,-40.04 231.62,-37.94 231.62,-42.14"/>
</g>
<!-- test/lib/rules/global&#45;constant&#45;pattern&#45;rule.spec.mjs&#45;&gt;node_modules/eslint -->
<g id="edge30" class="edge">
<title>test/lib/rules/global&#45;constant&#45;pattern&#45;rule.spec.mjs&#45;&gt;node_modules/eslint</title>
<path fill="none" stroke="#000000" stroke-opacity="0.200000" d="M199.81,-44.96C217.54,-44.96 231,-44.96 231,-44.96 231,-44.96 231,-94.25 231,-94.25 231,-94.25 713.41,-94.25 713.41,-94.25"/>
<polygon fill="#000000" fill-opacity="0.200000" stroke="#000000" stroke-opacity="0.200000" points="713.41,-96.35 719.41,-94.25 713.41,-92.15 713.41,-96.35"/>
</g>
<!-- test/lib/rules/global&#45;variable&#45;pattern&#45;rule.spec.mjs -->
<g id="node21" class="node">
<title>test/lib/rules/global&#45;variable&#45;pattern&#45;rule.spec.mjs</title>
<g id="a_node21"><a xlink:href="https://github.com/sverweij/eslint-plugin-budapestian/blob/main/test/lib/rules/global-variable-pattern-rule.spec.mjs" xlink:title="global&#45;variable&#45;pattern&#45;rule.spec.mjs">
<path fill="#ffffcc" stroke="black" d="M192.83,-139.88C192.83,-139.88 38.67,-139.88 38.67,-139.88 35.71,-139.88 32.75,-136.92 32.75,-133.96 32.75,-133.96 32.75,-128.04 32.75,-128.04 32.75,-125.08 35.71,-122.12 38.67,-122.12 38.67,-122.12 192.83,-122.12 192.83,-122.12 195.79,-122.12 198.75,-125.08 198.75,-128.04 198.75,-128.04 198.75,-133.96 198.75,-133.96 198.75,-136.92 195.79,-139.88 192.83,-139.88"/>
<text text-anchor="start" x="40.75" y="-127.33" font-family="Helvetica,sans-Serif" font-size="9.00">global&#45;variable&#45;pattern&#45;rule.spec.mjs</text>
</a>
</g>
</g>
<!-- test/lib/rules/global&#45;variable&#45;pattern&#45;rule.spec.mjs&#45;&gt;lib/rules/global&#45;variable&#45;pattern&#45;rule.js -->
<g id="edge32" class="edge">
<title>test/lib/rules/global&#45;variable&#45;pattern&#45;rule.spec.mjs&#45;&gt;lib/rules/global&#45;variable&#45;pattern&#45;rule.js</title>
<path fill="none" stroke="#000000" stroke-width="2" stroke-opacity="0.200000" d="M177,-140.12C177,-167.51 177,-247.21 177,-247.21 177,-247.21 308.17,-247.21 308.17,-247.21"/>
<polygon fill="#000000" fill-opacity="0.200000" stroke="#000000" stroke-width="2" stroke-opacity="0.200000" points="308.17,-249.31 314.17,-247.21 308.17,-245.11 308.17,-249.31"/>
</g>
<!-- test/lib/rules/global&#45;variable&#45;pattern&#45;rule.spec.mjs&#45;&gt;module -->
<g id="edge34" class="edge">
<title>test/lib/rules/global&#45;variable&#45;pattern&#45;rule.spec.mjs&#45;&gt;module</title>
<path fill="none" stroke="#000000" stroke-dasharray="5,2" stroke-opacity="0.200000" d="M198.84,-128.5C232.24,-128.5 263,-128.5 263,-128.5 263,-128.5 263,-60.88 263,-60.88"/>
<polygon fill="#000000" fill-opacity="0.200000" stroke="#000000" stroke-opacity="0.200000" points="265.1,-60.88 263,-54.88 260.9,-60.88 265.1,-60.88"/>
</g>
<!-- test/lib/rules/global&#45;variable&#45;pattern&#45;rule.spec.mjs&#45;&gt;node_modules/eslint -->
<g id="edge33" class="edge">
<title>test/lib/rules/global&#45;variable&#45;pattern&#45;rule.spec.mjs&#45;&gt;node_modules/eslint</title>
<path fill="none" stroke="#000000" stroke-opacity="0.200000" d="M198.98,-131.69C299.72,-131.69 456,-131.69 456,-131.69 456,-131.69 456,-100.62 456,-100.62 456,-100.62 713.62,-100.62 713.62,-100.62"/>
<polygon fill="#000000" fill-opacity="0.200000" stroke="#000000" stroke-opacity="0.200000" points="713.62,-102.73 719.62,-100.63 713.62,-98.53 713.62,-102.73"/>
</g>
<!-- test/lib/rules/local&#45;variable&#45;pattern&#45;rule.spec.mjs -->
<g id="node22" class="node">
<title>test/lib/rules/local&#45;variable&#45;pattern&#45;rule.spec.mjs</title>
<g id="a_node22"><a xlink:href="https://github.com/sverweij/eslint-plugin-budapestian/blob/main/test/lib/rules/local-variable-pattern-rule.spec.mjs" xlink:title="local&#45;variable&#45;pattern&#45;rule.spec.mjs">
<path fill="#ffffcc" stroke="black" d="M189.83,-109.88C189.83,-109.88 41.67,-109.88 41.67,-109.88 38.71,-109.88 35.75,-106.92 35.75,-103.96 35.75,-103.96 35.75,-98.04 35.75,-98.04 35.75,-95.08 38.71,-92.12 41.67,-92.12 41.67,-92.12 189.83,-92.12 189.83,-92.12 192.79,-92.12 195.75,-95.08 195.75,-98.04 195.75,-98.04 195.75,-103.96 195.75,-103.96 195.75,-106.92 192.79,-109.88 189.83,-109.88"/>
<text text-anchor="start" x="43.75" y="-97.33" font-family="Helvetica,sans-Serif" font-size="9.00">local&#45;variable&#45;pattern&#45;rule.spec.mjs</text>
</a>
</g>
</g>
<!-- test/lib/rules/local&#45;variable&#45;pattern&#45;rule.spec.mjs&#45;&gt;lib/rules/local&#45;variable&#45;pattern&#45;rule.js -->
<g id="edge35" class="edge">
<title>test/lib/rules/local&#45;variable&#45;pattern&#45;rule.spec.mjs&#45;&gt;lib/rules/local&#45;variable&#45;pattern&#45;rule.js</title>
<path fill="none" stroke="#000000" stroke-width="2" stroke-opacity="0.200000" d="M196.21,-102.75C211.59,-102.75 223,-102.75 223,-102.75 223,-102.75 223,-208.38 223,-208.38 223,-208.38 311.07,-208.38 311.07,-208.38"/>
<polygon fill="#000000" fill-opacity="0.200000" stroke="#000000" stroke-width="2" stroke-opacity="0.200000" points="311.07,-210.48 317.07,-208.38 311.07,-206.28 311.07,-210.48"/>
</g>
<!-- test/lib/rules/local&#45;variable&#45;pattern&#45;rule.spec.mjs&#45;&gt;module -->
<g id="edge37" class="edge">
<title>test/lib/rules/local&#45;variable&#45;pattern&#45;rule.spec.mjs&#45;&gt;module</title>
<path fill="none" stroke="#000000" stroke-dasharray="5,2" stroke-opacity="0.200000" d="M195.95,-96.38C226.9,-96.38 255,-96.38 255,-96.38 255,-96.38 255,-60.64 255,-60.64"/>
<polygon fill="#000000" fill-opacity="0.200000" stroke="#000000" stroke-opacity="0.200000" points="257.1,-60.64 255,-54.64 252.9,-60.64 257.1,-60.64"/>
</g>
<!-- test/lib/rules/local&#45;variable&#45;pattern&#45;rule.spec.mjs&#45;&gt;node_modules/eslint -->
<g id="edge36" class="edge">
<title>test/lib/rules/local&#45;variable&#45;pattern&#45;rule.spec.mjs&#45;&gt;node_modules/eslint</title>
<path fill="none" stroke="#000000" stroke-opacity="0.200000" d="M196.19,-98.5C196.19,-98.5 713.6,-98.5 713.6,-98.5"/>
<polygon fill="#000000" fill-opacity="0.200000" stroke="#000000" stroke-opacity="0.200000" points="713.6,-100.6 719.6,-98.5 713.6,-96.4 713.6,-100.6"/>
</g>
<!-- test/lib/rules/parameter&#45;pattern&#45;rule.spec.mjs -->
<g id="node23" class="node">
<title>test/lib/rules/parameter&#45;pattern&#45;rule.spec.mjs</title>
<g id="a_node23"><a xlink:href="https://github.com/sverweij/eslint-plugin-budapestian/blob/main/test/lib/rules/parameter-pattern-rule.spec.mjs" xlink:title="parameter&#45;pattern&#45;rule.spec.mjs">
<path fill="#ffffcc" stroke="black" d="M183.08,-79.88C183.08,-79.88 48.42,-79.88 48.42,-79.88 45.46,-79.88 42.5,-76.92 42.5,-73.96 42.5,-73.96 42.5,-68.04 42.5,-68.04 42.5,-65.08 45.46,-62.12 48.42,-62.12 48.42,-62.12 183.08,-62.12 183.08,-62.12 186.04,-62.12 189,-65.08 189,-68.04 189,-68.04 189,-73.96 189,-73.96 189,-76.92 186.04,-79.88 183.08,-79.88"/>
<text text-anchor="start" x="50.5" y="-67.33" font-family="Helvetica,sans-Serif" font-size="9.00">parameter&#45;pattern&#45;rule.spec.mjs</text>
</a>
</g>
</g>
<!-- test/lib/rules/parameter&#45;pattern&#45;rule.spec.mjs&#45;&gt;lib/rules/parameter&#45;pattern&#45;rule.js -->
<g id="edge38" class="edge">
<title>test/lib/rules/parameter&#45;pattern&#45;rule.spec.mjs&#45;&gt;lib/rules/parameter&#45;pattern&#45;rule.js</title>
<path fill="none" stroke="#000000" stroke-width="2" stroke-opacity="0.200000" d="M189.24,-75.44C269.27,-75.44 386,-75.44 386,-75.44 386,-75.44 386,-165.72 386,-165.72"/>
<polygon fill="#000000" fill-opacity="0.200000" stroke="#000000" stroke-width="2" stroke-opacity="0.200000" points="383.9,-165.72 386,-171.72 388.1,-165.72 383.9,-165.72"/>
</g>
<!-- test/lib/rules/parameter&#45;pattern&#45;rule.spec.mjs&#45;&gt;module -->
<g id="edge40" class="edge">
<title>test/lib/rules/parameter&#45;pattern&#45;rule.spec.mjs&#45;&gt;module</title>
<path fill="none" stroke="#000000" stroke-dasharray="5,2" stroke-opacity="0.200000" d="M189.43,-66.56C219.35,-66.56 247,-66.56 247,-66.56 247,-66.56 247,-60.69 247,-60.69"/>
<polygon fill="#000000" fill-opacity="0.200000" stroke="#000000" stroke-opacity="0.200000" points="249.1,-60.69 247,-54.69 244.9,-60.69 249.1,-60.69"/>
</g>
<!-- test/lib/rules/parameter&#45;pattern&#45;rule.spec.mjs&#45;&gt;node_modules/eslint -->
<g id="edge39" class="edge">
<title>test/lib/rules/parameter&#45;pattern&#45;rule.spec.mjs&#45;&gt;node_modules/eslint</title>
<path fill="none" stroke="#000000" stroke-opacity="0.200000" d="M189.2,-71C355.81,-71 748,-71 748,-71 748,-71 748,-79.18 748,-79.18"/>
<polygon fill="#000000" fill-opacity="0.200000" stroke="#000000" stroke-opacity="0.200000" points="745.9,-79.18 748,-85.18 750.1,-79.18 745.9,-79.18"/>
</g>
</g>
</svg>
