<?xml version="1.0" encoding="UTF-8" standalone="no"?>
<!DOCTYPE svg PUBLIC "-//W3C//DTD SVG 1.1//EN"
 "http://www.w3.org/Graphics/SVG/1.1/DTD/svg11.dtd">
<!-- Generated by graphviz version 12.2.1 (20241206.2353)
 -->
<!-- Title: dependency&#45;cruiser output Pages: 1 -->
<svg width="744pt" height="588pt"
 viewBox="0.00 0.00 744.00 587.88" xmlns="http://www.w3.org/2000/svg" xmlns:xlink="http://www.w3.org/1999/xlink">
<g id="graph0" class="graph" transform="scale(1 1) rotate(0) translate(4 583.88)">
<title>dependency&#45;cruiser output</title>
<polygon fill="white" stroke="none" points="-4,4 -4,-583.88 740,-583.88 740,4 -4,4"/>
<g id="clust1" class="cluster">
<title>cluster_assert</title>
<path fill="#ffffff" stroke="black" stroke-width="2" d="M277.38,-264C277.38,-264 323.38,-264 323.38,-264 329.38,-264 335.38,-270 335.38,-276 335.38,-276 335.38,-304 335.38,-304 335.38,-310 329.38,-316 323.38,-316 323.38,-316 277.38,-316 277.38,-316 271.38,-316 265.38,-310 265.38,-304 265.38,-304 265.38,-276 265.38,-276 265.38,-270 271.38,-264 277.38,-264"/>
<text text-anchor="middle" x="300.38" y="-303.45" font-family="Helvetica,sans-Serif" font-weight="bold" font-size="9.00">assert</text>
</g>
<g id="clust2" class="cluster">
<title>cluster_lib</title>
<path fill="#ffffff" stroke="black" stroke-width="2" d="M89,-324C89,-324 603.25,-324 603.25,-324 609.25,-324 615.25,-330 615.25,-336 615.25,-336 615.25,-512 615.25,-512 615.25,-518 609.25,-524 603.25,-524 603.25,-524 89,-524 89,-524 83,-524 77,-518 77,-512 77,-512 77,-336 77,-336 77,-330 83,-324 89,-324"/>
<text text-anchor="middle" x="346.12" y="-511.45" font-family="Helvetica,sans-Serif" font-weight="bold" font-size="9.00">lib</text>
</g>
<g id="clust3" class="cluster">
<title>cluster_lib/rules</title>
<path fill="#ffffff" stroke="black" stroke-width="2" d="M236,-332C236,-332 595.25,-332 595.25,-332 601.25,-332 607.25,-338 607.25,-344 607.25,-344 607.25,-486 607.25,-486 607.25,-492 601.25,-498 595.25,-498 595.25,-498 236,-498 236,-498 230,-498 224,-492 224,-486 224,-486 224,-344 224,-344 224,-338 230,-332 236,-332"/>
<text text-anchor="middle" x="415.62" y="-485.45" font-family="Helvetica,sans-Serif" font-weight="bold" font-size="9.00">rules</text>
</g>
<g id="clust4" class="cluster">
<title>cluster_node_modules</title>
<path fill="#ffffff" stroke="black" stroke-width="2" d="M635.25,-10C635.25,-10 716,-10 716,-10 722,-10 728,-16 728,-22 728,-22 728,-140 728,-140 728,-146 722,-152 716,-152 716,-152 635.25,-152 635.25,-152 629.25,-152 623.25,-146 623.25,-140 623.25,-140 623.25,-22 623.25,-22 623.25,-16 629.25,-10 635.25,-10"/>
<text text-anchor="middle" x="675.62" y="-139.45" font-family="Helvetica,sans-Serif" font-weight="bold" font-size="9.00">node_modules</text>
</g>
<g id="clust5" class="cluster">
<title>cluster_test</title>
<path fill="#ffffff" stroke="black" stroke-width="2" d="M20,-8C20,-8 204,-8 204,-8 210,-8 216,-14 216,-20 216,-20 216,-262 216,-262 216,-268 210,-274 204,-274 204,-274 20,-274 20,-274 14,-274 8,-268 8,-262 8,-262 8,-20 8,-20 8,-14 14,-8 20,-8"/>
<text text-anchor="middle" x="112" y="-261.45" font-family="Helvetica,sans-Serif" font-weight="bold" font-size="9.00">test</text>
</g>
<g id="clust6" class="cluster">
<title>cluster_test/lib</title>
<path fill="#ffffff" stroke="black" stroke-width="2" d="M28,-16C28,-16 196,-16 196,-16 202,-16 208,-22 208,-28 208,-28 208,-236 208,-236 208,-242 202,-248 196,-248 196,-248 28,-248 28,-248 22,-248 16,-242 16,-236 16,-236 16,-28 16,-28 16,-22 22,-16 28,-16"/>
<text text-anchor="middle" x="112" y="-235.45" font-family="Helvetica,sans-Serif" font-weight="bold" font-size="9.00">lib</text>
</g>
<g id="clust7" class="cluster">
<title>cluster_test/lib/rules</title>
<path fill="#ffffff" stroke="black" stroke-width="2" d="M36,-24C36,-24 188,-24 188,-24 194,-24 200,-30 200,-36 200,-36 200,-184 200,-184 200,-190 194,-196 188,-196 188,-196 36,-196 36,-196 30,-196 24,-190 24,-184 24,-184 24,-36 24,-36 24,-30 30,-24 36,-24"/>
<text text-anchor="middle" x="112" y="-183.45" font-family="Helvetica,sans-Serif" font-weight="bold" font-size="9.00">rules</text>
</g>
<!-- assert/strict -->
<g id="node1" class="node">
<title>assert/strict</title>
<g id="a_node1"><a xlink:href="https://nodejs.org/api/assert.html" xlink:title="strict">
<path fill="#ffffcc" stroke="grey" d="M321.46,-289.88C321.46,-289.88 279.29,-289.88 279.29,-289.88 276.33,-289.88 273.38,-286.92 273.38,-283.96 273.38,-283.96 273.38,-278.04 273.38,-278.04 273.38,-275.08 276.33,-272.12 279.29,-272.12 279.29,-272.12 321.46,-272.12 321.46,-272.12 324.42,-272.12 327.38,-275.08 327.38,-278.04 327.38,-278.04 327.38,-283.96 327.38,-283.96 327.38,-286.92 324.42,-289.88 321.46,-289.88"/>
<text text-anchor="start" x="291" y="-277.32" font-family="Helvetica,sans-Serif" font-size="9.00" fill="grey">strict</text>
</a>
</g>
</g>
<!-- fs -->
<g id="node2" class="node">
<title>fs</title>
<g id="a_node2"><a xlink:href="https://nodejs.org/api/fs.html" xlink:title="fs">
<path fill="#ffffcc" stroke="grey" d="M321.46,-255.88C321.46,-255.88 279.29,-255.88 279.29,-255.88 276.33,-255.88 273.38,-252.92 273.38,-249.96 273.38,-249.96 273.38,-244.04 273.38,-244.04 273.38,-241.08 276.33,-238.12 279.29,-238.12 279.29,-238.12 321.46,-238.12 321.46,-238.12 324.42,-238.12 327.38,-241.08 327.38,-244.04 327.38,-244.04 327.38,-249.96 327.38,-249.96 327.38,-252.92 324.42,-255.88 321.46,-255.88"/>
<text text-anchor="middle" x="300.38" y="-243.32" font-family="Helvetica,sans-Serif" font-size="9.00" fill="grey">fs</text>
</a>
</g>
</g>
<!-- lib/index.js -->
<g id="node3" class="node">
<title>lib/index.js</title>
<g id="a_node3"><a xlink:href="https://github.com/sverweij/eslint-plugin-budapestian/blob/main/lib/index.js" xlink:title="index.js">
<path fill="#ffffcc" stroke="black" d="M133.08,-424.88C133.08,-424.88 90.92,-424.88 90.92,-424.88 87.96,-424.88 85,-421.92 85,-418.96 85,-418.96 85,-413.04 85,-413.04 85,-410.08 87.96,-407.12 90.92,-407.12 90.92,-407.12 133.08,-407.12 133.08,-407.12 136.04,-407.12 139,-410.08 139,-413.04 139,-413.04 139,-418.96 139,-418.96 139,-421.92 136.04,-424.88 133.08,-424.88"/>
<text text-anchor="start" x="96.25" y="-412.32" font-family="Helvetica,sans-Serif" font-size="9.00">index.js</text>
</a>
</g>
</g>
<!-- package.json -->
<g id="node4" class="node">
<title>package.json</title>
<g id="a_node4"><a xlink:href="https://github.com/sverweij/eslint-plugin-budapestian/blob/main/package.json" xlink:title="package.json">
<path fill="#ffee44" stroke="black" d="M329.83,-579.88C329.83,-579.88 270.92,-579.88 270.92,-579.88 267.96,-579.88 265,-576.92 265,-573.96 265,-573.96 265,-568.04 265,-568.04 265,-565.08 267.96,-562.12 270.92,-562.12 270.92,-562.12 329.83,-562.12 329.83,-562.12 332.79,-562.12 335.75,-565.08 335.75,-568.04 335.75,-568.04 335.75,-573.96 335.75,-573.96 335.75,-576.92 332.79,-579.88 329.83,-579.88"/>
<text text-anchor="middle" x="300.38" y="-567.33" font-family="Helvetica,sans-Serif" font-size="9.00">package.json</text>
</a>
</g>
</g>
<!-- lib/index.js&#45;&gt;package.json -->
<g id="edge1" class="edge">
<title>lib/index.js&#45;&gt;package.json</title>
<path fill="none" stroke="#000000" stroke-width="2" stroke-opacity="0.200000" d="M98,-425.23C98,-458.6 98,-571 98,-571 98,-571 255.63,-571 255.63,-571"/>
<polygon fill="#000000" fill-opacity="0.200000" stroke="#000000" stroke-width="2" stroke-opacity="0.200000" points="255.63,-573.1 261.63,-571 255.63,-568.9 255.63,-573.1"/>
</g>
<!-- lib/rules/global&#45;constant&#45;pattern&#45;rule.js -->
<g id="node5" class="node">
<title>lib/rules/global&#45;constant&#45;pattern&#45;rule.js</title>
<g id="a_node5"><a xlink:href="https://github.com/sverweij/eslint-plugin-budapestian/blob/main/lib/rules/global-constant-pattern-rule.js" xlink:title="global&#45;constant&#45;pattern&#45;rule.js">
<path fill="#ffffcc" stroke="black" d="M514.08,-457.88C514.08,-457.88 387.67,-457.88 387.67,-457.88 384.71,-457.88 381.75,-454.92 381.75,-451.96 381.75,-451.96 381.75,-446.04 381.75,-446.04 381.75,-443.08 384.71,-440.12 387.67,-440.12 387.67,-440.12 514.08,-440.12 514.08,-440.12 517.04,-440.12 520,-443.08 520,-446.04 520,-446.04 520,-451.96 520,-451.96 520,-454.92 517.04,-457.88 514.08,-457.88"/>
<text text-anchor="start" x="389.75" y="-445.32" font-family="Helvetica,sans-Serif" font-size="9.00">global&#45;constant&#45;pattern&#45;rule.js</text>
</a>
</g>
</g>
<!-- lib/index.js&#45;&gt;lib/rules/global&#45;constant&#45;pattern&#45;rule.js -->
<g id="edge2" class="edge">
<title>lib/index.js&#45;&gt;lib/rules/global&#45;constant&#45;pattern&#45;rule.js</title>
<path fill="none" stroke="#000000" stroke-width="2" stroke-opacity="0.200000" d="M125,-425.37C125,-435.12 125,-449 125,-449 125,-449 372.34,-449 372.34,-449"/>
<polygon fill="#000000" fill-opacity="0.200000" stroke="#000000" stroke-width="2" stroke-opacity="0.200000" points="372.34,-451.1 378.34,-449 372.34,-446.9 372.34,-451.1"/>
</g>
<!-- lib/rules/global&#45;variable&#45;pattern&#45;rule.js -->
<g id="node6" class="node">
<title>lib/rules/global&#45;variable&#45;pattern&#45;rule.js</title>
<g id="a_node6"><a xlink:href="https://github.com/sverweij/eslint-plugin-budapestian/blob/main/lib/rules/global-variable-pattern-rule.js" xlink:title="global&#45;variable&#45;pattern&#45;rule.js">
<path fill="#ffffcc" stroke="black" d="M362.83,-424.88C362.83,-424.88 237.92,-424.88 237.92,-424.88 234.96,-424.88 232,-421.92 232,-418.96 232,-418.96 232,-413.04 232,-413.04 232,-410.08 234.96,-407.12 237.92,-407.12 237.92,-407.12 362.83,-407.12 362.83,-407.12 365.79,-407.12 368.75,-410.08 368.75,-413.04 368.75,-413.04 368.75,-418.96 368.75,-418.96 368.75,-421.92 365.79,-424.88 362.83,-424.88"/>
<text text-anchor="start" x="240" y="-412.32" font-family="Helvetica,sans-Serif" font-size="9.00">global&#45;variable&#45;pattern&#45;rule.js</text>
</a>
</g>
</g>
<!-- lib/index.js&#45;&gt;lib/rules/global&#45;variable&#45;pattern&#45;rule.js -->
<g id="edge3" class="edge">
<title>lib/index.js&#45;&gt;lib/rules/global&#45;variable&#45;pattern&#45;rule.js</title>
<path fill="none" stroke="#000000" stroke-width="2" stroke-opacity="0.200000" d="M139.39,-418.96C139.39,-418.96 222.84,-418.96 222.84,-418.96"/>
<polygon fill="#000000" fill-opacity="0.200000" stroke="#000000" stroke-width="2" stroke-opacity="0.200000" points="222.84,-421.06 228.84,-418.96 222.84,-416.86 222.84,-421.06"/>
</g>
<!-- lib/rules/local&#45;variable&#45;pattern&#45;rule.js -->
<g id="node7" class="node">
<title>lib/rules/local&#45;variable&#45;pattern&#45;rule.js</title>
<g id="a_node7"><a xlink:href="https://github.com/sverweij/eslint-plugin-budapestian/blob/main/lib/rules/local-variable-pattern-rule.js" xlink:title="local&#45;variable&#45;pattern&#45;rule.js">
<path fill="#ffffcc" stroke="black" d="M359.83,-394.88C359.83,-394.88 240.92,-394.88 240.92,-394.88 237.96,-394.88 235,-391.92 235,-388.96 235,-388.96 235,-383.04 235,-383.04 235,-380.08 237.96,-377.12 240.92,-377.12 240.92,-377.12 359.83,-377.12 359.83,-377.12 362.79,-377.12 365.75,-380.08 365.75,-383.04 365.75,-383.04 365.75,-388.96 365.75,-388.96 365.75,-391.92 362.79,-394.88 359.83,-394.88"/>
<text text-anchor="start" x="243" y="-382.32" font-family="Helvetica,sans-Serif" font-size="9.00">local&#45;variable&#45;pattern&#45;rule.js</text>
</a>
</g>
</g>
<!-- lib/index.js&#45;&gt;lib/rules/local&#45;variable&#45;pattern&#45;rule.js -->
<g id="edge4" class="edge">
<title>lib/index.js&#45;&gt;lib/rules/local&#45;variable&#45;pattern&#45;rule.js</title>
<path fill="none" stroke="#000000" stroke-width="2" stroke-opacity="0.200000" d="M125,-406.84C125,-399 125,-388.96 125,-388.96 125,-388.96 225.55,-388.96 225.55,-388.96"/>
<polygon fill="#000000" fill-opacity="0.200000" stroke="#000000" stroke-width="2" stroke-opacity="0.200000" points="225.55,-391.06 231.55,-388.96 225.55,-386.86 225.55,-391.06"/>
</g>
<!-- lib/rules/parameter&#45;pattern&#45;rule.js -->
<g id="node8" class="node">
<title>lib/rules/parameter&#45;pattern&#45;rule.js</title>
<g id="a_node8"><a xlink:href="https://github.com/sverweij/eslint-plugin-budapestian/blob/main/lib/rules/parameter-pattern-rule.js" xlink:title="parameter&#45;pattern&#45;rule.js">
<path fill="#ffffcc" stroke="black" d="M353.08,-364.88C353.08,-364.88 247.67,-364.88 247.67,-364.88 244.71,-364.88 241.75,-361.92 241.75,-358.96 241.75,-358.96 241.75,-353.04 241.75,-353.04 241.75,-350.08 244.71,-347.12 247.67,-347.12 247.67,-347.12 353.08,-347.12 353.08,-347.12 356.04,-347.12 359,-350.08 359,-353.04 359,-353.04 359,-358.96 359,-358.96 359,-361.92 356.04,-364.88 353.08,-364.88"/>
<text text-anchor="start" x="249.75" y="-352.32" font-family="Helvetica,sans-Serif" font-size="9.00">parameter&#45;pattern&#45;rule.js</text>
</a>
</g>
</g>
<!-- lib/index.js&#45;&gt;lib/rules/parameter&#45;pattern&#45;rule.js -->
<g id="edge5" class="edge">
<title>lib/index.js&#45;&gt;lib/rules/parameter&#45;pattern&#45;rule.js</title>
<path fill="none" stroke="#000000" stroke-width="2" stroke-opacity="0.200000" d="M112,-406.62C112,-389.75 112,-356 112,-356 112,-356 232.26,-356 232.26,-356"/>
<polygon fill="#000000" fill-opacity="0.200000" stroke="#000000" stroke-width="2" stroke-opacity="0.200000" points="232.26,-358.1 238.26,-356 232.26,-353.9 232.26,-358.1"/>
</g>
<!-- module -->
<g id="node9" class="node">
<title>module</title>
<g id="a_node9"><a xlink:href="https://nodejs.org/api/module.html" xlink:title="module">
<path fill="#ffffcc" stroke="grey" d="M321.46,-549.88C321.46,-549.88 279.29,-549.88 279.29,-549.88 276.33,-549.88 273.38,-546.92 273.38,-543.96 273.38,-543.96 273.38,-538.04 273.38,-538.04 273.38,-535.08 276.33,-532.12 279.29,-532.12 279.29,-532.12 321.46,-532.12 321.46,-532.12 324.42,-532.12 327.38,-535.08 327.38,-538.04 327.38,-538.04 327.38,-543.96 327.38,-543.96 327.38,-546.92 324.42,-549.88 321.46,-549.88"/>
<text text-anchor="middle" x="300.38" y="-537.33" font-family="Helvetica,sans-Serif" font-size="9.00" fill="grey">module</text>
</a>
</g>
</g>
<!-- lib/index.js&#45;&gt;module -->
<g id="edge6" class="edge">
<title>lib/index.js&#45;&gt;module</title>
<path fill="none" stroke="#000000" stroke-dasharray="5,2" stroke-opacity="0.200000" d="M112,-424.99C112,-453.65 112,-541 112,-541 112,-541 265.47,-541 265.47,-541"/>
<polygon fill="#000000" fill-opacity="0.200000" stroke="#000000" stroke-opacity="0.200000" points="265.47,-543.1 271.47,-541 265.47,-538.9 265.47,-543.1"/>
</g>
<!-- lib/rules/ast&#45;utl.js -->
<g id="node10" class="node">
<title>lib/rules/ast&#45;utl.js</title>
<g id="a_node10"><a xlink:href="https://github.com/sverweij/eslint-plugin-budapestian/blob/main/lib/rules/ast-utl.js" xlink:title="ast&#45;utl.js">
<path fill="#ffffcc" stroke="black" d="M587.21,-366.88C587.21,-366.88 545.04,-366.88 545.04,-366.88 542.08,-366.88 539.12,-363.92 539.12,-360.96 539.12,-360.96 539.12,-355.04 539.12,-355.04 539.12,-352.08 542.08,-349.12 545.04,-349.12 545.04,-349.12 587.21,-349.12 587.21,-349.12 590.17,-349.12 593.12,-352.08 593.12,-355.04 593.12,-355.04 593.12,-360.96 593.12,-360.96 593.12,-363.92 590.17,-366.88 587.21,-366.88"/>
<text text-anchor="start" x="549.25" y="-354.32" font-family="Helvetica,sans-Serif" font-size="9.00">ast&#45;utl.js</text>
</a>
</g>
</g>
<!-- lib/rules/global&#45;constant&#45;pattern&#45;rule.js&#45;&gt;lib/rules/ast&#45;utl.js -->
<g id="edge7" class="edge">
<title>lib/rules/global&#45;constant&#45;pattern&#45;rule.js&#45;&gt;lib/rules/ast&#45;utl.js</title>
<path fill="none" stroke="#000000" stroke-width="2" stroke-opacity="0.200000" d="M515,-439.76C515,-417.47 515,-362.62 515,-362.62 515,-362.62 529.74,-362.62 529.74,-362.62"/>
<polygon fill="#000000" fill-opacity="0.200000" stroke="#000000" stroke-width="2" stroke-opacity="0.200000" points="529.74,-364.73 535.74,-362.63 529.74,-360.53 529.74,-364.73"/>
</g>
<!-- lib/rules/pattern&#45;utl.js -->
<g id="node11" class="node">
<title>lib/rules/pattern&#45;utl.js</title>
<g id="a_node11"><a xlink:href="https://github.com/sverweij/eslint-plugin-budapestian/blob/main/lib/rules/pattern-utl.js" xlink:title="pattern&#45;utl.js">
<path fill="#ffffcc" stroke="black" d="M593.33,-406.88C593.33,-406.88 538.92,-406.88 538.92,-406.88 535.96,-406.88 533,-403.92 533,-400.96 533,-400.96 533,-395.04 533,-395.04 533,-392.08 535.96,-389.12 538.92,-389.12 538.92,-389.12 593.33,-389.12 593.33,-389.12 596.29,-389.12 599.25,-392.08 599.25,-395.04 599.25,-395.04 599.25,-400.96 599.25,-400.96 599.25,-403.92 596.29,-406.88 593.33,-406.88"/>
<text text-anchor="start" x="541" y="-394.32" font-family="Helvetica,sans-Serif" font-size="9.00">pattern&#45;utl.js</text>
</a>
</g>
</g>
<!-- lib/rules/global&#45;constant&#45;pattern&#45;rule.js&#45;&gt;lib/rules/pattern&#45;utl.js -->
<g id="edge8" class="edge">
<title>lib/rules/global&#45;constant&#45;pattern&#45;rule.js&#45;&gt;lib/rules/pattern&#45;utl.js</title>
<path fill="none" stroke="#000000" stroke-width="2" stroke-opacity="0.200000" d="M518,-440C518,-427.01 518,-404.54 518,-404.54 518,-404.54 523.67,-404.54 523.67,-404.54"/>
<polygon fill="#000000" fill-opacity="0.200000" stroke="#000000" stroke-width="2" stroke-opacity="0.200000" points="523.67,-406.64 529.67,-404.54 523.67,-402.44 523.67,-406.64"/>
</g>
<!-- node_modules/decamelize -->
<g id="node12" class="node">
<title>node_modules/decamelize</title>
<g id="a_node12"><a xlink:href="https://www.npmjs.com/package/decamelize" xlink:title="decamelize">
<polygon fill="#c40b0a" fill-opacity="0.101961" stroke="black" points="707.25,-125.88 645.97,-125.88 644,-123.9 644,-108.12 705.28,-108.12 707.25,-110.1 707.25,-125.88"/>
<polyline fill="none" stroke="black" points="705.28,-123.9 644,-123.9"/>
<polyline fill="none" stroke="black" points="705.28,-123.9 705.28,-108.12"/>
<polyline fill="none" stroke="black" points="705.28,-123.9 707.25,-125.88"/>
<text text-anchor="start" x="652" y="-113.33" font-family="Helvetica,sans-Serif" font-size="9.00" fill="#c40b0a">decamelize</text>
</a>
</g>
</g>
<!-- lib/rules/global&#45;constant&#45;pattern&#45;rule.js&#45;&gt;node_modules/decamelize -->
<g id="edge9" class="edge">
<title>lib/rules/global&#45;constant&#45;pattern&#45;rule.js&#45;&gt;node_modules/decamelize</title>
<path fill="none" stroke="#000000" stroke-opacity="0.200000" d="M513,-439.75C513,-385.96 513,-116 513,-116 513,-116 636.37,-116 636.37,-116"/>
<polygon fill="#000000" fill-opacity="0.200000" stroke="#000000" stroke-opacity="0.200000" points="636.37,-118.1 642.37,-116 636.37,-113.9 636.37,-118.1"/>
</g>
<!-- lib/rules/global&#45;variable&#45;pattern&#45;rule.js&#45;&gt;lib/rules/ast&#45;utl.js -->
<g id="edge10" class="edge">
<title>lib/rules/global&#45;variable&#45;pattern&#45;rule.js&#45;&gt;lib/rules/ast&#45;utl.js</title>
<path fill="none" stroke="#000000" stroke-width="2" stroke-opacity="0.200000" d="M369.09,-411.56C373.96,-411.56 377,-411.56 377,-411.56 377,-411.56 377,-358.12 377,-358.12 377,-358.12 530,-358.12 530,-358.12"/>
<polygon fill="#000000" fill-opacity="0.200000" stroke="#000000" stroke-width="2" stroke-opacity="0.200000" points="530,-360.23 536,-358.13 530,-356.03 530,-360.23"/>
</g>
<!-- lib/rules/global&#45;variable&#45;pattern&#45;rule.js&#45;&gt;lib/rules/pattern&#45;utl.js -->
<g id="edge11" class="edge">
<title>lib/rules/global&#45;variable&#45;pattern&#45;rule.js&#45;&gt;lib/rules/pattern&#45;utl.js</title>
<path fill="none" stroke="#000000" stroke-width="2" stroke-opacity="0.200000" d="M369.13,-420.44C447.83,-420.44 566,-420.44 566,-420.44 566,-420.44 566,-416.15 566,-416.15"/>
<polygon fill="#000000" fill-opacity="0.200000" stroke="#000000" stroke-width="2" stroke-opacity="0.200000" points="568.1,-416.15 566,-410.15 563.9,-416.15 568.1,-416.15"/>
</g>
<!-- lib/rules/prefixed&#45;pascalcase&#45;utl.js -->
<g id="node13" class="node">
<title>lib/rules/prefixed&#45;pascalcase&#45;utl.js</title>
<g id="a_node13"><a xlink:href="https://github.com/sverweij/eslint-plugin-budapestian/blob/main/lib/rules/prefixed-pascalcase-utl.js" xlink:title="prefixed&#45;pascalcase&#45;utl.js">
<path fill="#ffffcc" stroke="black" d="M505.08,-399.88C505.08,-399.88 396.67,-399.88 396.67,-399.88 393.71,-399.88 390.75,-396.92 390.75,-393.96 390.75,-393.96 390.75,-388.04 390.75,-388.04 390.75,-385.08 393.71,-382.12 396.67,-382.12 396.67,-382.12 505.08,-382.12 505.08,-382.12 508.04,-382.12 511,-385.08 511,-388.04 511,-388.04 511,-393.96 511,-393.96 511,-396.92 508.04,-399.88 505.08,-399.88"/>
<text text-anchor="start" x="398.75" y="-387.32" font-family="Helvetica,sans-Serif" font-size="9.00">prefixed&#45;pascalcase&#45;utl.js</text>
</a>
</g>
</g>
<!-- lib/rules/global&#45;variable&#45;pattern&#45;rule.js&#45;&gt;lib/rules/prefixed&#45;pascalcase&#45;utl.js -->
<g id="edge12" class="edge">
<title>lib/rules/global&#45;variable&#45;pattern&#45;rule.js&#45;&gt;lib/rules/prefixed&#45;pascalcase&#45;utl.js</title>
<path fill="none" stroke="#000000" stroke-width="2" stroke-opacity="0.200000" d="M369.08,-416C408.8,-416 451,-416 451,-416 451,-416 451,-409.34 451,-409.34"/>
<polygon fill="#000000" fill-opacity="0.200000" stroke="#000000" stroke-width="2" stroke-opacity="0.200000" points="453.1,-409.34 451,-403.34 448.9,-409.34 453.1,-409.34"/>
</g>
<!-- lib/rules/local&#45;variable&#45;pattern&#45;rule.js&#45;&gt;lib/rules/ast&#45;utl.js -->
<g id="edge13" class="edge">
<title>lib/rules/local&#45;variable&#45;pattern&#45;rule.js&#45;&gt;lib/rules/ast&#45;utl.js</title>
<path fill="none" stroke="#000000" stroke-width="2" stroke-opacity="0.200000" d="M366.04,-386.38C370.34,-386.38 373,-386.38 373,-386.38 373,-386.38 373,-355.88 373,-355.88 373,-355.88 529.84,-355.88 529.84,-355.88"/>
<polygon fill="#000000" fill-opacity="0.200000" stroke="#000000" stroke-width="2" stroke-opacity="0.200000" points="529.84,-357.98 535.84,-355.88 529.84,-353.78 529.84,-357.98"/>
</g>
<!-- lib/rules/local&#45;variable&#45;pattern&#45;rule.js&#45;&gt;lib/rules/pattern&#45;utl.js -->
<g id="edge14" class="edge">
<title>lib/rules/local&#45;variable&#45;pattern&#45;rule.js&#45;&gt;lib/rules/pattern&#45;utl.js</title>
<path fill="none" stroke="#000000" stroke-width="2" stroke-opacity="0.200000" d="M300,-395.24C300,-398.88 300,-402.21 300,-402.21 300,-402.21 523.66,-402.21 523.66,-402.21"/>
<polygon fill="#000000" fill-opacity="0.200000" stroke="#000000" stroke-width="2" stroke-opacity="0.200000" points="523.66,-404.31 529.66,-402.21 523.66,-400.11 523.66,-404.31"/>
</g>
<!-- lib/rules/local&#45;variable&#45;pattern&#45;rule.js&#45;&gt;lib/rules/prefixed&#45;pascalcase&#45;utl.js -->
<g id="edge15" class="edge">
<title>lib/rules/local&#45;variable&#45;pattern&#45;rule.js&#45;&gt;lib/rules/prefixed&#45;pascalcase&#45;utl.js</title>
<path fill="none" stroke="#000000" stroke-width="2" stroke-opacity="0.200000" d="M365.95,-390.62C365.95,-390.62 381.23,-390.62 381.23,-390.62"/>
<polygon fill="#000000" fill-opacity="0.200000" stroke="#000000" stroke-width="2" stroke-opacity="0.200000" points="381.23,-392.73 387.23,-390.63 381.23,-388.53 381.23,-392.73"/>
</g>
<!-- lib/rules/parameter&#45;pattern&#45;rule.js&#45;&gt;lib/rules/ast&#45;utl.js -->
<g id="edge16" class="edge">
<title>lib/rules/parameter&#45;pattern&#45;rule.js&#45;&gt;lib/rules/ast&#45;utl.js</title>
<path fill="none" stroke="#000000" stroke-width="2" stroke-opacity="0.200000" d="M359.35,-351.38C359.35,-351.38 529.9,-351.38 529.9,-351.38"/>
<polygon fill="#000000" fill-opacity="0.200000" stroke="#000000" stroke-width="2" stroke-opacity="0.200000" points="529.9,-353.48 535.9,-351.38 529.9,-349.28 529.9,-353.48"/>
</g>
<!-- lib/rules/parameter&#45;pattern&#45;rule.js&#45;&gt;lib/rules/pattern&#45;utl.js -->
<g id="edge17" class="edge">
<title>lib/rules/parameter&#45;pattern&#45;rule.js&#45;&gt;lib/rules/pattern&#45;utl.js</title>
<path fill="none" stroke="#000000" stroke-width="2" stroke-opacity="0.200000" d="M359.3,-353.62C423.14,-353.62 516,-353.62 516,-353.62 516,-353.62 516,-392.71 516,-392.71 516,-392.71 523.66,-392.71 523.66,-392.71"/>
<polygon fill="#000000" fill-opacity="0.200000" stroke="#000000" stroke-width="2" stroke-opacity="0.200000" points="523.66,-394.81 529.66,-392.71 523.66,-390.61 523.66,-394.81"/>
</g>
<!-- lib/rules/parameter&#45;pattern&#45;rule.js&#45;&gt;lib/rules/prefixed&#45;pascalcase&#45;utl.js -->
<g id="edge18" class="edge">
<title>lib/rules/parameter&#45;pattern&#45;rule.js&#45;&gt;lib/rules/prefixed&#45;pascalcase&#45;utl.js</title>
<path fill="none" stroke="#000000" stroke-width="2" stroke-opacity="0.200000" d="M359.47,-360.38C401.67,-360.38 451,-360.38 451,-360.38 451,-360.38 451,-372.62 451,-372.62"/>
<polygon fill="#000000" fill-opacity="0.200000" stroke="#000000" stroke-width="2" stroke-opacity="0.200000" points="448.9,-372.62 451,-378.62 453.1,-372.62 448.9,-372.62"/>
</g>
<!-- node_modules/camelcase -->
<g id="node14" class="node">
<title>node_modules/camelcase</title>
<g id="a_node14"><a xlink:href="https://www.npmjs.com/package/camelcase" xlink:title="camelcase">
<polygon fill="#c40b0a" fill-opacity="0.101961" stroke="black" points="705.75,-95.88 647.47,-95.88 645.5,-93.9 645.5,-78.12 703.78,-78.12 705.75,-80.1 705.75,-95.88"/>
<polyline fill="none" stroke="black" points="703.78,-93.9 645.5,-93.9"/>
<polyline fill="none" stroke="black" points="703.78,-93.9 703.78,-78.12"/>
<polyline fill="none" stroke="black" points="703.78,-93.9 705.75,-95.88"/>
<text text-anchor="start" x="653.5" y="-83.33" font-family="Helvetica,sans-Serif" font-size="9.00" fill="#c40b0a">camelcase</text>
</a>
</g>
</g>
<!-- lib/rules/pattern&#45;utl.js&#45;&gt;node_modules/camelcase -->
<g id="edge19" class="edge">
<title>lib/rules/pattern&#45;utl.js&#45;&gt;node_modules/camelcase</title>
<path fill="none" stroke="#000000" stroke-opacity="0.200000" d="M599.54,-398C608.13,-398 615,-398 615,-398 615,-398 615,-86 615,-86 615,-86 637.8,-86 637.8,-86"/>
<polygon fill="#000000" fill-opacity="0.200000" stroke="#000000" stroke-opacity="0.200000" points="637.8,-88.1 643.8,-86 637.8,-83.9 637.8,-88.1"/>
</g>
<!-- lib/rules/prefixed&#45;pascalcase&#45;utl.js&#45;&gt;lib/rules/ast&#45;utl.js -->
<g id="edge20" class="edge">
<title>lib/rules/prefixed&#45;pascalcase&#45;utl.js&#45;&gt;lib/rules/ast&#45;utl.js</title>
<path fill="none" stroke="#000000" stroke-width="2" stroke-opacity="0.200000" d="M511.47,-385.62C539.21,-385.62 566,-385.62 566,-385.62 566,-385.62 566,-376.38 566,-376.38"/>
<polygon fill="#000000" fill-opacity="0.200000" stroke="#000000" stroke-width="2" stroke-opacity="0.200000" points="568.1,-376.38 566,-370.38 563.9,-376.38 568.1,-376.38"/>
</g>
<!-- lib/rules/prefixed&#45;pascalcase&#45;utl.js&#45;&gt;lib/rules/pattern&#45;utl.js -->
<g id="edge21" class="edge">
<title>lib/rules/prefixed&#45;pascalcase&#45;utl.js&#45;&gt;lib/rules/pattern&#45;utl.js</title>
<path fill="none" stroke="#000000" stroke-width="2" stroke-opacity="0.200000" d="M511.2,-396.29C511.2,-396.29 523.72,-396.29 523.72,-396.29"/>
<polygon fill="#000000" fill-opacity="0.200000" stroke="#000000" stroke-width="2" stroke-opacity="0.200000" points="523.72,-398.39 529.72,-396.29 523.72,-394.19 523.72,-398.39"/>
</g>
<!-- node:test -->
<g id="node15" class="node">
<title>node:test</title>
<g id="a_node15"><a xlink:href="https://nodejs.org/api/node:test.html" xlink:title="node:test">
<path fill="#ffffcc" stroke="grey" d="M321.46,-195.88C321.46,-195.88 279.29,-195.88 279.29,-195.88 276.33,-195.88 273.38,-192.92 273.38,-189.96 273.38,-189.96 273.38,-184.04 273.38,-184.04 273.38,-181.08 276.33,-178.12 279.29,-178.12 279.29,-178.12 321.46,-178.12 321.46,-178.12 324.42,-178.12 327.38,-181.08 327.38,-184.04 327.38,-184.04 327.38,-189.96 327.38,-189.96 327.38,-192.92 324.42,-195.88 321.46,-195.88"/>
<text text-anchor="middle" x="300.38" y="-183.32" font-family="Helvetica,sans-Serif" font-size="9.00" fill="grey">node:test</text>
</a>
</g>
</g>
<!-- node_modules/@typescript&#45;eslint -->
<g id="node16" class="node">
<title>node_modules/@typescript&#45;eslint</title>
<g id="a_node16"><a xlink:href="https://www.npmjs.com/package/" xlink:title="@typescript&#45;eslint">
<polygon fill="#c40b0a" fill-opacity="0.101961" stroke="black" points="720,-65.88 633.22,-65.88 631.25,-63.9 631.25,-48.12 718.03,-48.12 720,-50.1 720,-65.88"/>
<polyline fill="none" stroke="black" points="718.03,-63.9 631.25,-63.9"/>
<polyline fill="none" stroke="black" points="718.03,-63.9 718.03,-48.12"/>
<polyline fill="none" stroke="black" points="718.03,-63.9 720,-65.88"/>
<text text-anchor="start" x="639.25" y="-53.33" font-family="Helvetica,sans-Serif" font-size="9.00" fill="#c40b0a">@typescript&#45;eslint</text>
</a>
</g>
</g>
<!-- node_modules/eslint -->
<g id="node17" class="node">
<title>node_modules/eslint</title>
<g id="a_node17"><a xlink:href="https://www.npmjs.com/package/eslint" xlink:title="eslint">
<polygon fill="#c40b0a" fill-opacity="0.101961" stroke="black" points="702.62,-35.88 650.6,-35.88 648.62,-33.9 648.62,-18.12 700.65,-18.12 702.62,-20.1 702.62,-35.88"/>
<polyline fill="none" stroke="black" points="700.65,-33.9 648.62,-33.9"/>
<polyline fill="none" stroke="black" points="700.65,-33.9 700.65,-18.12"/>
<polyline fill="none" stroke="black" points="700.65,-33.9 702.62,-35.88"/>
<text text-anchor="start" x="664.75" y="-23.32" font-family="Helvetica,sans-Serif" font-size="9.00" fill="#c40b0a">eslint</text>
</a>
</g>
</g>
<!-- path -->
<g id="node18" class="node">
<title>path</title>
<g id="a_node18"><a xlink:href="https://nodejs.org/api/path.html" xlink:title="path">
<path fill="#ffffcc" stroke="grey" d="M321.46,-225.88C321.46,-225.88 279.29,-225.88 279.29,-225.88 276.33,-225.88 273.38,-222.92 273.38,-219.96 273.38,-219.96 273.38,-214.04 273.38,-214.04 273.38,-211.08 276.33,-208.12 279.29,-208.12 279.29,-208.12 321.46,-208.12 321.46,-208.12 324.42,-208.12 327.38,-211.08 327.38,-214.04 327.38,-214.04 327.38,-219.96 327.38,-219.96 327.38,-222.92 324.42,-225.88 321.46,-225.88"/>
<text text-anchor="middle" x="300.38" y="-213.32" font-family="Helvetica,sans-Serif" font-size="9.00" fill="grey">path</text>
</a>
</g>
</g>
<!-- test/lib/index.spec.js -->
<g id="node19" class="node">
<title>test/lib/index.spec.js</title>
<g id="a_node19"><a xlink:href="https://github.com/sverweij/eslint-plugin-budapestian/blob/main/test/lib/index.spec.js" xlink:title="index.spec.js">
<path fill="#ffffcc" stroke="black" d="M140.71,-221.88C140.71,-221.88 83.29,-221.88 83.29,-221.88 80.33,-221.88 77.38,-218.92 77.38,-215.96 77.38,-215.96 77.38,-210.04 77.38,-210.04 77.38,-207.08 80.33,-204.12 83.29,-204.12 83.29,-204.12 140.71,-204.12 140.71,-204.12 143.67,-204.12 146.62,-207.08 146.62,-210.04 146.62,-210.04 146.62,-215.96 146.62,-215.96 146.62,-218.92 143.67,-221.88 140.71,-221.88"/>
<text text-anchor="start" x="85.38" y="-209.32" font-family="Helvetica,sans-Serif" font-size="9.00">index.spec.js</text>
</a>
</g>
</g>
<!-- test/lib/index.spec.js&#45;&gt;assert/strict -->
<g id="edge23" class="edge">
<title>test/lib/index.spec.js&#45;&gt;assert/strict</title>
<path fill="none" stroke="#000000" stroke-dasharray="5,2" stroke-opacity="0.200000" d="M142,-222.28C142,-241.51 142,-283.96 142,-283.96 142,-283.96 265.64,-283.96 265.64,-283.96"/>
<polygon fill="#000000" fill-opacity="0.200000" stroke="#000000" stroke-opacity="0.200000" points="265.64,-286.06 271.64,-283.96 265.64,-281.86 265.64,-286.06"/>
</g>
<!-- test/lib/index.spec.js&#45;&gt;fs -->
<g id="edge24" class="edge">
<title>test/lib/index.spec.js&#45;&gt;fs</title>
<path fill="none" stroke="#000000" stroke-dasharray="5,2" stroke-opacity="0.200000" d="M144,-222.29C144,-232.36 144,-247 144,-247 144,-247 265.62,-247 265.62,-247"/>
<polygon fill="#000000" fill-opacity="0.200000" stroke="#000000" stroke-opacity="0.200000" points="265.62,-249.1 271.62,-247 265.62,-244.9 265.62,-249.1"/>
</g>
<!-- test/lib/index.spec.js&#45;&gt;lib/index.js -->
<g id="edge22" class="edge">
<title>test/lib/index.spec.js&#45;&gt;lib/index.js</title>
<path fill="none" stroke="#000000" stroke-width="2" stroke-opacity="0.200000" d="M98,-222.25C98,-222.25 98,-397.67 98,-397.67"/>
<polygon fill="#000000" fill-opacity="0.200000" stroke="#000000" stroke-width="2" stroke-opacity="0.200000" points="95.9,-397.67 98,-403.67 100.1,-397.67 95.9,-397.67"/>
</g>
<!-- test/lib/index.spec.js&#45;&gt;node:test -->
<g id="edge25" class="edge">
<title>test/lib/index.spec.js&#45;&gt;node:test</title>
<path fill="none" stroke="#000000" stroke-dasharray="5,2" stroke-opacity="0.200000" d="M112,-203.91C112,-196.41 112,-187 112,-187 112,-187 265.47,-187 265.47,-187"/>
<polygon fill="#000000" fill-opacity="0.200000" stroke="#000000" stroke-opacity="0.200000" points="265.47,-189.1 271.47,-187 265.47,-184.9 265.47,-189.1"/>
</g>
<!-- test/lib/index.spec.js&#45;&gt;path -->
<g id="edge26" class="edge">
<title>test/lib/index.spec.js&#45;&gt;path</title>
<path fill="none" stroke="#000000" stroke-dasharray="5,2" stroke-opacity="0.200000" d="M146.99,-215C146.99,-215 265.4,-215 265.4,-215"/>
<polygon fill="#000000" fill-opacity="0.200000" stroke="#000000" stroke-opacity="0.200000" points="265.4,-217.1 271.4,-215 265.4,-212.9 265.4,-217.1"/>
</g>
<!-- test/lib/rules/ast&#45;utl.spec.js -->
<g id="node20" class="node">
<title>test/lib/rules/ast&#45;utl.spec.js</title>
<g id="a_node20"><a xlink:href="https://github.com/sverweij/eslint-plugin-budapestian/blob/main/test/lib/rules/ast-utl.spec.js" xlink:title="ast&#45;utl.spec.js">
<path fill="#ffffcc" stroke="black" d="M141.83,-169.88C141.83,-169.88 82.17,-169.88 82.17,-169.88 79.21,-169.88 76.25,-166.92 76.25,-163.96 76.25,-163.96 76.25,-158.04 76.25,-158.04 76.25,-155.08 79.21,-152.12 82.17,-152.12 82.17,-152.12 141.83,-152.12 141.83,-152.12 144.79,-152.12 147.75,-155.08 147.75,-158.04 147.75,-158.04 147.75,-163.96 147.75,-163.96 147.75,-166.92 144.79,-169.88 141.83,-169.88"/>
<text text-anchor="start" x="84.25" y="-157.32" font-family="Helvetica,sans-Serif" font-size="9.00">ast&#45;utl.spec.js</text>
</a>
</g>
</g>
<!-- test/lib/rules/ast&#45;utl.spec.js&#45;&gt;assert/strict -->
<g id="edge28" class="edge">
<title>test/lib/rules/ast&#45;utl.spec.js&#45;&gt;assert/strict</title>
<path fill="none" stroke="#000000" stroke-dasharray="5,2" stroke-opacity="0.200000" d="M148.23,-165.44C179.27,-165.44 219,-165.44 219,-165.44 219,-165.44 219,-278.04 219,-278.04 219,-278.04 265.76,-278.04 265.76,-278.04"/>
<polygon fill="#000000" fill-opacity="0.200000" stroke="#000000" stroke-opacity="0.200000" points="265.76,-280.14 271.76,-278.04 265.76,-275.94 265.76,-280.14"/>
</g>
<!-- test/lib/rules/ast&#45;utl.spec.js&#45;&gt;lib/rules/ast&#45;utl.js -->
<g id="edge27" class="edge">
<title>test/lib/rules/ast&#45;utl.spec.js&#45;&gt;lib/rules/ast&#45;utl.js</title>
<path fill="none" stroke="#000000" stroke-width="2" stroke-opacity="0.200000" d="M148,-156.56C255.38,-156.56 566,-156.56 566,-156.56 566,-156.56 566,-339.79 566,-339.79"/>
<polygon fill="#000000" fill-opacity="0.200000" stroke="#000000" stroke-width="2" stroke-opacity="0.200000" points="563.9,-339.79 566,-345.79 568.1,-339.79 563.9,-339.79"/>
</g>
<!-- test/lib/rules/ast&#45;utl.spec.js&#45;&gt;node:test -->
<g id="edge29" class="edge">
<title>test/lib/rules/ast&#45;utl.spec.js&#45;&gt;node:test</title>
<path fill="none" stroke="#000000" stroke-dasharray="5,2" stroke-opacity="0.200000" d="M148.25,-161C202.88,-161 300,-161 300,-161 300,-161 300,-170.39 300,-170.39"/>
<polygon fill="#000000" fill-opacity="0.200000" stroke="#000000" stroke-opacity="0.200000" points="297.9,-170.39 300,-176.39 302.1,-170.39 297.9,-170.39"/>
</g>
<!-- test/lib/rules/global&#45;constant&#45;pattern&#45;rule.spec.js -->
<g id="node21" class="node">
<title>test/lib/rules/global&#45;constant&#45;pattern&#45;rule.spec.js</title>
<g id="a_node21"><a xlink:href="https://github.com/sverweij/eslint-plugin-budapestian/blob/main/test/lib/rules/global-constant-pattern-rule.spec.js" xlink:title="global&#45;constant&#45;pattern&#45;rule.spec.js">
<path fill="#ffffcc" stroke="black" d="M186.08,-49.88C186.08,-49.88 37.92,-49.88 37.92,-49.88 34.96,-49.88 32,-46.92 32,-43.96 32,-43.96 32,-38.04 32,-38.04 32,-35.08 34.96,-32.12 37.92,-32.12 37.92,-32.12 186.08,-32.12 186.08,-32.12 189.04,-32.12 192,-35.08 192,-38.04 192,-38.04 192,-43.96 192,-43.96 192,-46.92 189.04,-49.88 186.08,-49.88"/>
<text text-anchor="start" x="40" y="-37.33" font-family="Helvetica,sans-Serif" font-size="9.00">global&#45;constant&#45;pattern&#45;rule.spec.js</text>
</a>
</g>
</g>
<!-- test/lib/rules/global&#45;constant&#45;pattern&#45;rule.spec.js&#45;&gt;lib/rules/global&#45;constant&#45;pattern&#45;rule.js -->
<g id="edge31" class="edge">
<title>test/lib/rules/global&#45;constant&#45;pattern&#45;rule.spec.js&#45;&gt;lib/rules/global&#45;constant&#45;pattern&#45;rule.js</title>
<path fill="none" stroke="#000000" stroke-width="2" stroke-opacity="0.200000" d="M192.36,-45.06C273.21,-45.06 386,-45.06 386,-45.06 386,-45.06 386,-430.78 386,-430.78"/>
<polygon fill="#000000" fill-opacity="0.200000" stroke="#000000" stroke-width="2" stroke-opacity="0.200000" points="383.9,-430.78 386,-436.78 388.1,-430.78 383.9,-430.78"/>
</g>
<!-- test/lib/rules/global&#45;constant&#45;pattern&#45;rule.spec.js&#45;&gt;node_modules/@typescript&#45;eslint -->
<g id="edge30" class="edge">
<title>test/lib/rules/global&#45;constant&#45;pattern&#45;rule.spec.js&#45;&gt;node_modules/@typescript&#45;eslint</title>
<path fill="none" stroke="#000000" stroke-opacity="0.200000" d="M192.48,-42C340.29,-42 640,-42 640,-42 640,-42 640,-42.58 640,-42.58"/>
<polygon fill="#000000" fill-opacity="0.200000" stroke="#000000" stroke-opacity="0.200000" points="637.9,-40.24 640,-46.24 642.1,-40.24 637.9,-40.24"/>
</g>
<!-- test/lib/rules/global&#45;constant&#45;pattern&#45;rule.spec.js&#45;&gt;node_modules/eslint -->
<g id="edge32" class="edge">
<title>test/lib/rules/global&#45;constant&#45;pattern&#45;rule.spec.js&#45;&gt;node_modules/eslint</title>
<path fill="none" stroke="#000000" stroke-opacity="0.200000" d="M192.21,-38.94C347.92,-38.94 676,-38.94 676,-38.94 676,-38.94 676,-38.66 676,-38.66"/>
<polygon fill="#000000" fill-opacity="0.200000" stroke="#000000" stroke-opacity="0.200000" points="678.1,-43.68 676,-37.68 673.9,-43.68 678.1,-43.68"/>
</g>
<!-- test/lib/rules/global&#45;variable&#45;pattern&#45;rule.spec.js -->
<g id="node22" class="node">
<title>test/lib/rules/global&#45;variable&#45;pattern&#45;rule.spec.js</title>
<g id="a_node22"><a xlink:href="https://github.com/sverweij/eslint-plugin-budapestian/blob/main/test/lib/rules/global-variable-pattern-rule.spec.js" xlink:title="global&#45;variable&#45;pattern&#45;rule.spec.js">
<path fill="#ffffcc" stroke="black" d="M185.33,-139.88C185.33,-139.88 38.67,-139.88 38.67,-139.88 35.71,-139.88 32.75,-136.92 32.75,-133.96 32.75,-133.96 32.75,-128.04 32.75,-128.04 32.75,-125.08 35.71,-122.12 38.67,-122.12 38.67,-122.12 185.33,-122.12 185.33,-122.12 188.29,-122.12 191.25,-125.08 191.25,-128.04 191.25,-128.04 191.25,-133.96 191.25,-133.96 191.25,-136.92 188.29,-139.88 185.33,-139.88"/>
<text text-anchor="start" x="40.75" y="-127.33" font-family="Helvetica,sans-Serif" font-size="9.00">global&#45;variable&#45;pattern&#45;rule.spec.js</text>
</a>
</g>
</g>
<!-- test/lib/rules/global&#45;variable&#45;pattern&#45;rule.spec.js&#45;&gt;lib/rules/global&#45;variable&#45;pattern&#45;rule.js -->
<g id="edge34" class="edge">
<title>test/lib/rules/global&#45;variable&#45;pattern&#45;rule.spec.js&#45;&gt;lib/rules/global&#45;variable&#45;pattern&#45;rule.js</title>
<path fill="none" stroke="#000000" stroke-width="2" stroke-opacity="0.200000" d="M169,-140.06C169,-188.34 169,-413.04 169,-413.04 169,-413.04 222.58,-413.04 222.58,-413.04"/>
<polygon fill="#000000" fill-opacity="0.200000" stroke="#000000" stroke-width="2" stroke-opacity="0.200000" points="222.58,-415.14 228.58,-413.04 222.58,-410.94 222.58,-415.14"/>
</g>
<!-- test/lib/rules/global&#45;variable&#45;pattern&#45;rule.spec.js&#45;&gt;node_modules/@typescript&#45;eslint -->
<g id="edge33" class="edge">
<title>test/lib/rules/global&#45;variable&#45;pattern&#45;rule.spec.js&#45;&gt;node_modules/@typescript&#45;eslint</title>
<path fill="none" stroke="#000000" stroke-opacity="0.200000" d="M191.48,-135.21C339.16,-135.21 641,-135.21 641,-135.21 641,-135.21 641,-73.79 641,-73.79"/>
<polygon fill="#000000" fill-opacity="0.200000" stroke="#000000" stroke-opacity="0.200000" points="643.1,-73.79 641,-67.79 638.9,-73.79 643.1,-73.79"/>
</g>
<!-- test/lib/rules/global&#45;variable&#45;pattern&#45;rule.spec.js&#45;&gt;node_modules/eslint -->
<g id="edge35" class="edge">
<title>test/lib/rules/global&#45;variable&#45;pattern&#45;rule.spec.js&#45;&gt;node_modules/eslint</title>
<path fill="none" stroke="#000000" stroke-opacity="0.200000" d="M191.73,-130.54C227.16,-130.54 261,-130.54 261,-130.54 261,-130.54 261,-28.62 261,-28.62 261,-28.62 640.91,-28.62 640.91,-28.62"/>
<polygon fill="#000000" fill-opacity="0.200000" stroke="#000000" stroke-opacity="0.200000" points="640.91,-30.73 646.91,-28.63 640.91,-26.53 640.91,-30.73"/>
</g>
<!-- test/lib/rules/local&#45;variable&#45;pattern&#45;rule.spec.js -->
<g id="node23" class="node">
<title>test/lib/rules/local&#45;variable&#45;pattern&#45;rule.spec.js</title>
<g id="a_node23"><a xlink:href="https://github.com/sverweij/eslint-plugin-budapestian/blob/main/test/lib/rules/local-variable-pattern-rule.spec.js" xlink:title="local&#45;variable&#45;pattern&#45;rule.spec.js">
<path fill="#ffffcc" stroke="black" d="M182.33,-109.88C182.33,-109.88 41.67,-109.88 41.67,-109.88 38.71,-109.88 35.75,-106.92 35.75,-103.96 35.75,-103.96 35.75,-98.04 35.75,-98.04 35.75,-95.08 38.71,-92.12 41.67,-92.12 41.67,-92.12 182.33,-92.12 182.33,-92.12 185.29,-92.12 188.25,-95.08 188.25,-98.04 188.25,-98.04 188.25,-103.96 188.25,-103.96 188.25,-106.92 185.29,-109.88 182.33,-109.88"/>
<text text-anchor="start" x="43.75" y="-97.33" font-family="Helvetica,sans-Serif" font-size="9.00">local&#45;variable&#45;pattern&#45;rule.spec.js</text>
</a>
</g>
</g>
<!-- test/lib/rules/local&#45;variable&#45;pattern&#45;rule.spec.js&#45;&gt;lib/rules/local&#45;variable&#45;pattern&#45;rule.js -->
<g id="edge37" class="edge">
<title>test/lib/rules/local&#45;variable&#45;pattern&#45;rule.spec.js&#45;&gt;lib/rules/local&#45;variable&#45;pattern&#45;rule.js</title>
<path fill="none" stroke="#000000" stroke-width="2" stroke-opacity="0.200000" d="M188.37,-105.06C198.24,-105.06 205,-105.06 205,-105.06 205,-105.06 205,-383.04 205,-383.04 205,-383.04 225.63,-383.04 225.63,-383.04"/>
<polygon fill="#000000" fill-opacity="0.200000" stroke="#000000" stroke-width="2" stroke-opacity="0.200000" points="225.63,-385.14 231.63,-383.04 225.63,-380.94 225.63,-385.14"/>
</g>
<!-- test/lib/rules/local&#45;variable&#45;pattern&#45;rule.spec.js&#45;&gt;node_modules/@typescript&#45;eslint -->
<g id="edge36" class="edge">
<title>test/lib/rules/local&#45;variable&#45;pattern&#45;rule.spec.js&#45;&gt;node_modules/@typescript&#45;eslint</title>
<path fill="none" stroke="#000000" stroke-opacity="0.200000" d="M188.48,-102C334.37,-102 638,-102 638,-102 638,-102 638,-73.62 638,-73.62"/>
<polygon fill="#000000" fill-opacity="0.200000" stroke="#000000" stroke-opacity="0.200000" points="640.1,-73.62 638,-67.62 635.9,-73.62 640.1,-73.62"/>
</g>
<!-- test/lib/rules/local&#45;variable&#45;pattern&#45;rule.spec.js&#45;&gt;node_modules/eslint -->
<g id="edge38" class="edge">
<title>test/lib/rules/local&#45;variable&#45;pattern&#45;rule.spec.js&#45;&gt;node_modules/eslint</title>
<path fill="none" stroke="#000000" stroke-opacity="0.200000" d="M188.4,-98.94C222.01,-98.94 254,-98.94 254,-98.94 254,-98.94 254,-25.12 254,-25.12 254,-25.12 640.77,-25.12 640.77,-25.12"/>
<polygon fill="#000000" fill-opacity="0.200000" stroke="#000000" stroke-opacity="0.200000" points="640.77,-27.23 646.77,-25.13 640.77,-23.03 640.77,-27.23"/>
</g>
<!-- test/lib/rules/parameter&#45;pattern&#45;rule.spec.js -->
<g id="node24" class="node">
<title>test/lib/rules/parameter&#45;pattern&#45;rule.spec.js</title>
<g id="a_node24"><a xlink:href="https://github.com/sverweij/eslint-plugin-budapestian/blob/main/test/lib/rules/parameter-pattern-rule.spec.js" xlink:title="parameter&#45;pattern&#45;rule.spec.js">
<path fill="#ffffcc" stroke="black" d="M175.58,-79.88C175.58,-79.88 48.42,-79.88 48.42,-79.88 45.46,-79.88 42.5,-76.92 42.5,-73.96 42.5,-73.96 42.5,-68.04 42.5,-68.04 42.5,-65.08 45.46,-62.12 48.42,-62.12 48.42,-62.12 175.58,-62.12 175.58,-62.12 178.54,-62.12 181.5,-65.08 181.5,-68.04 181.5,-68.04 181.5,-73.96 181.5,-73.96 181.5,-76.92 178.54,-79.88 175.58,-79.88"/>
<text text-anchor="start" x="50.5" y="-67.33" font-family="Helvetica,sans-Serif" font-size="9.00">parameter&#45;pattern&#45;rule.spec.js</text>
</a>
</g>
</g>
<!-- test/lib/rules/parameter&#45;pattern&#45;rule.spec.js&#45;&gt;lib/rules/parameter&#45;pattern&#45;rule.js -->
<g id="edge40" class="edge">
<title>test/lib/rules/parameter&#45;pattern&#45;rule.spec.js&#45;&gt;lib/rules/parameter&#45;pattern&#45;rule.js</title>
<path fill="none" stroke="#000000" stroke-width="2" stroke-opacity="0.200000" d="M181.79,-75.06C222.93,-75.06 267,-75.06 267,-75.06 267,-75.06 267,-337.63 267,-337.63"/>
<polygon fill="#000000" fill-opacity="0.200000" stroke="#000000" stroke-width="2" stroke-opacity="0.200000" points="264.9,-337.63 267,-343.63 269.1,-337.63 264.9,-337.63"/>
</g>
<!-- test/lib/rules/parameter&#45;pattern&#45;rule.spec.js&#45;&gt;node_modules/@typescript&#45;eslint -->
<g id="edge39" class="edge">
<title>test/lib/rules/parameter&#45;pattern&#45;rule.spec.js&#45;&gt;node_modules/@typescript&#45;eslint</title>
<path fill="none" stroke="#000000" stroke-opacity="0.200000" d="M181.86,-72C324.1,-72 634,-72 634,-72 634,-72 634,-71.42 634,-71.42"/>
<polygon fill="#000000" fill-opacity="0.200000" stroke="#000000" stroke-opacity="0.200000" points="636.1,-73.76 634,-67.76 631.9,-73.76 636.1,-73.76"/>
</g>
<!-- test/lib/rules/parameter&#45;pattern&#45;rule.spec.js&#45;&gt;node_modules/eslint -->
<g id="edge41" class="edge">
<title>test/lib/rules/parameter&#45;pattern&#45;rule.spec.js&#45;&gt;node_modules/eslint</title>
<path fill="none" stroke="#000000" stroke-opacity="0.200000" d="M181.99,-68.94C215.32,-68.94 248,-68.94 248,-68.94 248,-68.94 248,-21.62 248,-21.62 248,-21.62 640.71,-21.62 640.71,-21.62"/>
<polygon fill="#000000" fill-opacity="0.200000" stroke="#000000" stroke-opacity="0.200000" points="640.71,-23.73 646.71,-21.63 640.71,-19.53 640.71,-23.73"/>
</g>
</g>
</svg>
