<?xml version="1.0" encoding="UTF-8" standalone="no"?>
<!DOCTYPE svg PUBLIC "-//W3C//DTD SVG 1.1//EN"
 "http://www.w3.org/Graphics/SVG/1.1/DTD/svg11.dtd">
<!-- Generated by graphviz version 2.43.0 (0)
 -->
<!-- Title: dependency&#45;cruiser output Pages: 1 -->
<svg width="473pt" height="194pt"
 viewBox="0.00 0.00 473.11 194.00" xmlns="http://www.w3.org/2000/svg" xmlns:xlink="http://www.w3.org/1999/xlink">
<g id="graph0" class="graph" transform="scale(1 1) rotate(0) translate(4 190)">
<title>dependency&#45;cruiser output</title>
<polygon fill="white" stroke="transparent" points="-4,4 -4,-190 469.11,-190 469.11,4 -4,4"/>
<g id="clust1" class="cluster">
<title>cluster_lib</title>
<path fill="#ffffff" stroke="black" stroke-width="2" d="M194.55,-94C194.55,-94 361.58,-94 361.58,-94 367.58,-94 373.58,-100 373.58,-106 373.58,-106 373.58,-166 373.58,-166 373.58,-172 367.58,-178 361.58,-178 361.58,-178 194.55,-178 194.55,-178 188.55,-178 182.55,-172 182.55,-166 182.55,-166 182.55,-106 182.55,-106 182.55,-100 188.55,-94 194.55,-94"/>
<text text-anchor="middle" x="278.06" y="-166.8" font-family="Helvetica,sans-Serif" font-weight="bold" font-size="9.00">lib</text>
</g>
<g id="clust2" class="cluster">
<title>cluster_lib/rules</title>
<path fill="#ffffff" stroke="black" stroke-width="2" d="M264.55,-102C264.55,-102 353.58,-102 353.58,-102 359.58,-102 365.58,-108 365.58,-114 365.58,-114 365.58,-141 365.58,-141 365.58,-147 359.58,-153 353.58,-153 353.58,-153 264.55,-153 264.55,-153 258.55,-153 252.55,-147 252.55,-141 252.55,-141 252.55,-114 252.55,-114 252.55,-108 258.55,-102 264.55,-102"/>
<text text-anchor="middle" x="309.06" y="-141.8" font-family="Helvetica,sans-Serif" font-weight="bold" font-size="9.00">rules</text>
</g>
<g id="clust3" class="cluster">
<title>cluster_node_modules</title>
<path fill="#ffffff" stroke="black" stroke-width="2" d="M393.58,-33C393.58,-33 448.11,-33 448.11,-33 454.11,-33 460.11,-39 460.11,-45 460.11,-45 460.11,-130 460.11,-130 460.11,-136 454.11,-142 448.11,-142 448.11,-142 393.58,-142 393.58,-142 387.58,-142 381.58,-136 381.58,-130 381.58,-130 381.58,-45 381.58,-45 381.58,-39 387.58,-33 393.58,-33"/>
<text text-anchor="middle" x="420.85" y="-130.8" font-family="Helvetica,sans-Serif" font-weight="bold" font-size="9.00">node_modules</text>
</g>
<g id="clust4" class="cluster">
<title>cluster_test</title>
<path fill="#ffffff" stroke="black" stroke-width="2" d="M20,-8C20,-8 162.55,-8 162.55,-8 168.55,-8 174.55,-14 174.55,-20 174.55,-20 174.55,-139 174.55,-139 174.55,-145 168.55,-151 162.55,-151 162.55,-151 20,-151 20,-151 14,-151 8,-145 8,-139 8,-139 8,-20 8,-20 8,-14 14,-8 20,-8"/>
<text text-anchor="middle" x="91.27" y="-139.8" font-family="Helvetica,sans-Serif" font-weight="bold" font-size="9.00">test</text>
</g>
<g id="clust5" class="cluster">
<title>cluster_test/lib</title>
<path fill="#ffffff" stroke="black" stroke-width="2" d="M28,-16C28,-16 154.55,-16 154.55,-16 160.55,-16 166.55,-22 166.55,-28 166.55,-28 166.55,-114 166.55,-114 166.55,-120 160.55,-126 154.55,-126 154.55,-126 28,-126 28,-126 22,-126 16,-120 16,-114 16,-114 16,-28 16,-28 16,-22 22,-16 28,-16"/>
<text text-anchor="middle" x="91.27" y="-114.8" font-family="Helvetica,sans-Serif" font-weight="bold" font-size="9.00">lib</text>
</g>
<g id="clust6" class="cluster">
<title>cluster_test/lib/rules</title>
<path fill="#ffffff" stroke="black" stroke-width="2" d="M36,-24C36,-24 146.55,-24 146.55,-24 152.55,-24 158.55,-30 158.55,-36 158.55,-36 158.55,-63 158.55,-63 158.55,-69 152.55,-75 146.55,-75 146.55,-75 36,-75 36,-75 30,-75 24,-69 24,-63 24,-63 24,-36 24,-36 24,-30 30,-24 36,-24"/>
<text text-anchor="middle" x="91.27" y="-63.8" font-family="Helvetica,sans-Serif" font-weight="bold" font-size="9.00">rules</text>
</g>
<!-- lib/index.js -->
<g id="node1" class="node">
<title>lib/index.js</title>
<g id="a_node1"><a xlink:href="https://github.com/sverweij/eslint-plugin-budapestian/blob/master/lib/index.js" xlink:title="index.js">
<path fill="#ffffcc" stroke="black" d="M238.88,-123.5C238.88,-123.5 196.21,-123.5 196.21,-123.5 193.38,-123.5 190.55,-120.67 190.55,-117.83 190.55,-117.83 190.55,-112.17 190.55,-112.17 190.55,-109.33 193.38,-106.5 196.21,-106.5 196.21,-106.5 238.88,-106.5 238.88,-106.5 241.71,-106.5 244.55,-109.33 244.55,-112.17 244.55,-112.17 244.55,-117.83 244.55,-117.83 244.55,-120.67 241.71,-123.5 238.88,-123.5"/>
<text text-anchor="middle" x="217.55" y="-112.3" font-family="Helvetica,sans-Serif" font-size="9.00">index.js</text>
</a>
</g>
</g>
<!-- lib/rules/parameter&#45;pattern.js -->
<g id="node2" class="node">
<title>lib/rules/parameter&#45;pattern.js</title>
<g id="a_node2"><a xlink:href="https://github.com/sverweij/eslint-plugin-budapestian/blob/master/lib/rules/parameter-pattern.js" xlink:title="parameter&#45;pattern.js">
<path fill="#ffffcc" stroke="black" d="M351.93,-127.5C351.93,-127.5 266.2,-127.5 266.2,-127.5 263.36,-127.5 260.53,-124.67 260.53,-121.83 260.53,-121.83 260.53,-116.17 260.53,-116.17 260.53,-113.33 263.36,-110.5 266.2,-110.5 266.2,-110.5 351.93,-110.5 351.93,-110.5 354.77,-110.5 357.6,-113.33 357.6,-116.17 357.6,-116.17 357.6,-121.83 357.6,-121.83 357.6,-124.67 354.77,-127.5 351.93,-127.5"/>
<text text-anchor="middle" x="309.06" y="-116.3" font-family="Helvetica,sans-Serif" font-size="9.00">parameter&#45;pattern.js</text>
</a>
</g>
</g>
<!-- lib/index.js&#45;&gt;lib/rules/parameter&#45;pattern.js -->
<g id="edge1" class="edge">
<title>lib/index.js&#45;&gt;lib/rules/parameter&#45;pattern.js</title>
<path fill="none" stroke="#000000" stroke-width="2" stroke-opacity="0.200000" d="M245,-117C245,-117 254.24,-117 254.24,-117"/>
<polygon fill="#000000" fill-opacity="0.200000" stroke="#000000" stroke-width="2" stroke-opacity="0.200000" points="254.24,-119.1 260.24,-117 254.24,-114.9 254.24,-119.1"/>
</g>
<!-- node_modules/lodash.get -->
<g id="node3" class="node">
<title>node_modules/lodash.get</title>
<g id="a_node3"><a xlink:href="https://github.com/sverweij/eslint-plugin-budapestian/blob/master/node_modules/lodash.get" xlink:title="lodash.get">
<polygon fill="#c40b0a" fill-opacity="0.101961" stroke="black" points="448.88,-116.5 393.7,-116.5 391.81,-114.61 391.81,-99.5 446.99,-99.5 448.88,-101.39 448.88,-116.5"/>
<polyline fill="none" stroke="black" points="446.99,-114.61 391.81,-114.61 "/>
<polyline fill="none" stroke="black" points="446.99,-114.61 446.99,-99.5 "/>
<polyline fill="none" stroke="black" points="446.99,-114.61 448.88,-116.5 "/>
<text text-anchor="middle" x="420.35" y="-105.3" font-family="Helvetica,sans-Serif" font-size="9.00" fill="#c40b0a">lodash.get</text>
</a>
</g>
</g>
<!-- lib/rules/parameter&#45;pattern.js&#45;&gt;node_modules/lodash.get -->
<g id="edge2" class="edge">
<title>lib/rules/parameter&#45;pattern.js&#45;&gt;node_modules/lodash.get</title>
<path fill="none" stroke="#000000" stroke-dasharray="5,2" stroke-opacity="0.200000" d="M357.88,-122C388.08,-122 421.11,-122 421.11,-122 421.11,-122 421.11,-121.46 421.11,-121.46"/>
<polygon fill="#000000" fill-opacity="0.200000" stroke="#000000" stroke-opacity="0.200000" points="423.21,-122.63 421.11,-116.63 419.01,-122.63 423.21,-122.63"/>
</g>
<!-- node_modules/chai -->
<g id="node4" class="node">
<title>node_modules/chai</title>
<g id="a_node4"><a xlink:href="https://github.com/sverweij/eslint-plugin-budapestian/blob/master/node_modules/chai" xlink:title="chai">
<polygon fill="#c40b0a" fill-opacity="0.101961" stroke="black" points="447.35,-87.5 395.24,-87.5 393.35,-85.61 393.35,-70.5 445.46,-70.5 447.35,-72.39 447.35,-87.5"/>
<polyline fill="none" stroke="black" points="445.46,-85.61 393.35,-85.61 "/>
<polyline fill="none" stroke="black" points="445.46,-85.61 445.46,-70.5 "/>
<polyline fill="none" stroke="black" points="445.46,-85.61 447.35,-87.5 "/>
<text text-anchor="middle" x="420.35" y="-76.3" font-family="Helvetica,sans-Serif" font-size="9.00" fill="#c40b0a">chai</text>
</a>
</g>
</g>
<!-- node_modules/eslint -->
<g id="node5" class="node">
<title>node_modules/eslint</title>
<g id="a_node5"><a xlink:href="https://github.com/sverweij/eslint-plugin-budapestian/blob/master/node_modules/eslint" xlink:title="eslint">
<polygon fill="#c40b0a" fill-opacity="0.101961" stroke="black" points="447.35,-58.5 395.24,-58.5 393.35,-56.61 393.35,-41.5 445.46,-41.5 447.35,-43.39 447.35,-58.5"/>
<polyline fill="none" stroke="black" points="445.46,-56.61 393.35,-56.61 "/>
<polyline fill="none" stroke="black" points="445.46,-56.61 445.46,-41.5 "/>
<polyline fill="none" stroke="black" points="445.46,-56.61 447.35,-58.5 "/>
<text text-anchor="middle" x="420.35" y="-47.3" font-family="Helvetica,sans-Serif" font-size="9.00" fill="#c40b0a">eslint</text>
</a>
</g>
</g>
<!-- test/lib/index.spec.js -->
<g id="node6" class="node">
<title>test/lib/index.spec.js</title>
<g id="a_node6"><a xlink:href="https://github.com/sverweij/eslint-plugin-budapestian/blob/master/test/lib/index.spec.js" xlink:title="index.spec.js">
<path fill="#ffffcc" stroke="black" d="M119.63,-100.5C119.63,-100.5 62.91,-100.5 62.91,-100.5 60.08,-100.5 57.25,-97.67 57.25,-94.83 57.25,-94.83 57.25,-89.17 57.25,-89.17 57.25,-86.33 60.08,-83.5 62.91,-83.5 62.91,-83.5 119.63,-83.5 119.63,-83.5 122.47,-83.5 125.3,-86.33 125.3,-89.17 125.3,-89.17 125.3,-94.83 125.3,-94.83 125.3,-97.67 122.47,-100.5 119.63,-100.5"/>
<text text-anchor="middle" x="91.27" y="-89.3" font-family="Helvetica,sans-Serif" font-size="9.00">index.spec.js</text>
</a>
</g>
</g>
<!-- test/lib/index.spec.js&#45;&gt;lib/index.js -->
<g id="edge3" class="edge">
<title>test/lib/index.spec.js&#45;&gt;lib/index.js</title>
<path fill="none" stroke="#000000" stroke-width="2" stroke-opacity="0.200000" d="M125.6,-95.5C163.16,-95.5 218.11,-95.5 218.11,-95.5 218.11,-95.5 218.11,-100.16 218.11,-100.16"/>
<polygon fill="#000000" fill-opacity="0.200000" stroke="#000000" stroke-width="2" stroke-opacity="0.200000" points="216.01,-100.16 218.11,-106.16 220.21,-100.16 216.01,-100.16"/>
</g>
<!-- test/lib/index.spec.js&#45;&gt;node_modules/chai -->
<g id="edge4" class="edge">
<title>test/lib/index.spec.js&#45;&gt;node_modules/chai</title>
<path fill="none" stroke="#000000" stroke-dasharray="5,2" stroke-opacity="0.200000" d="M125.33,-91.5C209.6,-91.5 421.11,-91.5 421.11,-91.5 421.11,-91.5 421.11,-91.1 421.11,-91.1"/>
<polygon fill="#000000" fill-opacity="0.200000" stroke="#000000" stroke-opacity="0.200000" points="423.21,-93.54 421.11,-87.54 419.01,-93.54 423.21,-93.54"/>
</g>
<!-- test/lib/rules/parameter&#45;pattern.spec.js -->
<g id="node7" class="node">
<title>test/lib/rules/parameter&#45;pattern.spec.js</title>
<g id="a_node7"><a xlink:href="https://github.com/sverweij/eslint-plugin-budapestian/blob/master/test/lib/rules/parameter-pattern.spec.js" xlink:title="parameter&#45;pattern.spec.js">
<path fill="#ffffcc" stroke="black" d="M144.65,-49.5C144.65,-49.5 37.89,-49.5 37.89,-49.5 35.06,-49.5 32.23,-46.67 32.23,-43.83 32.23,-43.83 32.23,-38.17 32.23,-38.17 32.23,-35.33 35.06,-32.5 37.89,-32.5 37.89,-32.5 144.65,-32.5 144.65,-32.5 147.49,-32.5 150.32,-35.33 150.32,-38.17 150.32,-38.17 150.32,-43.83 150.32,-43.83 150.32,-46.67 147.49,-49.5 144.65,-49.5"/>
<text text-anchor="middle" x="91.27" y="-38.3" font-family="Helvetica,sans-Serif" font-size="9.00">parameter&#45;pattern.spec.js</text>
</a>
</g>
</g>
<!-- test/lib/rules/parameter&#45;pattern.spec.js&#45;&gt;lib/rules/parameter&#45;pattern.js -->
<g id="edge5" class="edge">
<title>test/lib/rules/parameter&#45;pattern.spec.js&#45;&gt;lib/rules/parameter&#45;pattern.js</title>
<path fill="none" stroke="#000000" stroke-width="2" stroke-opacity="0.200000" d="M150.51,-46.83C215.02,-46.83 309.11,-46.83 309.11,-46.83 309.11,-46.83 309.11,-104.44 309.11,-104.44"/>
<polygon fill="#000000" fill-opacity="0.200000" stroke="#000000" stroke-width="2" stroke-opacity="0.200000" points="307.01,-104.44 309.11,-110.44 311.21,-104.44 307.01,-104.44"/>
</g>
<!-- test/lib/rules/parameter&#45;pattern.spec.js&#45;&gt;node_modules/eslint -->
<g id="edge6" class="edge">
<title>test/lib/rules/parameter&#45;pattern.spec.js&#45;&gt;node_modules/eslint</title>
<path fill="none" stroke="#000000" stroke-dasharray="5,2" stroke-opacity="0.200000" d="M150.49,-44.17C150.49,-44.17 387.16,-44.17 387.16,-44.17"/>
<polygon fill="#000000" fill-opacity="0.200000" stroke="#000000" stroke-opacity="0.200000" points="387.16,-46.27 393.16,-44.17 387.16,-42.07 387.16,-46.27"/>
</g>
</g>
</svg>
