<?xml version="1.0" encoding="UTF-8" standalone="no"?>
<!DOCTYPE svg PUBLIC "-//W3C//DTD SVG 1.1//EN"
 "http://www.w3.org/Graphics/SVG/1.1/DTD/svg11.dtd">
<!-- Generated by graphviz version 2.44.1 (20200629.0846)
 -->
<!-- Title: dependency&#45;cruiser output Pages: 1 -->
<svg width="604pt" height="375pt"
 viewBox="0.00 0.00 604.00 375.00" xmlns="http://www.w3.org/2000/svg" xmlns:xlink="http://www.w3.org/1999/xlink">
<g id="graph0" class="graph" transform="scale(1 1) rotate(0) translate(4 371)">
<title>dependency&#45;cruiser output</title>
<polygon fill="white" stroke="transparent" points="-4,4 -4,-371 600,-371 600,4 -4,4"/>
<g id="clust1" class="cluster">
<title>cluster_lib</title>
<path fill="#ffffff" stroke="black" stroke-width="2" d="M218,-169C218,-169 488,-169 488,-169 494,-169 500,-175 500,-181 500,-181 500,-303 500,-303 500,-309 494,-315 488,-315 488,-315 218,-315 218,-315 212,-315 206,-309 206,-303 206,-303 206,-181 206,-181 206,-175 212,-169 218,-169"/>
<text text-anchor="middle" x="353" y="-303.8" font-family="Helvetica,sans-Serif" font-weight="bold" font-size="9.00">lib</text>
</g>
<g id="clust2" class="cluster">
<title>cluster_lib/rules</title>
<path fill="#ffffff" stroke="black" stroke-width="2" d="M288,-177C288,-177 480,-177 480,-177 486,-177 492,-183 492,-189 492,-189 492,-277 492,-277 492,-283 486,-289 480,-289 480,-289 288,-289 288,-289 282,-289 276,-283 276,-277 276,-277 276,-189 276,-189 276,-183 282,-177 288,-177"/>
<text text-anchor="middle" x="384" y="-277.8" font-family="Helvetica,sans-Serif" font-weight="bold" font-size="9.00">rules</text>
</g>
<g id="clust3" class="cluster">
<title>cluster_node_modules</title>
<path fill="#ffffff" stroke="black" stroke-width="2" d="M520,-105C520,-105 576,-105 576,-105 582,-105 588,-111 588,-117 588,-117 588,-265 588,-265 588,-271 582,-277 576,-277 576,-277 520,-277 520,-277 514,-277 508,-271 508,-265 508,-265 508,-117 508,-117 508,-111 514,-105 520,-105"/>
<text text-anchor="middle" x="548" y="-265.8" font-family="Helvetica,sans-Serif" font-weight="bold" font-size="9.00">node_modules</text>
</g>
<g id="clust4" class="cluster">
<title>cluster_test</title>
<path fill="#ffffff" stroke="black" stroke-width="2" d="M20,-8C20,-8 186,-8 186,-8 192,-8 198,-14 198,-20 198,-20 198,-202 198,-202 198,-208 192,-214 186,-214 186,-214 20,-214 20,-214 14,-214 8,-208 8,-202 8,-202 8,-20 8,-20 8,-14 14,-8 20,-8"/>
<text text-anchor="middle" x="103" y="-202.8" font-family="Helvetica,sans-Serif" font-weight="bold" font-size="9.00">test</text>
</g>
<g id="clust5" class="cluster">
<title>cluster_test/lib</title>
<path fill="#ffffff" stroke="black" stroke-width="2" d="M28,-16C28,-16 178,-16 178,-16 184,-16 190,-22 190,-28 190,-28 190,-176 190,-176 190,-182 184,-188 178,-188 178,-188 28,-188 28,-188 22,-188 16,-182 16,-176 16,-176 16,-28 16,-28 16,-22 22,-16 28,-16"/>
<text text-anchor="middle" x="103" y="-176.8" font-family="Helvetica,sans-Serif" font-weight="bold" font-size="9.00">lib</text>
</g>
<g id="clust6" class="cluster">
<title>cluster_test/lib/rules</title>
<path fill="#ffffff" stroke="black" stroke-width="2" d="M36,-24C36,-24 170,-24 170,-24 176,-24 182,-30 182,-36 182,-36 182,-124 182,-124 182,-130 176,-136 170,-136 170,-136 36,-136 36,-136 30,-136 24,-130 24,-124 24,-124 24,-36 24,-36 24,-30 30,-24 36,-24"/>
<text text-anchor="middle" x="103" y="-124.8" font-family="Helvetica,sans-Serif" font-weight="bold" font-size="9.00">rules</text>
</g>
<!-- fs -->
<g id="node1" class="node">
<title>fs</title>
<path fill="#ffffcc" stroke="grey" d="M262,-367C262,-367 220,-367 220,-367 217,-367 214,-364 214,-361 214,-361 214,-355 214,-355 214,-352 217,-349 220,-349 220,-349 262,-349 262,-349 265,-349 268,-352 268,-355 268,-355 268,-361 268,-361 268,-364 265,-367 262,-367"/>
<text text-anchor="middle" x="241" y="-355.8" font-family="Helvetica,sans-Serif" font-size="9.00" fill="grey">fs</text>
</g>
<!-- lib/index.js -->
<g id="node2" class="node">
<title>lib/index.js</title>
<g id="a_node2"><a xlink:href="https://github.com/sverweij/eslint-plugin-budapestian/blob/master/lib/index.js" xlink:title="index.js">
<path fill="#ffffcc" stroke="black" d="M262,-218C262,-218 220,-218 220,-218 217,-218 214,-215 214,-212 214,-212 214,-206 214,-206 214,-203 217,-200 220,-200 220,-200 262,-200 262,-200 265,-200 268,-203 268,-206 268,-206 268,-212 268,-212 268,-215 265,-218 262,-218"/>
<text text-anchor="middle" x="241" y="-206.8" font-family="Helvetica,sans-Serif" font-size="9.00">index.js</text>
</a>
</g>
</g>
<!-- lib/rules/global&#45;constant&#45;pattern.js -->
<g id="node3" class="node">
<title>lib/rules/global&#45;constant&#45;pattern.js</title>
<g id="a_node3"><a xlink:href="https://github.com/sverweij/eslint-plugin-budapestian/blob/master/lib/rules/global-constant-pattern.js" xlink:title="global&#45;constant&#45;pattern.js">
<path fill="#ffffcc" stroke="black" d="M398,-203C398,-203 290,-203 290,-203 287,-203 284,-200 284,-197 284,-197 284,-191 284,-191 284,-188 287,-185 290,-185 290,-185 398,-185 398,-185 401,-185 404,-188 404,-191 404,-191 404,-197 404,-197 404,-200 401,-203 398,-203"/>
<text text-anchor="middle" x="344" y="-191.8" font-family="Helvetica,sans-Serif" font-size="9.00">global&#45;constant&#45;pattern.js</text>
</a>
</g>
</g>
<!-- lib/index.js&#45;&gt;lib/rules/global&#45;constant&#45;pattern.js -->
<g id="edge1" class="edge">
<title>lib/index.js&#45;&gt;lib/rules/global&#45;constant&#45;pattern.js</title>
<path fill="none" stroke="#000000" stroke-width="2" stroke-opacity="0.200000" d="M268.07,-210.2C278.52,-210.2 288,-210.2 288,-210.2 288,-210.2 288,-209.24 288,-209.24"/>
<polygon fill="#000000" fill-opacity="0.200000" stroke="#000000" stroke-width="2" stroke-opacity="0.200000" points="290.1,-209.24 288,-203.24 285.9,-209.24 290.1,-209.24"/>
</g>
<!-- lib/rules/global&#45;variable&#45;pattern.js -->
<g id="node4" class="node">
<title>lib/rules/global&#45;variable&#45;pattern.js</title>
<g id="a_node4"><a xlink:href="https://github.com/sverweij/eslint-plugin-budapestian/blob/master/lib/rules/global-variable-pattern.js" xlink:title="global&#45;variable&#45;pattern.js">
<path fill="#ffffcc" stroke="black" d="M397.5,-263C397.5,-263 290.5,-263 290.5,-263 287.5,-263 284.5,-260 284.5,-257 284.5,-257 284.5,-251 284.5,-251 284.5,-248 287.5,-245 290.5,-245 290.5,-245 397.5,-245 397.5,-245 400.5,-245 403.5,-248 403.5,-251 403.5,-251 403.5,-257 403.5,-257 403.5,-260 400.5,-263 397.5,-263"/>
<text text-anchor="middle" x="344" y="-251.8" font-family="Helvetica,sans-Serif" font-size="9.00">global&#45;variable&#45;pattern.js</text>
</a>
</g>
</g>
<!-- lib/index.js&#45;&gt;lib/rules/global&#45;variable&#45;pattern.js -->
<g id="edge2" class="edge">
<title>lib/index.js&#45;&gt;lib/rules/global&#45;variable&#45;pattern.js</title>
<path fill="none" stroke="#000000" stroke-width="2" stroke-opacity="0.200000" d="M268.29,-212.6C280.42,-212.6 292,-212.6 292,-212.6 292,-212.6 292,-238.81 292,-238.81"/>
<polygon fill="#000000" fill-opacity="0.200000" stroke="#000000" stroke-width="2" stroke-opacity="0.200000" points="289.9,-238.81 292,-244.81 294.1,-238.81 289.9,-238.81"/>
</g>
<!-- lib/rules/parameter&#45;pattern.js -->
<g id="node5" class="node">
<title>lib/rules/parameter&#45;pattern.js</title>
<g id="a_node5"><a xlink:href="https://github.com/sverweij/eslint-plugin-budapestian/blob/master/lib/rules/parameter-pattern.js" xlink:title="parameter&#45;pattern.js">
<path fill="#ffffcc" stroke="black" d="M387.5,-233C387.5,-233 300.5,-233 300.5,-233 297.5,-233 294.5,-230 294.5,-227 294.5,-227 294.5,-221 294.5,-221 294.5,-218 297.5,-215 300.5,-215 300.5,-215 387.5,-215 387.5,-215 390.5,-215 393.5,-218 393.5,-221 393.5,-221 393.5,-227 393.5,-227 393.5,-230 390.5,-233 387.5,-233"/>
<text text-anchor="middle" x="344" y="-221.8" font-family="Helvetica,sans-Serif" font-size="9.00">parameter&#45;pattern.js</text>
</a>
</g>
</g>
<!-- lib/index.js&#45;&gt;lib/rules/parameter&#45;pattern.js -->
<g id="edge3" class="edge">
<title>lib/index.js&#45;&gt;lib/rules/parameter&#45;pattern.js</title>
<path fill="none" stroke="#000000" stroke-width="2" stroke-opacity="0.200000" d="M241,-218.26C241,-220.86 241,-223 241,-223 241,-223 288.31,-223 288.31,-223"/>
<polygon fill="#000000" fill-opacity="0.200000" stroke="#000000" stroke-width="2" stroke-opacity="0.200000" points="288.31,-225.1 294.31,-223 288.31,-220.9 288.31,-225.1"/>
</g>
<!-- lib/rules/ast&#45;utl.js -->
<g id="node6" class="node">
<title>lib/rules/ast&#45;utl.js</title>
<g id="a_node6"><a xlink:href="https://github.com/sverweij/eslint-plugin-budapestian/blob/master/lib/rules/ast-utl.js" xlink:title="ast&#45;utl.js">
<path fill="#ffffcc" stroke="black" d="M471.5,-218C471.5,-218 429.5,-218 429.5,-218 426.5,-218 423.5,-215 423.5,-212 423.5,-212 423.5,-206 423.5,-206 423.5,-203 426.5,-200 429.5,-200 429.5,-200 471.5,-200 471.5,-200 474.5,-200 477.5,-203 477.5,-206 477.5,-206 477.5,-212 477.5,-212 477.5,-215 474.5,-218 471.5,-218"/>
<text text-anchor="middle" x="450.5" y="-206.8" font-family="Helvetica,sans-Serif" font-size="9.00">ast&#45;utl.js</text>
</a>
</g>
</g>
<!-- lib/rules/global&#45;constant&#45;pattern.js&#45;&gt;lib/rules/ast&#45;utl.js -->
<g id="edge5" class="edge">
<title>lib/rules/global&#45;constant&#45;pattern.js&#45;&gt;lib/rules/ast&#45;utl.js</title>
<path fill="none" stroke="#000000" stroke-width="2" stroke-opacity="0.200000" d="M398,-203.2C398,-204.5 398,-205.4 398,-205.4 398,-205.4 417.33,-205.4 417.33,-205.4"/>
<polygon fill="#000000" fill-opacity="0.200000" stroke="#000000" stroke-width="2" stroke-opacity="0.200000" points="417.33,-207.5 423.33,-205.4 417.33,-203.3 417.33,-207.5"/>
</g>
<!-- lib/rules/pattern&#45;utl.js -->
<g id="node8" class="node">
<title>lib/rules/pattern&#45;utl.js</title>
<g id="a_node8"><a xlink:href="https://github.com/sverweij/eslint-plugin-budapestian/blob/master/lib/rules/pattern-utl.js" xlink:title="pattern&#45;utl.js">
<path fill="#ffffcc" stroke="black" d="M478,-248C478,-248 423,-248 423,-248 420,-248 417,-245 417,-242 417,-242 417,-236 417,-236 417,-233 420,-230 423,-230 423,-230 478,-230 478,-230 481,-230 484,-233 484,-236 484,-236 484,-242 484,-242 484,-245 481,-248 478,-248"/>
<text text-anchor="middle" x="450.5" y="-236.8" font-family="Helvetica,sans-Serif" font-size="9.00">pattern&#45;utl.js</text>
</a>
</g>
</g>
<!-- lib/rules/global&#45;constant&#45;pattern.js&#45;&gt;lib/rules/pattern&#45;utl.js -->
<g id="edge6" class="edge">
<title>lib/rules/global&#45;constant&#45;pattern.js&#45;&gt;lib/rules/pattern&#45;utl.js</title>
<path fill="none" stroke="#000000" stroke-width="2" stroke-opacity="0.200000" d="M396,-203.12C396,-215.74 396,-237 396,-237 396,-237 410.92,-237 410.92,-237"/>
<polygon fill="#000000" fill-opacity="0.200000" stroke="#000000" stroke-width="2" stroke-opacity="0.200000" points="410.92,-239.1 416.92,-237 410.92,-234.9 410.92,-239.1"/>
</g>
<!-- node_modules/decamelize -->
<g id="node9" class="node">
<title>node_modules/decamelize</title>
<g id="a_node9"><a xlink:href="https://github.com/sverweij/eslint-plugin-budapestian/blob/master/node_modules/decamelize" xlink:title="decamelize">
<polygon fill="#c40b0a" fill-opacity="0.101961" stroke="black" points="580,-161 518,-161 516,-159 516,-143 578,-143 580,-145 580,-161"/>
<polyline fill="none" stroke="black" points="578,-159 516,-159 "/>
<polyline fill="none" stroke="black" points="578,-159 578,-143 "/>
<polyline fill="none" stroke="black" points="578,-159 580,-161 "/>
<text text-anchor="middle" x="548" y="-149.8" font-family="Helvetica,sans-Serif" font-size="9.00" fill="#c40b0a">decamelize</text>
</a>
</g>
</g>
<!-- lib/rules/global&#45;constant&#45;pattern.js&#45;&gt;node_modules/decamelize -->
<g id="edge7" class="edge">
<title>lib/rules/global&#45;constant&#45;pattern.js&#45;&gt;node_modules/decamelize</title>
<path fill="none" stroke="#000000" stroke-opacity="0.200000" d="M364,-184.68C364,-172.31 364,-152 364,-152 364,-152 509.95,-152 509.95,-152"/>
<polygon fill="#000000" fill-opacity="0.200000" stroke="#000000" stroke-opacity="0.200000" points="509.95,-154.1 515.95,-152 509.95,-149.9 509.95,-154.1"/>
</g>
<!-- lib/rules/global&#45;variable&#45;pattern.js&#45;&gt;lib/rules/ast&#45;utl.js -->
<g id="edge8" class="edge">
<title>lib/rules/global&#45;variable&#45;pattern.js&#45;&gt;lib/rules/ast&#45;utl.js</title>
<path fill="none" stroke="#000000" stroke-width="2" stroke-opacity="0.200000" d="M400,-244.65C400,-231.15 400,-207.8 400,-207.8 400,-207.8 417.48,-207.8 417.48,-207.8"/>
<polygon fill="#000000" fill-opacity="0.200000" stroke="#000000" stroke-width="2" stroke-opacity="0.200000" points="417.48,-209.9 423.48,-207.8 417.48,-205.7 417.48,-209.9"/>
</g>
<!-- lib/rules/global&#45;variable&#45;pattern.js&#45;&gt;lib/rules/pattern&#45;utl.js -->
<g id="edge9" class="edge">
<title>lib/rules/global&#45;variable&#45;pattern.js&#45;&gt;lib/rules/pattern&#45;utl.js</title>
<path fill="none" stroke="#000000" stroke-width="2" stroke-opacity="0.200000" d="M402,-244.83C402,-242.68 402,-241 402,-241 402,-241 410.82,-241 410.82,-241"/>
<polygon fill="#000000" fill-opacity="0.200000" stroke="#000000" stroke-width="2" stroke-opacity="0.200000" points="410.82,-243.1 416.82,-241 410.82,-238.9 410.82,-243.1"/>
</g>
<!-- lib/rules/parameter&#45;pattern.js&#45;&gt;lib/rules/ast&#45;utl.js -->
<g id="edge10" class="edge">
<title>lib/rules/parameter&#45;pattern.js&#45;&gt;lib/rules/ast&#45;utl.js</title>
<path fill="none" stroke="#000000" stroke-width="2" stroke-opacity="0.200000" d="M393.57,-225.5C417.88,-225.5 442,-225.5 442,-225.5 442,-225.5 442,-224.02 442,-224.02"/>
<polygon fill="#000000" fill-opacity="0.200000" stroke="#000000" stroke-width="2" stroke-opacity="0.200000" points="444.1,-224.02 442,-218.02 439.9,-224.02 444.1,-224.02"/>
</g>
<!-- node_modules/lodash.get -->
<g id="node7" class="node">
<title>node_modules/lodash.get</title>
<g id="a_node7"><a xlink:href="https://github.com/sverweij/eslint-plugin-budapestian/blob/master/node_modules/lodash.get" xlink:title="lodash.get">
<polygon fill="#c40b0a" fill-opacity="0.101961" stroke="black" points="577.5,-191 520.5,-191 518.5,-189 518.5,-173 575.5,-173 577.5,-175 577.5,-191"/>
<polyline fill="none" stroke="black" points="575.5,-189 518.5,-189 "/>
<polyline fill="none" stroke="black" points="575.5,-189 575.5,-173 "/>
<polyline fill="none" stroke="black" points="575.5,-189 577.5,-191 "/>
<text text-anchor="middle" x="548" y="-179.8" font-family="Helvetica,sans-Serif" font-size="9.00" fill="#c40b0a">lodash.get</text>
</a>
</g>
</g>
<!-- lib/rules/parameter&#45;pattern.js&#45;&gt;node_modules/lodash.get -->
<g id="edge12" class="edge">
<title>lib/rules/parameter&#45;pattern.js&#45;&gt;node_modules/lodash.get</title>
<path fill="none" stroke="#000000" stroke-opacity="0.200000" d="M393.75,-223.25C403.61,-223.25 411,-223.25 411,-223.25 411,-223.25 411,-177 411,-177 411,-177 512.27,-177 512.27,-177"/>
<polygon fill="#000000" fill-opacity="0.200000" stroke="#000000" stroke-opacity="0.200000" points="512.27,-179.1 518.27,-177 512.27,-174.9 512.27,-179.1"/>
</g>
<!-- lib/rules/parameter&#45;pattern.js&#45;&gt;lib/rules/pattern&#45;utl.js -->
<g id="edge11" class="edge">
<title>lib/rules/parameter&#45;pattern.js&#45;&gt;lib/rules/pattern&#45;utl.js</title>
<path fill="none" stroke="#000000" stroke-width="2" stroke-opacity="0.200000" d="M393.53,-227.75C425.06,-227.75 460,-227.75 460,-227.75 460,-227.75 460,-227.97 460,-227.97"/>
<polygon fill="#000000" fill-opacity="0.200000" stroke="#000000" stroke-width="2" stroke-opacity="0.200000" points="457.9,-223.92 460,-229.92 462.1,-223.92 457.9,-223.92"/>
</g>
<!-- lib/rules/ast&#45;utl.js&#45;&gt;node_modules/lodash.get -->
<g id="edge4" class="edge">
<title>lib/rules/ast&#45;utl.js&#45;&gt;node_modules/lodash.get</title>
<path fill="none" stroke="#000000" stroke-opacity="0.200000" d="M451,-199.83C451,-191.67 451,-181 451,-181 451,-181 512.37,-181 512.37,-181"/>
<polygon fill="#000000" fill-opacity="0.200000" stroke="#000000" stroke-opacity="0.200000" points="512.37,-183.1 518.37,-181 512.37,-178.9 512.37,-183.1"/>
</g>
<!-- node_modules/camelcase -->
<g id="node10" class="node">
<title>node_modules/camelcase</title>
<g id="a_node10"><a xlink:href="https://github.com/sverweij/eslint-plugin-budapestian/blob/master/node_modules/camelcase" xlink:title="camelcase">
<polygon fill="#c40b0a" fill-opacity="0.101961" stroke="black" points="578.5,-221 519.5,-221 517.5,-219 517.5,-203 576.5,-203 578.5,-205 578.5,-221"/>
<polyline fill="none" stroke="black" points="576.5,-219 517.5,-219 "/>
<polyline fill="none" stroke="black" points="576.5,-219 576.5,-203 "/>
<polyline fill="none" stroke="black" points="576.5,-219 578.5,-221 "/>
<text text-anchor="middle" x="548" y="-209.8" font-family="Helvetica,sans-Serif" font-size="9.00" fill="#c40b0a">camelcase</text>
</a>
</g>
</g>
<!-- lib/rules/pattern&#45;utl.js&#45;&gt;node_modules/camelcase -->
<g id="edge13" class="edge">
<title>lib/rules/pattern&#45;utl.js&#45;&gt;node_modules/camelcase</title>
<path fill="none" stroke="#000000" stroke-opacity="0.200000" d="M484.07,-240.5C492.89,-240.5 500,-240.5 500,-240.5 500,-240.5 500,-210.5 500,-210.5 500,-210.5 511.33,-210.5 511.33,-210.5"/>
<polygon fill="#000000" fill-opacity="0.200000" stroke="#000000" stroke-opacity="0.200000" points="511.33,-212.6 517.33,-210.5 511.33,-208.4 511.33,-212.6"/>
</g>
<!-- node_modules/chai -->
<g id="node11" class="node">
<title>node_modules/chai</title>
<g id="a_node11"><a xlink:href="https://github.com/sverweij/eslint-plugin-budapestian/blob/master/node_modules/chai" xlink:title="chai">
<polygon fill="#c40b0a" fill-opacity="0.101961" stroke="black" points="575,-251 523,-251 521,-249 521,-233 573,-233 575,-235 575,-251"/>
<polyline fill="none" stroke="black" points="573,-249 521,-249 "/>
<polyline fill="none" stroke="black" points="573,-249 573,-233 "/>
<polyline fill="none" stroke="black" points="573,-249 575,-251 "/>
<text text-anchor="middle" x="548" y="-239.8" font-family="Helvetica,sans-Serif" font-size="9.00" fill="#c40b0a">chai</text>
</a>
</g>
</g>
<!-- node_modules/eslint -->
<g id="node12" class="node">
<title>node_modules/eslint</title>
<g id="a_node12"><a xlink:href="https://github.com/sverweij/eslint-plugin-budapestian/blob/master/node_modules/eslint" xlink:title="eslint">
<polygon fill="#c40b0a" fill-opacity="0.101961" stroke="black" points="575,-131 523,-131 521,-129 521,-113 573,-113 575,-115 575,-131"/>
<polyline fill="none" stroke="black" points="573,-129 521,-129 "/>
<polyline fill="none" stroke="black" points="573,-129 573,-113 "/>
<polyline fill="none" stroke="black" points="573,-129 575,-131 "/>
<text text-anchor="middle" x="548" y="-119.8" font-family="Helvetica,sans-Serif" font-size="9.00" fill="#c40b0a">eslint</text>
</a>
</g>
</g>
<!-- path -->
<g id="node13" class="node">
<title>path</title>
<path fill="#ffffcc" stroke="grey" d="M262,-161C262,-161 220,-161 220,-161 217,-161 214,-158 214,-155 214,-155 214,-149 214,-149 214,-146 217,-143 220,-143 220,-143 262,-143 262,-143 265,-143 268,-146 268,-149 268,-149 268,-155 268,-155 268,-158 265,-161 262,-161"/>
<text text-anchor="middle" x="241" y="-149.8" font-family="Helvetica,sans-Serif" font-size="9.00" fill="grey">path</text>
</g>
<!-- test/lib/index.spec.js -->
<g id="node14" class="node">
<title>test/lib/index.spec.js</title>
<g id="a_node14"><a xlink:href="https://github.com/sverweij/eslint-plugin-budapestian/blob/master/test/lib/index.spec.js" xlink:title="index.spec.js">
<path fill="#ffffcc" stroke="black" d="M132,-162C132,-162 74,-162 74,-162 71,-162 68,-159 68,-156 68,-156 68,-150 68,-150 68,-147 71,-144 74,-144 74,-144 132,-144 132,-144 135,-144 138,-147 138,-150 138,-150 138,-156 138,-156 138,-159 135,-162 132,-162"/>
<text text-anchor="middle" x="103" y="-150.8" font-family="Helvetica,sans-Serif" font-size="9.00">index.spec.js</text>
</a>
</g>
</g>
<!-- test/lib/index.spec.js&#45;&gt;fs -->
<g id="edge16" class="edge">
<title>test/lib/index.spec.js&#45;&gt;fs</title>
<path fill="none" stroke="#000000" stroke-dasharray="5,2" stroke-opacity="0.200000" d="M86,-162.07C86,-201.75 86,-358 86,-358 86,-358 207.65,-358 207.65,-358"/>
<polygon fill="#000000" fill-opacity="0.200000" stroke="#000000" stroke-opacity="0.200000" points="207.65,-360.1 213.65,-358 207.65,-355.9 207.65,-360.1"/>
</g>
<!-- test/lib/index.spec.js&#45;&gt;lib/index.js -->
<g id="edge14" class="edge">
<title>test/lib/index.spec.js&#45;&gt;lib/index.js</title>
<path fill="none" stroke="#000000" stroke-width="2" stroke-opacity="0.200000" d="M121,-162.25C121,-178.15 121,-209 121,-209 121,-209 207.77,-209 207.77,-209"/>
<polygon fill="#000000" fill-opacity="0.200000" stroke="#000000" stroke-width="2" stroke-opacity="0.200000" points="207.77,-211.1 213.77,-209 207.77,-206.9 207.77,-211.1"/>
</g>
<!-- test/lib/index.spec.js&#45;&gt;node_modules/chai -->
<g id="edge15" class="edge">
<title>test/lib/index.spec.js&#45;&gt;node_modules/chai</title>
<path fill="none" stroke="#000000" stroke-opacity="0.200000" d="M103,-162.11C103,-195.05 103,-306 103,-306 103,-306 548,-306 548,-306 548,-306 548,-257.17 548,-257.17"/>
<polygon fill="#000000" fill-opacity="0.200000" stroke="#000000" stroke-opacity="0.200000" points="550.1,-257.17 548,-251.17 545.9,-257.17 550.1,-257.17"/>
</g>
<!-- test/lib/index.spec.js&#45;&gt;path -->
<g id="edge17" class="edge">
<title>test/lib/index.spec.js&#45;&gt;path</title>
<path fill="none" stroke="#000000" stroke-dasharray="5,2" stroke-opacity="0.200000" d="M138.18,-152.5C138.18,-152.5 207.72,-152.5 207.72,-152.5"/>
<polygon fill="#000000" fill-opacity="0.200000" stroke="#000000" stroke-opacity="0.200000" points="207.72,-154.6 213.72,-152.5 207.72,-150.4 207.72,-154.6"/>
</g>
<!-- test/lib/rules/global&#45;constant&#45;pattern.spec.js -->
<g id="node15" class="node">
<title>test/lib/rules/global&#45;constant&#45;pattern.spec.js</title>
<g id="a_node15"><a xlink:href="https://github.com/sverweij/eslint-plugin-budapestian/blob/master/test/lib/rules/global-constant-pattern.spec.js" xlink:title="global&#45;constant&#45;pattern.spec.js">
<path fill="#ffffcc" stroke="black" d="M168,-50C168,-50 38,-50 38,-50 35,-50 32,-47 32,-44 32,-44 32,-38 32,-38 32,-35 35,-32 38,-32 38,-32 168,-32 168,-32 171,-32 174,-35 174,-38 174,-38 174,-44 174,-44 174,-47 171,-50 168,-50"/>
<text text-anchor="middle" x="103" y="-38.8" font-family="Helvetica,sans-Serif" font-size="9.00">global&#45;constant&#45;pattern.spec.js</text>
</a>
</g>
</g>
<!-- test/lib/rules/global&#45;constant&#45;pattern.spec.js&#45;&gt;lib/rules/global&#45;constant&#45;pattern.js -->
<g id="edge18" class="edge">
<title>test/lib/rules/global&#45;constant&#45;pattern.spec.js&#45;&gt;lib/rules/global&#45;constant&#45;pattern.js</title>
<path fill="none" stroke="#000000" stroke-width="2" stroke-opacity="0.200000" d="M174.14,-44C238.75,-44 324,-44 324,-44 324,-44 324,-178.62 324,-178.62"/>
<polygon fill="#000000" fill-opacity="0.200000" stroke="#000000" stroke-width="2" stroke-opacity="0.200000" points="321.9,-178.62 324,-184.62 326.1,-178.62 321.9,-178.62"/>
</g>
<!-- test/lib/rules/global&#45;constant&#45;pattern.spec.js&#45;&gt;node_modules/eslint -->
<g id="edge19" class="edge">
<title>test/lib/rules/global&#45;constant&#45;pattern.spec.js&#45;&gt;node_modules/eslint</title>
<path fill="none" stroke="#000000" stroke-opacity="0.200000" d="M174.19,-38C301.96,-38 557,-38 557,-38 557,-38 557,-106.69 557,-106.69"/>
<polygon fill="#000000" fill-opacity="0.200000" stroke="#000000" stroke-opacity="0.200000" points="554.9,-106.69 557,-112.69 559.1,-106.69 554.9,-106.69"/>
</g>
<!-- test/lib/rules/global&#45;variable&#45;pattern.spec.js -->
<g id="node16" class="node">
<title>test/lib/rules/global&#45;variable&#45;pattern.spec.js</title>
<g id="a_node16"><a xlink:href="https://github.com/sverweij/eslint-plugin-budapestian/blob/master/test/lib/rules/global-variable-pattern.spec.js" xlink:title="global&#45;variable&#45;pattern.spec.js">
<path fill="#ffffcc" stroke="black" d="M167,-110C167,-110 39,-110 39,-110 36,-110 33,-107 33,-104 33,-104 33,-98 33,-98 33,-95 36,-92 39,-92 39,-92 167,-92 167,-92 170,-92 173,-95 173,-98 173,-98 173,-104 173,-104 173,-107 170,-110 167,-110"/>
<text text-anchor="middle" x="103" y="-98.8" font-family="Helvetica,sans-Serif" font-size="9.00">global&#45;variable&#45;pattern.spec.js</text>
</a>
</g>
</g>
<!-- test/lib/rules/global&#45;variable&#45;pattern.spec.js&#45;&gt;lib/rules/global&#45;variable&#45;pattern.js -->
<g id="edge20" class="edge">
<title>test/lib/rules/global&#45;variable&#45;pattern.spec.js&#45;&gt;lib/rules/global&#45;variable&#45;pattern.js</title>
<path fill="none" stroke="#000000" stroke-width="2" stroke-opacity="0.200000" d="M150,-110.11C150,-143.05 150,-254 150,-254 150,-254 278.48,-254 278.48,-254"/>
<polygon fill="#000000" fill-opacity="0.200000" stroke="#000000" stroke-width="2" stroke-opacity="0.200000" points="278.48,-256.1 284.48,-254 278.48,-251.9 278.48,-256.1"/>
</g>
<!-- test/lib/rules/global&#45;variable&#45;pattern.spec.js&#45;&gt;node_modules/eslint -->
<g id="edge21" class="edge">
<title>test/lib/rules/global&#45;variable&#45;pattern.spec.js&#45;&gt;node_modules/eslint</title>
<path fill="none" stroke="#000000" stroke-opacity="0.200000" d="M162,-110.03C162,-115.72 162,-122 162,-122 162,-122 514.86,-122 514.86,-122"/>
<polygon fill="#000000" fill-opacity="0.200000" stroke="#000000" stroke-opacity="0.200000" points="514.86,-124.1 520.86,-122 514.86,-119.9 514.86,-124.1"/>
</g>
<!-- test/lib/rules/parameter&#45;pattern.spec.js -->
<g id="node17" class="node">
<title>test/lib/rules/parameter&#45;pattern.spec.js</title>
<g id="a_node17"><a xlink:href="https://github.com/sverweij/eslint-plugin-budapestian/blob/master/test/lib/rules/parameter-pattern.spec.js" xlink:title="parameter&#45;pattern.spec.js">
<path fill="#ffffcc" stroke="black" d="M157.5,-80C157.5,-80 48.5,-80 48.5,-80 45.5,-80 42.5,-77 42.5,-74 42.5,-74 42.5,-68 42.5,-68 42.5,-65 45.5,-62 48.5,-62 48.5,-62 157.5,-62 157.5,-62 160.5,-62 163.5,-65 163.5,-68 163.5,-68 163.5,-74 163.5,-74 163.5,-77 160.5,-80 157.5,-80"/>
<text text-anchor="middle" x="103" y="-68.8" font-family="Helvetica,sans-Serif" font-size="9.00">parameter&#45;pattern.spec.js</text>
</a>
</g>
</g>
<!-- test/lib/rules/parameter&#45;pattern.spec.js&#45;&gt;lib/rules/parameter&#45;pattern.js -->
<g id="edge22" class="edge">
<title>test/lib/rules/parameter&#45;pattern.spec.js&#45;&gt;lib/rules/parameter&#45;pattern.js</title>
<path fill="none" stroke="#000000" stroke-width="2" stroke-opacity="0.200000" d="M163.7,-74C180.39,-74 194,-74 194,-74 194,-74 194,-228 194,-228 194,-228 288.47,-228 288.47,-228"/>
<polygon fill="#000000" fill-opacity="0.200000" stroke="#000000" stroke-width="2" stroke-opacity="0.200000" points="288.47,-230.1 294.47,-228 288.47,-225.9 288.47,-230.1"/>
</g>
<!-- test/lib/rules/parameter&#45;pattern.spec.js&#45;&gt;node_modules/eslint -->
<g id="edge23" class="edge">
<title>test/lib/rules/parameter&#45;pattern.spec.js&#45;&gt;node_modules/eslint</title>
<path fill="none" stroke="#000000" stroke-opacity="0.200000" d="M163.62,-68C283.42,-68 539,-68 539,-68 539,-68 539,-106.59 539,-106.59"/>
<polygon fill="#000000" fill-opacity="0.200000" stroke="#000000" stroke-opacity="0.200000" points="536.9,-106.59 539,-112.59 541.1,-106.59 536.9,-106.59"/>
</g>
</g>
</svg>
