<?xml version="1.0" encoding="UTF-8" standalone="no"?>
<!DOCTYPE svg PUBLIC "-//W3C//DTD SVG 1.1//EN"
 "http://www.w3.org/Graphics/SVG/1.1/DTD/svg11.dtd">
<!-- Generated by graphviz version 9.0.0 (20230911.1827)
 -->
<!-- Title: dependency&#45;cruiser output Pages: 1 -->
<svg width="797pt" height="518pt"
 viewBox="0.00 0.00 796.50 518.00" xmlns="http://www.w3.org/2000/svg" xmlns:xlink="http://www.w3.org/1999/xlink">
<g id="graph0" class="graph" transform="scale(1 1) rotate(0) translate(4 514)">
<title>dependency&#45;cruiser output</title>
<polygon fill="white" stroke="none" points="-4,4 -4,-514 792.5,-514 792.5,4 -4,4"/>
<g id="clust1" class="cluster">
<title>cluster_assert</title>
<path fill="#ffffff" stroke="black" stroke-width="2" d="M236,-450C236,-450 282,-450 282,-450 288,-450 294,-456 294,-462 294,-462 294,-490 294,-490 294,-496 288,-502 282,-502 282,-502 236,-502 236,-502 230,-502 224,-496 224,-490 224,-490 224,-462 224,-462 224,-456 230,-450 236,-450"/>
<text text-anchor="middle" x="259" y="-489.45" font-family="Helvetica,sans-Serif" font-weight="bold" font-size="9.00">assert</text>
</g>
<g id="clust2" class="cluster">
<title>cluster_lib</title>
<path fill="#ffffff" stroke="black" stroke-width="2" d="M236,-216C236,-216 681.25,-216 681.25,-216 687.25,-216 693.25,-222 693.25,-228 693.25,-228 693.25,-404 693.25,-404 693.25,-410 687.25,-416 681.25,-416 681.25,-416 236,-416 236,-416 230,-416 224,-410 224,-404 224,-404 224,-228 224,-228 224,-222 230,-216 236,-216"/>
<text text-anchor="middle" x="458.62" y="-403.45" font-family="Helvetica,sans-Serif" font-weight="bold" font-size="9.00">lib</text>
</g>
<g id="clust3" class="cluster">
<title>cluster_lib/rules</title>
<path fill="#ffffff" stroke="black" stroke-width="2" d="M314,-224C314,-224 673.25,-224 673.25,-224 679.25,-224 685.25,-230 685.25,-236 685.25,-236 685.25,-378 685.25,-378 685.25,-384 679.25,-390 673.25,-390 673.25,-390 314,-390 314,-390 308,-390 302,-384 302,-378 302,-378 302,-236 302,-236 302,-230 308,-224 314,-224"/>
<text text-anchor="middle" x="493.62" y="-377.45" font-family="Helvetica,sans-Serif" font-weight="bold" font-size="9.00">rules</text>
</g>
<g id="clust4" class="cluster">
<title>cluster_node_modules</title>
<path fill="#ffffff" stroke="black" stroke-width="2" d="M713.25,-8C713.25,-8 768.5,-8 768.5,-8 774.5,-8 780.5,-14 780.5,-20 780.5,-20 780.5,-108 780.5,-108 780.5,-114 774.5,-120 768.5,-120 768.5,-120 713.25,-120 713.25,-120 707.25,-120 701.25,-114 701.25,-108 701.25,-108 701.25,-20 701.25,-20 701.25,-14 707.25,-8 713.25,-8"/>
<text text-anchor="middle" x="740.88" y="-107.45" font-family="Helvetica,sans-Serif" font-weight="bold" font-size="9.00">node_modules</text>
</g>
<g id="clust5" class="cluster">
<title>cluster_test</title>
<path fill="#ffffff" stroke="black" stroke-width="2" d="M20,-19C20,-19 204,-19 204,-19 210,-19 216,-25 216,-31 216,-31 216,-273 216,-273 216,-279 210,-285 204,-285 204,-285 20,-285 20,-285 14,-285 8,-279 8,-273 8,-273 8,-31 8,-31 8,-25 14,-19 20,-19"/>
<text text-anchor="middle" x="112" y="-272.45" font-family="Helvetica,sans-Serif" font-weight="bold" font-size="9.00">test</text>
</g>
<g id="clust6" class="cluster">
<title>cluster_test/lib</title>
<path fill="#ffffff" stroke="black" stroke-width="2" d="M28,-27C28,-27 196,-27 196,-27 202,-27 208,-33 208,-39 208,-39 208,-247 208,-247 208,-253 202,-259 196,-259 196,-259 28,-259 28,-259 22,-259 16,-253 16,-247 16,-247 16,-39 16,-39 16,-33 22,-27 28,-27"/>
<text text-anchor="middle" x="112" y="-246.45" font-family="Helvetica,sans-Serif" font-weight="bold" font-size="9.00">lib</text>
</g>
<g id="clust7" class="cluster">
<title>cluster_test/lib/rules</title>
<path fill="#ffffff" stroke="black" stroke-width="2" d="M36,-35C36,-35 188,-35 188,-35 194,-35 200,-41 200,-47 200,-47 200,-195 200,-195 200,-201 194,-207 188,-207 188,-207 36,-207 36,-207 30,-207 24,-201 24,-195 24,-195 24,-47 24,-47 24,-41 30,-35 36,-35"/>
<text text-anchor="middle" x="112" y="-194.45" font-family="Helvetica,sans-Serif" font-weight="bold" font-size="9.00">rules</text>
</g>
<!-- assert/strict -->
<g id="node1" class="node">
<title>assert/strict</title>
<g id="a_node1"><a xlink:href="https://nodejs.org/api/assert.html" xlink:title="strict">
<path fill="#ffffcc" stroke="grey" d="M280.08,-475.88C280.08,-475.88 237.92,-475.88 237.92,-475.88 234.96,-475.88 232,-472.92 232,-469.96 232,-469.96 232,-464.04 232,-464.04 232,-461.08 234.96,-458.12 237.92,-458.12 237.92,-458.12 280.08,-458.12 280.08,-458.12 283.04,-458.12 286,-461.08 286,-464.04 286,-464.04 286,-469.96 286,-469.96 286,-472.92 283.04,-475.88 280.08,-475.88"/>
<text text-anchor="start" x="249.62" y="-463.32" font-family="Helvetica,sans-Serif" font-size="9.00" fill="grey">strict</text>
</a>
</g>
</g>
<!-- fs -->
<g id="node2" class="node">
<title>fs</title>
<g id="a_node2"><a xlink:href="https://nodejs.org/api/fs.html" xlink:title="fs">
<path fill="#ffffcc" stroke="grey" d="M280.08,-441.88C280.08,-441.88 237.92,-441.88 237.92,-441.88 234.96,-441.88 232,-438.92 232,-435.96 232,-435.96 232,-430.04 232,-430.04 232,-427.08 234.96,-424.12 237.92,-424.12 237.92,-424.12 280.08,-424.12 280.08,-424.12 283.04,-424.12 286,-427.08 286,-430.04 286,-430.04 286,-435.96 286,-435.96 286,-438.92 283.04,-441.88 280.08,-441.88"/>
<text text-anchor="middle" x="259" y="-429.32" font-family="Helvetica,sans-Serif" font-size="9.00" fill="grey">fs</text>
</a>
</g>
</g>
<!-- lib/index.js -->
<g id="node3" class="node">
<title>lib/index.js</title>
<g id="a_node3"><a xlink:href="https://github.com/sverweij/eslint-plugin-budapestian/blob/main/lib/index.js" xlink:title="index.js">
<path fill="#ffffcc" stroke="black" d="M280.08,-298.88C280.08,-298.88 237.92,-298.88 237.92,-298.88 234.96,-298.88 232,-295.92 232,-292.96 232,-292.96 232,-287.04 232,-287.04 232,-284.08 234.96,-281.12 237.92,-281.12 237.92,-281.12 280.08,-281.12 280.08,-281.12 283.04,-281.12 286,-284.08 286,-287.04 286,-287.04 286,-292.96 286,-292.96 286,-295.92 283.04,-298.88 280.08,-298.88"/>
<text text-anchor="start" x="243.25" y="-286.32" font-family="Helvetica,sans-Serif" font-size="9.00">index.js</text>
</a>
</g>
</g>
<!-- package.json -->
<g id="node4" class="node">
<title>package.json</title>
<g id="a_node4"><a xlink:href="https://github.com/sverweij/eslint-plugin-budapestian/blob/main/package.json" xlink:title="package.json">
<path fill="#ffee44" stroke="black" d="M407.83,-441.88C407.83,-441.88 348.92,-441.88 348.92,-441.88 345.96,-441.88 343,-438.92 343,-435.96 343,-435.96 343,-430.04 343,-430.04 343,-427.08 345.96,-424.12 348.92,-424.12 348.92,-424.12 407.83,-424.12 407.83,-424.12 410.79,-424.12 413.75,-427.08 413.75,-430.04 413.75,-430.04 413.75,-435.96 413.75,-435.96 413.75,-438.92 410.79,-441.88 407.83,-441.88"/>
<text text-anchor="middle" x="378.38" y="-429.32" font-family="Helvetica,sans-Serif" font-size="9.00">package.json</text>
</a>
</g>
</g>
<!-- lib/index.js&#45;&gt;package.json -->
<g id="edge1" class="edge">
<title>lib/index.js&#45;&gt;package.json</title>
<path fill="none" stroke="#000000" stroke-width="2" stroke-opacity="0.200000" d="M286.43,-289.21C293.17,-289.21 298.5,-289.21 298.5,-289.21 298.5,-289.21 298.5,-433 298.5,-433 298.5,-433 333.62,-433 333.62,-433"/>
<polygon fill="#000000" fill-opacity="0.200000" stroke="#000000" stroke-width="2" stroke-opacity="0.200000" points="333.62,-435.1 339.62,-433 333.62,-430.9 333.62,-435.1"/>
</g>
<!-- lib/rules/global&#45;constant&#45;pattern&#45;rule.js -->
<g id="node5" class="node">
<title>lib/rules/global&#45;constant&#45;pattern&#45;rule.js</title>
<g id="a_node5"><a xlink:href="https://github.com/sverweij/eslint-plugin-budapestian/blob/main/lib/rules/global-constant-pattern-rule.js" xlink:title="global&#45;constant&#45;pattern&#45;rule.js">
<path fill="#ffffcc" stroke="black" d="M592.08,-349.88C592.08,-349.88 465.67,-349.88 465.67,-349.88 462.71,-349.88 459.75,-346.92 459.75,-343.96 459.75,-343.96 459.75,-338.04 459.75,-338.04 459.75,-335.08 462.71,-332.12 465.67,-332.12 465.67,-332.12 592.08,-332.12 592.08,-332.12 595.04,-332.12 598,-335.08 598,-338.04 598,-338.04 598,-343.96 598,-343.96 598,-346.92 595.04,-349.88 592.08,-349.88"/>
<text text-anchor="start" x="467.75" y="-337.32" font-family="Helvetica,sans-Serif" font-size="9.00">global&#45;constant&#45;pattern&#45;rule.js</text>
</a>
</g>
</g>
<!-- lib/index.js&#45;&gt;lib/rules/global&#45;constant&#45;pattern&#45;rule.js -->
<g id="edge2" class="edge">
<title>lib/index.js&#45;&gt;lib/rules/global&#45;constant&#45;pattern&#45;rule.js</title>
<path fill="none" stroke="#000000" stroke-width="2" stroke-opacity="0.200000" d="M286.16,-286.54C341.78,-286.54 463.5,-286.54 463.5,-286.54 463.5,-286.54 463.5,-322.98 463.5,-322.98"/>
<polygon fill="#000000" fill-opacity="0.200000" stroke="#000000" stroke-width="2" stroke-opacity="0.200000" points="461.4,-322.98 463.5,-328.98 465.6,-322.98 461.4,-322.98"/>
</g>
<!-- lib/rules/global&#45;variable&#45;pattern&#45;rule.js -->
<g id="node6" class="node">
<title>lib/rules/global&#45;variable&#45;pattern&#45;rule.js</title>
<g id="a_node6"><a xlink:href="https://github.com/sverweij/eslint-plugin-budapestian/blob/main/lib/rules/global-variable-pattern-rule.js" xlink:title="global&#45;variable&#45;pattern&#45;rule.js">
<path fill="#ffffcc" stroke="black" d="M440.83,-313.88C440.83,-313.88 315.92,-313.88 315.92,-313.88 312.96,-313.88 310,-310.92 310,-307.96 310,-307.96 310,-302.04 310,-302.04 310,-299.08 312.96,-296.12 315.92,-296.12 315.92,-296.12 440.83,-296.12 440.83,-296.12 443.79,-296.12 446.75,-299.08 446.75,-302.04 446.75,-302.04 446.75,-307.96 446.75,-307.96 446.75,-310.92 443.79,-313.88 440.83,-313.88"/>
<text text-anchor="start" x="318" y="-301.32" font-family="Helvetica,sans-Serif" font-size="9.00">global&#45;variable&#45;pattern&#45;rule.js</text>
</a>
</g>
</g>
<!-- lib/index.js&#45;&gt;lib/rules/global&#45;variable&#45;pattern&#45;rule.js -->
<g id="edge3" class="edge">
<title>lib/index.js&#45;&gt;lib/rules/global&#45;variable&#45;pattern&#45;rule.js</title>
<path fill="none" stroke="#000000" stroke-width="2" stroke-opacity="0.200000" d="M259.5,-299.18C259.5,-301.76 259.5,-303.88 259.5,-303.88 259.5,-303.88 300.54,-303.88 300.54,-303.88"/>
<polygon fill="#000000" fill-opacity="0.200000" stroke="#000000" stroke-width="2" stroke-opacity="0.200000" points="300.54,-305.98 306.54,-303.88 300.54,-301.78 300.54,-305.98"/>
</g>
<!-- lib/rules/local&#45;variable&#45;pattern&#45;rule.js -->
<g id="node7" class="node">
<title>lib/rules/local&#45;variable&#45;pattern&#45;rule.js</title>
<g id="a_node7"><a xlink:href="https://github.com/sverweij/eslint-plugin-budapestian/blob/main/lib/rules/local-variable-pattern-rule.js" xlink:title="local&#45;variable&#45;pattern&#45;rule.js">
<path fill="#ffffcc" stroke="black" d="M437.83,-253.88C437.83,-253.88 318.92,-253.88 318.92,-253.88 315.96,-253.88 313,-250.92 313,-247.96 313,-247.96 313,-242.04 313,-242.04 313,-239.08 315.96,-236.12 318.92,-236.12 318.92,-236.12 437.83,-236.12 437.83,-236.12 440.79,-236.12 443.75,-239.08 443.75,-242.04 443.75,-242.04 443.75,-247.96 443.75,-247.96 443.75,-250.92 440.79,-253.88 437.83,-253.88"/>
<text text-anchor="start" x="321" y="-241.32" font-family="Helvetica,sans-Serif" font-size="9.00">local&#45;variable&#45;pattern&#45;rule.js</text>
</a>
</g>
</g>
<!-- lib/index.js&#45;&gt;lib/rules/local&#45;variable&#45;pattern&#45;rule.js -->
<g id="edge4" class="edge">
<title>lib/index.js&#45;&gt;lib/rules/local&#45;variable&#45;pattern&#45;rule.js</title>
<path fill="none" stroke="#000000" stroke-width="2" stroke-opacity="0.200000" d="M264.5,-280.89C264.5,-267.74 264.5,-245 264.5,-245 264.5,-245 303.77,-245 303.77,-245"/>
<polygon fill="#000000" fill-opacity="0.200000" stroke="#000000" stroke-width="2" stroke-opacity="0.200000" points="303.77,-247.1 309.77,-245 303.77,-242.9 303.77,-247.1"/>
</g>
<!-- lib/rules/parameter&#45;pattern&#45;rule.js -->
<g id="node8" class="node">
<title>lib/rules/parameter&#45;pattern&#45;rule.js</title>
<g id="a_node8"><a xlink:href="https://github.com/sverweij/eslint-plugin-budapestian/blob/main/lib/rules/parameter-pattern-rule.js" xlink:title="parameter&#45;pattern&#45;rule.js">
<path fill="#ffffcc" stroke="black" d="M431.08,-283.88C431.08,-283.88 325.67,-283.88 325.67,-283.88 322.71,-283.88 319.75,-280.92 319.75,-277.96 319.75,-277.96 319.75,-272.04 319.75,-272.04 319.75,-269.08 322.71,-266.12 325.67,-266.12 325.67,-266.12 431.08,-266.12 431.08,-266.12 434.04,-266.12 437,-269.08 437,-272.04 437,-272.04 437,-277.96 437,-277.96 437,-280.92 434.04,-283.88 431.08,-283.88"/>
<text text-anchor="start" x="327.75" y="-271.32" font-family="Helvetica,sans-Serif" font-size="9.00">parameter&#45;pattern&#45;rule.js</text>
</a>
</g>
</g>
<!-- lib/index.js&#45;&gt;lib/rules/parameter&#45;pattern&#45;rule.js -->
<g id="edge5" class="edge">
<title>lib/index.js&#45;&gt;lib/rules/parameter&#45;pattern&#45;rule.js</title>
<path fill="none" stroke="#000000" stroke-width="2" stroke-opacity="0.200000" d="M275.5,-280.82C275.5,-278.24 275.5,-276.12 275.5,-276.12 275.5,-276.12 310.4,-276.12 310.4,-276.12"/>
<polygon fill="#000000" fill-opacity="0.200000" stroke="#000000" stroke-width="2" stroke-opacity="0.200000" points="310.4,-278.23 316.4,-276.13 310.4,-274.03 310.4,-278.23"/>
</g>
<!-- lib/rules/ast&#45;utl.js -->
<g id="node9" class="node">
<title>lib/rules/ast&#45;utl.js</title>
<g id="a_node9"><a xlink:href="https://github.com/sverweij/eslint-plugin-budapestian/blob/main/lib/rules/ast-utl.js" xlink:title="ast&#45;utl.js">
<path fill="#ffffcc" stroke="black" d="M665.21,-261.88C665.21,-261.88 623.04,-261.88 623.04,-261.88 620.08,-261.88 617.12,-258.92 617.12,-255.96 617.12,-255.96 617.12,-250.04 617.12,-250.04 617.12,-247.08 620.08,-244.12 623.04,-244.12 623.04,-244.12 665.21,-244.12 665.21,-244.12 668.17,-244.12 671.12,-247.08 671.12,-250.04 671.12,-250.04 671.12,-255.96 671.12,-255.96 671.12,-258.92 668.17,-261.88 665.21,-261.88"/>
<text text-anchor="start" x="627.25" y="-249.32" font-family="Helvetica,sans-Serif" font-size="9.00">ast&#45;utl.js</text>
</a>
</g>
</g>
<!-- lib/rules/global&#45;constant&#45;pattern&#45;rule.js&#45;&gt;lib/rules/ast&#45;utl.js -->
<g id="edge6" class="edge">
<title>lib/rules/global&#45;constant&#45;pattern&#45;rule.js&#45;&gt;lib/rules/ast&#45;utl.js</title>
<path fill="none" stroke="#000000" stroke-width="2" stroke-opacity="0.200000" d="M594.5,-331.93C594.5,-310.64 594.5,-259.21 594.5,-259.21 594.5,-259.21 607.67,-259.21 607.67,-259.21"/>
<polygon fill="#000000" fill-opacity="0.200000" stroke="#000000" stroke-width="2" stroke-opacity="0.200000" points="607.67,-261.31 613.67,-259.21 607.67,-257.11 607.67,-261.31"/>
</g>
<!-- lib/rules/pattern&#45;utl.js -->
<g id="node10" class="node">
<title>lib/rules/pattern&#45;utl.js</title>
<g id="a_node10"><a xlink:href="https://github.com/sverweij/eslint-plugin-budapestian/blob/main/lib/rules/pattern-utl.js" xlink:title="pattern&#45;utl.js">
<path fill="#ffffcc" stroke="black" d="M671.33,-298.88C671.33,-298.88 616.92,-298.88 616.92,-298.88 613.96,-298.88 611,-295.92 611,-292.96 611,-292.96 611,-287.04 611,-287.04 611,-284.08 613.96,-281.12 616.92,-281.12 616.92,-281.12 671.33,-281.12 671.33,-281.12 674.29,-281.12 677.25,-284.08 677.25,-287.04 677.25,-287.04 677.25,-292.96 677.25,-292.96 677.25,-295.92 674.29,-298.88 671.33,-298.88"/>
<text text-anchor="start" x="619" y="-286.32" font-family="Helvetica,sans-Serif" font-size="9.00">pattern&#45;utl.js</text>
</a>
</g>
</g>
<!-- lib/rules/global&#45;constant&#45;pattern&#45;rule.js&#45;&gt;lib/rules/pattern&#45;utl.js -->
<g id="edge7" class="edge">
<title>lib/rules/global&#45;constant&#45;pattern&#45;rule.js&#45;&gt;lib/rules/pattern&#45;utl.js</title>
<path fill="none" stroke="#000000" stroke-width="2" stroke-opacity="0.200000" d="M596.5,-331.97C596.5,-317.13 596.5,-289.19 596.5,-289.19 596.5,-289.19 601.5,-289.19 601.5,-289.19"/>
<polygon fill="#000000" fill-opacity="0.200000" stroke="#000000" stroke-width="2" stroke-opacity="0.200000" points="601.5,-291.29 607.5,-289.19 601.5,-287.09 601.5,-291.29"/>
</g>
<!-- node_modules/decamelize -->
<g id="node11" class="node">
<title>node_modules/decamelize</title>
<g id="a_node11"><a xlink:href="https://www.npmjs.com/package/decamelize" xlink:title="decamelize">
<polygon fill="#c40b0a" fill-opacity="0.101961" stroke="black" points="772.5,-93.88 711.22,-93.88 709.25,-91.9 709.25,-76.12 770.53,-76.12 772.5,-78.1 772.5,-93.88"/>
<polyline fill="none" stroke="black" points="770.53,-91.9 709.25,-91.9"/>
<polyline fill="none" stroke="black" points="770.53,-91.9 770.53,-76.12"/>
<polyline fill="none" stroke="black" points="770.53,-91.9 772.5,-93.88"/>
<text text-anchor="start" x="717.25" y="-81.33" font-family="Helvetica,sans-Serif" font-size="9.00" fill="#c40b0a">decamelize</text>
</a>
</g>
</g>
<!-- lib/rules/global&#45;constant&#45;pattern&#45;rule.js&#45;&gt;node_modules/decamelize -->
<g id="edge8" class="edge">
<title>lib/rules/global&#45;constant&#45;pattern&#45;rule.js&#45;&gt;node_modules/decamelize</title>
<path fill="none" stroke="#000000" stroke-opacity="0.200000" d="M591.5,-331.84C591.5,-285.96 591.5,-83.5 591.5,-83.5 591.5,-83.5 701.32,-83.5 701.32,-83.5"/>
<polygon fill="#000000" fill-opacity="0.200000" stroke="#000000" stroke-opacity="0.200000" points="701.32,-85.6 707.32,-83.5 701.32,-81.4 701.32,-85.6"/>
</g>
<!-- lib/rules/global&#45;variable&#45;pattern&#45;rule.js&#45;&gt;lib/rules/ast&#45;utl.js -->
<g id="edge9" class="edge">
<title>lib/rules/global&#45;variable&#45;pattern&#45;rule.js&#45;&gt;lib/rules/ast&#45;utl.js</title>
<path fill="none" stroke="#000000" stroke-width="2" stroke-opacity="0.200000" d="M447.09,-302.62C451.07,-302.62 453.5,-302.62 453.5,-302.62 453.5,-302.62 453.5,-256.54 453.5,-256.54 453.5,-256.54 607.79,-256.54 607.79,-256.54"/>
<polygon fill="#000000" fill-opacity="0.200000" stroke="#000000" stroke-width="2" stroke-opacity="0.200000" points="607.79,-258.64 613.79,-256.54 607.79,-254.44 607.79,-258.64"/>
</g>
<!-- lib/rules/global&#45;variable&#45;pattern&#45;rule.js&#45;&gt;lib/rules/pattern&#45;utl.js -->
<g id="edge10" class="edge">
<title>lib/rules/global&#45;variable&#45;pattern&#45;rule.js&#45;&gt;lib/rules/pattern&#45;utl.js</title>
<path fill="none" stroke="#000000" stroke-width="2" stroke-opacity="0.200000" d="M446.91,-310.12C525.76,-310.12 644.5,-310.12 644.5,-310.12 644.5,-310.12 644.5,-308.15 644.5,-308.15"/>
<polygon fill="#000000" fill-opacity="0.200000" stroke="#000000" stroke-width="2" stroke-opacity="0.200000" points="646.6,-308.15 644.5,-302.15 642.4,-308.15 646.6,-308.15"/>
</g>
<!-- lib/rules/prefixed&#45;pascalcase&#45;utl.js -->
<g id="node12" class="node">
<title>lib/rules/prefixed&#45;pascalcase&#45;utl.js</title>
<g id="a_node12"><a xlink:href="https://github.com/sverweij/eslint-plugin-budapestian/blob/main/lib/rules/prefixed-pascalcase-utl.js" xlink:title="prefixed&#45;pascalcase&#45;utl.js">
<path fill="#ffffcc" stroke="black" d="M583.08,-291.88C583.08,-291.88 474.67,-291.88 474.67,-291.88 471.71,-291.88 468.75,-288.92 468.75,-285.96 468.75,-285.96 468.75,-280.04 468.75,-280.04 468.75,-277.08 471.71,-274.12 474.67,-274.12 474.67,-274.12 583.08,-274.12 583.08,-274.12 586.04,-274.12 589,-277.08 589,-280.04 589,-280.04 589,-285.96 589,-285.96 589,-288.92 586.04,-291.88 583.08,-291.88"/>
<text text-anchor="start" x="476.75" y="-279.32" font-family="Helvetica,sans-Serif" font-size="9.00">prefixed&#45;pascalcase&#45;utl.js</text>
</a>
</g>
</g>
<!-- lib/rules/global&#45;variable&#45;pattern&#45;rule.js&#45;&gt;lib/rules/prefixed&#45;pascalcase&#45;utl.js -->
<g id="edge11" class="edge">
<title>lib/rules/global&#45;variable&#45;pattern&#45;rule.js&#45;&gt;lib/rules/prefixed&#45;pascalcase&#45;utl.js</title>
<path fill="none" stroke="#000000" stroke-width="2" stroke-opacity="0.200000" d="M446.86,-306.38C486.85,-306.38 529.5,-306.38 529.5,-306.38 529.5,-306.38 529.5,-301.27 529.5,-301.27"/>
<polygon fill="#000000" fill-opacity="0.200000" stroke="#000000" stroke-width="2" stroke-opacity="0.200000" points="531.6,-301.27 529.5,-295.27 527.4,-301.27 531.6,-301.27"/>
</g>
<!-- lib/rules/local&#45;variable&#45;pattern&#45;rule.js&#45;&gt;lib/rules/ast&#45;utl.js -->
<g id="edge12" class="edge">
<title>lib/rules/local&#45;variable&#45;pattern&#45;rule.js&#45;&gt;lib/rules/ast&#45;utl.js</title>
<path fill="none" stroke="#000000" stroke-width="2" stroke-opacity="0.200000" d="M444.07,-246.56C444.07,-246.56 607.64,-246.56 607.64,-246.56"/>
<polygon fill="#000000" fill-opacity="0.200000" stroke="#000000" stroke-width="2" stroke-opacity="0.200000" points="607.64,-248.66 613.64,-246.56 607.64,-244.46 607.64,-248.66"/>
</g>
<!-- lib/rules/local&#45;variable&#45;pattern&#45;rule.js&#45;&gt;lib/rules/pattern&#45;utl.js -->
<g id="edge13" class="edge">
<title>lib/rules/local&#45;variable&#45;pattern&#45;rule.js&#45;&gt;lib/rules/pattern&#45;utl.js</title>
<path fill="none" stroke="#000000" stroke-width="2" stroke-opacity="0.200000" d="M444.09,-249C507.35,-249 593.5,-249 593.5,-249 593.5,-249 593.5,-283.81 593.5,-283.81 593.5,-283.81 601.61,-283.81 601.61,-283.81"/>
<polygon fill="#000000" fill-opacity="0.200000" stroke="#000000" stroke-width="2" stroke-opacity="0.200000" points="601.61,-285.91 607.61,-283.81 601.61,-281.71 601.61,-285.91"/>
</g>
<!-- lib/rules/local&#45;variable&#45;pattern&#45;rule.js&#45;&gt;lib/rules/prefixed&#45;pascalcase&#45;utl.js -->
<g id="edge14" class="edge">
<title>lib/rules/local&#45;variable&#45;pattern&#45;rule.js&#45;&gt;lib/rules/prefixed&#45;pascalcase&#45;utl.js</title>
<path fill="none" stroke="#000000" stroke-width="2" stroke-opacity="0.200000" d="M444.22,-251.44C484.95,-251.44 529.5,-251.44 529.5,-251.44 529.5,-251.44 529.5,-264.67 529.5,-264.67"/>
<polygon fill="#000000" fill-opacity="0.200000" stroke="#000000" stroke-width="2" stroke-opacity="0.200000" points="527.4,-264.67 529.5,-270.67 531.6,-264.67 527.4,-264.67"/>
</g>
<!-- lib/rules/parameter&#45;pattern&#45;rule.js&#45;&gt;lib/rules/ast&#45;utl.js -->
<g id="edge15" class="edge">
<title>lib/rules/parameter&#45;pattern&#45;rule.js&#45;&gt;lib/rules/ast&#45;utl.js</title>
<path fill="none" stroke="#000000" stroke-width="2" stroke-opacity="0.200000" d="M437.4,-268.79C512.2,-268.79 631.5,-268.79 631.5,-268.79 631.5,-268.79 631.5,-268.15 631.5,-268.15"/>
<polygon fill="#000000" fill-opacity="0.200000" stroke="#000000" stroke-width="2" stroke-opacity="0.200000" points="633.6,-271.4 631.5,-265.4 629.4,-271.4 633.6,-271.4"/>
</g>
<!-- lib/rules/parameter&#45;pattern&#45;rule.js&#45;&gt;lib/rules/pattern&#45;utl.js -->
<g id="edge16" class="edge">
<title>lib/rules/parameter&#45;pattern&#45;rule.js&#45;&gt;lib/rules/pattern&#45;utl.js</title>
<path fill="none" stroke="#000000" stroke-width="2" stroke-opacity="0.200000" d="M437.44,-271.46C515.84,-271.46 644.5,-271.46 644.5,-271.46 644.5,-271.46 644.5,-272.39 644.5,-272.39"/>
<polygon fill="#000000" fill-opacity="0.200000" stroke="#000000" stroke-width="2" stroke-opacity="0.200000" points="642.4,-271.7 644.5,-277.7 646.6,-271.7 642.4,-271.7"/>
</g>
<!-- lib/rules/parameter&#45;pattern&#45;rule.js&#45;&gt;lib/rules/prefixed&#45;pascalcase&#45;utl.js -->
<g id="edge17" class="edge">
<title>lib/rules/parameter&#45;pattern&#45;rule.js&#45;&gt;lib/rules/prefixed&#45;pascalcase&#45;utl.js</title>
<path fill="none" stroke="#000000" stroke-width="2" stroke-opacity="0.200000" d="M437.42,-279C437.42,-279 459.48,-279 459.48,-279"/>
<polygon fill="#000000" fill-opacity="0.200000" stroke="#000000" stroke-width="2" stroke-opacity="0.200000" points="459.48,-281.1 465.48,-279 459.48,-276.9 459.48,-281.1"/>
</g>
<!-- node_modules/camelcase -->
<g id="node13" class="node">
<title>node_modules/camelcase</title>
<g id="a_node13"><a xlink:href="https://www.npmjs.com/package/camelcase" xlink:title="camelcase">
<polygon fill="#c40b0a" fill-opacity="0.101961" stroke="black" points="771,-63.88 712.72,-63.88 710.75,-61.9 710.75,-46.12 769.03,-46.12 771,-48.1 771,-63.88"/>
<polyline fill="none" stroke="black" points="769.03,-61.9 710.75,-61.9"/>
<polyline fill="none" stroke="black" points="769.03,-61.9 769.03,-46.12"/>
<polyline fill="none" stroke="black" points="769.03,-61.9 771,-63.88"/>
<text text-anchor="start" x="718.75" y="-51.33" font-family="Helvetica,sans-Serif" font-size="9.00" fill="#c40b0a">camelcase</text>
</a>
</g>
</g>
<!-- lib/rules/pattern&#45;utl.js&#45;&gt;node_modules/camelcase -->
<g id="edge18" class="edge">
<title>lib/rules/pattern&#45;utl.js&#45;&gt;node_modules/camelcase</title>
<path fill="none" stroke="#000000" stroke-opacity="0.200000" d="M677.61,-290C686.41,-290 693.5,-290 693.5,-290 693.5,-290 693.5,-55.96 693.5,-55.96 693.5,-55.96 702.82,-55.96 702.82,-55.96"/>
<polygon fill="#000000" fill-opacity="0.200000" stroke="#000000" stroke-opacity="0.200000" points="702.82,-58.06 708.82,-55.96 702.82,-53.86 702.82,-58.06"/>
</g>
<!-- lib/rules/prefixed&#45;pascalcase&#45;utl.js&#45;&gt;lib/rules/ast&#45;utl.js -->
<g id="edge19" class="edge">
<title>lib/rules/prefixed&#45;pascalcase&#45;utl.js&#45;&gt;lib/rules/ast&#45;utl.js</title>
<path fill="none" stroke="#000000" stroke-width="2" stroke-opacity="0.200000" d="M589.13,-277.62C622.98,-277.62 658.5,-277.62 658.5,-277.62 658.5,-277.62 658.5,-271.2 658.5,-271.2"/>
<polygon fill="#000000" fill-opacity="0.200000" stroke="#000000" stroke-width="2" stroke-opacity="0.200000" points="660.6,-271.2 658.5,-265.2 656.4,-271.2 660.6,-271.2"/>
</g>
<!-- lib/rules/prefixed&#45;pascalcase&#45;utl.js&#45;&gt;lib/rules/pattern&#45;utl.js -->
<g id="edge20" class="edge">
<title>lib/rules/prefixed&#45;pascalcase&#45;utl.js&#45;&gt;lib/rules/pattern&#45;utl.js</title>
<path fill="none" stroke="#000000" stroke-width="2" stroke-opacity="0.200000" d="M589.2,-286.5C589.2,-286.5 601.72,-286.5 601.72,-286.5"/>
<polygon fill="#000000" fill-opacity="0.200000" stroke="#000000" stroke-width="2" stroke-opacity="0.200000" points="601.72,-288.6 607.72,-286.5 601.72,-284.4 601.72,-288.6"/>
</g>
<!-- node_modules/eslint -->
<g id="node14" class="node">
<title>node_modules/eslint</title>
<g id="a_node14"><a xlink:href="https://www.npmjs.com/package/eslint" xlink:title="eslint">
<polygon fill="#c40b0a" fill-opacity="0.101961" stroke="black" points="767.88,-33.88 715.85,-33.88 713.88,-31.9 713.88,-16.12 765.9,-16.12 767.88,-18.1 767.88,-33.88"/>
<polyline fill="none" stroke="black" points="765.9,-31.9 713.88,-31.9"/>
<polyline fill="none" stroke="black" points="765.9,-31.9 765.9,-16.12"/>
<polyline fill="none" stroke="black" points="765.9,-31.9 767.88,-33.88"/>
<text text-anchor="start" x="730" y="-21.32" font-family="Helvetica,sans-Serif" font-size="9.00" fill="#c40b0a">eslint</text>
</a>
</g>
</g>
<!-- path -->
<g id="node15" class="node">
<title>path</title>
<g id="a_node15"><a xlink:href="https://nodejs.org/api/path.html" xlink:title="path">
<path fill="#ffffcc" stroke="grey" d="M280.08,-207.88C280.08,-207.88 237.92,-207.88 237.92,-207.88 234.96,-207.88 232,-204.92 232,-201.96 232,-201.96 232,-196.04 232,-196.04 232,-193.08 234.96,-190.12 237.92,-190.12 237.92,-190.12 280.08,-190.12 280.08,-190.12 283.04,-190.12 286,-193.08 286,-196.04 286,-196.04 286,-201.96 286,-201.96 286,-204.92 283.04,-207.88 280.08,-207.88"/>
<text text-anchor="middle" x="259" y="-195.32" font-family="Helvetica,sans-Serif" font-size="9.00" fill="grey">path</text>
</a>
</g>
</g>
<!-- test/lib/index.spec.js -->
<g id="node16" class="node">
<title>test/lib/index.spec.js</title>
<g id="a_node16"><a xlink:href="https://github.com/sverweij/eslint-plugin-budapestian/blob/main/test/lib/index.spec.js" xlink:title="index.spec.js">
<path fill="#ffffcc" stroke="black" d="M140.71,-232.88C140.71,-232.88 83.29,-232.88 83.29,-232.88 80.33,-232.88 77.38,-229.92 77.38,-226.96 77.38,-226.96 77.38,-221.04 77.38,-221.04 77.38,-218.08 80.33,-215.12 83.29,-215.12 83.29,-215.12 140.71,-215.12 140.71,-215.12 143.67,-215.12 146.62,-218.08 146.62,-221.04 146.62,-221.04 146.62,-226.96 146.62,-226.96 146.62,-229.92 143.67,-232.88 140.71,-232.88"/>
<text text-anchor="start" x="85.38" y="-220.32" font-family="Helvetica,sans-Serif" font-size="9.00">index.spec.js</text>
</a>
</g>
</g>
<!-- test/lib/index.spec.js&#45;&gt;assert/strict -->
<g id="edge22" class="edge">
<title>test/lib/index.spec.js&#45;&gt;assert/strict</title>
<path fill="none" stroke="#000000" stroke-dasharray="5,2" stroke-opacity="0.200000" d="M100.5,-233.34C100.5,-278.27 100.5,-469.96 100.5,-469.96 100.5,-469.96 224.24,-469.96 224.24,-469.96"/>
<polygon fill="#000000" fill-opacity="0.200000" stroke="#000000" stroke-opacity="0.200000" points="224.24,-472.06 230.24,-469.96 224.24,-467.86 224.24,-472.06"/>
</g>
<!-- test/lib/index.spec.js&#45;&gt;fs -->
<g id="edge23" class="edge">
<title>test/lib/index.spec.js&#45;&gt;fs</title>
<path fill="none" stroke="#000000" stroke-dasharray="5,2" stroke-opacity="0.200000" d="M124.5,-233.25C124.5,-273.7 124.5,-433 124.5,-433 124.5,-433 224.27,-433 224.27,-433"/>
<polygon fill="#000000" fill-opacity="0.200000" stroke="#000000" stroke-opacity="0.200000" points="224.27,-435.1 230.27,-433 224.27,-430.9 224.27,-435.1"/>
</g>
<!-- test/lib/index.spec.js&#45;&gt;lib/index.js -->
<g id="edge21" class="edge">
<title>test/lib/index.spec.js&#45;&gt;lib/index.js</title>
<path fill="none" stroke="#000000" stroke-width="2" stroke-opacity="0.200000" d="M146.89,-226.96C185.85,-226.96 243.5,-226.96 243.5,-226.96 243.5,-226.96 243.5,-271.67 243.5,-271.67"/>
<polygon fill="#000000" fill-opacity="0.200000" stroke="#000000" stroke-width="2" stroke-opacity="0.200000" points="241.4,-271.67 243.5,-277.67 245.6,-271.67 241.4,-271.67"/>
</g>
<!-- test/lib/index.spec.js&#45;&gt;path -->
<g id="edge24" class="edge">
<title>test/lib/index.spec.js&#45;&gt;path</title>
<path fill="none" stroke="#000000" stroke-dasharray="5,2" stroke-opacity="0.200000" d="M146.86,-221.04C189.05,-221.04 254.5,-221.04 254.5,-221.04 254.5,-221.04 254.5,-215.73 254.5,-215.73"/>
<polygon fill="#000000" fill-opacity="0.200000" stroke="#000000" stroke-opacity="0.200000" points="256.6,-215.73 254.5,-209.73 252.4,-215.73 256.6,-215.73"/>
</g>
<!-- test/lib/rules/ast&#45;utl.spec.js -->
<g id="node17" class="node">
<title>test/lib/rules/ast&#45;utl.spec.js</title>
<g id="a_node17"><a xlink:href="https://github.com/sverweij/eslint-plugin-budapestian/blob/main/test/lib/rules/ast-utl.spec.js" xlink:title="ast&#45;utl.spec.js">
<path fill="#ffffcc" stroke="black" d="M141.83,-180.88C141.83,-180.88 82.17,-180.88 82.17,-180.88 79.21,-180.88 76.25,-177.92 76.25,-174.96 76.25,-174.96 76.25,-169.04 76.25,-169.04 76.25,-166.08 79.21,-163.12 82.17,-163.12 82.17,-163.12 141.83,-163.12 141.83,-163.12 144.79,-163.12 147.75,-166.08 147.75,-169.04 147.75,-169.04 147.75,-174.96 147.75,-174.96 147.75,-177.92 144.79,-180.88 141.83,-180.88"/>
<text text-anchor="start" x="84.25" y="-168.32" font-family="Helvetica,sans-Serif" font-size="9.00">ast&#45;utl.spec.js</text>
</a>
</g>
</g>
<!-- test/lib/rules/ast&#45;utl.spec.js&#45;&gt;assert/strict -->
<g id="edge26" class="edge">
<title>test/lib/rules/ast&#45;utl.spec.js&#45;&gt;assert/strict</title>
<path fill="none" stroke="#000000" stroke-dasharray="5,2" stroke-opacity="0.200000" d="M148.09,-174.96C179.32,-174.96 219.5,-174.96 219.5,-174.96 219.5,-174.96 219.5,-464.04 219.5,-464.04 219.5,-464.04 224.05,-464.04 224.05,-464.04"/>
<polygon fill="#000000" fill-opacity="0.200000" stroke="#000000" stroke-opacity="0.200000" points="224.05,-466.14 230.05,-464.04 224.05,-461.94 224.05,-466.14"/>
</g>
<!-- test/lib/rules/ast&#45;utl.spec.js&#45;&gt;lib/rules/ast&#45;utl.js -->
<g id="edge25" class="edge">
<title>test/lib/rules/ast&#45;utl.spec.js&#45;&gt;lib/rules/ast&#45;utl.js</title>
<path fill="none" stroke="#000000" stroke-width="2" stroke-opacity="0.200000" d="M148.18,-169.04C268.03,-169.04 644.5,-169.04 644.5,-169.04 644.5,-169.04 644.5,-234.67 644.5,-234.67"/>
<polygon fill="#000000" fill-opacity="0.200000" stroke="#000000" stroke-width="2" stroke-opacity="0.200000" points="642.4,-234.67 644.5,-240.67 646.6,-234.67 642.4,-234.67"/>
</g>
<!-- test/lib/rules/global&#45;constant&#45;pattern&#45;rule.spec.js -->
<g id="node18" class="node">
<title>test/lib/rules/global&#45;constant&#45;pattern&#45;rule.spec.js</title>
<g id="a_node18"><a xlink:href="https://github.com/sverweij/eslint-plugin-budapestian/blob/main/test/lib/rules/global-constant-pattern-rule.spec.js" xlink:title="global&#45;constant&#45;pattern&#45;rule.spec.js">
<path fill="#ffffcc" stroke="black" d="M186.08,-60.88C186.08,-60.88 37.92,-60.88 37.92,-60.88 34.96,-60.88 32,-57.92 32,-54.96 32,-54.96 32,-49.04 32,-49.04 32,-46.08 34.96,-43.12 37.92,-43.12 37.92,-43.12 186.08,-43.12 186.08,-43.12 189.04,-43.12 192,-46.08 192,-49.04 192,-49.04 192,-54.96 192,-54.96 192,-57.92 189.04,-60.88 186.08,-60.88"/>
<text text-anchor="start" x="40" y="-48.33" font-family="Helvetica,sans-Serif" font-size="9.00">global&#45;constant&#45;pattern&#45;rule.spec.js</text>
</a>
</g>
</g>
<!-- test/lib/rules/global&#45;constant&#45;pattern&#45;rule.spec.js&#45;&gt;lib/rules/global&#45;constant&#45;pattern&#45;rule.js -->
<g id="edge27" class="edge">
<title>test/lib/rules/global&#45;constant&#45;pattern&#45;rule.spec.js&#45;&gt;lib/rules/global&#45;constant&#45;pattern&#45;rule.js</title>
<path fill="none" stroke="#000000" stroke-width="2" stroke-opacity="0.200000" d="M192.44,-51.04C297.03,-51.04 466.5,-51.04 466.5,-51.04 466.5,-51.04 466.5,-322.65 466.5,-322.65"/>
<polygon fill="#000000" fill-opacity="0.200000" stroke="#000000" stroke-width="2" stroke-opacity="0.200000" points="464.4,-322.65 466.5,-328.65 468.6,-322.65 464.4,-322.65"/>
</g>
<!-- test/lib/rules/global&#45;constant&#45;pattern&#45;rule.spec.js&#45;&gt;node_modules/eslint -->
<g id="edge28" class="edge">
<title>test/lib/rules/global&#45;constant&#45;pattern&#45;rule.spec.js&#45;&gt;node_modules/eslint</title>
<path fill="none" stroke="#000000" stroke-opacity="0.200000" d="M112.5,-42.82C112.5,-33.27 112.5,-19.67 112.5,-19.67 112.5,-19.67 705.96,-19.67 705.96,-19.67"/>
<polygon fill="#000000" fill-opacity="0.200000" stroke="#000000" stroke-opacity="0.200000" points="705.96,-21.78 711.96,-19.68 705.96,-17.58 705.96,-21.78"/>
</g>
<!-- test/lib/rules/global&#45;variable&#45;pattern&#45;rule.spec.js -->
<g id="node19" class="node">
<title>test/lib/rules/global&#45;variable&#45;pattern&#45;rule.spec.js</title>
<g id="a_node19"><a xlink:href="https://github.com/sverweij/eslint-plugin-budapestian/blob/main/test/lib/rules/global-variable-pattern-rule.spec.js" xlink:title="global&#45;variable&#45;pattern&#45;rule.spec.js">
<path fill="#ffffcc" stroke="black" d="M185.33,-150.88C185.33,-150.88 38.67,-150.88 38.67,-150.88 35.71,-150.88 32.75,-147.92 32.75,-144.96 32.75,-144.96 32.75,-139.04 32.75,-139.04 32.75,-136.08 35.71,-133.12 38.67,-133.12 38.67,-133.12 185.33,-133.12 185.33,-133.12 188.29,-133.12 191.25,-136.08 191.25,-139.04 191.25,-139.04 191.25,-144.96 191.25,-144.96 191.25,-147.92 188.29,-150.88 185.33,-150.88"/>
<text text-anchor="start" x="40.75" y="-138.32" font-family="Helvetica,sans-Serif" font-size="9.00">global&#45;variable&#45;pattern&#45;rule.spec.js</text>
</a>
</g>
</g>
<!-- test/lib/rules/global&#45;variable&#45;pattern&#45;rule.spec.js&#45;&gt;lib/rules/global&#45;variable&#45;pattern&#45;rule.js -->
<g id="edge29" class="edge">
<title>test/lib/rules/global&#45;variable&#45;pattern&#45;rule.spec.js&#45;&gt;lib/rules/global&#45;variable&#45;pattern&#45;rule.js</title>
<path fill="none" stroke="#000000" stroke-width="2" stroke-opacity="0.200000" d="M169.5,-150.97C169.5,-185.63 169.5,-308.88 169.5,-308.88 169.5,-308.88 300.67,-308.88 300.67,-308.88"/>
<polygon fill="#000000" fill-opacity="0.200000" stroke="#000000" stroke-width="2" stroke-opacity="0.200000" points="300.67,-310.98 306.67,-308.88 300.67,-306.78 300.67,-310.98"/>
</g>
<!-- test/lib/rules/global&#45;variable&#45;pattern&#45;rule.spec.js&#45;&gt;node_modules/eslint -->
<g id="edge30" class="edge">
<title>test/lib/rules/global&#45;variable&#45;pattern&#45;rule.spec.js&#45;&gt;node_modules/eslint</title>
<path fill="none" stroke="#000000" stroke-opacity="0.200000" d="M191.68,-142C203.87,-142 212.5,-142 212.5,-142 212.5,-142 212.5,-30.33 212.5,-30.33 212.5,-30.33 706.07,-30.33 706.07,-30.33"/>
<polygon fill="#000000" fill-opacity="0.200000" stroke="#000000" stroke-opacity="0.200000" points="706.07,-32.43 712.07,-30.33 706.07,-28.23 706.07,-32.43"/>
</g>
<!-- test/lib/rules/local&#45;variable&#45;pattern&#45;rule.spec.js -->
<g id="node20" class="node">
<title>test/lib/rules/local&#45;variable&#45;pattern&#45;rule.spec.js</title>
<g id="a_node20"><a xlink:href="https://github.com/sverweij/eslint-plugin-budapestian/blob/main/test/lib/rules/local-variable-pattern-rule.spec.js" xlink:title="local&#45;variable&#45;pattern&#45;rule.spec.js">
<path fill="#ffffcc" stroke="black" d="M182.33,-90.88C182.33,-90.88 41.67,-90.88 41.67,-90.88 38.71,-90.88 35.75,-87.92 35.75,-84.96 35.75,-84.96 35.75,-79.04 35.75,-79.04 35.75,-76.08 38.71,-73.12 41.67,-73.12 41.67,-73.12 182.33,-73.12 182.33,-73.12 185.29,-73.12 188.25,-76.08 188.25,-79.04 188.25,-79.04 188.25,-84.96 188.25,-84.96 188.25,-87.92 185.29,-90.88 182.33,-90.88"/>
<text text-anchor="start" x="43.75" y="-78.33" font-family="Helvetica,sans-Serif" font-size="9.00">local&#45;variable&#45;pattern&#45;rule.spec.js</text>
</a>
</g>
</g>
<!-- test/lib/rules/local&#45;variable&#45;pattern&#45;rule.spec.js&#45;&gt;lib/rules/local&#45;variable&#45;pattern&#45;rule.js -->
<g id="edge31" class="edge">
<title>test/lib/rules/local&#45;variable&#45;pattern&#45;rule.spec.js&#45;&gt;lib/rules/local&#45;variable&#45;pattern&#45;rule.js</title>
<path fill="none" stroke="#000000" stroke-width="2" stroke-opacity="0.200000" d="M188.73,-87.19C267.45,-87.19 378.5,-87.19 378.5,-87.19 378.5,-87.19 378.5,-227.04 378.5,-227.04"/>
<polygon fill="#000000" fill-opacity="0.200000" stroke="#000000" stroke-width="2" stroke-opacity="0.200000" points="376.4,-227.04 378.5,-233.04 380.6,-227.04 376.4,-227.04"/>
</g>
<!-- test/lib/rules/local&#45;variable&#45;pattern&#45;rule.spec.js&#45;&gt;node_modules/eslint -->
<g id="edge32" class="edge">
<title>test/lib/rules/local&#45;variable&#45;pattern&#45;rule.spec.js&#45;&gt;node_modules/eslint</title>
<path fill="none" stroke="#000000" stroke-opacity="0.200000" d="M188.42,-79.81C195.16,-79.81 199.5,-79.81 199.5,-79.81 199.5,-79.81 199.5,-23.23 199.5,-23.23 199.5,-23.23 706.14,-23.23 706.14,-23.23"/>
<polygon fill="#000000" fill-opacity="0.200000" stroke="#000000" stroke-opacity="0.200000" points="706.14,-25.33 712.14,-23.23 706.14,-21.13 706.14,-25.33"/>
</g>
<!-- test/lib/rules/parameter&#45;pattern&#45;rule.spec.js -->
<g id="node21" class="node">
<title>test/lib/rules/parameter&#45;pattern&#45;rule.spec.js</title>
<g id="a_node21"><a xlink:href="https://github.com/sverweij/eslint-plugin-budapestian/blob/main/test/lib/rules/parameter-pattern-rule.spec.js" xlink:title="parameter&#45;pattern&#45;rule.spec.js">
<path fill="#ffffcc" stroke="black" d="M175.58,-120.88C175.58,-120.88 48.42,-120.88 48.42,-120.88 45.46,-120.88 42.5,-117.92 42.5,-114.96 42.5,-114.96 42.5,-109.04 42.5,-109.04 42.5,-106.08 45.46,-103.12 48.42,-103.12 48.42,-103.12 175.58,-103.12 175.58,-103.12 178.54,-103.12 181.5,-106.08 181.5,-109.04 181.5,-109.04 181.5,-114.96 181.5,-114.96 181.5,-117.92 178.54,-120.88 175.58,-120.88"/>
<text text-anchor="start" x="50.5" y="-108.33" font-family="Helvetica,sans-Serif" font-size="9.00">parameter&#45;pattern&#45;rule.spec.js</text>
</a>
</g>
</g>
<!-- test/lib/rules/parameter&#45;pattern&#45;rule.spec.js&#45;&gt;lib/rules/parameter&#45;pattern&#45;rule.js -->
<g id="edge33" class="edge">
<title>test/lib/rules/parameter&#45;pattern&#45;rule.spec.js&#45;&gt;lib/rules/parameter&#45;pattern&#45;rule.js</title>
<path fill="none" stroke="#000000" stroke-width="2" stroke-opacity="0.200000" d="M181.94,-114.96C205.3,-114.96 225.5,-114.96 225.5,-114.96 225.5,-114.96 225.5,-271.12 225.5,-271.12 225.5,-271.12 310.24,-271.12 310.24,-271.12"/>
<polygon fill="#000000" fill-opacity="0.200000" stroke="#000000" stroke-width="2" stroke-opacity="0.200000" points="310.24,-273.23 316.24,-271.13 310.24,-269.03 310.24,-273.23"/>
</g>
<!-- test/lib/rules/parameter&#45;pattern&#45;rule.spec.js&#45;&gt;node_modules/eslint -->
<g id="edge34" class="edge">
<title>test/lib/rules/parameter&#45;pattern&#45;rule.spec.js&#45;&gt;node_modules/eslint</title>
<path fill="none" stroke="#000000" stroke-opacity="0.200000" d="M181.91,-109.04C195.43,-109.04 205.5,-109.04 205.5,-109.04 205.5,-109.04 205.5,-26.77 205.5,-26.77 205.5,-26.77 706.08,-26.77 706.08,-26.77"/>
<polygon fill="#000000" fill-opacity="0.200000" stroke="#000000" stroke-opacity="0.200000" points="706.08,-28.88 712.08,-26.78 706.08,-24.68 706.08,-28.88"/>
</g>
</g>
</svg>
