<?xml version="1.0" encoding="UTF-8" standalone="no"?>
<!DOCTYPE svg PUBLIC "-//W3C//DTD SVG 1.1//EN"
 "http://www.w3.org/Graphics/SVG/1.1/DTD/svg11.dtd">
<!-- Generated by graphviz version 3.0.0 (20220226.1711)
 -->
<!-- Title: dependency&#45;cruiser output Pages: 1 -->
<svg width="794pt" height="487pt"
 viewBox="0.00 0.00 794.00 487.00" xmlns="http://www.w3.org/2000/svg" xmlns:xlink="http://www.w3.org/1999/xlink">
<g id="graph0" class="graph" transform="scale(1 1) rotate(0) translate(4 483)">
<title>dependency&#45;cruiser output</title>
<polygon fill="white" stroke="transparent" points="-4,4 -4,-483 790,-483 790,4 -4,4"/>
<g id="clust1" class="cluster">
<title>cluster_lib</title>
<path fill="#ffffff" stroke="black" stroke-width="2" d="M237,-197C237,-197 676,-197 676,-197 682,-197 688,-203 688,-209 688,-209 688,-385 688,-385 688,-391 682,-397 676,-397 676,-397 237,-397 237,-397 231,-397 225,-391 225,-385 225,-385 225,-209 225,-209 225,-203 231,-197 237,-197"/>
<text text-anchor="middle" x="456.5" y="-385.8" font-family="Helvetica,sans-Serif" font-weight="bold" font-size="9.00">lib</text>
</g>
<g id="clust2" class="cluster">
<title>cluster_lib/rules</title>
<path fill="#ffffff" stroke="black" stroke-width="2" d="M307,-205C307,-205 668,-205 668,-205 674,-205 680,-211 680,-217 680,-217 680,-359 680,-359 680,-365 674,-371 668,-371 668,-371 307,-371 307,-371 301,-371 295,-365 295,-359 295,-359 295,-217 295,-217 295,-211 301,-205 307,-205"/>
<text text-anchor="middle" x="487.5" y="-359.8" font-family="Helvetica,sans-Serif" font-weight="bold" font-size="9.00">rules</text>
</g>
<g id="clust3" class="cluster">
<title>cluster_node_modules</title>
<path fill="#ffffff" stroke="black" stroke-width="2" d="M708,-149C708,-149 764,-149 764,-149 770,-149 776,-155 776,-161 776,-161 776,-309 776,-309 776,-315 770,-321 764,-321 764,-321 708,-321 708,-321 702,-321 696,-315 696,-309 696,-309 696,-161 696,-161 696,-155 702,-149 708,-149"/>
<text text-anchor="middle" x="736" y="-309.8" font-family="Helvetica,sans-Serif" font-weight="bold" font-size="9.00">node_modules</text>
</g>
<g id="clust4" class="cluster">
<title>cluster_test</title>
<path fill="#ffffff" stroke="black" stroke-width="2" d="M20,-8C20,-8 205,-8 205,-8 211,-8 217,-14 217,-20 217,-20 217,-232 217,-232 217,-238 211,-244 205,-244 205,-244 20,-244 20,-244 14,-244 8,-238 8,-232 8,-232 8,-20 8,-20 8,-14 14,-8 20,-8"/>
<text text-anchor="middle" x="112.5" y="-232.8" font-family="Helvetica,sans-Serif" font-weight="bold" font-size="9.00">test</text>
</g>
<g id="clust5" class="cluster">
<title>cluster_test/lib</title>
<path fill="#ffffff" stroke="black" stroke-width="2" d="M28,-16C28,-16 197,-16 197,-16 203,-16 209,-22 209,-28 209,-28 209,-206 209,-206 209,-212 203,-218 197,-218 197,-218 28,-218 28,-218 22,-218 16,-212 16,-206 16,-206 16,-28 16,-28 16,-22 22,-16 28,-16"/>
<text text-anchor="middle" x="112.5" y="-206.8" font-family="Helvetica,sans-Serif" font-weight="bold" font-size="9.00">lib</text>
</g>
<g id="clust6" class="cluster">
<title>cluster_test/lib/rules</title>
<path fill="#ffffff" stroke="black" stroke-width="2" d="M36,-24C36,-24 189,-24 189,-24 195,-24 201,-30 201,-36 201,-36 201,-154 201,-154 201,-160 195,-166 189,-166 189,-166 36,-166 36,-166 30,-166 24,-160 24,-154 24,-154 24,-36 24,-36 24,-30 30,-24 36,-24"/>
<text text-anchor="middle" x="112.5" y="-154.8" font-family="Helvetica,sans-Serif" font-weight="bold" font-size="9.00">rules</text>
</g>
<!-- fs -->
<g id="node1" class="node">
<title>fs</title>
<g id="a_node1"><a xlink:title="fs">
<path fill="#ffffcc" stroke="grey" d="M281,-479C281,-479 239,-479 239,-479 236,-479 233,-476 233,-473 233,-473 233,-467 233,-467 233,-464 236,-461 239,-461 239,-461 281,-461 281,-461 284,-461 287,-464 287,-467 287,-467 287,-473 287,-473 287,-476 284,-479 281,-479"/>
<text text-anchor="middle" x="260" y="-467.8" font-family="Helvetica,sans-Serif" font-size="9.00" fill="grey">fs</text>
</a>
</g>
</g>
<!-- lib/index.js -->
<g id="node2" class="node">
<title>lib/index.js</title>
<g id="a_node2"><a xlink:href="https://github.com/sverweij/eslint-plugin-budapestian/blob/master/lib/index.js" xlink:title="index.js">
<path fill="#ffffcc" stroke="black" d="M281,-289C281,-289 239,-289 239,-289 236,-289 233,-286 233,-283 233,-283 233,-277 233,-277 233,-274 236,-271 239,-271 239,-271 281,-271 281,-271 284,-271 287,-274 287,-277 287,-277 287,-283 287,-283 287,-286 284,-289 281,-289"/>
<text text-anchor="start" x="244" y="-277.8" font-family="Helvetica,sans-Serif" font-size="9.00">index.js</text>
</a>
</g>
</g>
<!-- lib/rules/global&#45;constant&#45;pattern&#45;rule.js -->
<g id="node3" class="node">
<title>lib/rules/global&#45;constant&#45;pattern&#45;rule.js</title>
<g id="a_node3"><a xlink:href="https://github.com/sverweij/eslint-plugin-budapestian/blob/master/lib/rules/global-constant-pattern-rule.js" xlink:title="global&#45;constant&#45;pattern&#45;rule.js">
<path fill="#ffffcc" stroke="black" d="M586,-231C586,-231 459,-231 459,-231 456,-231 453,-228 453,-225 453,-225 453,-219 453,-219 453,-216 456,-213 459,-213 459,-213 586,-213 586,-213 589,-213 592,-216 592,-219 592,-219 592,-225 592,-225 592,-228 589,-231 586,-231"/>
<text text-anchor="start" x="461" y="-219.8" font-family="Helvetica,sans-Serif" font-size="9.00">global&#45;constant&#45;pattern&#45;rule.js</text>
</a>
</g>
</g>
<!-- lib/index.js&#45;&gt;lib/rules/global&#45;constant&#45;pattern&#45;rule.js -->
<g id="edge1" class="edge">
<title>lib/index.js&#45;&gt;lib/rules/global&#45;constant&#45;pattern&#45;rule.js</title>
<path fill="none" stroke="#000000" stroke-width="2" stroke-opacity="0.200000" d="M251,-270.94C251,-254.62 251,-222 251,-222 251,-222 446.93,-222 446.93,-222"/>
<polygon fill="#000000" fill-opacity="0.200000" stroke="#000000" stroke-width="2" stroke-opacity="0.200000" points="446.93,-224.1 452.93,-222 446.93,-219.9 446.93,-224.1"/>
</g>
<!-- lib/rules/global&#45;variable&#45;pattern&#45;rule.js -->
<g id="node4" class="node">
<title>lib/rules/global&#45;variable&#45;pattern&#45;rule.js</title>
<g id="a_node4"><a xlink:href="https://github.com/sverweij/eslint-plugin-budapestian/blob/master/lib/rules/global-variable-pattern-rule.js" xlink:title="global&#45;variable&#45;pattern&#45;rule.js">
<path fill="#ffffcc" stroke="black" d="M434,-289C434,-289 309,-289 309,-289 306,-289 303,-286 303,-283 303,-283 303,-277 303,-277 303,-274 306,-271 309,-271 309,-271 434,-271 434,-271 437,-271 440,-274 440,-277 440,-277 440,-283 440,-283 440,-286 437,-289 434,-289"/>
<text text-anchor="start" x="311" y="-277.8" font-family="Helvetica,sans-Serif" font-size="9.00">global&#45;variable&#45;pattern&#45;rule.js</text>
</a>
</g>
</g>
<!-- lib/index.js&#45;&gt;lib/rules/global&#45;variable&#45;pattern&#45;rule.js -->
<g id="edge2" class="edge">
<title>lib/index.js&#45;&gt;lib/rules/global&#45;variable&#45;pattern&#45;rule.js</title>
<path fill="none" stroke="#000000" stroke-width="2" stroke-opacity="0.200000" d="M287.28,-283C287.28,-283 296.95,-283 296.95,-283"/>
<polygon fill="#000000" fill-opacity="0.200000" stroke="#000000" stroke-width="2" stroke-opacity="0.200000" points="296.95,-285.1 302.95,-283 296.95,-280.9 296.95,-285.1"/>
</g>
<!-- lib/rules/local&#45;variable&#45;pattern&#45;rule.js -->
<g id="node5" class="node">
<title>lib/rules/local&#45;variable&#45;pattern&#45;rule.js</title>
<g id="a_node5"><a xlink:href="https://github.com/sverweij/eslint-plugin-budapestian/blob/master/lib/rules/local-variable-pattern-rule.js" xlink:title="local&#45;variable&#45;pattern&#45;rule.js">
<path fill="#ffffcc" stroke="black" d="M431,-259C431,-259 312,-259 312,-259 309,-259 306,-256 306,-253 306,-253 306,-247 306,-247 306,-244 309,-241 312,-241 312,-241 431,-241 431,-241 434,-241 437,-244 437,-247 437,-247 437,-253 437,-253 437,-256 434,-259 431,-259"/>
<text text-anchor="start" x="314" y="-247.8" font-family="Helvetica,sans-Serif" font-size="9.00">local&#45;variable&#45;pattern&#45;rule.js</text>
</a>
</g>
</g>
<!-- lib/index.js&#45;&gt;lib/rules/local&#45;variable&#45;pattern&#45;rule.js -->
<g id="edge3" class="edge">
<title>lib/index.js&#45;&gt;lib/rules/local&#45;variable&#45;pattern&#45;rule.js</title>
<path fill="none" stroke="#000000" stroke-width="2" stroke-opacity="0.200000" d="M269,-270.84C269,-262.01 269,-250 269,-250 269,-250 299.72,-250 299.72,-250"/>
<polygon fill="#000000" fill-opacity="0.200000" stroke="#000000" stroke-width="2" stroke-opacity="0.200000" points="299.72,-252.1 305.72,-250 299.72,-247.9 299.72,-252.1"/>
</g>
<!-- lib/rules/parameter&#45;pattern&#45;rule.js -->
<g id="node6" class="node">
<title>lib/rules/parameter&#45;pattern&#45;rule.js</title>
<g id="a_node6"><a xlink:href="https://github.com/sverweij/eslint-plugin-budapestian/blob/master/lib/rules/parameter-pattern-rule.js" xlink:title="parameter&#45;pattern&#45;rule.js">
<path fill="#ffffcc" stroke="black" d="M424.5,-319C424.5,-319 318.5,-319 318.5,-319 315.5,-319 312.5,-316 312.5,-313 312.5,-313 312.5,-307 312.5,-307 312.5,-304 315.5,-301 318.5,-301 318.5,-301 424.5,-301 424.5,-301 427.5,-301 430.5,-304 430.5,-307 430.5,-307 430.5,-313 430.5,-313 430.5,-316 427.5,-319 424.5,-319"/>
<text text-anchor="start" x="320.5" y="-307.8" font-family="Helvetica,sans-Serif" font-size="9.00">parameter&#45;pattern&#45;rule.js</text>
</a>
</g>
</g>
<!-- lib/index.js&#45;&gt;lib/rules/parameter&#45;pattern&#45;rule.js -->
<g id="edge4" class="edge">
<title>lib/index.js&#45;&gt;lib/rules/parameter&#45;pattern&#45;rule.js</title>
<path fill="none" stroke="#000000" stroke-width="2" stroke-opacity="0.200000" d="M260,-289.14C260,-296.97 260,-307 260,-307 260,-307 306.49,-307 306.49,-307"/>
<polygon fill="#000000" fill-opacity="0.200000" stroke="#000000" stroke-width="2" stroke-opacity="0.200000" points="306.49,-309.1 312.49,-307 306.49,-304.9 306.49,-309.1"/>
</g>
<!-- lib/rules/ast&#45;utl.js -->
<g id="node7" class="node">
<title>lib/rules/ast&#45;utl.js</title>
<g id="a_node7"><a xlink:href="https://github.com/sverweij/eslint-plugin-budapestian/blob/master/lib/rules/ast-utl.js" xlink:title="ast&#45;utl.js">
<path fill="#ffffcc" stroke="black" d="M659.5,-315C659.5,-315 617.5,-315 617.5,-315 614.5,-315 611.5,-312 611.5,-309 611.5,-309 611.5,-303 611.5,-303 611.5,-300 614.5,-297 617.5,-297 617.5,-297 659.5,-297 659.5,-297 662.5,-297 665.5,-300 665.5,-303 665.5,-303 665.5,-309 665.5,-309 665.5,-312 662.5,-315 659.5,-315"/>
<text text-anchor="start" x="621.5" y="-303.8" font-family="Helvetica,sans-Serif" font-size="9.00">ast&#45;utl.js</text>
</a>
</g>
</g>
<!-- lib/rules/global&#45;constant&#45;pattern&#45;rule.js&#45;&gt;lib/rules/ast&#45;utl.js -->
<g id="edge6" class="edge">
<title>lib/rules/global&#45;constant&#45;pattern&#45;rule.js&#45;&gt;lib/rules/ast&#45;utl.js</title>
<path fill="none" stroke="#000000" stroke-width="2" stroke-opacity="0.200000" d="M587,-231.12C587,-253.11 587,-307.22 587,-307.22 587,-307.22 605.24,-307.22 605.24,-307.22"/>
<polygon fill="#000000" fill-opacity="0.200000" stroke="#000000" stroke-width="2" stroke-opacity="0.200000" points="605.24,-309.32 611.24,-307.22 605.24,-305.12 605.24,-309.32"/>
</g>
<!-- node_modules/lodash.get -->
<g id="node8" class="node">
<title>node_modules/lodash.get</title>
<g id="a_node8"><a xlink:href="https://github.com/sverweij/eslint-plugin-budapestian/blob/master/node_modules/lodash.get" xlink:title="lodash.get">
<polygon fill="#c40b0a" fill-opacity="0.101961" stroke="black" points="765.5,-265 708.5,-265 706.5,-263 706.5,-247 763.5,-247 765.5,-249 765.5,-265"/>
<polyline fill="none" stroke="black" points="763.5,-263 706.5,-263 "/>
<polyline fill="none" stroke="black" points="763.5,-263 763.5,-247 "/>
<polyline fill="none" stroke="black" points="763.5,-263 765.5,-265 "/>
<text text-anchor="start" x="714.5" y="-253.8" font-family="Helvetica,sans-Serif" font-size="9.00" fill="#c40b0a">lodash.get</text>
</a>
</g>
</g>
<!-- lib/rules/global&#45;constant&#45;pattern&#45;rule.js&#45;&gt;node_modules/lodash.get -->
<g id="edge9" class="edge">
<title>lib/rules/global&#45;constant&#45;pattern&#45;rule.js&#45;&gt;node_modules/lodash.get</title>
<path fill="none" stroke="#000000" stroke-opacity="0.200000" d="M591,-231.21C591,-238.8 591,-248.33 591,-248.33 591,-248.33 700.31,-248.33 700.31,-248.33"/>
<polygon fill="#000000" fill-opacity="0.200000" stroke="#000000" stroke-opacity="0.200000" points="700.31,-250.43 706.31,-248.33 700.31,-246.23 700.31,-250.43"/>
</g>
<!-- lib/rules/pattern&#45;utl.js -->
<g id="node9" class="node">
<title>lib/rules/pattern&#45;utl.js</title>
<g id="a_node9"><a xlink:href="https://github.com/sverweij/eslint-plugin-budapestian/blob/master/lib/rules/pattern-utl.js" xlink:title="pattern&#45;utl.js">
<path fill="#ffffcc" stroke="black" d="M666,-285C666,-285 611,-285 611,-285 608,-285 605,-282 605,-279 605,-279 605,-273 605,-273 605,-270 608,-267 611,-267 611,-267 666,-267 666,-267 669,-267 672,-270 672,-273 672,-273 672,-279 672,-279 672,-282 669,-285 666,-285"/>
<text text-anchor="start" x="613" y="-273.8" font-family="Helvetica,sans-Serif" font-size="9.00">pattern&#45;utl.js</text>
</a>
</g>
</g>
<!-- lib/rules/global&#45;constant&#45;pattern&#45;rule.js&#45;&gt;lib/rules/pattern&#45;utl.js -->
<g id="edge7" class="edge">
<title>lib/rules/global&#45;constant&#45;pattern&#45;rule.js&#45;&gt;lib/rules/pattern&#45;utl.js</title>
<path fill="none" stroke="#000000" stroke-width="2" stroke-opacity="0.200000" d="M589,-231.02C589,-245.86 589,-273.8 589,-273.8 589,-273.8 598.93,-273.8 598.93,-273.8"/>
<polygon fill="#000000" fill-opacity="0.200000" stroke="#000000" stroke-width="2" stroke-opacity="0.200000" points="598.93,-275.9 604.93,-273.8 598.93,-271.7 598.93,-275.9"/>
</g>
<!-- node_modules/decamelize -->
<g id="node10" class="node">
<title>node_modules/decamelize</title>
<g id="a_node10"><a xlink:href="https://github.com/sverweij/eslint-plugin-budapestian/blob/master/node_modules/decamelize" xlink:title="decamelize">
<polygon fill="#c40b0a" fill-opacity="0.101961" stroke="black" points="768,-205 706,-205 704,-203 704,-187 766,-187 768,-189 768,-205"/>
<polyline fill="none" stroke="black" points="766,-203 704,-203 "/>
<polyline fill="none" stroke="black" points="766,-203 766,-187 "/>
<polyline fill="none" stroke="black" points="766,-203 768,-205 "/>
<text text-anchor="start" x="712" y="-193.8" font-family="Helvetica,sans-Serif" font-size="9.00" fill="#c40b0a">decamelize</text>
</a>
</g>
</g>
<!-- lib/rules/global&#45;constant&#45;pattern&#45;rule.js&#45;&gt;node_modules/decamelize -->
<g id="edge8" class="edge">
<title>lib/rules/global&#45;constant&#45;pattern&#45;rule.js&#45;&gt;node_modules/decamelize</title>
<path fill="none" stroke="#000000" stroke-opacity="0.200000" d="M546,-212.98C546,-206.35 546,-198.5 546,-198.5 546,-198.5 697.77,-198.5 697.77,-198.5"/>
<polygon fill="#000000" fill-opacity="0.200000" stroke="#000000" stroke-opacity="0.200000" points="697.77,-200.6 703.77,-198.5 697.77,-196.4 697.77,-200.6"/>
</g>
<!-- lib/rules/global&#45;variable&#45;pattern&#45;rule.js&#45;&gt;lib/rules/ast&#45;utl.js -->
<g id="edge10" class="edge">
<title>lib/rules/global&#45;variable&#45;pattern&#45;rule.js&#45;&gt;lib/rules/ast&#45;utl.js</title>
<path fill="none" stroke="#000000" stroke-width="2" stroke-opacity="0.200000" d="M434,-289.05C434,-298.48 434,-311.89 434,-311.89 434,-311.89 605.34,-311.89 605.34,-311.89"/>
<polygon fill="#000000" fill-opacity="0.200000" stroke="#000000" stroke-width="2" stroke-opacity="0.200000" points="605.34,-313.99 611.34,-311.89 605.34,-309.79 605.34,-313.99"/>
</g>
<!-- lib/rules/global&#45;variable&#45;pattern&#45;rule.js&#45;&gt;node_modules/lodash.get -->
<g id="edge13" class="edge">
<title>lib/rules/global&#45;variable&#45;pattern&#45;rule.js&#45;&gt;node_modules/lodash.get</title>
<path fill="none" stroke="#000000" stroke-opacity="0.200000" d="M440.18,-277C443.21,-277 445,-277 445,-277 445,-277 445,-251 445,-251 445,-251 700.5,-251 700.5,-251"/>
<polygon fill="#000000" fill-opacity="0.200000" stroke="#000000" stroke-opacity="0.200000" points="700.5,-253.1 706.5,-251 700.5,-248.9 700.5,-253.1"/>
</g>
<!-- lib/rules/global&#45;variable&#45;pattern&#45;rule.js&#45;&gt;lib/rules/pattern&#45;utl.js -->
<g id="edge11" class="edge">
<title>lib/rules/global&#45;variable&#45;pattern&#45;rule.js&#45;&gt;lib/rules/pattern&#45;utl.js</title>
<path fill="none" stroke="#000000" stroke-width="2" stroke-opacity="0.200000" d="M437,-289.17C437,-295.42 437,-302.56 437,-302.56 437,-302.56 585,-302.56 585,-302.56 585,-302.56 585,-279.4 585,-279.4 585,-279.4 598.92,-279.4 598.92,-279.4"/>
<polygon fill="#000000" fill-opacity="0.200000" stroke="#000000" stroke-width="2" stroke-opacity="0.200000" points="598.92,-281.5 604.92,-279.4 598.92,-277.3 598.92,-281.5"/>
</g>
<!-- lib/rules/prefixed&#45;pascalcase&#45;utl.js -->
<g id="node11" class="node">
<title>lib/rules/prefixed&#45;pascalcase&#45;utl.js</title>
<g id="a_node11"><a xlink:href="https://github.com/sverweij/eslint-plugin-budapestian/blob/master/lib/rules/prefixed-pascalcase-utl.js" xlink:title="prefixed&#45;pascalcase&#45;utl.js">
<path fill="#ffffcc" stroke="black" d="M577,-289C577,-289 468,-289 468,-289 465,-289 462,-286 462,-283 462,-283 462,-277 462,-277 462,-274 465,-271 468,-271 468,-271 577,-271 577,-271 580,-271 583,-274 583,-277 583,-277 583,-283 583,-283 583,-286 580,-289 577,-289"/>
<text text-anchor="start" x="470" y="-277.8" font-family="Helvetica,sans-Serif" font-size="9.00">prefixed&#45;pascalcase&#45;utl.js</text>
</a>
</g>
</g>
<!-- lib/rules/global&#45;variable&#45;pattern&#45;rule.js&#45;&gt;lib/rules/prefixed&#45;pascalcase&#45;utl.js -->
<g id="edge12" class="edge">
<title>lib/rules/global&#45;variable&#45;pattern&#45;rule.js&#45;&gt;lib/rules/prefixed&#45;pascalcase&#45;utl.js</title>
<path fill="none" stroke="#000000" stroke-width="2" stroke-opacity="0.200000" d="M440.37,-283C440.37,-283 455.82,-283 455.82,-283"/>
<polygon fill="#000000" fill-opacity="0.200000" stroke="#000000" stroke-width="2" stroke-opacity="0.200000" points="455.82,-285.1 461.82,-283 455.82,-280.9 455.82,-285.1"/>
</g>
<!-- lib/rules/local&#45;variable&#45;pattern&#45;rule.js&#45;&gt;lib/rules/ast&#45;utl.js -->
<g id="edge14" class="edge">
<title>lib/rules/local&#45;variable&#45;pattern&#45;rule.js&#45;&gt;lib/rules/ast&#45;utl.js</title>
<path fill="none" stroke="#000000" stroke-width="2" stroke-opacity="0.200000" d="M437.23,-256.33C444.31,-256.33 449,-256.33 449,-256.33 449,-256.33 449,-310.33 449,-310.33 449,-310.33 605.35,-310.33 605.35,-310.33"/>
<polygon fill="#000000" fill-opacity="0.200000" stroke="#000000" stroke-width="2" stroke-opacity="0.200000" points="605.35,-312.43 611.35,-310.33 605.35,-308.23 605.35,-312.43"/>
</g>
<!-- lib/rules/local&#45;variable&#45;pattern&#45;rule.js&#45;&gt;node_modules/lodash.get -->
<g id="edge17" class="edge">
<title>lib/rules/local&#45;variable&#45;pattern&#45;rule.js&#45;&gt;node_modules/lodash.get</title>
<path fill="none" stroke="#000000" stroke-opacity="0.200000" d="M437.09,-249.67C437.09,-249.67 700.34,-249.67 700.34,-249.67"/>
<polygon fill="#000000" fill-opacity="0.200000" stroke="#000000" stroke-opacity="0.200000" points="700.34,-251.77 706.34,-249.67 700.34,-247.57 700.34,-251.77"/>
</g>
<!-- lib/rules/local&#45;variable&#45;pattern&#45;rule.js&#45;&gt;lib/rules/pattern&#45;utl.js -->
<g id="edge15" class="edge">
<title>lib/rules/local&#45;variable&#45;pattern&#45;rule.js&#45;&gt;lib/rules/pattern&#45;utl.js</title>
<path fill="none" stroke="#000000" stroke-width="2" stroke-opacity="0.200000" d="M437.22,-252.33C513.22,-252.33 628,-252.33 628,-252.33 628,-252.33 628,-260.92 628,-260.92"/>
<polygon fill="#000000" fill-opacity="0.200000" stroke="#000000" stroke-width="2" stroke-opacity="0.200000" points="625.9,-260.92 628,-266.92 630.1,-260.92 625.9,-260.92"/>
</g>
<!-- lib/rules/local&#45;variable&#45;pattern&#45;rule.js&#45;&gt;lib/rules/prefixed&#45;pascalcase&#45;utl.js -->
<g id="edge16" class="edge">
<title>lib/rules/local&#45;variable&#45;pattern&#45;rule.js&#45;&gt;lib/rules/prefixed&#45;pascalcase&#45;utl.js</title>
<path fill="none" stroke="#000000" stroke-width="2" stroke-opacity="0.200000" d="M437.25,-255C470.12,-255 503,-255 503,-255 503,-255 503,-264.97 503,-264.97"/>
<polygon fill="#000000" fill-opacity="0.200000" stroke="#000000" stroke-width="2" stroke-opacity="0.200000" points="500.9,-264.97 503,-270.97 505.1,-264.97 500.9,-264.97"/>
</g>
<!-- lib/rules/parameter&#45;pattern&#45;rule.js&#45;&gt;lib/rules/ast&#45;utl.js -->
<g id="edge18" class="edge">
<title>lib/rules/parameter&#45;pattern&#45;rule.js&#45;&gt;lib/rules/ast&#45;utl.js</title>
<path fill="none" stroke="#000000" stroke-width="2" stroke-opacity="0.200000" d="M430.76,-313.44C430.76,-313.44 605.17,-313.44 605.17,-313.44"/>
<polygon fill="#000000" fill-opacity="0.200000" stroke="#000000" stroke-width="2" stroke-opacity="0.200000" points="605.17,-315.54 611.17,-313.44 605.17,-311.34 605.17,-315.54"/>
</g>
<!-- lib/rules/parameter&#45;pattern&#45;rule.js&#45;&gt;node_modules/lodash.get -->
<g id="edge21" class="edge">
<title>lib/rules/parameter&#45;pattern&#45;rule.js&#45;&gt;node_modules/lodash.get</title>
<path fill="none" stroke="#000000" stroke-opacity="0.200000" d="M372,-319.2C372,-344.57 372,-413.67 372,-413.67 372,-413.67 786,-413.67 786,-413.67 786,-413.67 786,-256 786,-256 786,-256 771.66,-256 771.66,-256"/>
<polygon fill="#000000" fill-opacity="0.200000" stroke="#000000" stroke-opacity="0.200000" points="771.66,-253.9 765.66,-256 771.66,-258.1 771.66,-253.9"/>
</g>
<!-- lib/rules/parameter&#45;pattern&#45;rule.js&#45;&gt;lib/rules/pattern&#45;utl.js -->
<g id="edge19" class="edge">
<title>lib/rules/parameter&#45;pattern&#45;rule.js&#45;&gt;lib/rules/pattern&#45;utl.js</title>
<path fill="none" stroke="#000000" stroke-width="2" stroke-opacity="0.200000" d="M430.68,-305.67C498.09,-305.67 599,-305.67 599,-305.67 599,-305.67 599,-282.2 599,-282.2 599,-282.2 599.58,-282.2 599.58,-282.2"/>
<polygon fill="#000000" fill-opacity="0.200000" stroke="#000000" stroke-width="2" stroke-opacity="0.200000" points="598.83,-284.3 604.83,-282.2 598.83,-280.1 598.83,-284.3"/>
</g>
<!-- lib/rules/parameter&#45;pattern&#45;rule.js&#45;&gt;lib/rules/prefixed&#45;pascalcase&#45;utl.js -->
<g id="edge20" class="edge">
<title>lib/rules/parameter&#45;pattern&#45;rule.js&#45;&gt;lib/rules/prefixed&#45;pascalcase&#45;utl.js</title>
<path fill="none" stroke="#000000" stroke-width="2" stroke-opacity="0.200000" d="M430.71,-304.11C465.61,-304.11 503,-304.11 503,-304.11 503,-304.11 503,-295.25 503,-295.25"/>
<polygon fill="#000000" fill-opacity="0.200000" stroke="#000000" stroke-width="2" stroke-opacity="0.200000" points="505.1,-295.25 503,-289.25 500.9,-295.25 505.1,-295.25"/>
</g>
<!-- lib/rules/ast&#45;utl.js&#45;&gt;node_modules/lodash.get -->
<g id="edge5" class="edge">
<title>lib/rules/ast&#45;utl.js&#45;&gt;node_modules/lodash.get</title>
<path fill="none" stroke="#000000" stroke-opacity="0.200000" d="M665.57,-306C677.12,-306 688,-306 688,-306 688,-306 688,-257.67 688,-257.67 688,-257.67 700.42,-257.67 700.42,-257.67"/>
<polygon fill="#000000" fill-opacity="0.200000" stroke="#000000" stroke-opacity="0.200000" points="700.42,-259.77 706.42,-257.67 700.42,-255.57 700.42,-259.77"/>
</g>
<!-- node_modules/camelcase -->
<g id="node12" class="node">
<title>node_modules/camelcase</title>
<g id="a_node12"><a xlink:href="https://github.com/sverweij/eslint-plugin-budapestian/blob/master/node_modules/camelcase" xlink:title="camelcase">
<polygon fill="#c40b0a" fill-opacity="0.101961" stroke="black" points="766.5,-235 707.5,-235 705.5,-233 705.5,-217 764.5,-217 766.5,-219 766.5,-235"/>
<polyline fill="none" stroke="black" points="764.5,-233 705.5,-233 "/>
<polyline fill="none" stroke="black" points="764.5,-233 764.5,-217 "/>
<polyline fill="none" stroke="black" points="764.5,-233 766.5,-235 "/>
<text text-anchor="start" x="713.5" y="-223.8" font-family="Helvetica,sans-Serif" font-size="9.00" fill="#c40b0a">camelcase</text>
</a>
</g>
</g>
<!-- lib/rules/pattern&#45;utl.js&#45;&gt;node_modules/camelcase -->
<g id="edge22" class="edge">
<title>lib/rules/pattern&#45;utl.js&#45;&gt;node_modules/camelcase</title>
<path fill="none" stroke="#000000" stroke-opacity="0.200000" d="M650,-266.94C650,-252.04 650,-224 650,-224 650,-224 699.44,-224 699.44,-224"/>
<polygon fill="#000000" fill-opacity="0.200000" stroke="#000000" stroke-opacity="0.200000" points="699.44,-226.1 705.44,-224 699.44,-221.9 699.44,-226.1"/>
</g>
<!-- lib/rules/prefixed&#45;pascalcase&#45;utl.js&#45;&gt;lib/rules/ast&#45;utl.js -->
<g id="edge23" class="edge">
<title>lib/rules/prefixed&#45;pascalcase&#45;utl.js&#45;&gt;lib/rules/ast&#45;utl.js</title>
<path fill="none" stroke="#000000" stroke-width="2" stroke-opacity="0.200000" d="M543,-289.11C543,-297.54 543,-308.78 543,-308.78 543,-308.78 605.39,-308.78 605.39,-308.78"/>
<polygon fill="#000000" fill-opacity="0.200000" stroke="#000000" stroke-width="2" stroke-opacity="0.200000" points="605.39,-310.88 611.39,-308.78 605.39,-306.68 605.39,-310.88"/>
</g>
<!-- lib/rules/prefixed&#45;pascalcase&#45;utl.js&#45;&gt;node_modules/lodash.get -->
<g id="edge25" class="edge">
<title>lib/rules/prefixed&#45;pascalcase&#45;utl.js&#45;&gt;node_modules/lodash.get</title>
<path fill="none" stroke="#000000" stroke-opacity="0.200000" d="M543,-270.79C543,-263.2 543,-253.67 543,-253.67 543,-253.67 700.27,-253.67 700.27,-253.67"/>
<polygon fill="#000000" fill-opacity="0.200000" stroke="#000000" stroke-opacity="0.200000" points="700.27,-255.77 706.27,-253.67 700.27,-251.57 700.27,-255.77"/>
</g>
<!-- lib/rules/prefixed&#45;pascalcase&#45;utl.js&#45;&gt;lib/rules/pattern&#45;utl.js -->
<g id="edge24" class="edge">
<title>lib/rules/prefixed&#45;pascalcase&#45;utl.js&#45;&gt;lib/rules/pattern&#45;utl.js</title>
<path fill="none" stroke="#000000" stroke-width="2" stroke-opacity="0.200000" d="M583.22,-276.6C583.22,-276.6 598.91,-276.6 598.91,-276.6"/>
<polygon fill="#000000" fill-opacity="0.200000" stroke="#000000" stroke-width="2" stroke-opacity="0.200000" points="598.91,-278.7 604.91,-276.6 598.91,-274.5 598.91,-278.7"/>
</g>
<!-- node_modules/chai -->
<g id="node13" class="node">
<title>node_modules/chai</title>
<g id="a_node13"><a xlink:href="https://github.com/sverweij/eslint-plugin-budapestian/blob/master/node_modules/chai" xlink:title="chai">
<polygon fill="#c40b0a" fill-opacity="0.101961" stroke="black" points="763,-295 711,-295 709,-293 709,-277 761,-277 763,-279 763,-295"/>
<polyline fill="none" stroke="black" points="761,-293 709,-293 "/>
<polyline fill="none" stroke="black" points="761,-293 761,-277 "/>
<polyline fill="none" stroke="black" points="761,-293 763,-295 "/>
<text text-anchor="start" x="727" y="-283.8" font-family="Helvetica,sans-Serif" font-size="9.00" fill="#c40b0a">chai</text>
</a>
</g>
</g>
<!-- node_modules/eslint -->
<g id="node14" class="node">
<title>node_modules/eslint</title>
<g id="a_node14"><a xlink:href="https://github.com/sverweij/eslint-plugin-budapestian/blob/master/node_modules/eslint" xlink:title="eslint">
<polygon fill="#c40b0a" fill-opacity="0.101961" stroke="black" points="763,-175 711,-175 709,-173 709,-157 761,-157 763,-159 763,-175"/>
<polyline fill="none" stroke="black" points="761,-173 709,-173 "/>
<polyline fill="none" stroke="black" points="761,-173 761,-157 "/>
<polyline fill="none" stroke="black" points="761,-173 763,-175 "/>
<text text-anchor="start" x="725" y="-163.8" font-family="Helvetica,sans-Serif" font-size="9.00" fill="#c40b0a">eslint</text>
</a>
</g>
</g>
<!-- path -->
<g id="node15" class="node">
<title>path</title>
<g id="a_node15"><a xlink:title="path">
<path fill="#ffffcc" stroke="grey" d="M281,-189C281,-189 239,-189 239,-189 236,-189 233,-186 233,-183 233,-183 233,-177 233,-177 233,-174 236,-171 239,-171 239,-171 281,-171 281,-171 284,-171 287,-174 287,-177 287,-177 287,-183 287,-183 287,-186 284,-189 281,-189"/>
<text text-anchor="middle" x="260" y="-177.8" font-family="Helvetica,sans-Serif" font-size="9.00" fill="grey">path</text>
</a>
</g>
</g>
<!-- test/lib/index.spec.js -->
<g id="node16" class="node">
<title>test/lib/index.spec.js</title>
<g id="a_node16"><a xlink:href="https://github.com/sverweij/eslint-plugin-budapestian/blob/master/test/lib/index.spec.js" xlink:title="index.spec.js">
<path fill="#ffffcc" stroke="black" d="M141.5,-192C141.5,-192 83.5,-192 83.5,-192 80.5,-192 77.5,-189 77.5,-186 77.5,-186 77.5,-180 77.5,-180 77.5,-177 80.5,-174 83.5,-174 83.5,-174 141.5,-174 141.5,-174 144.5,-174 147.5,-177 147.5,-180 147.5,-180 147.5,-186 147.5,-186 147.5,-189 144.5,-192 141.5,-192"/>
<text text-anchor="start" x="85.5" y="-180.8" font-family="Helvetica,sans-Serif" font-size="9.00">index.spec.js</text>
</a>
</g>
</g>
<!-- test/lib/index.spec.js&#45;&gt;fs -->
<g id="edge28" class="edge">
<title>test/lib/index.spec.js&#45;&gt;fs</title>
<path fill="none" stroke="#000000" stroke-dasharray="5,2" stroke-opacity="0.200000" d="M95,-192.22C95,-241.35 95,-470 95,-470 95,-470 226.75,-470 226.75,-470"/>
<polygon fill="#000000" fill-opacity="0.200000" stroke="#000000" stroke-opacity="0.200000" points="226.75,-472.1 232.75,-470 226.75,-467.9 226.75,-472.1"/>
</g>
<!-- test/lib/index.spec.js&#45;&gt;lib/index.js -->
<g id="edge26" class="edge">
<title>test/lib/index.spec.js&#45;&gt;lib/index.js</title>
<path fill="none" stroke="#000000" stroke-width="2" stroke-opacity="0.200000" d="M130,-192.3C130,-216.58 130,-280 130,-280 130,-280 226.75,-280 226.75,-280"/>
<polygon fill="#000000" fill-opacity="0.200000" stroke="#000000" stroke-width="2" stroke-opacity="0.200000" points="226.75,-282.1 232.75,-280 226.75,-277.9 226.75,-282.1"/>
</g>
<!-- test/lib/index.spec.js&#45;&gt;node_modules/chai -->
<g id="edge27" class="edge">
<title>test/lib/index.spec.js&#45;&gt;node_modules/chai</title>
<path fill="none" stroke="#000000" stroke-opacity="0.200000" d="M113,-192.09C113,-229.08 113,-366.33 113,-366.33 113,-366.33 736,-366.33 736,-366.33 736,-366.33 736,-301.22 736,-301.22"/>
<polygon fill="#000000" fill-opacity="0.200000" stroke="#000000" stroke-opacity="0.200000" points="738.1,-301.22 736,-295.22 733.9,-301.22 738.1,-301.22"/>
</g>
<!-- test/lib/index.spec.js&#45;&gt;path -->
<g id="edge29" class="edge">
<title>test/lib/index.spec.js&#45;&gt;path</title>
<path fill="none" stroke="#000000" stroke-dasharray="5,2" stroke-opacity="0.200000" d="M147.83,-181.5C147.83,-181.5 226.8,-181.5 226.8,-181.5"/>
<polygon fill="#000000" fill-opacity="0.200000" stroke="#000000" stroke-opacity="0.200000" points="226.8,-183.6 232.8,-181.5 226.8,-179.4 226.8,-183.6"/>
</g>
<!-- test/lib/rules/global&#45;constant&#45;pattern&#45;rule.spec.js -->
<g id="node17" class="node">
<title>test/lib/rules/global&#45;constant&#45;pattern&#45;rule.spec.js</title>
<g id="a_node17"><a xlink:href="https://github.com/sverweij/eslint-plugin-budapestian/blob/master/test/lib/rules/global-constant-pattern-rule.spec.js" xlink:title="global&#45;constant&#45;pattern&#45;rule.spec.js">
<path fill="#ffffcc" stroke="black" d="M187,-50C187,-50 38,-50 38,-50 35,-50 32,-47 32,-44 32,-44 32,-38 32,-38 32,-35 35,-32 38,-32 38,-32 187,-32 187,-32 190,-32 193,-35 193,-38 193,-38 193,-44 193,-44 193,-47 190,-50 187,-50"/>
<text text-anchor="start" x="40" y="-38.8" font-family="Helvetica,sans-Serif" font-size="9.00">global&#45;constant&#45;pattern&#45;rule.spec.js</text>
</a>
</g>
</g>
<!-- test/lib/rules/global&#45;constant&#45;pattern&#45;rule.spec.js&#45;&gt;lib/rules/global&#45;constant&#45;pattern&#45;rule.js -->
<g id="edge30" class="edge">
<title>test/lib/rules/global&#45;constant&#45;pattern&#45;rule.spec.js&#45;&gt;lib/rules/global&#45;constant&#45;pattern&#45;rule.js</title>
<path fill="none" stroke="#000000" stroke-width="2" stroke-opacity="0.200000" d="M193.26,-44C306.83,-44 500,-44 500,-44 500,-44 500,-206.93 500,-206.93"/>
<polygon fill="#000000" fill-opacity="0.200000" stroke="#000000" stroke-width="2" stroke-opacity="0.200000" points="497.9,-206.93 500,-212.93 502.1,-206.93 497.9,-206.93"/>
</g>
<!-- test/lib/rules/global&#45;constant&#45;pattern&#45;rule.spec.js&#45;&gt;node_modules/eslint -->
<g id="edge31" class="edge">
<title>test/lib/rules/global&#45;constant&#45;pattern&#45;rule.spec.js&#45;&gt;node_modules/eslint</title>
<path fill="none" stroke="#000000" stroke-opacity="0.200000" d="M193.25,-38C363.76,-38 745,-38 745,-38 745,-38 745,-150.79 745,-150.79"/>
<polygon fill="#000000" fill-opacity="0.200000" stroke="#000000" stroke-opacity="0.200000" points="742.9,-150.79 745,-156.79 747.1,-150.79 742.9,-150.79"/>
</g>
<!-- test/lib/rules/global&#45;variable&#45;pattern&#45;rule.spec.js -->
<g id="node18" class="node">
<title>test/lib/rules/global&#45;variable&#45;pattern&#45;rule.spec.js</title>
<g id="a_node18"><a xlink:href="https://github.com/sverweij/eslint-plugin-budapestian/blob/master/test/lib/rules/global-variable-pattern-rule.spec.js" xlink:title="global&#45;variable&#45;pattern&#45;rule.spec.js">
<path fill="#ffffcc" stroke="black" d="M186,-110C186,-110 39,-110 39,-110 36,-110 33,-107 33,-104 33,-104 33,-98 33,-98 33,-95 36,-92 39,-92 39,-92 186,-92 186,-92 189,-92 192,-95 192,-98 192,-98 192,-104 192,-104 192,-107 189,-110 186,-110"/>
<text text-anchor="start" x="41" y="-98.8" font-family="Helvetica,sans-Serif" font-size="9.00">global&#45;variable&#45;pattern&#45;rule.spec.js</text>
</a>
</g>
</g>
<!-- test/lib/rules/global&#45;variable&#45;pattern&#45;rule.spec.js&#45;&gt;lib/rules/global&#45;variable&#45;pattern&#45;rule.js -->
<g id="edge32" class="edge">
<title>test/lib/rules/global&#45;variable&#45;pattern&#45;rule.spec.js&#45;&gt;lib/rules/global&#45;variable&#45;pattern&#45;rule.js</title>
<path fill="none" stroke="#000000" stroke-width="2" stroke-opacity="0.200000" d="M192.02,-101C241.2,-101 295,-101 295,-101 295,-101 295,-277 295,-277 295,-277 296.9,-277 296.9,-277"/>
<polygon fill="#000000" fill-opacity="0.200000" stroke="#000000" stroke-width="2" stroke-opacity="0.200000" points="296.9,-279.1 302.9,-277 296.9,-274.9 296.9,-279.1"/>
</g>
<!-- test/lib/rules/global&#45;variable&#45;pattern&#45;rule.spec.js&#45;&gt;node_modules/eslint -->
<g id="edge33" class="edge">
<title>test/lib/rules/global&#45;variable&#45;pattern&#45;rule.spec.js&#45;&gt;node_modules/eslint</title>
<path fill="none" stroke="#000000" stroke-opacity="0.200000" d="M188,-110.21C188,-127.19 188,-161.67 188,-161.67 188,-161.67 702.82,-161.67 702.82,-161.67"/>
<polygon fill="#000000" fill-opacity="0.200000" stroke="#000000" stroke-opacity="0.200000" points="702.82,-163.77 708.82,-161.67 702.82,-159.57 702.82,-163.77"/>
</g>
<!-- test/lib/rules/local&#45;variable&#45;pattern&#45;rule.spec.js -->
<g id="node19" class="node">
<title>test/lib/rules/local&#45;variable&#45;pattern&#45;rule.spec.js</title>
<g id="a_node19"><a xlink:href="https://github.com/sverweij/eslint-plugin-budapestian/blob/master/test/lib/rules/local-variable-pattern-rule.spec.js" xlink:title="local&#45;variable&#45;pattern&#45;rule.spec.js">
<path fill="#ffffcc" stroke="black" d="M183,-80C183,-80 42,-80 42,-80 39,-80 36,-77 36,-74 36,-74 36,-68 36,-68 36,-65 39,-62 42,-62 42,-62 183,-62 183,-62 186,-62 189,-65 189,-68 189,-68 189,-74 189,-74 189,-77 186,-80 183,-80"/>
<text text-anchor="start" x="44" y="-68.8" font-family="Helvetica,sans-Serif" font-size="9.00">local&#45;variable&#45;pattern&#45;rule.spec.js</text>
</a>
</g>
</g>
<!-- test/lib/rules/local&#45;variable&#45;pattern&#45;rule.spec.js&#45;&gt;lib/rules/local&#45;variable&#45;pattern&#45;rule.js -->
<g id="edge34" class="edge">
<title>test/lib/rules/local&#45;variable&#45;pattern&#45;rule.spec.js&#45;&gt;lib/rules/local&#45;variable&#45;pattern&#45;rule.js</title>
<path fill="none" stroke="#000000" stroke-width="2" stroke-opacity="0.200000" d="M189.31,-74C265.83,-74 372,-74 372,-74 372,-74 372,-234.54 372,-234.54"/>
<polygon fill="#000000" fill-opacity="0.200000" stroke="#000000" stroke-width="2" stroke-opacity="0.200000" points="369.9,-234.54 372,-240.54 374.1,-234.54 369.9,-234.54"/>
</g>
<!-- test/lib/rules/local&#45;variable&#45;pattern&#45;rule.spec.js&#45;&gt;node_modules/eslint -->
<g id="edge35" class="edge">
<title>test/lib/rules/local&#45;variable&#45;pattern&#45;rule.spec.js&#45;&gt;node_modules/eslint</title>
<path fill="none" stroke="#000000" stroke-opacity="0.200000" d="M189.08,-68C353.81,-68 727,-68 727,-68 727,-68 727,-150.96 727,-150.96"/>
<polygon fill="#000000" fill-opacity="0.200000" stroke="#000000" stroke-opacity="0.200000" points="724.9,-150.96 727,-156.96 729.1,-150.96 724.9,-150.96"/>
</g>
<!-- test/lib/rules/parameter&#45;pattern&#45;rule.spec.js -->
<g id="node20" class="node">
<title>test/lib/rules/parameter&#45;pattern&#45;rule.spec.js</title>
<g id="a_node20"><a xlink:href="https://github.com/sverweij/eslint-plugin-budapestian/blob/master/test/lib/rules/parameter-pattern-rule.spec.js" xlink:title="parameter&#45;pattern&#45;rule.spec.js">
<path fill="#ffffcc" stroke="black" d="M176.5,-140C176.5,-140 48.5,-140 48.5,-140 45.5,-140 42.5,-137 42.5,-134 42.5,-134 42.5,-128 42.5,-128 42.5,-125 45.5,-122 48.5,-122 48.5,-122 176.5,-122 176.5,-122 179.5,-122 182.5,-125 182.5,-128 182.5,-128 182.5,-134 182.5,-134 182.5,-137 179.5,-140 176.5,-140"/>
<text text-anchor="start" x="50.5" y="-128.8" font-family="Helvetica,sans-Serif" font-size="9.00">parameter&#45;pattern&#45;rule.spec.js</text>
</a>
</g>
</g>
<!-- test/lib/rules/parameter&#45;pattern&#45;rule.spec.js&#45;&gt;lib/rules/parameter&#45;pattern&#45;rule.js -->
<g id="edge36" class="edge">
<title>test/lib/rules/parameter&#45;pattern&#45;rule.spec.js&#45;&gt;lib/rules/parameter&#45;pattern&#45;rule.js</title>
<path fill="none" stroke="#000000" stroke-width="2" stroke-opacity="0.200000" d="M160,-140.28C160,-177.36 160,-313 160,-313 160,-313 306.3,-313 306.3,-313"/>
<polygon fill="#000000" fill-opacity="0.200000" stroke="#000000" stroke-width="2" stroke-opacity="0.200000" points="306.3,-315.1 312.3,-313 306.3,-310.9 306.3,-315.1"/>
</g>
<!-- test/lib/rules/parameter&#45;pattern&#45;rule.spec.js&#45;&gt;node_modules/eslint -->
<g id="edge37" class="edge">
<title>test/lib/rules/parameter&#45;pattern&#45;rule.spec.js&#45;&gt;node_modules/eslint</title>
<path fill="none" stroke="#000000" stroke-opacity="0.200000" d="M171,-140.28C171,-150.75 171,-166.33 171,-166.33 171,-166.33 702.75,-166.33 702.75,-166.33"/>
<polygon fill="#000000" fill-opacity="0.200000" stroke="#000000" stroke-opacity="0.200000" points="702.75,-168.43 708.75,-166.33 702.75,-164.23 702.75,-168.43"/>
</g>
</g>
</svg>
