<?xml version="1.0" encoding="UTF-8" standalone="no"?>
<!DOCTYPE svg PUBLIC "-//W3C//DTD SVG 1.1//EN"
 "http://www.w3.org/Graphics/SVG/1.1/DTD/svg11.dtd">
<!-- Generated by graphviz version 2.42.3 (20191010.1750)
 -->
<!-- Title: dependency&#45;cruiser output Pages: 1 -->
<svg width="509pt" height="330pt"
 viewBox="0.00 0.00 509.15 329.50" xmlns="http://www.w3.org/2000/svg" xmlns:xlink="http://www.w3.org/1999/xlink">
<g id="graph0" class="graph" transform="scale(1 1) rotate(0) translate(4 325.5)">
<title>dependency&#45;cruiser output</title>
<polygon fill="white" stroke="transparent" points="-4,4 -4,-325.5 505.15,-325.5 505.15,4 -4,4"/>
<g id="clust1" class="cluster">
<title>cluster_lib</title>
<path fill="#ffffff" stroke="black" stroke-width="2" d="M214.57,-154C214.57,-154 481.15,-154 481.15,-154 487.15,-154 493.15,-160 493.15,-166 493.15,-166 493.15,-255 493.15,-255 493.15,-261 487.15,-267 481.15,-267 481.15,-267 214.57,-267 214.57,-267 208.57,-267 202.57,-261 202.57,-255 202.57,-255 202.57,-166 202.57,-166 202.57,-160 208.57,-154 214.57,-154"/>
<text text-anchor="middle" x="347.86" y="-255.8" font-family="Helvetica,sans-Serif" font-weight="bold" font-size="9.00">lib</text>
</g>
<g id="clust2" class="cluster">
<title>cluster_lib/rules</title>
<path fill="#ffffff" stroke="black" stroke-width="2" d="M284.57,-162C284.57,-162 473.15,-162 473.15,-162 479.15,-162 485.15,-168 485.15,-174 485.15,-174 485.15,-230 485.15,-230 485.15,-236 479.15,-242 473.15,-242 473.15,-242 284.57,-242 284.57,-242 278.57,-242 272.57,-236 272.57,-230 272.57,-230 272.57,-174 272.57,-174 272.57,-168 278.57,-162 284.57,-162"/>
<text text-anchor="middle" x="378.86" y="-230.8" font-family="Helvetica,sans-Serif" font-weight="bold" font-size="9.00">rules</text>
</g>
<g id="clust3" class="cluster">
<title>cluster_node_modules</title>
<path fill="#ffffff" stroke="black" stroke-width="2" d="M417.62,-8C417.62,-8 472.15,-8 472.15,-8 478.15,-8 484.15,-14 484.15,-20 484.15,-20 484.15,-134 484.15,-134 484.15,-140 478.15,-146 472.15,-146 472.15,-146 417.62,-146 417.62,-146 411.62,-146 405.62,-140 405.62,-134 405.62,-134 405.62,-20 405.62,-20 405.62,-14 411.62,-8 417.62,-8"/>
<text text-anchor="middle" x="444.89" y="-134.8" font-family="Helvetica,sans-Serif" font-weight="bold" font-size="9.00">node_modules</text>
</g>
<g id="clust4" class="cluster">
<title>cluster_test</title>
<path fill="#ffffff" stroke="black" stroke-width="2" d="M20,-76C20,-76 182.57,-76 182.57,-76 188.57,-76 194.57,-82 194.57,-88 194.57,-88 194.57,-236 194.57,-236 194.57,-242 188.57,-248 182.57,-248 182.57,-248 20,-248 20,-248 14,-248 8,-242 8,-236 8,-236 8,-88 8,-88 8,-82 14,-76 20,-76"/>
<text text-anchor="middle" x="101.28" y="-236.8" font-family="Helvetica,sans-Serif" font-weight="bold" font-size="9.00">test</text>
</g>
<g id="clust5" class="cluster">
<title>cluster_test/lib</title>
<path fill="#ffffff" stroke="black" stroke-width="2" d="M28,-84C28,-84 174.57,-84 174.57,-84 180.57,-84 186.57,-90 186.57,-96 186.57,-96 186.57,-211 186.57,-211 186.57,-217 180.57,-223 174.57,-223 174.57,-223 28,-223 28,-223 22,-223 16,-217 16,-211 16,-211 16,-96 16,-96 16,-90 22,-84 28,-84"/>
<text text-anchor="middle" x="101.28" y="-211.8" font-family="Helvetica,sans-Serif" font-weight="bold" font-size="9.00">lib</text>
</g>
<g id="clust6" class="cluster">
<title>cluster_test/lib/rules</title>
<path fill="#ffffff" stroke="black" stroke-width="2" d="M36,-92C36,-92 166.57,-92 166.57,-92 172.57,-92 178.57,-98 178.57,-104 178.57,-104 178.57,-160 178.57,-160 178.57,-166 172.57,-172 166.57,-172 166.57,-172 36,-172 36,-172 30,-172 24,-166 24,-160 24,-160 24,-104 24,-104 24,-98 30,-92 36,-92"/>
<text text-anchor="middle" x="101.28" y="-160.8" font-family="Helvetica,sans-Serif" font-weight="bold" font-size="9.00">rules</text>
</g>
<!-- fs -->
<g id="node1" class="node">
<title>fs</title>
<path fill="#ffffcc" stroke="grey" d="M258.9,-321.5C258.9,-321.5 216.23,-321.5 216.23,-321.5 213.4,-321.5 210.57,-318.67 210.57,-315.83 210.57,-315.83 210.57,-310.17 210.57,-310.17 210.57,-307.33 213.4,-304.5 216.23,-304.5 216.23,-304.5 258.9,-304.5 258.9,-304.5 261.73,-304.5 264.57,-307.33 264.57,-310.17 264.57,-310.17 264.57,-315.83 264.57,-315.83 264.57,-318.67 261.73,-321.5 258.9,-321.5"/>
<text text-anchor="middle" x="237.57" y="-310.3" font-family="Helvetica,sans-Serif" font-size="9.00" fill="grey">fs</text>
</g>
<!-- lib/index.js -->
<g id="node2" class="node">
<title>lib/index.js</title>
<g id="a_node2"><a xlink:href="https://github.com/sverweij/eslint-plugin-budapestian/blob/master/lib/index.js" xlink:title="index.js">
<path fill="#ffffcc" stroke="black" d="M258.9,-179.5C258.9,-179.5 216.23,-179.5 216.23,-179.5 213.4,-179.5 210.57,-176.67 210.57,-173.83 210.57,-173.83 210.57,-168.17 210.57,-168.17 210.57,-165.33 213.4,-162.5 216.23,-162.5 216.23,-162.5 258.9,-162.5 258.9,-162.5 261.73,-162.5 264.57,-165.33 264.57,-168.17 264.57,-168.17 264.57,-173.83 264.57,-173.83 264.57,-176.67 261.73,-179.5 258.9,-179.5"/>
<text text-anchor="middle" x="237.57" y="-168.3" font-family="Helvetica,sans-Serif" font-size="9.00">index.js</text>
</a>
</g>
</g>
<!-- lib/rules/global&#45;constant&#45;pattern.js -->
<g id="node3" class="node">
<title>lib/rules/global&#45;constant&#45;pattern.js</title>
<g id="a_node3"><a xlink:href="https://github.com/sverweij/eslint-plugin-budapestian/blob/master/lib/rules/global-constant-pattern.js" xlink:title="global&#45;constant&#45;pattern.js">
<path fill="#ffffcc" stroke="black" d="M391.99,-187.5C391.99,-187.5 286.21,-187.5 286.21,-187.5 283.37,-187.5 280.54,-184.67 280.54,-181.83 280.54,-181.83 280.54,-176.17 280.54,-176.17 280.54,-173.33 283.37,-170.5 286.21,-170.5 286.21,-170.5 391.99,-170.5 391.99,-170.5 394.82,-170.5 397.65,-173.33 397.65,-176.17 397.65,-176.17 397.65,-181.83 397.65,-181.83 397.65,-184.67 394.82,-187.5 391.99,-187.5"/>
<text text-anchor="middle" x="339.1" y="-176.3" font-family="Helvetica,sans-Serif" font-size="9.00">global&#45;constant&#45;pattern.js</text>
</a>
</g>
</g>
<!-- lib/index.js&#45;&gt;lib/rules/global&#45;constant&#45;pattern.js -->
<g id="edge1" class="edge">
<title>lib/index.js&#45;&gt;lib/rules/global&#45;constant&#45;pattern.js</title>
<path fill="none" stroke="#000000" stroke-width="2" stroke-opacity="0.200000" d="M264.78,-175C264.78,-175 274.46,-175 274.46,-175"/>
<polygon fill="#000000" fill-opacity="0.200000" stroke="#000000" stroke-width="2" stroke-opacity="0.200000" points="274.46,-177.1 280.46,-175 274.46,-172.9 274.46,-177.1"/>
</g>
<!-- lib/rules/parameter&#45;pattern.js -->
<g id="node4" class="node">
<title>lib/rules/parameter&#45;pattern.js</title>
<g id="a_node4"><a xlink:href="https://github.com/sverweij/eslint-plugin-budapestian/blob/master/lib/rules/parameter-pattern.js" xlink:title="parameter&#45;pattern.js">
<path fill="#ffffcc" stroke="black" d="M381.96,-216.5C381.96,-216.5 296.23,-216.5 296.23,-216.5 293.39,-216.5 290.56,-213.67 290.56,-210.83 290.56,-210.83 290.56,-205.17 290.56,-205.17 290.56,-202.33 293.39,-199.5 296.23,-199.5 296.23,-199.5 381.96,-199.5 381.96,-199.5 384.8,-199.5 387.63,-202.33 387.63,-205.17 387.63,-205.17 387.63,-210.83 387.63,-210.83 387.63,-213.67 384.8,-216.5 381.96,-216.5"/>
<text text-anchor="middle" x="339.1" y="-205.3" font-family="Helvetica,sans-Serif" font-size="9.00">parameter&#45;pattern.js</text>
</a>
</g>
</g>
<!-- lib/index.js&#45;&gt;lib/rules/parameter&#45;pattern.js -->
<g id="edge2" class="edge">
<title>lib/index.js&#45;&gt;lib/rules/parameter&#45;pattern.js</title>
<path fill="none" stroke="#000000" stroke-width="2" stroke-opacity="0.200000" d="M251.15,-179.62C251.15,-189.74 251.15,-205.17 251.15,-205.17 251.15,-205.17 284.49,-205.17 284.49,-205.17"/>
<polygon fill="#000000" fill-opacity="0.200000" stroke="#000000" stroke-width="2" stroke-opacity="0.200000" points="284.49,-207.27 290.49,-205.17 284.49,-203.07 284.49,-207.27"/>
</g>
<!-- lib/rules/pattern&#45;utl.js -->
<g id="node5" class="node">
<title>lib/rules/pattern&#45;utl.js</title>
<g id="a_node5"><a xlink:href="https://github.com/sverweij/eslint-plugin-budapestian/blob/master/lib/rules/pattern-utl.js" xlink:title="pattern&#45;utl.js">
<path fill="#ffffcc" stroke="black" d="M471.24,-201.5C471.24,-201.5 417.53,-201.5 417.53,-201.5 414.7,-201.5 411.86,-198.67 411.86,-195.83 411.86,-195.83 411.86,-190.17 411.86,-190.17 411.86,-187.33 414.7,-184.5 417.53,-184.5 417.53,-184.5 471.24,-184.5 471.24,-184.5 474.08,-184.5 476.91,-187.33 476.91,-190.17 476.91,-190.17 476.91,-195.83 476.91,-195.83 476.91,-198.67 474.08,-201.5 471.24,-201.5"/>
<text text-anchor="middle" x="444.39" y="-190.3" font-family="Helvetica,sans-Serif" font-size="9.00">pattern&#45;utl.js</text>
</a>
</g>
</g>
<!-- lib/rules/global&#45;constant&#45;pattern.js&#45;&gt;lib/rules/pattern&#45;utl.js -->
<g id="edge3" class="edge">
<title>lib/rules/global&#45;constant&#45;pattern.js&#45;&gt;lib/rules/pattern&#45;utl.js</title>
<path fill="none" stroke="#000000" stroke-width="2" stroke-opacity="0.200000" d="M393.15,-187.65C393.15,-191.05 393.15,-194.17 393.15,-194.17 393.15,-194.17 405.65,-194.17 405.65,-194.17"/>
<polygon fill="#000000" fill-opacity="0.200000" stroke="#000000" stroke-width="2" stroke-opacity="0.200000" points="405.65,-196.27 411.65,-194.17 405.65,-192.07 405.65,-196.27"/>
</g>
<!-- node_modules/decamelize -->
<g id="node6" class="node">
<title>node_modules/decamelize</title>
<g id="a_node6"><a xlink:href="https://github.com/sverweij/eslint-plugin-budapestian/blob/master/node_modules/decamelize" xlink:title="decamelize">
<polygon fill="#c40b0a" fill-opacity="0.101961" stroke="black" points="474.91,-91.5 415.75,-91.5 413.86,-89.61 413.86,-74.5 473.02,-74.5 474.91,-76.39 474.91,-91.5"/>
<polyline fill="none" stroke="black" points="473.02,-89.61 413.86,-89.61 "/>
<polyline fill="none" stroke="black" points="473.02,-89.61 473.02,-74.5 "/>
<polyline fill="none" stroke="black" points="473.02,-89.61 474.91,-91.5 "/>
<text text-anchor="middle" x="444.39" y="-80.3" font-family="Helvetica,sans-Serif" font-size="9.00" fill="#c40b0a">decamelize</text>
</a>
</g>
</g>
<!-- lib/rules/global&#45;constant&#45;pattern.js&#45;&gt;node_modules/decamelize -->
<g id="edge4" class="edge">
<title>lib/rules/global&#45;constant&#45;pattern.js&#45;&gt;node_modules/decamelize</title>
<path fill="none" stroke="#000000" stroke-dasharray="5,2" stroke-opacity="0.200000" d="M339.15,-170.48C339.15,-146.99 339.15,-83 339.15,-83 339.15,-83 407.66,-83 407.66,-83"/>
<polygon fill="#000000" fill-opacity="0.200000" stroke="#000000" stroke-opacity="0.200000" points="407.66,-85.1 413.66,-83 407.66,-80.9 407.66,-85.1"/>
</g>
<!-- node_modules/lodash.get -->
<g id="node7" class="node">
<title>node_modules/lodash.get</title>
<g id="a_node7"><a xlink:href="https://github.com/sverweij/eslint-plugin-budapestian/blob/master/node_modules/lodash.get" xlink:title="lodash.get">
<polygon fill="#c40b0a" fill-opacity="0.101961" stroke="black" points="472.92,-120.5 417.74,-120.5 415.85,-118.61 415.85,-103.5 471.03,-103.5 472.92,-105.39 472.92,-120.5"/>
<polyline fill="none" stroke="black" points="471.03,-118.61 415.85,-118.61 "/>
<polyline fill="none" stroke="black" points="471.03,-118.61 471.03,-103.5 "/>
<polyline fill="none" stroke="black" points="471.03,-118.61 472.92,-120.5 "/>
<text text-anchor="middle" x="444.39" y="-109.3" font-family="Helvetica,sans-Serif" font-size="9.00" fill="#c40b0a">lodash.get</text>
</a>
</g>
</g>
<!-- lib/rules/global&#45;constant&#45;pattern.js&#45;&gt;node_modules/lodash.get -->
<g id="edge5" class="edge">
<title>lib/rules/global&#45;constant&#45;pattern.js&#45;&gt;node_modules/lodash.get</title>
<path fill="none" stroke="#000000" stroke-dasharray="5,2" stroke-opacity="0.200000" d="M397.7,-177.5C422.23,-177.5 445.15,-177.5 445.15,-177.5 445.15,-177.5 445.15,-126.56 445.15,-126.56"/>
<polygon fill="#000000" fill-opacity="0.200000" stroke="#000000" stroke-opacity="0.200000" points="447.25,-126.56 445.15,-120.56 443.05,-126.56 447.25,-126.56"/>
</g>
<!-- lib/rules/parameter&#45;pattern.js&#45;&gt;lib/rules/pattern&#45;utl.js -->
<g id="edge6" class="edge">
<title>lib/rules/parameter&#45;pattern.js&#45;&gt;lib/rules/pattern&#45;utl.js</title>
<path fill="none" stroke="#000000" stroke-width="2" stroke-opacity="0.200000" d="M387.78,-211.5C415.66,-211.5 445.15,-211.5 445.15,-211.5 445.15,-211.5 445.15,-207.82 445.15,-207.82"/>
<polygon fill="#000000" fill-opacity="0.200000" stroke="#000000" stroke-width="2" stroke-opacity="0.200000" points="447.25,-207.82 445.15,-201.82 443.05,-207.82 447.25,-207.82"/>
</g>
<!-- lib/rules/parameter&#45;pattern.js&#45;&gt;node_modules/lodash.get -->
<g id="edge7" class="edge">
<title>lib/rules/parameter&#45;pattern.js&#45;&gt;node_modules/lodash.get</title>
<path fill="none" stroke="#000000" stroke-dasharray="5,2" stroke-opacity="0.200000" d="M387.79,-206.5C397.69,-206.5 405.15,-206.5 405.15,-206.5 405.15,-206.5 405.15,-110.5 405.15,-110.5 405.15,-110.5 409.46,-110.5 409.46,-110.5"/>
<polygon fill="#000000" fill-opacity="0.200000" stroke="#000000" stroke-opacity="0.200000" points="409.46,-112.6 415.46,-110.5 409.46,-108.4 409.46,-112.6"/>
</g>
<!-- node_modules/chai -->
<g id="node8" class="node">
<title>node_modules/chai</title>
<g id="a_node8"><a xlink:href="https://github.com/sverweij/eslint-plugin-budapestian/blob/master/node_modules/chai" xlink:title="chai">
<polygon fill="#c40b0a" fill-opacity="0.101961" stroke="black" points="471.39,-62.5 419.27,-62.5 417.39,-60.61 417.39,-45.5 469.5,-45.5 471.39,-47.39 471.39,-62.5"/>
<polyline fill="none" stroke="black" points="469.5,-60.61 417.39,-60.61 "/>
<polyline fill="none" stroke="black" points="469.5,-60.61 469.5,-45.5 "/>
<polyline fill="none" stroke="black" points="469.5,-60.61 471.39,-62.5 "/>
<text text-anchor="middle" x="444.39" y="-51.3" font-family="Helvetica,sans-Serif" font-size="9.00" fill="#c40b0a">chai</text>
</a>
</g>
</g>
<!-- node_modules/eslint -->
<g id="node9" class="node">
<title>node_modules/eslint</title>
<g id="a_node9"><a xlink:href="https://github.com/sverweij/eslint-plugin-budapestian/blob/master/node_modules/eslint" xlink:title="eslint">
<polygon fill="#c40b0a" fill-opacity="0.101961" stroke="black" points="471.39,-33.5 419.27,-33.5 417.39,-31.61 417.39,-16.5 469.5,-16.5 471.39,-18.39 471.39,-33.5"/>
<polyline fill="none" stroke="black" points="469.5,-31.61 417.39,-31.61 "/>
<polyline fill="none" stroke="black" points="469.5,-31.61 469.5,-16.5 "/>
<polyline fill="none" stroke="black" points="469.5,-31.61 471.39,-33.5 "/>
<text text-anchor="middle" x="444.39" y="-22.3" font-family="Helvetica,sans-Serif" font-size="9.00" fill="#c40b0a">eslint</text>
</a>
</g>
</g>
<!-- path -->
<g id="node10" class="node">
<title>path</title>
<path fill="#ffffcc" stroke="grey" d="M258.9,-292.5C258.9,-292.5 216.23,-292.5 216.23,-292.5 213.4,-292.5 210.57,-289.67 210.57,-286.83 210.57,-286.83 210.57,-281.17 210.57,-281.17 210.57,-278.33 213.4,-275.5 216.23,-275.5 216.23,-275.5 258.9,-275.5 258.9,-275.5 261.73,-275.5 264.57,-278.33 264.57,-281.17 264.57,-281.17 264.57,-286.83 264.57,-286.83 264.57,-289.67 261.73,-292.5 258.9,-292.5"/>
<text text-anchor="middle" x="237.57" y="-281.3" font-family="Helvetica,sans-Serif" font-size="9.00" fill="grey">path</text>
</g>
<!-- test/lib/index.spec.js -->
<g id="node11" class="node">
<title>test/lib/index.spec.js</title>
<g id="a_node11"><a xlink:href="https://github.com/sverweij/eslint-plugin-budapestian/blob/master/test/lib/index.spec.js" xlink:title="index.spec.js">
<path fill="#ffffcc" stroke="black" d="M129.64,-197.5C129.64,-197.5 72.92,-197.5 72.92,-197.5 70.09,-197.5 67.26,-194.67 67.26,-191.83 67.26,-191.83 67.26,-186.17 67.26,-186.17 67.26,-183.33 70.09,-180.5 72.92,-180.5 72.92,-180.5 129.64,-180.5 129.64,-180.5 132.48,-180.5 135.31,-183.33 135.31,-186.17 135.31,-186.17 135.31,-191.83 135.31,-191.83 135.31,-194.67 132.48,-197.5 129.64,-197.5"/>
<text text-anchor="middle" x="101.28" y="-186.3" font-family="Helvetica,sans-Serif" font-size="9.00">index.spec.js</text>
</a>
</g>
</g>
<!-- test/lib/index.spec.js&#45;&gt;fs -->
<g id="edge10" class="edge">
<title>test/lib/index.spec.js&#45;&gt;fs</title>
<path fill="none" stroke="#000000" stroke-dasharray="5,2" stroke-opacity="0.200000" d="M102.15,-197.52C102.15,-225.54 102.15,-313 102.15,-313 102.15,-313 204.49,-313 204.49,-313"/>
<polygon fill="#000000" fill-opacity="0.200000" stroke="#000000" stroke-opacity="0.200000" points="204.49,-315.1 210.49,-313 204.49,-310.9 204.49,-315.1"/>
</g>
<!-- test/lib/index.spec.js&#45;&gt;lib/index.js -->
<g id="edge8" class="edge">
<title>test/lib/index.spec.js&#45;&gt;lib/index.js</title>
<path fill="none" stroke="#000000" stroke-width="2" stroke-opacity="0.200000" d="M135.47,-185.75C176.01,-185.75 238.15,-185.75 238.15,-185.75 238.15,-185.75 238.15,-185.15 238.15,-185.15"/>
<polygon fill="#000000" fill-opacity="0.200000" stroke="#000000" stroke-width="2" stroke-opacity="0.200000" points="240.25,-185.75 238.15,-179.75 236.05,-185.75 240.25,-185.75"/>
</g>
<!-- test/lib/index.spec.js&#45;&gt;node_modules/chai -->
<g id="edge9" class="edge">
<title>test/lib/index.spec.js&#45;&gt;node_modules/chai</title>
<path fill="none" stroke="#000000" stroke-dasharray="5,2" stroke-opacity="0.200000" d="M135.43,-182.25C163.32,-182.25 198.15,-182.25 198.15,-182.25 198.15,-182.25 198.15,-54 198.15,-54 198.15,-54 411.09,-54 411.09,-54"/>
<polygon fill="#000000" fill-opacity="0.200000" stroke="#000000" stroke-opacity="0.200000" points="411.09,-56.1 417.09,-54 411.09,-51.9 411.09,-56.1"/>
</g>
<!-- test/lib/index.spec.js&#45;&gt;path -->
<g id="edge11" class="edge">
<title>test/lib/index.spec.js&#45;&gt;path</title>
<path fill="none" stroke="#000000" stroke-dasharray="5,2" stroke-opacity="0.200000" d="M135.51,-190.83C171.86,-190.83 224.15,-190.83 224.15,-190.83 224.15,-190.83 224.15,-269.4 224.15,-269.4"/>
<polygon fill="#000000" fill-opacity="0.200000" stroke="#000000" stroke-opacity="0.200000" points="222.05,-269.4 224.15,-275.4 226.25,-269.4 222.05,-269.4"/>
</g>
<!-- test/lib/rules/global&#45;constant&#45;pattern.spec.js -->
<g id="node12" class="node">
<title>test/lib/rules/global&#45;constant&#45;pattern.spec.js</title>
<g id="a_node12"><a xlink:href="https://github.com/sverweij/eslint-plugin-budapestian/blob/master/test/lib/rules/global-constant-pattern.spec.js" xlink:title="global&#45;constant&#45;pattern.spec.js">
<path fill="#ffffcc" stroke="black" d="M164.69,-117.5C164.69,-117.5 37.88,-117.5 37.88,-117.5 35.05,-117.5 32.22,-114.67 32.22,-111.83 32.22,-111.83 32.22,-106.17 32.22,-106.17 32.22,-103.33 35.05,-100.5 37.88,-100.5 37.88,-100.5 164.69,-100.5 164.69,-100.5 167.52,-100.5 170.35,-103.33 170.35,-106.17 170.35,-106.17 170.35,-111.83 170.35,-111.83 170.35,-114.67 167.52,-117.5 164.69,-117.5"/>
<text text-anchor="middle" x="101.28" y="-106.3" font-family="Helvetica,sans-Serif" font-size="9.00">global&#45;constant&#45;pattern.spec.js</text>
</a>
</g>
</g>
<!-- test/lib/rules/global&#45;constant&#45;pattern.spec.js&#45;&gt;lib/rules/global&#45;constant&#45;pattern.js -->
<g id="edge12" class="edge">
<title>test/lib/rules/global&#45;constant&#45;pattern.spec.js&#45;&gt;lib/rules/global&#45;constant&#45;pattern.js</title>
<path fill="none" stroke="#000000" stroke-width="2" stroke-opacity="0.200000" d="M166.15,-117.6C166.15,-137.3 166.15,-184 166.15,-184 166.15,-184 274.54,-184 274.54,-184"/>
<polygon fill="#000000" fill-opacity="0.200000" stroke="#000000" stroke-width="2" stroke-opacity="0.200000" points="274.54,-186.1 280.54,-184 274.54,-181.9 274.54,-186.1"/>
</g>
<!-- test/lib/rules/global&#45;constant&#45;pattern.spec.js&#45;&gt;node_modules/eslint -->
<g id="edge13" class="edge">
<title>test/lib/rules/global&#45;constant&#45;pattern.spec.js&#45;&gt;node_modules/eslint</title>
<path fill="none" stroke="#000000" stroke-dasharray="5,2" stroke-opacity="0.200000" d="M102.15,-100.36C102.15,-78.39 102.15,-22.17 102.15,-22.17 102.15,-22.17 411.24,-22.17 411.24,-22.17"/>
<polygon fill="#000000" fill-opacity="0.200000" stroke="#000000" stroke-opacity="0.200000" points="411.25,-24.27 417.24,-22.17 411.24,-20.07 411.25,-24.27"/>
</g>
<!-- test/lib/rules/parameter&#45;pattern.spec.js -->
<g id="node13" class="node">
<title>test/lib/rules/parameter&#45;pattern.spec.js</title>
<g id="a_node13"><a xlink:href="https://github.com/sverweij/eslint-plugin-budapestian/blob/master/test/lib/rules/parameter-pattern.spec.js" xlink:title="parameter&#45;pattern.spec.js">
<path fill="#ffffcc" stroke="black" d="M154.66,-146.5C154.66,-146.5 47.9,-146.5 47.9,-146.5 45.07,-146.5 42.24,-143.67 42.24,-140.83 42.24,-140.83 42.24,-135.17 42.24,-135.17 42.24,-132.33 45.07,-129.5 47.9,-129.5 47.9,-129.5 154.66,-129.5 154.66,-129.5 157.5,-129.5 160.33,-132.33 160.33,-135.17 160.33,-135.17 160.33,-140.83 160.33,-140.83 160.33,-143.67 157.5,-146.5 154.66,-146.5"/>
<text text-anchor="middle" x="101.28" y="-135.3" font-family="Helvetica,sans-Serif" font-size="9.00">parameter&#45;pattern.spec.js</text>
</a>
</g>
</g>
<!-- test/lib/rules/parameter&#45;pattern.spec.js&#45;&gt;lib/rules/parameter&#45;pattern.js -->
<g id="edge14" class="edge">
<title>test/lib/rules/parameter&#45;pattern.spec.js&#45;&gt;lib/rules/parameter&#45;pattern.js</title>
<path fill="none" stroke="#000000" stroke-width="2" stroke-opacity="0.200000" d="M148.15,-146.64C148.15,-165.93 148.15,-210.83 148.15,-210.83 148.15,-210.83 284.42,-210.83 284.42,-210.83"/>
<polygon fill="#000000" fill-opacity="0.200000" stroke="#000000" stroke-width="2" stroke-opacity="0.200000" points="284.42,-212.93 290.42,-210.83 284.42,-208.73 284.42,-212.93"/>
</g>
<!-- test/lib/rules/parameter&#45;pattern.spec.js&#45;&gt;node_modules/eslint -->
<g id="edge15" class="edge">
<title>test/lib/rules/parameter&#45;pattern.spec.js&#45;&gt;node_modules/eslint</title>
<path fill="none" stroke="#000000" stroke-dasharray="5,2" stroke-opacity="0.200000" d="M160.62,-138C173.91,-138 184.15,-138 184.15,-138 184.15,-138 184.15,-27.83 184.15,-27.83 184.15,-27.83 411.03,-27.83 411.03,-27.83"/>
<polygon fill="#000000" fill-opacity="0.200000" stroke="#000000" stroke-opacity="0.200000" points="411.03,-29.93 417.03,-27.83 411.03,-25.73 411.03,-29.93"/>
</g>
</g>
</svg>
