<?xml version="1.0" encoding="UTF-8" standalone="no"?>
<!DOCTYPE svg PUBLIC "-//W3C//DTD SVG 1.1//EN"
 "http://www.w3.org/Graphics/SVG/1.1/DTD/svg11.dtd">
<!-- Generated by graphviz version 2.43.0 (0)
 -->
<!-- Title: dependency&#45;cruiser output Pages: 1 -->
<svg width="611pt" height="377pt"
 viewBox="0.00 0.00 610.71 377.00" xmlns="http://www.w3.org/2000/svg" xmlns:xlink="http://www.w3.org/1999/xlink">
<g id="graph0" class="graph" transform="scale(1 1) rotate(0) translate(4 373)">
<title>dependency&#45;cruiser output</title>
<polygon fill="white" stroke="transparent" points="-4,4 -4,-373 606.71,-373 606.71,4 -4,4"/>
<g id="clust1" class="cluster">
<title>cluster_lib</title>
<path fill="#ffffff" stroke="black" stroke-width="2" d="M78.28,-248C78.28,-248 582.71,-248 582.71,-248 588.71,-248 594.71,-254 594.71,-260 594.71,-260 594.71,-349 594.71,-349 594.71,-355 588.71,-361 582.71,-361 582.71,-361 78.28,-361 78.28,-361 72.28,-361 66.28,-355 66.28,-349 66.28,-349 66.28,-260 66.28,-260 66.28,-254 72.28,-248 78.28,-248"/>
<text text-anchor="middle" x="330.5" y="-349.8" font-family="Helvetica,sans-Serif" font-weight="bold" font-size="9.00">lib</text>
</g>
<g id="clust2" class="cluster">
<title>cluster_lib/rules</title>
<path fill="#ffffff" stroke="black" stroke-width="2" d="M214.57,-256C214.57,-256 403.15,-256 403.15,-256 409.15,-256 415.15,-262 415.15,-268 415.15,-268 415.15,-324 415.15,-324 415.15,-330 409.15,-336 403.15,-336 403.15,-336 214.57,-336 214.57,-336 208.57,-336 202.57,-330 202.57,-324 202.57,-324 202.57,-268 202.57,-268 202.57,-262 208.57,-256 214.57,-256"/>
<text text-anchor="middle" x="308.86" y="-324.8" font-family="Helvetica,sans-Serif" font-weight="bold" font-size="9.00">rules</text>
</g>
<g id="clust3" class="cluster">
<title>cluster_lib/utl</title>
<path fill="#ffffff" stroke="black" stroke-width="2" d="M435.15,-256C435.15,-256 574.71,-256 574.71,-256 580.71,-256 586.71,-262 586.71,-268 586.71,-268 586.71,-295 586.71,-295 586.71,-301 580.71,-307 574.71,-307 574.71,-307 435.15,-307 435.15,-307 429.15,-307 423.15,-301 423.15,-295 423.15,-295 423.15,-268 423.15,-268 423.15,-262 429.15,-256 435.15,-256"/>
<text text-anchor="middle" x="504.93" y="-295.8" font-family="Helvetica,sans-Serif" font-weight="bold" font-size="9.00">utl</text>
</g>
<g id="clust4" class="cluster">
<title>cluster_node_modules</title>
<path fill="#ffffff" stroke="black" stroke-width="2" d="M347.62,-102C347.62,-102 402.15,-102 402.15,-102 408.15,-102 414.15,-108 414.15,-114 414.15,-114 414.15,-228 414.15,-228 414.15,-234 408.15,-240 402.15,-240 402.15,-240 347.62,-240 347.62,-240 341.62,-240 335.62,-234 335.62,-228 335.62,-228 335.62,-114 335.62,-114 335.62,-108 341.62,-102 347.62,-102"/>
<text text-anchor="middle" x="374.89" y="-228.8" font-family="Helvetica,sans-Serif" font-weight="bold" font-size="9.00">node_modules</text>
</g>
<g id="clust5" class="cluster">
<title>cluster_test</title>
<path fill="#ffffff" stroke="black" stroke-width="2" d="M20,-8C20,-8 182.57,-8 182.57,-8 188.57,-8 194.57,-14 194.57,-20 194.57,-20 194.57,-197 194.57,-197 194.57,-203 188.57,-209 182.57,-209 182.57,-209 20,-209 20,-209 14,-209 8,-203 8,-197 8,-197 8,-20 8,-20 8,-14 14,-8 20,-8"/>
<text text-anchor="middle" x="101.28" y="-197.8" font-family="Helvetica,sans-Serif" font-weight="bold" font-size="9.00">test</text>
</g>
<g id="clust6" class="cluster">
<title>cluster_test/lib</title>
<path fill="#ffffff" stroke="black" stroke-width="2" d="M28,-16C28,-16 174.57,-16 174.57,-16 180.57,-16 186.57,-22 186.57,-28 186.57,-28 186.57,-172 186.57,-172 186.57,-178 180.57,-184 174.57,-184 174.57,-184 28,-184 28,-184 22,-184 16,-178 16,-172 16,-172 16,-28 16,-28 16,-22 22,-16 28,-16"/>
<text text-anchor="middle" x="101.28" y="-172.8" font-family="Helvetica,sans-Serif" font-weight="bold" font-size="9.00">lib</text>
</g>
<g id="clust7" class="cluster">
<title>cluster_test/lib/rules</title>
<path fill="#ffffff" stroke="black" stroke-width="2" d="M36,-50C36,-50 166.57,-50 166.57,-50 172.57,-50 178.57,-56 178.57,-62 178.57,-62 178.57,-147 178.57,-147 178.57,-153 172.57,-159 166.57,-159 166.57,-159 36,-159 36,-159 30,-159 24,-153 24,-147 24,-147 24,-62 24,-62 24,-56 30,-50 36,-50"/>
<text text-anchor="middle" x="101.28" y="-147.8" font-family="Helvetica,sans-Serif" font-weight="bold" font-size="9.00">rules</text>
</g>
<!-- lib/index.js -->
<g id="node1" class="node">
<title>lib/index.js</title>
<g id="a_node1"><a xlink:href="https://github.com/sverweij/eslint-plugin-budapestian/blob/master/lib/index.js" xlink:title="index.js">
<path fill="#ffffcc" stroke="black" d="M122.62,-291.5C122.62,-291.5 79.95,-291.5 79.95,-291.5 77.12,-291.5 74.28,-288.67 74.28,-285.83 74.28,-285.83 74.28,-280.17 74.28,-280.17 74.28,-277.33 77.12,-274.5 79.95,-274.5 79.95,-274.5 122.62,-274.5 122.62,-274.5 125.45,-274.5 128.28,-277.33 128.28,-280.17 128.28,-280.17 128.28,-285.83 128.28,-285.83 128.28,-288.67 125.45,-291.5 122.62,-291.5"/>
<text text-anchor="middle" x="101.28" y="-280.3" font-family="Helvetica,sans-Serif" font-size="9.00">index.js</text>
</a>
</g>
</g>
<!-- lib/rules/parameter&#45;pattern.js -->
<g id="node2" class="node">
<title>lib/rules/parameter&#45;pattern.js</title>
<g id="a_node2"><a xlink:href="https://github.com/sverweij/eslint-plugin-budapestian/blob/master/lib/rules/parameter-pattern.js" xlink:title="parameter&#45;pattern.js">
<path fill="#ffffcc" stroke="black" d="M311.96,-310.5C311.96,-310.5 226.23,-310.5 226.23,-310.5 223.39,-310.5 220.56,-307.67 220.56,-304.83 220.56,-304.83 220.56,-299.17 220.56,-299.17 220.56,-296.33 223.39,-293.5 226.23,-293.5 226.23,-293.5 311.96,-293.5 311.96,-293.5 314.8,-293.5 317.63,-296.33 317.63,-299.17 317.63,-299.17 317.63,-304.83 317.63,-304.83 317.63,-307.67 314.8,-310.5 311.96,-310.5"/>
<text text-anchor="middle" x="269.1" y="-299.3" font-family="Helvetica,sans-Serif" font-size="9.00">parameter&#45;pattern.js</text>
</a>
</g>
</g>
<!-- lib/index.js&#45;&gt;lib/rules/parameter&#45;pattern.js -->
<g id="edge1" class="edge">
<title>lib/index.js&#45;&gt;lib/rules/parameter&#45;pattern.js</title>
<path fill="none" stroke="#000000" stroke-width="2" stroke-opacity="0.200000" d="M101.71,-291.88C101.71,-297.93 101.71,-304.83 101.71,-304.83 101.71,-304.83 214.23,-304.83 214.23,-304.83"/>
<polygon fill="#000000" fill-opacity="0.200000" stroke="#000000" stroke-width="2" stroke-opacity="0.200000" points="214.23,-306.93 220.23,-304.83 214.23,-302.73 214.23,-306.93"/>
</g>
<!-- lib/rules/pattern&#45;utl.js -->
<g id="node4" class="node">
<title>lib/rules/pattern&#45;utl.js</title>
<g id="a_node4"><a xlink:href="https://github.com/sverweij/eslint-plugin-budapestian/blob/master/lib/rules/pattern-utl.js" xlink:title="pattern&#45;utl.js">
<path fill="#ffffcc" stroke="black" d="M401.24,-281.5C401.24,-281.5 347.53,-281.5 347.53,-281.5 344.7,-281.5 341.86,-278.67 341.86,-275.83 341.86,-275.83 341.86,-270.17 341.86,-270.17 341.86,-267.33 344.7,-264.5 347.53,-264.5 347.53,-264.5 401.24,-264.5 401.24,-264.5 404.08,-264.5 406.91,-267.33 406.91,-270.17 406.91,-270.17 406.91,-275.83 406.91,-275.83 406.91,-278.67 404.08,-281.5 401.24,-281.5"/>
<text text-anchor="middle" x="374.39" y="-270.3" font-family="Helvetica,sans-Serif" font-size="9.00">pattern&#45;utl.js</text>
</a>
</g>
</g>
<!-- lib/rules/parameter&#45;pattern.js&#45;&gt;lib/rules/pattern&#45;utl.js -->
<g id="edge5" class="edge">
<title>lib/rules/parameter&#45;pattern.js&#45;&gt;lib/rules/pattern&#45;utl.js</title>
<path fill="none" stroke="#000000" stroke-width="2" stroke-opacity="0.200000" d="M317.89,-304.83C345.56,-304.83 374.71,-304.83 374.71,-304.83 374.71,-304.83 374.71,-287.7 374.71,-287.7"/>
<polygon fill="#000000" fill-opacity="0.200000" stroke="#000000" stroke-width="2" stroke-opacity="0.200000" points="376.81,-287.7 374.71,-281.7 372.61,-287.7 376.81,-287.7"/>
</g>
<!-- node_modules/lodash.get -->
<g id="node6" class="node">
<title>node_modules/lodash.get</title>
<g id="a_node6"><a xlink:href="https://github.com/sverweij/eslint-plugin-budapestian/blob/master/node_modules/lodash.get" xlink:title="lodash.get">
<polygon fill="#c40b0a" fill-opacity="0.101961" stroke="black" points="402.92,-214.5 347.74,-214.5 345.85,-212.61 345.85,-197.5 401.03,-197.5 402.92,-199.39 402.92,-214.5"/>
<polyline fill="none" stroke="black" points="401.03,-212.61 345.85,-212.61 "/>
<polyline fill="none" stroke="black" points="401.03,-212.61 401.03,-197.5 "/>
<polyline fill="none" stroke="black" points="401.03,-212.61 402.92,-214.5 "/>
<text text-anchor="middle" x="374.39" y="-203.3" font-family="Helvetica,sans-Serif" font-size="9.00" fill="#c40b0a">lodash.get</text>
</a>
</g>
</g>
<!-- lib/rules/parameter&#45;pattern.js&#45;&gt;node_modules/lodash.get -->
<g id="edge6" class="edge">
<title>lib/rules/parameter&#45;pattern.js&#45;&gt;node_modules/lodash.get</title>
<path fill="none" stroke="#000000" stroke-dasharray="5,2" stroke-opacity="0.200000" d="M317.87,-299.17C329.04,-299.17 337.71,-299.17 337.71,-299.17 337.71,-299.17 337.71,-208.83 337.71,-208.83 337.71,-208.83 339.49,-208.83 339.49,-208.83"/>
<polygon fill="#000000" fill-opacity="0.200000" stroke="#000000" stroke-opacity="0.200000" points="339.49,-210.93 345.49,-208.83 339.49,-206.73 339.49,-210.93"/>
</g>
<!-- lib/rules/global&#45;constant&#45;pattern.js -->
<g id="node3" class="node">
<title>lib/rules/global&#45;constant&#45;pattern.js</title>
<g id="a_node3"><a xlink:href="https://github.com/sverweij/eslint-plugin-budapestian/blob/master/lib/rules/global-constant-pattern.js" xlink:title="global&#45;constant&#45;pattern.js">
<path fill="#ffffcc" stroke="black" d="M321.99,-281.5C321.99,-281.5 216.21,-281.5 216.21,-281.5 213.37,-281.5 210.54,-278.67 210.54,-275.83 210.54,-275.83 210.54,-270.17 210.54,-270.17 210.54,-267.33 213.37,-264.5 216.21,-264.5 216.21,-264.5 321.99,-264.5 321.99,-264.5 324.82,-264.5 327.65,-267.33 327.65,-270.17 327.65,-270.17 327.65,-275.83 327.65,-275.83 327.65,-278.67 324.82,-281.5 321.99,-281.5"/>
<text text-anchor="middle" x="269.1" y="-270.3" font-family="Helvetica,sans-Serif" font-size="9.00">global&#45;constant&#45;pattern.js</text>
</a>
</g>
</g>
<!-- lib/rules/global&#45;constant&#45;pattern.js&#45;&gt;lib/rules/pattern&#45;utl.js -->
<g id="edge2" class="edge">
<title>lib/rules/global&#45;constant&#45;pattern.js&#45;&gt;lib/rules/pattern&#45;utl.js</title>
<path fill="none" stroke="#000000" stroke-width="2" stroke-opacity="0.200000" d="M327.9,-275.83C327.9,-275.83 335.68,-275.83 335.68,-275.83"/>
<polygon fill="#000000" fill-opacity="0.200000" stroke="#000000" stroke-width="2" stroke-opacity="0.200000" points="335.68,-277.93 341.68,-275.83 335.68,-273.73 335.68,-277.93"/>
</g>
<!-- node_modules/decamelize -->
<g id="node5" class="node">
<title>node_modules/decamelize</title>
<g id="a_node5"><a xlink:href="https://github.com/sverweij/eslint-plugin-budapestian/blob/master/node_modules/decamelize" xlink:title="decamelize">
<polygon fill="#c40b0a" fill-opacity="0.101961" stroke="black" points="404.91,-185.5 345.75,-185.5 343.86,-183.61 343.86,-168.5 403.02,-168.5 404.91,-170.39 404.91,-185.5"/>
<polyline fill="none" stroke="black" points="403.02,-183.61 343.86,-183.61 "/>
<polyline fill="none" stroke="black" points="403.02,-183.61 403.02,-168.5 "/>
<polyline fill="none" stroke="black" points="403.02,-183.61 404.91,-185.5 "/>
<text text-anchor="middle" x="374.39" y="-174.3" font-family="Helvetica,sans-Serif" font-size="9.00" fill="#c40b0a">decamelize</text>
</a>
</g>
</g>
<!-- lib/rules/global&#45;constant&#45;pattern.js&#45;&gt;node_modules/decamelize -->
<g id="edge3" class="edge">
<title>lib/rules/global&#45;constant&#45;pattern.js&#45;&gt;node_modules/decamelize</title>
<path fill="none" stroke="#000000" stroke-dasharray="5,2" stroke-opacity="0.200000" d="M249.71,-264.48C249.71,-240.99 249.71,-177 249.71,-177 249.71,-177 337.57,-177 337.57,-177"/>
<polygon fill="#000000" fill-opacity="0.200000" stroke="#000000" stroke-opacity="0.200000" points="337.57,-179.1 343.57,-177 337.57,-174.9 337.57,-179.1"/>
</g>
<!-- lib/rules/global&#45;constant&#45;pattern.js&#45;&gt;node_modules/lodash.get -->
<g id="edge4" class="edge">
<title>lib/rules/global&#45;constant&#45;pattern.js&#45;&gt;node_modules/lodash.get</title>
<path fill="none" stroke="#000000" stroke-dasharray="5,2" stroke-opacity="0.200000" d="M288.71,-264.44C288.71,-245.79 288.71,-203.17 288.71,-203.17 288.71,-203.17 339.38,-203.17 339.38,-203.17"/>
<polygon fill="#000000" fill-opacity="0.200000" stroke="#000000" stroke-opacity="0.200000" points="339.38,-205.27 345.38,-203.17 339.38,-201.07 339.38,-205.27"/>
</g>
<!-- lib/utl/node&#45;version&#45;is&#45;recent&#45;enough.js -->
<g id="node7" class="node">
<title>lib/utl/node&#45;version&#45;is&#45;recent&#45;enough.js</title>
<g id="a_node7"><a xlink:href="https://github.com/sverweij/eslint-plugin-budapestian/blob/master/lib/utl/node-version-is-recent-enough.js" xlink:title="node&#45;version&#45;is&#45;recent&#45;enough.js">
<path fill="#ffffcc" stroke="black" d="M572.83,-281.5C572.83,-281.5 437.03,-281.5 437.03,-281.5 434.2,-281.5 431.36,-278.67 431.36,-275.83 431.36,-275.83 431.36,-270.17 431.36,-270.17 431.36,-267.33 434.2,-264.5 437.03,-264.5 437.03,-264.5 572.83,-264.5 572.83,-264.5 575.67,-264.5 578.5,-267.33 578.5,-270.17 578.5,-270.17 578.5,-275.83 578.5,-275.83 578.5,-278.67 575.67,-281.5 572.83,-281.5"/>
<text text-anchor="middle" x="504.93" y="-270.3" font-family="Helvetica,sans-Serif" font-size="9.00">node&#45;version&#45;is&#45;recent&#45;enough.js</text>
</a>
</g>
</g>
<!-- lib/rules/pattern&#45;utl.js&#45;&gt;lib/utl/node&#45;version&#45;is&#45;recent&#45;enough.js -->
<g id="edge7" class="edge">
<title>lib/rules/pattern&#45;utl.js&#45;&gt;lib/utl/node&#45;version&#45;is&#45;recent&#45;enough.js</title>
<path fill="none" stroke="#000000" stroke-width="2" stroke-opacity="0.200000" d="M406.99,-273C406.99,-273 425.15,-273 425.15,-273"/>
<polygon fill="#000000" fill-opacity="0.200000" stroke="#000000" stroke-width="2" stroke-opacity="0.200000" points="425.15,-275.1 431.15,-273 425.15,-270.9 425.15,-275.1"/>
</g>
<!-- node_modules/chai -->
<g id="node8" class="node">
<title>node_modules/chai</title>
<g id="a_node8"><a xlink:href="https://github.com/sverweij/eslint-plugin-budapestian/blob/master/node_modules/chai" xlink:title="chai">
<polygon fill="#c40b0a" fill-opacity="0.101961" stroke="black" points="401.39,-127.5 349.27,-127.5 347.39,-125.61 347.39,-110.5 399.5,-110.5 401.39,-112.39 401.39,-127.5"/>
<polyline fill="none" stroke="black" points="399.5,-125.61 347.39,-125.61 "/>
<polyline fill="none" stroke="black" points="399.5,-125.61 399.5,-110.5 "/>
<polyline fill="none" stroke="black" points="399.5,-125.61 401.39,-127.5 "/>
<text text-anchor="middle" x="374.39" y="-116.3" font-family="Helvetica,sans-Serif" font-size="9.00" fill="#c40b0a">chai</text>
</a>
</g>
</g>
<!-- node_modules/eslint -->
<g id="node9" class="node">
<title>node_modules/eslint</title>
<g id="a_node9"><a xlink:href="https://github.com/sverweij/eslint-plugin-budapestian/blob/master/node_modules/eslint" xlink:title="eslint">
<polygon fill="#c40b0a" fill-opacity="0.101961" stroke="black" points="401.39,-156.5 349.27,-156.5 347.39,-154.61 347.39,-139.5 399.5,-139.5 401.39,-141.39 401.39,-156.5"/>
<polyline fill="none" stroke="black" points="399.5,-154.61 347.39,-154.61 "/>
<polyline fill="none" stroke="black" points="399.5,-154.61 399.5,-139.5 "/>
<polyline fill="none" stroke="black" points="399.5,-154.61 401.39,-156.5 "/>
<text text-anchor="middle" x="374.39" y="-145.3" font-family="Helvetica,sans-Serif" font-size="9.00" fill="#c40b0a">eslint</text>
</a>
</g>
</g>
<!-- test/lib/index.spec.js -->
<g id="node10" class="node">
<title>test/lib/index.spec.js</title>
<g id="a_node10"><a xlink:href="https://github.com/sverweij/eslint-plugin-budapestian/blob/master/test/lib/index.spec.js" xlink:title="index.spec.js">
<path fill="#ffffcc" stroke="black" d="M129.64,-41.5C129.64,-41.5 72.92,-41.5 72.92,-41.5 70.09,-41.5 67.26,-38.67 67.26,-35.83 67.26,-35.83 67.26,-30.17 67.26,-30.17 67.26,-27.33 70.09,-24.5 72.92,-24.5 72.92,-24.5 129.64,-24.5 129.64,-24.5 132.48,-24.5 135.31,-27.33 135.31,-30.17 135.31,-30.17 135.31,-35.83 135.31,-35.83 135.31,-38.67 132.48,-41.5 129.64,-41.5"/>
<text text-anchor="middle" x="101.28" y="-30.3" font-family="Helvetica,sans-Serif" font-size="9.00">index.spec.js</text>
</a>
</g>
</g>
<!-- test/lib/index.spec.js&#45;&gt;lib/index.js -->
<g id="edge8" class="edge">
<title>test/lib/index.spec.js&#45;&gt;lib/index.js</title>
<path fill="none" stroke="#000000" stroke-width="2" stroke-opacity="0.200000" d="M135.35,-35.83C160.62,-35.83 190.71,-35.83 190.71,-35.83 190.71,-35.83 190.71,-278 190.71,-278 190.71,-278 134.6,-278 134.6,-278"/>
<polygon fill="#000000" fill-opacity="0.200000" stroke="#000000" stroke-width="2" stroke-opacity="0.200000" points="134.6,-275.9 128.6,-278 134.6,-280.1 134.6,-275.9"/>
</g>
<!-- test/lib/index.spec.js&#45;&gt;node_modules/chai -->
<g id="edge9" class="edge">
<title>test/lib/index.spec.js&#45;&gt;node_modules/chai</title>
<path fill="none" stroke="#000000" stroke-dasharray="5,2" stroke-opacity="0.200000" d="M135.35,-30.17C210.47,-30.17 383.71,-30.17 383.71,-30.17 383.71,-30.17 383.71,-104.48 383.71,-104.48"/>
<polygon fill="#000000" fill-opacity="0.200000" stroke="#000000" stroke-opacity="0.200000" points="381.61,-104.48 383.71,-110.48 385.81,-104.48 381.61,-104.48"/>
</g>
<!-- test/lib/rules/global&#45;constant&#45;pattern.spec.js -->
<g id="node11" class="node">
<title>test/lib/rules/global&#45;constant&#45;pattern.spec.js</title>
<g id="a_node11"><a xlink:href="https://github.com/sverweij/eslint-plugin-budapestian/blob/master/test/lib/rules/global-constant-pattern.spec.js" xlink:title="global&#45;constant&#45;pattern.spec.js">
<path fill="#ffffcc" stroke="black" d="M164.69,-104.5C164.69,-104.5 37.88,-104.5 37.88,-104.5 35.05,-104.5 32.22,-101.67 32.22,-98.83 32.22,-98.83 32.22,-93.17 32.22,-93.17 32.22,-90.33 35.05,-87.5 37.88,-87.5 37.88,-87.5 164.69,-87.5 164.69,-87.5 167.52,-87.5 170.35,-90.33 170.35,-93.17 170.35,-93.17 170.35,-98.83 170.35,-98.83 170.35,-101.67 167.52,-104.5 164.69,-104.5"/>
<text text-anchor="middle" x="101.28" y="-93.3" font-family="Helvetica,sans-Serif" font-size="9.00">global&#45;constant&#45;pattern.spec.js</text>
</a>
</g>
</g>
<!-- test/lib/rules/global&#45;constant&#45;pattern.spec.js&#45;&gt;lib/rules/global&#45;constant&#45;pattern.js -->
<g id="edge10" class="edge">
<title>test/lib/rules/global&#45;constant&#45;pattern.spec.js&#45;&gt;lib/rules/global&#45;constant&#45;pattern.js</title>
<path fill="none" stroke="#000000" stroke-width="2" stroke-opacity="0.200000" d="M164.71,-104.84C164.71,-140.2 164.71,-269.5 164.71,-269.5 164.71,-269.5 204.5,-269.5 204.5,-269.5"/>
<polygon fill="#000000" fill-opacity="0.200000" stroke="#000000" stroke-width="2" stroke-opacity="0.200000" points="204.5,-271.6 210.5,-269.5 204.5,-267.4 204.5,-271.6"/>
</g>
<!-- test/lib/rules/global&#45;constant&#45;pattern.spec.js&#45;&gt;lib/utl/node&#45;version&#45;is&#45;recent&#45;enough.js -->
<g id="edge11" class="edge">
<title>test/lib/rules/global&#45;constant&#45;pattern.spec.js&#45;&gt;lib/utl/node&#45;version&#45;is&#45;recent&#45;enough.js</title>
<path fill="none" stroke="#000000" stroke-width="2" stroke-opacity="0.200000" d="M170.81,-96C286.44,-96 505.71,-96 505.71,-96 505.71,-96 505.71,-258.46 505.71,-258.46"/>
<polygon fill="#000000" fill-opacity="0.200000" stroke="#000000" stroke-width="2" stroke-opacity="0.200000" points="503.61,-258.46 505.71,-264.46 507.81,-258.46 503.61,-258.46"/>
</g>
<!-- test/lib/rules/global&#45;constant&#45;pattern.spec.js&#45;&gt;node_modules/eslint -->
<g id="edge12" class="edge">
<title>test/lib/rules/global&#45;constant&#45;pattern.spec.js&#45;&gt;node_modules/eslint</title>
<path fill="none" stroke="#000000" stroke-dasharray="5,2" stroke-opacity="0.200000" d="M167.71,-104.56C167.71,-118.65 167.71,-145.17 167.71,-145.17 167.71,-145.17 341.37,-145.17 341.37,-145.17"/>
<polygon fill="#000000" fill-opacity="0.200000" stroke="#000000" stroke-opacity="0.200000" points="341.37,-147.27 347.37,-145.17 341.37,-143.07 341.37,-147.27"/>
</g>
<!-- test/lib/rules/parameter&#45;pattern.spec.js -->
<g id="node12" class="node">
<title>test/lib/rules/parameter&#45;pattern.spec.js</title>
<g id="a_node12"><a xlink:href="https://github.com/sverweij/eslint-plugin-budapestian/blob/master/test/lib/rules/parameter-pattern.spec.js" xlink:title="parameter&#45;pattern.spec.js">
<path fill="#ffffcc" stroke="black" d="M154.66,-133.5C154.66,-133.5 47.9,-133.5 47.9,-133.5 45.07,-133.5 42.24,-130.67 42.24,-127.83 42.24,-127.83 42.24,-122.17 42.24,-122.17 42.24,-119.33 45.07,-116.5 47.9,-116.5 47.9,-116.5 154.66,-116.5 154.66,-116.5 157.5,-116.5 160.33,-119.33 160.33,-122.17 160.33,-122.17 160.33,-127.83 160.33,-127.83 160.33,-130.67 157.5,-133.5 154.66,-133.5"/>
<text text-anchor="middle" x="101.28" y="-122.3" font-family="Helvetica,sans-Serif" font-size="9.00">parameter&#45;pattern.spec.js</text>
</a>
</g>
</g>
<!-- test/lib/rules/parameter&#45;pattern.spec.js&#45;&gt;lib/rules/parameter&#45;pattern.js -->
<g id="edge13" class="edge">
<title>test/lib/rules/parameter&#45;pattern.spec.js&#45;&gt;lib/rules/parameter&#45;pattern.js</title>
<path fill="none" stroke="#000000" stroke-width="2" stroke-opacity="0.200000" d="M136.71,-133.88C136.71,-169.37 136.71,-299.17 136.71,-299.17 136.71,-299.17 214.55,-299.17 214.55,-299.17"/>
<polygon fill="#000000" fill-opacity="0.200000" stroke="#000000" stroke-width="2" stroke-opacity="0.200000" points="214.55,-301.27 220.55,-299.17 214.55,-297.07 214.55,-301.27"/>
</g>
<!-- test/lib/rules/parameter&#45;pattern.spec.js&#45;&gt;lib/utl/node&#45;version&#45;is&#45;recent&#45;enough.js -->
<g id="edge14" class="edge">
<title>test/lib/rules/parameter&#45;pattern.spec.js&#45;&gt;lib/utl/node&#45;version&#45;is&#45;recent&#45;enough.js</title>
<path fill="none" stroke="#000000" stroke-width="2" stroke-opacity="0.200000" d="M144.71,-133.69C144.71,-151.72 144.71,-191.5 144.71,-191.5 144.71,-191.5 468.71,-191.5 468.71,-191.5 468.71,-191.5 468.71,-258.28 468.71,-258.28"/>
<polygon fill="#000000" fill-opacity="0.200000" stroke="#000000" stroke-width="2" stroke-opacity="0.200000" points="466.61,-258.28 468.71,-264.28 470.81,-258.28 466.61,-258.28"/>
</g>
<!-- test/lib/rules/parameter&#45;pattern.spec.js&#45;&gt;node_modules/eslint -->
<g id="edge15" class="edge">
<title>test/lib/rules/parameter&#45;pattern.spec.js&#45;&gt;node_modules/eslint</title>
<path fill="none" stroke="#000000" stroke-dasharray="5,2" stroke-opacity="0.200000" d="M152.71,-133.75C152.71,-141.24 152.71,-150.83 152.71,-150.83 152.71,-150.83 341.2,-150.83 341.2,-150.83"/>
<polygon fill="#000000" fill-opacity="0.200000" stroke="#000000" stroke-opacity="0.200000" points="341.2,-152.93 347.2,-150.83 341.2,-148.73 341.2,-152.93"/>
</g>
<!-- test/lib/rules/pattern&#45;utl.spec.js -->
<g id="node13" class="node">
<title>test/lib/rules/pattern&#45;utl.spec.js</title>
<g id="a_node13"><a xlink:href="https://github.com/sverweij/eslint-plugin-budapestian/blob/master/test/lib/rules/pattern-utl.spec.js" xlink:title="pattern&#45;utl.spec.js">
<path fill="#ffffcc" stroke="black" d="M139.15,-75.5C139.15,-75.5 63.42,-75.5 63.42,-75.5 60.58,-75.5 57.75,-72.67 57.75,-69.83 57.75,-69.83 57.75,-64.17 57.75,-64.17 57.75,-61.33 60.58,-58.5 63.42,-58.5 63.42,-58.5 139.15,-58.5 139.15,-58.5 141.98,-58.5 144.82,-61.33 144.82,-64.17 144.82,-64.17 144.82,-69.83 144.82,-69.83 144.82,-72.67 141.98,-75.5 139.15,-75.5"/>
<text text-anchor="middle" x="101.28" y="-64.3" font-family="Helvetica,sans-Serif" font-size="9.00">pattern&#45;utl.spec.js</text>
</a>
</g>
</g>
<!-- test/lib/rules/pattern&#45;utl.spec.js&#45;&gt;lib/rules/pattern&#45;utl.js -->
<g id="edge16" class="edge">
<title>test/lib/rules/pattern&#45;utl.spec.js&#45;&gt;lib/rules/pattern&#45;utl.js</title>
<path fill="none" stroke="#000000" stroke-width="2" stroke-opacity="0.200000" d="M144.81,-71.25C211.85,-71.25 332.71,-71.25 332.71,-71.25 332.71,-71.25 332.71,-270.17 332.71,-270.17 332.71,-270.17 335.55,-270.17 335.55,-270.17"/>
<polygon fill="#000000" fill-opacity="0.200000" stroke="#000000" stroke-width="2" stroke-opacity="0.200000" points="335.55,-272.27 341.55,-270.17 335.55,-268.07 335.55,-272.27"/>
</g>
<!-- test/lib/rules/pattern&#45;utl.spec.js&#45;&gt;lib/utl/node&#45;version&#45;is&#45;recent&#45;enough.js -->
<g id="edge17" class="edge">
<title>test/lib/rules/pattern&#45;utl.spec.js&#45;&gt;lib/utl/node&#45;version&#45;is&#45;recent&#45;enough.js</title>
<path fill="none" stroke="#000000" stroke-width="2" stroke-opacity="0.200000" d="M144.82,-62.75C256.18,-62.75 542.71,-62.75 542.71,-62.75 542.71,-62.75 542.71,-258.5 542.71,-258.5"/>
<polygon fill="#000000" fill-opacity="0.200000" stroke="#000000" stroke-width="2" stroke-opacity="0.200000" points="540.61,-258.5 542.71,-264.5 544.81,-258.5 540.61,-258.5"/>
</g>
<!-- test/lib/rules/pattern&#45;utl.spec.js&#45;&gt;node_modules/chai -->
<g id="edge18" class="edge">
<title>test/lib/rules/pattern&#45;utl.spec.js&#45;&gt;node_modules/chai</title>
<path fill="none" stroke="#000000" stroke-dasharray="5,2" stroke-opacity="0.200000" d="M144.95,-67C220.06,-67 365.71,-67 365.71,-67 365.71,-67 365.71,-104.41 365.71,-104.41"/>
<polygon fill="#000000" fill-opacity="0.200000" stroke="#000000" stroke-opacity="0.200000" points="363.61,-104.41 365.71,-110.41 367.81,-104.41 363.61,-104.41"/>
</g>
</g>
</svg>
